<svg width="72" height="49" viewBox="0 0 72 49" fill="none" xmlns="http://www.w3.org/2000/svg">
<path d="M66.2078 48.4572C62.8544 48.4572 60.8658 46.7411 60.7135 44.2696H63.9197C63.9197 45.0935 64.3762 46.1901 66.36 46.2583C67.7348 46.2583 68.4956 45.4346 68.4956 44.8153C68.3434 43.8549 67.1208 43.7868 65.9033 43.577C64.5284 43.3776 63.4631 43.0994 62.6971 42.7583C61.6318 42.2074 61.0178 41.0372 61.0178 39.8041C61.0178 37.6052 62.8544 35.889 66.0555 35.889C69.1097 35.889 71.0933 37.4689 71.24 39.8722H68.1914C68.1914 39.2579 68.0391 38.2244 66.2075 38.2244C64.985 38.2244 64.2242 38.429 64.0719 39.321C64.0719 40.5596 66.6643 40.4913 68.6479 40.9688C70.4792 41.4516 71.7018 42.6166 71.7018 44.2696C71.7018 47.2922 69.2617 48.4572 66.2078 48.4572ZM7.78125 28.1779L18.308 22.0643L23.9543 31.7516H9.76484" fill="black"/>
<path d="M29.9199 48.0927V35.8658V48.0927Z" fill="black"/>
<path d="M29.9199 48.0927V35.8658" stroke="black" stroke-width="3.08034"/>
<path d="M2.89687 42.1601C2.89687 44.0806 4.57596 45.6602 6.40204 45.6602C8.3909 45.6602 9.91271 44.0806 9.91271 42.1601C9.91271 40.3077 8.3909 38.6599 6.40204 38.6599C4.57596 38.6599 2.89687 40.3077 2.89687 42.1601ZM6.25003 48.4782C2.89664 48.4782 0 45.6602 0 42.1601C0 38.6599 2.89687 35.9103 6.25003 35.9103C7.62485 35.9103 8.84742 36.2566 9.91271 37.0069V36.0465H12.9669V48.2H9.91295V47.4445C8.99991 48.1319 7.62485 48.4782 6.25003 48.4782ZM46.9939 31.7488L32.3479 6.20346L42.8745 0.0217896L61.1833 31.7488M16.934 42.1601C16.934 44.0806 18.4614 45.6602 20.4447 45.6602C22.2708 45.6602 23.9554 44.0806 23.9554 42.1601C23.9554 40.3077 22.2708 38.6599 20.4447 38.6599C18.4611 38.6599 16.934 40.3077 16.934 42.1601ZM20.2925 48.4782C16.7818 48.4782 14.0374 45.6602 14.0374 42.1601C14.0374 38.6599 16.7818 35.9103 20.2925 35.9103C21.662 35.9103 22.8848 36.2566 23.9554 37.0069V31.859H27.0043V48.2H23.9551V47.4445C22.8846 48.1319 21.6623 48.4782 20.2925 48.4782ZM20.1421 17.2594L30.8209 11.2194L42.5704 31.7481H31.4299V34.7707H28.3808V31.7481M69.7248 34.8658C68.9587 34.8658 68.198 34.1784 68.198 33.3545C68.198 32.5306 68.9587 31.8432 69.7248 31.8432C70.6378 31.8432 71.2521 32.5308 71.2521 33.3545C71.2521 34.1781 70.6378 34.8658 69.7248 34.8658ZM69.7248 32.0533C68.9587 32.0533 68.5022 32.6671 68.5022 33.3545C68.5022 34.0419 68.9587 34.6612 69.7248 34.6612C70.4858 34.6612 70.9423 34.0421 70.9423 33.3545C70.9423 32.6668 70.4858 32.0533 69.7248 32.0533Z" fill="black"/>
<path d="M70.0397 34.1836L69.7352 33.4962H69.4309V34.1836H69.2V32.5358H69.8874C70.0397 32.5358 70.3439 32.7459 70.3439 33.0187C70.3439 33.2914 70.1917 33.4281 70.0397 33.4962L70.3439 34.1836M69.7352 32.7459H69.4309V33.2916H69.7352C70.0397 33.2916 70.0397 33.2235 70.0397 33.0187C70.0397 32.8772 70.0397 32.7459 69.7352 32.7459ZM49.5739 42.1601C49.5739 44.0806 51.1012 45.6602 53.0846 45.6602C54.9159 45.6602 56.59 44.0806 56.59 42.1601C56.59 40.3077 54.9159 38.6599 53.0846 38.6599C51.101 38.6599 49.5739 40.3077 49.5739 42.1601ZM52.9273 48.4782C49.4219 48.4782 46.6773 45.6602 46.6773 42.1601C46.6773 38.6599 49.4219 35.9103 52.9271 35.9103C54.3021 35.9103 55.5247 36.2566 56.59 37.0069V36.0465H59.4919V48.2H56.5902V47.4445C55.5247 48.1319 54.3024 48.4782 52.9273 48.4782ZM35.5473 42.1601C35.5473 44.0806 37.2264 45.6602 39.0577 45.6602C41.0415 45.6602 42.5684 44.0806 42.5684 42.1601C42.5684 40.3077 41.0413 38.6599 39.0577 38.6599C37.2264 38.6599 35.5473 40.3077 35.5473 42.1601ZM42.5684 31.8589H45.6172V48.2H42.5684V47.4445C41.6501 48.1319 40.4275 48.4782 39.0577 48.4782C35.5473 48.4782 32.6504 45.6602 32.6504 42.1601C32.6504 38.6599 35.5473 35.9103 39.0577 35.9103C40.4273 35.9103 41.6501 36.2566 42.5684 37.0069V31.8589Z" fill="black"/>
</svg>
