<svg width="44" height="48" viewBox="0 0 44 48" fill="none" xmlns="http://www.w3.org/2000/svg">
<path d="M21.8899 48C12.5462 48 7.37793 47.2272 4.01324 45.3154C1.54014 43.9118 0 41.797 0 39.8035V13.3426C0 10.3728 2.16852 6.97632 5.63468 4.49472C8.51336 2.44032 13.6812 0 21.8899 0C36.1793 0 43.7802 7.74912 43.7802 13.3426V39.7824C43.7802 41.7961 42.2397 43.9114 39.7464 45.3148C36.4024 47.2272 31.234 48 21.8899 48Z" fill="#F5EBDC"/>
<path d="M38.7255 43.0141C35.4688 44.8404 29.8815 45.3626 22.153 45.3626C14.4246 45.3626 8.8372 44.8404 5.581 43.0141C3.62576 41.9204 2.63672 40.4293 2.63672 39.36C2.63672 38.7516 2.96266 38.403 3.68836 38.403H40.6169C41.3432 38.403 41.6691 38.7514 41.6691 39.36C41.6696 40.4293 40.68 41.9202 38.7258 43.0141H38.7255ZM40.6171 14.6792H3.68844C2.96218 14.6792 2.6368 14.3066 2.6368 13.6358C2.6368 9.65852 8.66185 2.63733 22.153 2.63733C35.5195 2.63733 41.6697 9.65852 41.6697 13.6358C41.6697 14.3066 41.3438 14.6792 40.6171 14.6792Z" fill="#FF8732"/>
<path d="M10.5028 31.2261C10.3901 31.0478 10.3781 30.9329 10.3781 30.8822C10.3781 30.7419 10.4531 30.6402 10.6032 30.4998C10.954 30.1677 11.8188 29.3391 12.2946 28.587C12.6577 28.0133 12.8078 27.4906 12.8078 27.0576C12.8078 25.9482 11.8187 25.0805 10.7407 25.0805C10.0517 25.0805 9.40045 25.4761 8.96231 26.2028C8.37357 27.1716 7.67175 28.2938 7.22126 28.7404C7.10842 28.8555 7.04591 28.8808 6.95847 28.8808C6.80788 28.8808 6.74537 28.7785 6.74537 28.613V27.3382C6.74537 26.0888 6.0191 25.081 4.70363 25.081C3.3758 25.081 2.66141 26.0883 2.66141 27.3382V35.1928C2.66141 36.4422 3.37525 37.4504 4.70363 37.4504C6.0191 37.4504 6.74537 36.4432 6.74537 35.1928V33.3829C6.74537 33.2294 6.80788 33.115 6.95847 33.115C7.15915 33.115 7.20924 33.3192 7.25949 33.421C7.54752 34.1224 8.38607 35.6138 9.16346 36.494C9.68945 37.0805 10.3408 37.4506 11.0299 37.4506C12.1947 37.4506 13.1723 36.4175 13.1723 35.3079C13.1723 34.6196 12.8837 34.1096 12.3328 33.4979C11.631 32.7186 10.8038 31.6982 10.5028 31.2266V31.2261ZM26.1247 24.3534C28.0912 24.3534 29.3316 23.0783 29.3316 21.2166C29.3316 20.0311 28.6293 19.2148 27.2269 19.2148H26.8265C26.0869 19.2148 25.5106 19.5723 25.5106 20.3755C25.5106 21.0895 26.1246 21.4339 26.5881 21.4339C26.826 21.4339 26.977 21.5104 26.977 21.6891C26.977 21.918 26.7142 22.0715 26.4131 22.0715C25.4733 22.0715 24.8345 21.3953 24.8345 20.1329C24.8345 18.7306 25.7119 18.2211 26.388 18.2211C27.2146 18.2211 27.3526 18.6546 27.9289 18.6546C28.5929 18.6546 29.0441 18.0935 29.0441 17.5071C29.0441 17.0736 28.8558 16.7424 28.5678 16.5125C28.0417 16.117 27.3029 15.8242 26.2007 15.8242C24.2584 15.8242 22.3672 17.1247 22.3672 20.1339C22.3663 23.0144 24.258 24.3534 26.1247 24.3534ZM4.10167 24.2769H5.8686C7.5347 24.2769 8.54908 23.1421 8.54908 21.7266C8.54908 20.5917 7.88493 20.0691 7.7349 19.9415C7.67279 19.8903 7.6102 19.8397 7.6102 19.7885C7.6102 19.7252 7.64747 19.6994 7.71054 19.6229C7.94801 19.3424 8.18603 18.8962 8.18603 18.2455C8.18603 16.7161 7.17117 15.8992 5.5929 15.8992H4.10215C3.11261 15.8992 2.63672 16.4866 2.63672 17.2767V22.8995C2.63672 23.6905 3.11261 24.2769 4.10167 24.2769ZM4.84131 18.093C4.84131 17.9274 4.94173 17.7993 5.15428 17.7993H5.31721C5.85569 17.7993 6.0191 18.1817 6.0191 18.5139C6.0191 18.8197 5.85657 19.2532 5.31721 19.2532H5.15475C4.94165 19.2532 4.84123 19.1261 4.84123 18.96L4.84131 18.093ZM4.84131 21.0769C4.84131 20.9112 4.94173 20.7831 5.15428 20.7831H5.37988C5.98144 20.7831 6.15631 21.1908 6.15631 21.561C6.15631 21.8932 5.98096 22.3647 5.37988 22.3647H5.15483C4.94173 22.3647 4.84131 22.2371 4.84131 22.071V21.0769ZM36.8099 24.3403C37.6115 24.3403 38.0498 23.728 38.0498 22.9633V21.6117C38.0498 21.446 38.1252 21.3696 38.2505 21.3696C38.4005 21.3696 38.4502 21.4587 38.475 21.6117C38.5882 22.2619 38.8887 23.1416 39.2266 23.5882C39.6529 24.1625 40.0532 24.3413 40.4545 24.3413C41.1053 24.3413 41.6697 23.8181 41.6697 23.1674C41.6697 22.7339 41.4943 22.4149 41.2687 22.1221C40.8425 21.5742 40.5799 21.2173 40.4174 20.771C40.3796 20.6687 40.4045 20.5791 40.5178 20.4903C40.9062 20.1844 41.3573 19.5084 41.3573 18.4378C41.3573 16.8183 40.0415 15.9001 38.4503 15.9001H37.0354C36.0458 15.9001 35.57 16.4861 35.57 17.2771V22.9642C35.57 23.7289 36.0082 24.3402 36.8104 24.3402L36.8099 24.3403ZM37.9121 18.3103C37.9121 18.1447 38.0125 18.0161 38.2252 18.0161H38.4005C38.927 18.0161 39.0895 18.3989 39.0895 18.7306C39.0895 19.0496 38.927 19.47 38.4005 19.47H38.2252C38.012 19.47 37.9121 19.3433 37.9121 19.1768V18.3098V18.3103ZM16.2155 25.0801C14.8126 25.0801 14.0481 26.1507 14.0481 27.4897V35.0389C14.0481 36.3784 14.8126 37.449 16.2155 37.449C17.6182 37.449 18.3823 36.378 18.3823 35.0389V27.4897C18.3823 26.1516 17.6188 25.0801 16.2155 25.0801ZM38.4879 29.9894H37.8743C36.7721 29.9894 35.9202 30.512 35.9202 31.6591C35.9202 32.7048 36.8472 33.2021 37.536 33.2021C37.8743 33.2021 38.1123 33.3044 38.1123 33.5718C38.1123 33.903 37.7114 34.1198 37.2857 34.1198C35.8699 34.1198 34.9052 33.1379 34.9052 31.3142C34.9052 29.287 36.2207 28.5476 37.235 28.5476C38.4754 28.5476 38.6756 29.1857 39.5399 29.1857C40.5417 29.1857 41.2183 28.3566 41.2183 27.515C41.2183 26.8906 40.9427 26.4058 40.5045 26.0743C39.74 25.5 38.5882 25.079 36.9592 25.079C34.0407 25.079 31.1968 26.9533 31.1968 31.3142C31.1968 35.4835 34.0398 37.4348 36.8464 37.4348C39.7897 37.4348 41.6563 35.586 41.6563 32.8826C41.6571 31.1749 40.6055 29.9894 38.4879 29.9894ZM33.7528 24.2769C34.4552 24.2769 35.0061 23.8561 35.0061 23.091C35.0061 22.3384 34.4547 21.9176 33.7533 21.9176H32.6258C32.4132 21.9176 32.3127 21.7905 32.3127 21.6244V21.3818C32.3127 21.2162 32.4132 21.0886 32.6263 21.0886H33.4906C34.0922 21.0886 34.5681 20.7189 34.5681 20.0682C34.5681 19.4184 34.0922 19.0483 33.4906 19.0483H32.6259C32.4132 19.0483 32.3129 18.9206 32.3129 18.7546V18.5505C32.3129 18.3849 32.4132 18.2572 32.6264 18.2572H33.7535C34.455 18.2572 35.0063 17.8364 35.0063 17.0717C35.0063 16.3187 34.4549 15.8978 33.7535 15.8978H31.386C30.3971 15.8978 29.9206 16.4843 29.9206 17.2753V22.8982C29.9206 23.6886 30.3966 24.2756 31.386 24.2756H33.7535V24.2771H33.7529M12.232 24.3403C14.2612 24.3403 15.3387 23.1031 15.3387 21.5483V17.2509C15.3387 16.4862 14.9006 15.8734 14.0984 15.8734C13.2966 15.8734 12.8585 16.4862 12.8585 17.2509V21.4076C12.8585 21.713 12.6831 22.07 12.2321 22.07C11.781 22.07 11.6301 21.713 11.6301 21.4076V17.2509C11.6301 16.4862 11.1795 15.8734 10.3773 15.8734C9.57565 15.8734 9.13742 16.4862 9.13742 17.2509V21.5479C9.13798 23.1037 10.203 24.3399 12.2322 24.3399L12.232 24.3403ZM21.026 24.3403C21.6774 24.3403 22.2416 23.8176 22.2416 23.1669C22.2416 22.7334 22.0663 22.4144 21.8408 22.1216C21.4776 21.637 21.1518 21.2162 20.9893 20.7705C20.9516 20.6682 20.9765 20.5786 21.0897 20.4894C21.4782 20.184 21.9292 19.508 21.9292 18.4369C21.9292 16.8174 20.6134 15.8992 19.0223 15.8992H17.606C16.617 15.8992 16.1406 16.4857 16.1406 17.2767V22.9638C16.1406 23.7285 16.5793 24.3413 17.381 24.3413C18.1828 24.3413 18.6214 23.7285 18.6214 22.9638V21.6126C18.6214 21.447 18.6963 21.3701 18.8216 21.3701C18.9721 21.3701 19.0218 21.4592 19.0466 21.6126C19.1595 22.2624 19.4599 23.1421 19.7982 23.5892C20.2243 24.162 20.6247 24.3403 21.026 24.3403ZM18.9715 19.4695H18.7956C18.5825 19.4695 18.4827 19.3424 18.4827 19.1763V18.3098C18.4827 18.1442 18.583 18.0161 18.7956 18.0161H18.971C19.4975 18.0161 19.66 18.3989 19.66 18.7306C19.66 19.0487 19.4975 19.4695 18.971 19.4695H18.9715ZM28.2285 25.0801C26.9385 25.0801 26.237 26.0616 26.237 27.2988V30.0527C26.237 30.2816 26.1615 30.3844 26.0239 30.3844C25.9235 30.3844 25.8485 30.3211 25.7611 30.1423L24.0199 26.7002C23.3558 25.3865 22.6668 25.0807 21.8779 25.0807C20.5625 25.0807 19.8358 26.0875 19.8358 27.3505V35.2309C19.8358 36.468 20.5372 37.4496 21.8273 37.4496C23.1179 37.4496 23.8188 36.4676 23.8188 35.2309V32.4769C23.8188 32.248 23.8943 32.1447 24.032 32.1447C24.1323 32.1447 24.2078 32.2085 24.2948 32.3873L26.0358 35.8299C26.7 37.1436 27.4139 37.4495 28.1783 37.4495C29.4938 37.4495 30.2205 36.4421 30.2205 35.1797V27.2993C30.2205 26.0621 29.5189 25.0806 28.2285 25.0806V25.0801Z" fill="#D62300"/>
</svg>
