<svg width="44" height="48" viewBox="0 0 44 48" fill="none" xmlns="http://www.w3.org/2000/svg">
<path fill-rule="evenodd" clip-rule="evenodd" d="M20.8876 47.545C14.7728 44.7007 9.46188 40.0394 5.93236 34.4215C2.41138 28.8198 0.560959 22.3321 0.108238 14.0026C-0.03595 11.3451 -0.03595 8.03036 0.107463 3.8706L0.17258 1.97212L2.04625 1.65817C8.63938 0.558148 15.3085 0 21.8675 0C28.4265 0 35.0948 0.558148 41.6872 1.65817L43.5609 1.97212L43.6268 3.8706C43.771 8.03114 43.771 11.3459 43.626 14.0026C43.1725 22.3321 41.3229 28.8198 37.8019 34.4215C34.2731 40.0394 28.9606 44.7007 22.8466 47.545L21.8675 48L20.8876 47.545Z" fill="black"/>
<path fill-rule="evenodd" clip-rule="evenodd" d="M21.8661 1.36865C15.2539 1.36865 8.39032 1.93127 1.42413 3.12931C1.32013 5.91203 1.20158 10.2133 1.40073 13.8632C1.84424 22.0011 3.64207 28.3174 7.05871 33.7414C10.4651 39.1496 15.7403 43.7998 21.8661 46.5616C27.9919 43.7998 33.2666 39.1496 36.673 33.7414C40.0901 28.3174 41.8873 22.0011 42.3313 13.8632C42.5295 10.2133 42.4115 5.91203 42.3075 3.12931C35.3413 1.93127 28.4783 1.36865 21.8661 1.36865ZM21.8661 2.15263C28.3841 2.15263 35.0024 2.70496 41.5456 3.79506C41.6892 7.92331 41.6892 11.208 41.5465 13.8209C41.1104 21.8201 39.3508 28.0178 36.0079 33.3246C32.6654 38.6309 27.6528 43.0141 21.8661 45.6996C16.0789 43.0141 11.0668 38.6309 7.72429 33.3246C4.38134 28.0178 2.62132 21.8201 2.18573 13.8209C2.04302 11.208 2.04294 7.92331 2.18658 3.79506C8.72977 2.70496 15.3476 2.15263 21.8661 2.15263Z" fill="white"/>
<path fill-rule="evenodd" clip-rule="evenodd" d="M8.1916 5.88664C8.12742 5.88506 8.05905 5.88808 7.98677 5.89552C7.01858 5.99648 6.05179 6.10761 5.08594 6.22951V9.08199C5.25336 9.06059 5.42129 9.04011 5.58871 9.01963V8.13708C6.38714 8.03938 7.18694 7.94907 7.98677 7.86579C8.56507 7.80578 8.88828 7.56441 8.88828 6.96702V6.64413C8.88828 6.13322 8.64088 5.89765 8.1916 5.88664ZM8.13608 6.34021C8.2662 6.32672 8.39678 6.42541 8.39678 6.55615V7.13392C8.39678 7.25815 8.2662 7.37691 8.13608 7.39086C7.28635 7.47787 6.43704 7.57373 5.58871 7.67702V6.62688C6.43704 6.52312 7.28635 6.42768 8.13608 6.34021Z" fill="white"/>
<path fill-rule="evenodd" clip-rule="evenodd" d="M20.9406 5.17926C21.8458 5.17274 22.751 5.176 23.6558 5.1881V5.64777C22.6885 5.63521 21.7208 5.63242 20.7531 5.64033C20.6221 5.64172 20.491 5.75478 20.491 5.88552V7.3148C20.491 7.44553 20.6221 7.57488 20.7531 7.57348C21.621 7.56603 22.4885 7.56743 23.3564 7.57721V6.80627C22.8527 6.80069 22.349 6.7979 21.8458 6.79836V6.33822C22.5137 6.33822 23.1815 6.34333 23.8493 6.35311V8.0434C22.911 8.02944 21.9727 8.02572 21.0343 8.0313C20.3474 8.03596 19.998 7.91778 19.998 7.25246V6.00928C19.998 5.38816 20.31 5.18391 20.9406 5.17926Z" fill="white"/>
<path fill-rule="evenodd" clip-rule="evenodd" d="M30.7435 5.47749C30.2024 5.47902 29.959 5.64976 29.959 6.20953V7.4833C29.959 8.16118 30.3082 8.29348 30.9937 8.33954C31.6234 8.38234 32.252 8.42969 32.8812 8.48133C33.5597 8.53716 33.9147 8.42173 33.9147 7.78107V6.5073C33.9147 5.85454 33.5038 5.68003 32.8812 5.62885C32.252 5.57674 31.6234 5.52981 30.9937 5.48654C30.9041 5.48049 30.8208 5.47727 30.7435 5.47749ZM30.7136 5.92799C31.5302 5.98149 32.3458 6.04295 33.1615 6.11181C33.2921 6.12298 33.4227 6.24618 33.4227 6.39506V7.80635C33.4227 7.93662 33.2921 8.05618 33.1615 8.04501C32.3458 7.97615 31.5302 7.91465 30.7136 7.86068C30.5639 7.85044 30.4513 7.71329 30.4513 7.58255V6.17177C30.4513 6.02243 30.5639 5.91775 30.7136 5.92799Z" fill="white"/>
<path fill-rule="evenodd" clip-rule="evenodd" d="M18.7615 5.21198V7.2754C18.7615 7.92816 18.4178 8.07146 17.7253 8.09286C17.1222 8.11147 16.5192 8.13381 15.9162 8.16079C15.2735 8.18963 14.8809 8.06774 14.8809 7.42149V5.35807L15.3733 5.33295V7.48337C15.3733 7.61411 15.4857 7.72066 15.635 7.71368C16.4255 7.67692 17.2155 7.64715 18.006 7.62435C18.1562 7.62015 18.256 7.50571 18.256 7.37497V5.22454C18.4243 5.21988 18.5927 5.2157 18.7615 5.21198Z" fill="white"/>
<path fill-rule="evenodd" clip-rule="evenodd" d="M25.082 5.21448C26.2965 5.24332 27.5104 5.28892 28.7244 5.35126V5.81094C27.6751 5.75744 26.6253 5.71603 25.575 5.68718V6.38926C26.5091 6.41531 27.4428 6.45067 28.376 6.4958V6.95594C27.4428 6.91081 26.5091 6.87499 25.575 6.8494V7.61987C26.6253 7.64871 27.6751 7.69012 28.7244 7.74409V8.20377C27.5104 8.14189 26.2965 8.09629 25.082 8.06698V5.21448Z" fill="white"/>
<path fill-rule="evenodd" clip-rule="evenodd" d="M13.6446 5.4281V5.88778C12.5957 5.95245 11.5473 6.02922 10.4998 6.11808V6.82062C11.4316 6.74106 12.3639 6.67174 13.2967 6.61219V7.07233C12.3639 7.13188 11.4316 7.2012 10.4998 7.2803V8.05123C11.5473 7.9619 12.5957 7.88514 13.6446 7.82093V8.28061C12.4315 8.35505 11.2194 8.44624 10.0078 8.55371V5.70074C11.2194 5.59327 12.4315 5.50254 13.6446 5.4281Z" fill="white"/>
<path fill-rule="evenodd" clip-rule="evenodd" d="M34.8281 5.80298C36.1032 5.92674 37.3773 6.06911 38.6491 6.22916V6.6893C38.0993 6.61997 37.5485 6.55391 36.9972 6.49156V8.88439C36.8298 8.86532 36.6624 8.8467 36.494 8.82809V6.43527C35.9395 6.37432 35.3836 6.31709 34.8281 6.26312V5.80298Z" fill="white"/>
<path fill-rule="evenodd" clip-rule="evenodd" d="M17.9575 11.2617C20.2987 11.0566 23.4668 11.0007 26.4931 11.2292C26.6652 11.2422 26.8326 11.2827 26.9916 11.3497C27.9831 11.7656 29.7423 12.6757 31.6982 13.7918C31.7845 13.8411 31.8657 13.8988 31.9403 13.9644C32.4584 14.4199 33.7713 15.7599 33.7713 15.7599L33.3618 15.6789C33.3044 15.6677 33.2508 15.6454 33.2023 15.6128C32.374 15.0578 31.1647 14.3352 30.1513 13.8258C30.031 13.7658 29.9009 13.7272 29.767 13.7132C29.274 13.6606 28.6076 13.6146 28.1715 13.5969C27.9565 13.588 27.8101 13.5522 27.5998 13.4457C27.1978 13.2424 26.224 12.8018 25.739 12.617C25.5314 12.5379 25.4256 12.5193 25.2222 12.5226C24.3888 12.5347 22.4902 12.5952 21.5206 12.6552C21.487 12.6571 21.4549 12.6556 21.4222 12.6505L20.96 12.5784C22.2705 12.3532 25.51 12.0652 26.8508 11.995L26.3051 11.8131C26.1997 11.7782 26.0901 11.7596 25.9787 11.7568C25.6876 11.7498 25.0403 11.7369 24.2001 11.7358L23.9131 11.7359C22.6404 11.7384 21.003 11.7695 19.4928 11.8829C19.3609 11.8926 19.2321 11.9243 19.1109 11.9778C18.5009 12.2451 17.0133 13.0496 15.5215 13.8761L15.1903 14.0599C14.8046 14.2742 14.4229 14.4875 14.0605 14.6907C14.0605 14.6907 14.2466 14.452 14.2825 14.4055C14.3143 14.365 14.324 14.3576 14.367 14.3297C14.4269 14.2904 14.6316 14.156 14.8379 14.0195L14.9908 13.9182C15.1147 13.836 15.2252 13.762 15.2876 13.7192C15.3184 13.6983 15.3379 13.6834 15.3766 13.6546C15.8258 13.3168 16.5346 12.7212 16.9572 12.3523C17.0528 12.269 17.1339 12.1722 17.2006 12.0643C17.3373 11.8438 17.4865 11.6046 17.5784 11.472C17.6567 11.3571 17.7906 11.2766 17.9575 11.2617Z" fill="white"/>
<path fill-rule="evenodd" clip-rule="evenodd" d="M19.092 13.5186C19.1457 13.5181 19.1792 13.5758 19.1527 13.6218L18.0212 15.5652C17.9583 15.6797 17.8529 15.7648 17.7279 15.8025L15.6064 16.4646C15.3601 16.539 15.1521 16.579 14.8956 16.5986C14.4251 16.6339 13.0273 16.6777 13.0273 16.6777L13.0581 16.6116C13.0726 16.5804 13.0982 16.5558 13.1299 16.5423L13.7913 16.2622C13.8407 16.2413 13.8841 16.2092 13.9172 16.1677L14.9385 14.9134C14.9931 14.8464 15.0645 14.7822 15.1405 14.7422C15.8153 14.3881 17.0153 13.8563 17.8557 13.5763C17.935 13.5497 18.0418 13.533 18.1252 13.5321L19.092 13.5186Z" fill="white"/>
<path fill-rule="evenodd" clip-rule="evenodd" d="M13.8097 17.0103C13.854 17.0065 13.896 17.0312 13.9132 17.0717C13.9715 17.2071 13.9557 17.3583 13.8992 17.4876C13.8773 17.5402 13.8097 17.5914 13.7542 17.6035L13.2901 17.7063C13.2622 17.7123 13.2365 17.69 13.2384 17.6616L13.2817 17.1182C13.285 17.0814 13.3139 17.0521 13.3508 17.0493L13.8097 17.0103Z" fill="white"/>
<path fill-rule="evenodd" clip-rule="evenodd" d="M24.1009 14.7155C24.1704 14.7034 24.2418 14.7132 24.3056 14.7434L24.7902 14.9746C24.8378 14.9974 24.8728 15.0407 24.8854 15.0928C24.9511 15.3692 25.0318 15.7353 25.0859 16.0466C25.1078 16.1759 25.0836 16.3081 25.0178 16.4221C24.8173 16.7696 24.4055 17.3949 24.1751 17.7308C24.1238 17.8062 24.1177 17.8974 24.1336 17.9872C24.238 18.5632 24.6736 20.5745 24.6736 20.5745L24.3994 20.3256C24.3448 20.2753 24.3089 20.2223 24.2856 20.153C24.0907 19.584 23.726 18.3952 23.5581 17.8169C23.531 17.7215 23.5515 17.6196 23.6145 17.5438C23.9004 17.1977 24.3168 16.644 24.5603 16.2932C24.6284 16.1946 24.6508 16.0857 24.6107 16.0043C24.5547 15.8898 24.4605 15.7158 24.37 15.5581C24.3458 15.5143 24.3052 15.4818 24.2571 15.466L23.9284 15.3608C23.871 15.3427 23.8094 15.3436 23.7525 15.3641C23.0362 15.6232 22.0727 15.9968 21.4832 16.2406C21.3969 16.2764 21.3614 16.2792 21.257 16.2634C21.0863 16.2383 20.5891 16.1494 20.3452 16.1038C20.3014 16.0955 20.2795 16.0461 20.3019 16.0075L20.591 15.5078C20.6302 15.4404 20.695 15.3925 20.7715 15.3752C21.7014 15.164 22.9313 14.9211 24.1009 14.7155Z" fill="white"/>
<path fill-rule="evenodd" clip-rule="evenodd" d="M13.9905 15.2391L13.8002 15.4727C13.7895 15.4829 13.7792 15.4927 13.7685 15.5034C13.6011 15.6267 12.8964 16.165 12.7056 16.3158C12.6515 16.3586 12.6301 16.3958 12.6175 16.4632C12.5746 16.7015 12.5032 17.1541 12.4822 17.4049C12.4762 17.4784 12.4445 17.5147 12.3694 17.545C12.0425 17.6776 11.6549 17.8171 11.3415 17.9423C11.2743 17.9688 11.2557 17.9791 11.216 18.0093C11.1848 18.0335 10.7683 18.4043 10.7683 18.4043C10.7683 18.4043 11.6736 18.1819 12.0056 18.107C12.0849 18.0893 12.1189 18.094 12.1922 18.1284C12.2607 18.16 12.375 18.2052 12.4351 18.227C12.5275 18.261 12.5764 18.2596 12.6786 18.2373C13.0526 18.154 13.6817 18.0051 14.0166 17.9181C14.1906 17.873 14.2857 17.826 14.4331 17.7232C14.5935 17.612 14.9997 17.3082 14.9997 17.3082C14.9997 17.3082 14.9923 17.3617 14.9867 17.3914C14.9824 17.417 14.9731 17.4314 14.9563 17.4515C14.8738 17.5506 14.7292 17.712 14.6574 17.786C14.4928 17.9558 14.3944 18.0163 14.1878 18.1023C13.2364 18.4978 11.6106 19.112 10.391 19.533C10.3113 19.5609 10.2768 19.5837 10.2175 19.6442C10.1532 19.7094 10.0674 19.8043 10.0674 19.8043C10.0674 19.8043 11.0617 19.8764 11.3653 19.9113C11.4637 19.9224 11.5341 19.9545 11.6092 20.0192C11.8587 20.2332 12.6846 21.0814 12.9318 21.3759C12.9318 21.3759 10.5836 21.7653 9.4956 22.0347C9.36128 22.0678 9.29413 22.1529 9.26381 22.2604C9.1738 22.5758 8.9616 23.5901 8.9616 23.5901C8.9616 23.5901 8.88605 23.5659 8.78065 23.5054C8.70836 23.464 8.67152 23.4296 8.59224 23.3458C8.3348 23.0746 7.9118 22.5553 7.70846 22.2543C7.64877 22.1655 7.62358 22.0524 7.6982 21.9617C7.9188 21.6909 8.36185 21.1968 8.60623 20.9428C8.63235 20.9153 8.66546 20.8674 8.70044 20.7985C8.78266 20.6356 8.89106 20.223 8.92882 20.074L8.94088 20.0258L8.94247 20.0192C8.94247 20.0192 8.94013 20.0207 8.93593 20.0233L8.89129 20.0513C8.8308 20.0893 8.73307 20.1506 8.6911 20.1769C8.62814 20.2169 8.61088 20.2342 8.58477 20.2891C8.54513 20.3719 8.47563 20.5026 8.42293 20.5933C8.40568 20.6231 8.35951 20.6692 8.33479 20.6883C8.02279 20.926 7.67814 21.1814 7.43283 21.3536C7.41604 21.3652 7.39459 21.3601 7.38013 21.3461C7.34888 21.315 7.21783 21.1665 7.19451 21.1316C7.17493 21.1023 7.16604 21.0749 7.16604 21.0395C7.1656 20.9776 7.17166 20.8688 7.17772 20.7878C7.18518 20.692 7.2127 20.6464 7.32976 20.5254C7.46081 20.39 7.60352 20.2477 7.75369 20.1016C8.12166 19.7926 9.05067 19.0408 10.7096 17.8599C10.7408 17.8376 10.7692 17.8116 10.7921 17.7804C10.9665 17.5459 11.4613 16.9057 11.5835 16.7536C11.6008 16.7322 11.6199 16.7121 11.6418 16.6949C11.8372 16.5409 11.9338 16.4744 12.132 16.3497C12.5942 16.0594 13.4891 15.5299 13.9905 15.2391Z" fill="white"/>
<path fill-rule="evenodd" clip-rule="evenodd" d="M10.2409 23.2178L10.0361 24.6271L9.33984 23.812C9.4667 23.5379 9.83746 23.2792 10.2409 23.2178Z" fill="white"/>
<path fill-rule="evenodd" clip-rule="evenodd" d="M14.8252 23.9655C14.4782 24.5349 14.0636 25.1398 13.7502 25.5176C13.7092 25.5669 13.6546 25.605 13.5926 25.6283C13.2498 25.7562 12.6785 25.9489 12.2578 26.0768L14.8252 23.9655Z" fill="white"/>
<path fill-rule="evenodd" clip-rule="evenodd" d="M29.6286 14.8159C29.8123 14.7485 30.0138 14.7531 30.1943 14.8289C31.5943 15.4152 33.9486 16.7942 35.2572 17.7657C35.3836 17.8596 35.4339 17.9243 35.4671 18.076C35.7744 19.4699 35.891 21.6245 35.6974 23.4386C35.6835 23.5688 35.6573 23.647 35.5892 23.7861C34.76 25.4773 33.8268 27.069 32.8447 28.2968L32.8466 28.2767C32.8594 28.146 32.9299 27.4088 32.9337 27.0099C32.9341 26.9648 32.9552 26.9234 32.9911 26.8959C33.1734 26.7545 33.4239 26.5535 33.5656 26.4311C33.6347 26.3716 33.6729 26.3269 33.7088 26.2692C34.109 25.6244 34.8244 24.2742 35.1126 23.4618C35.183 23.2636 35.211 23.0538 35.1937 22.844C35.1014 21.712 34.9232 20.1436 34.6579 19.12C34.6126 18.9456 34.497 18.7981 34.3361 18.7157C34.1071 18.5985 33.658 18.3942 32.6352 17.9853C32.4935 17.9285 32.361 17.8499 32.2444 17.7522C31.5738 17.1901 30.5254 16.3476 29.8729 15.8628C29.6822 15.7209 29.4387 15.6692 29.2065 15.7218C28.7312 15.8293 28.1264 15.9791 27.7859 16.0712C27.6702 16.1024 27.6245 16.1052 27.5051 16.0912C27.443 16.084 27.3626 16.0761 27.2782 16.0685L27.1503 16.0573C27.0016 16.0446 26.8622 16.0339 26.8075 16.0297L26.7832 16.0279C27.8927 15.5082 28.9602 15.0597 29.6286 14.8159Z" fill="white"/>
<path fill-rule="evenodd" clip-rule="evenodd" d="M13.1092 21.9668C13.2192 21.9314 13.3363 21.9272 13.4482 21.9542C13.9529 22.0752 15.0208 22.3362 15.8281 22.5423C15.9415 22.5712 16.0828 22.6768 16.1429 22.7768L16.3188 23.0685C16.3803 23.1709 16.3845 23.2965 16.3299 23.4026C16.1832 23.6863 15.9739 24.0706 15.7526 24.4668L15.5852 24.7648C15.2771 25.3102 14.9702 25.8363 14.7961 26.1132C14.6813 26.296 14.6174 26.377 14.4132 26.4491C13.6189 26.7278 12.6326 27.0609 12.0463 27.2503C11.9265 27.2889 11.8859 27.3615 11.9092 27.4941C11.9512 27.7355 12.0864 28.5553 12.1382 28.7945C12.1573 28.8829 12.2282 28.9531 12.3597 28.928C12.7062 28.8624 13.6287 28.6372 13.6287 28.6372C13.6287 28.6372 13.3568 28.888 13.1941 29.0359C13.1642 29.0639 13.1297 29.0843 13.091 29.0969C12.8396 29.1806 12.2259 29.3523 12.0347 29.3942C11.8854 29.4263 11.7903 29.3677 11.752 29.1992C11.752 29.1992 11.4904 28.0882 11.3957 27.7104C11.3808 27.6527 11.3659 27.6029 11.3477 27.5462C11.2768 27.3275 11.1066 26.8976 11.0105 26.6724C10.9993 26.6464 10.9937 26.6185 10.9942 26.5896C10.997 26.3323 11.0446 25.7582 11.0446 25.7582C11.0446 25.7582 11.6093 26.2863 11.8826 26.477C11.9442 26.5203 11.981 26.5291 12.0566 26.51C12.432 26.4137 13.2953 26.129 13.7691 25.9522C13.8773 25.9117 13.972 25.8438 14.0457 25.7549C14.5358 25.1645 15.1505 24.2461 15.5054 23.5533C15.5544 23.4579 15.5637 23.3486 15.5329 23.2463L15.4564 22.995C15.434 22.9215 15.3562 22.8387 15.2843 22.8112C14.4491 22.4944 13.7906 22.259 13.0168 21.9961L13.1092 21.9668Z" fill="white"/>
<path fill-rule="evenodd" clip-rule="evenodd" d="M28.0759 19.1249L28.3646 19.2501C28.4499 19.2868 28.5278 19.3408 28.5922 19.4078C30.362 21.2502 31.7775 23.1606 32.061 23.664C32.1156 23.7608 32.1529 23.8576 32.1664 23.9683C32.4845 26.6552 32.2112 29.5016 31.5615 31.9777C31.5028 32.2011 31.437 32.3155 31.2216 32.477C30.528 32.9973 29.4926 33.827 28.463 34.673L28.1384 34.9403C26.8982 35.9646 25.7198 36.9674 25.2198 37.4287C25.0944 37.545 24.9848 37.6762 24.8952 37.8219C24.6608 38.202 24.3027 38.8561 24.127 39.1808L24.0779 39.2717C24.0426 39.3371 24.0222 39.3754 24.0222 39.3754C23.789 38.8678 23.2806 37.6292 23.1062 37.1286C23.0493 36.9653 23.0391 36.8797 23.0992 36.661C23.3837 35.623 24.7283 32.6054 24.9899 32.0596L24.9903 32.2829C24.9903 32.3155 24.9852 32.3476 24.9749 32.3783C24.857 32.7352 24.1341 35.1136 23.9872 36.1451C23.9545 36.3744 23.9573 36.4363 23.9872 36.6615C24.0515 37.143 24.3402 38.0261 24.3402 38.0261C24.3402 38.0261 24.5114 37.6697 24.6709 37.4287C24.7492 37.3105 24.7963 37.2538 24.9241 37.1272C25.5705 36.4895 26.6733 35.5039 27.8219 34.5127L28.2285 34.1632C29.1108 33.4078 29.9916 32.6728 30.6875 32.1113C30.8685 31.9652 30.9361 31.8675 30.9762 31.5902C31.1758 30.2242 31.2336 27.7723 31.1133 25.988C31.0905 25.6511 30.9809 25.3255 30.7906 25.0458C30.3541 24.4024 29.8322 23.7934 29.0408 23.0113C28.9279 22.8991 28.851 22.7558 28.822 22.5995C28.5912 21.3712 28.0759 19.1249 28.0759 19.1249Z" fill="white"/>
<path fill-rule="evenodd" clip-rule="evenodd" d="M18.7569 20.0192C18.7569 20.0192 18.9178 20.5388 19.0729 21.1031L19.1271 21.3033C19.2251 21.671 19.3125 22.034 19.3441 22.2636C19.3744 22.4846 19.3693 22.5441 19.2905 22.7558C19.0993 23.2629 18.7476 24.0785 18.3725 24.9124L18.2106 25.27C17.7503 26.2817 17.2843 27.259 17.058 27.682C16.9465 27.8904 16.8416 28.0263 16.6317 28.2389C16.1527 28.7251 15.2358 29.644 14.6683 30.1581C14.4621 30.3451 14.4066 30.5047 14.3647 30.7467C14.297 31.1351 14.2299 31.7981 14.2112 32.1406C14.1949 32.4416 14.2439 32.5826 14.4122 32.8808C15.4126 34.6604 18.7523 38.7547 19.7037 39.6145C19.7727 39.6768 19.8231 39.7187 19.9686 39.815C20.1085 39.9081 20.5646 40.203 20.5646 40.203C20.5828 40.2156 20.5982 40.2324 20.6098 40.2514L20.7749 40.5413C20.7749 40.5413 20.7595 40.5337 20.7317 40.5199L20.6604 40.4845C20.603 40.4561 20.5272 40.4184 20.4401 40.375L20.2281 40.2692C19.9031 40.1065 19.5156 39.9109 19.3119 39.8015C19.228 39.7564 19.1492 39.7034 19.0759 39.6424C17.9618 38.7193 14.5475 34.7344 13.5434 33.0706C13.2929 32.6551 13.2673 32.5207 13.3009 32.1275C13.3638 31.3957 13.4613 30.4754 13.5466 30.072C13.5984 29.8287 13.652 29.6859 13.8391 29.4709C14.4675 28.7494 15.2341 27.7969 15.981 26.8195L16.2436 26.4739C17.3756 24.9745 18.4184 23.4738 18.8078 22.7093C18.8969 22.5353 18.9043 22.4748 18.9062 22.3106C18.9113 21.8341 18.7588 20.9064 18.7187 20.6719C18.7126 20.6352 18.7108 20.5979 18.714 20.5607L18.7569 20.0192Z" fill="white"/>
<path fill-rule="evenodd" clip-rule="evenodd" d="M21.8097 25.9163C21.8097 25.9163 21.9384 26.6779 21.9776 26.8989C21.9995 27.024 22.0042 27.0575 21.9725 27.1804C21.8696 27.5753 21.3944 29.6572 21.014 31.7882L20.9548 32.1249C20.7994 33.0224 20.6651 33.9135 20.5869 34.6757C20.5426 35.1089 20.557 35.2126 20.6718 35.5969C20.9968 36.6828 22.1991 39.52 22.43 40.0373C22.4556 40.0946 22.471 40.1546 22.4785 40.2165L22.5652 40.8855C22.18 40.3053 20.0869 36.4683 19.2647 34.3435C19.1677 34.0932 19.1491 33.9699 19.2563 33.5098C19.8281 31.0685 21.3751 26.9203 21.8097 25.9163Z" fill="white"/>
</svg>
