<svg width="162" height="33" viewBox="0 0 162 33" fill="none" xmlns="http://www.w3.org/2000/svg">
<path fill-rule="evenodd" clip-rule="evenodd" d="M158.2 0.728554C158.837 0.728554 159.461 0.892992 160.07 1.22363C160.67 1.54779 161.164 2.04174 161.491 2.64501C161.829 3.25993 162 3.90284 162 4.57198C162 5.23325 161.833 5.87003 161.498 6.4797C161.174 7.07998 160.686 7.57384 160.092 7.90283C159.515 8.23431 158.863 8.4091 158.2 8.41016C157.536 8.40894 156.884 8.23416 156.307 7.90283C155.712 7.57398 155.223 7.08016 154.898 6.4797C154.569 5.89863 154.395 5.24125 154.394 4.57198C154.394 3.90284 154.564 3.25993 154.905 2.64501C155.233 2.04134 155.728 1.54739 156.33 1.22363C156.902 0.902983 157.545 0.732748 158.2 0.728554ZM158.2 1.36446C157.665 1.36446 157.146 1.50353 156.64 1.77994C156.134 2.05634 155.739 2.45259 155.453 2.96516C155.167 3.47948 155.025 4.0148 155.025 4.57198C155.025 5.12392 155.165 5.65398 155.446 6.16131C155.725 6.66864 156.117 7.06488 156.621 7.34828C157.102 7.62506 157.645 7.7715 158.199 7.77338C158.752 7.77131 159.295 7.62488 159.776 7.34828C160.271 7.07362 160.678 6.66178 160.949 6.16131C161.228 5.65398 161.366 5.12392 161.366 4.57198C161.366 4.01392 161.226 3.47861 160.942 2.96516C160.658 2.45259 160.262 2.05634 159.755 1.77994C159.247 1.50353 158.729 1.36446 158.2 1.36446ZM156.532 6.694V2.56192H157.935C158.418 2.56192 158.766 2.59866 158.981 2.67476C159.195 2.75086 159.366 2.88469 159.495 3.0745C159.621 3.26606 159.686 3.46724 159.686 3.68066C159.686 3.98331 159.58 4.24572 159.367 4.46877C159.152 4.69357 158.87 4.81777 158.516 4.84664C158.662 4.90699 158.779 4.97959 158.865 5.06531C159.028 5.22888 159.23 5.50178 159.47 5.88578L159.969 6.694H159.162L158.798 6.04235C158.512 5.53153 158.284 5.21051 158.108 5.08193C157.987 4.98659 157.81 4.93935 157.579 4.93935H157.192V6.694H156.532ZM157.192 4.36905H157.993C158.375 4.36905 158.636 4.30957 158.776 4.19498C158.844 4.14027 158.898 4.07037 158.935 3.99081C158.971 3.91125 158.988 3.82423 158.986 3.73664C158.986 3.61937 158.951 3.50482 158.884 3.40863C158.815 3.31074 158.718 3.23589 158.606 3.19346C158.485 3.14447 158.265 3.12173 157.941 3.12173H157.192V4.36905ZM84.8853 0.475764H85.0117V9.30673H76.1795V0.475764H84.8853ZM46.4462 19.1506L66.8737 20.4303C67.7231 20.4303 68.4176 21.1327 68.4176 21.9899C68.4176 22.8471 67.7231 23.5495 66.8737 23.5495H37.7612V12.0542C38.6556 15.6037 41.7348 18.5068 46.4462 19.1506ZM37.7612 32.4303H67.524C71.8621 32.4303 75.505 29.2682 76.3077 25.1134C77.016 29.2542 80.6017 32.4303 84.8862 32.4303H103.902C108.15 32.4303 111.714 29.3059 112.462 25.214V32.4303H142.951C147.873 32.4303 151.899 28.3629 151.899 23.3894V22.1097C151.899 17.1379 147.873 13.0706 142.951 13.0706L141.278 12.9962C131.792 12.5746 122.335 12.0918 112.861 11.5976C113.599 15.3526 116.736 18.4788 121.648 19.1506L142.3 20.4303C142.709 20.4314 143.101 20.5961 143.391 20.8882C143.68 21.1804 143.844 21.5764 143.845 21.9899C143.844 22.4033 143.68 22.7993 143.391 23.0915C143.101 23.3837 142.709 23.5483 142.3 23.5495H112.607V11.5844L103.776 11.1244V21.3583C103.774 22.0484 103.502 22.7096 103.019 23.1976C102.536 23.6855 101.881 23.9605 101.198 23.9623H87.5904C86.9072 23.9607 86.2525 23.6858 85.7694 23.1978C85.2863 22.7098 85.0142 22.0485 85.0126 21.3583V10.1464L76.1795 9.68635V19.8311C75.1699 15.9938 71.663 13.2271 67.524 13.2271L28.625 10.6581V32.4312L37.7612 32.4303ZM74.7759 9.3111V0.431152H46.4462C42.2638 0.431152 38.7292 3.36752 37.7612 7.30104V0.47489H20.8509L15.0884 9.30673H37.5005L74.7759 9.3111ZM24.8947 10.4395L10.9268 32.4303H0L14.7359 9.84729L24.8947 10.4395ZM151.898 9.3111V0.431152H121.647C116.78 0.431152 112.789 4.41016 112.701 9.30673L151.898 9.3111ZM103.775 9.30673V0.475764H112.606V9.30673H103.775Z" fill="black"/>
</svg>
