<svg width="54" height="156" viewBox="0 0 54 156" fill="none" xmlns="http://www.w3.org/2000/svg">
<path d="M7.51228 148.169C5.90769 151.51 -0.909411 152.981 1.23005 154.05C3.36853 155.12 9.25009 154.05 11.657 153.382C14.0639 152.714 16.8364 152.58 17.3713 152.313C17.9061 152.045 17.1369 147.233 17.1369 147.233L7.51228 148.169Z" fill="#727481"/>
<path d="M23.1268 5.7479C25.3197 5.38225 27.4397 10.6006 24.711 15.6468C23.0966 18.6313 22.9138 22.3472 22.9138 22.3472L17.7363 7.02671L23.1268 5.7479Z" fill="#1E1D25"/>
<path d="M9.23555 5.65759C8.32142 12.5107 10.1497 16.7137 11.3371 16.8965C12.5245 17.0794 14.1699 6.3889 14.1699 6.3889L9.23555 5.65759Z" fill="#1E1D25"/>
<path d="M26.4938 148.838C25.1567 153.116 24.756 153.65 25.6915 154.319C26.6271 154.988 28.6323 155.388 31.8405 154.987C35.0488 154.586 35.7169 153.516 35.7169 153.516C35.7169 153.516 35.8511 148.303 34.9146 147.233C33.98 146.163 26.4938 148.838 26.4938 148.838Z" fill="#727481"/>
<path d="M1.33015 81.5325C1.33015 81.5325 1.02965 86.3453 1.12982 87.0464C1.22998 87.7486 3.83624 90.2546 4.63853 90.9568C5.44083 91.6589 7.64641 92.0596 7.64641 92.0596L7.04445 83.0369L3.03394 78.6257L1.33015 81.5325Z" fill="#ECCBB3"/>
<path d="M0.728239 80.3296L0.427734 83.8383C0.427734 83.8383 4.53842 84.8409 5.84155 84.239C7.14467 83.637 4.93908 80.4288 4.93908 80.4288L0.728239 80.3296Z" fill="white"/>
<path d="M4.76341 29.6001C1.52992 33.1847 0.828764 57.872 0.828764 62.2832C0.828764 66.6944 -0.173863 82.0333 0.0264674 82.6353C0.226798 83.2372 7.24519 83.4376 7.24519 83.4376L4.76341 29.6001Z" fill="#1E1D25"/>
<path d="M5.84065 64.0881C5.84065 64.0881 5.64031 91.3574 6.2413 110.005C6.70712 124.446 6.44164 149.506 6.44164 149.506C6.44164 149.506 9.44951 150.709 11.8554 150.308C14.2613 149.908 17.8712 149.506 17.8712 149.506C17.8712 149.506 21.0794 118.026 21.8817 112.21C22.684 106.396 27.8975 66.8947 26.8948 66.8947C25.8922 66.8947 5.84065 64.0881 5.84065 64.0881Z" fill="#212121"/>
<path d="M26.894 66.8949C25.8914 66.8949 6.30852 63.6866 6.30852 63.6866C6.30852 63.6866 5.77366 74.6144 5.87383 89.5527C11.3469 111.421 15.2476 136.205 15.9905 149.729C17.0797 149.594 17.8713 149.506 17.8713 149.506C17.8713 149.506 21.0795 118.026 21.8818 112.21C22.6832 106.396 27.8957 66.8949 26.894 66.8949Z" fill="#1E1D25"/>
<path d="M34.3566 63.7457C37.2283 78.614 36.9862 149.127 36.9862 149.127C36.9862 149.127 32.963 151.577 29.854 151.42C27.6416 151.308 25.3815 149.994 25.3815 149.994C25.3815 149.994 19.4737 102.872 17.66 92.711C15.8464 82.5496 14.8418 67.5394 14.8418 67.5394L34.3566 63.7457Z" fill="#212121"/>
<path d="M23.1841 24.7874C29.5003 26.0905 35.5151 28.7979 35.9168 29.1985C36.3174 29.5992 35.3148 57.4705 35.3148 64.6892C35.3148 72.9397 13.8599 73.0438 8.64648 69.6352C2.71532 65.757 6.04023 42.8337 6.04023 38.2222C6.04023 33.6107 6.94269 30.5026 6.94269 30.5026C6.94269 30.5026 16.5673 26.0914 17.8705 25.5896C19.1736 25.0888 23.1841 24.7874 23.1841 24.7874Z" fill="#EBF0F3"/>
<path d="M12.6561 28.7977C12.589 35.4145 14.4173 45.1471 14.5942 44.6385C16.265 39.8266 20.8103 30.9372 21.2781 28.5974C18.2041 29.8675 12.6561 28.7977 12.6561 28.7977Z" fill="#F2F2F2"/>
<path d="M21.0048 28.2084C20.2968 28.6674 18.6047 29.4667 16.8668 29.4667C15.8166 29.4667 15.096 28.4311 15.0366 26.8537L14.2353 18.3746C14.1108 17.0569 15.0872 15.8773 16.4049 15.7528L19.7989 15.4319C21.1166 15.3074 22.4907 11.1715 22.6152 12.4892L23.1743 25.5856C23.2988 26.9043 22.4148 27.2942 21.0048 28.2084Z" fill="#ECCBB3"/>
<path d="M22.834 17.624L22.6152 12.4903C22.4907 11.1726 21.1166 15.3085 19.7989 15.433L16.4049 15.7539C15.0872 15.8784 14.1108 17.058 14.2353 18.3757L14.9112 25.5361C18.1777 25.4243 21.3023 21.7755 22.834 17.624Z" fill="#F0CEB4"/>
<path d="M22.5774 13.485C21.7848 17.7522 21.2305 21.5537 13.8056 21.8911C11.1254 22.0127 10.0285 17.5801 9.9682 13.2409C9.90693 8.85502 10.6373 4.5907 16.1211 4.5907C20.506 4.5907 23.369 9.22068 22.5774 13.485Z" fill="#ECCBB3"/>
<path d="M16.4689 33.7437C17.6047 32.9414 17.806 30.4023 17.806 30.4023L17.03 29.2178C16.5515 29.2129 16.0838 29.1925 15.6422 29.1624L14.3975 30.1348C14.4646 32.2072 15.1444 33.1466 14.9324 33.6776C14.4451 34.8951 13.8597 37.0492 13.4746 38.9581C13.9628 42.3764 14.5054 44.9049 14.5978 44.6394C15.156 43.0309 16.0361 40.9663 16.9775 38.8434C16.7703 36.9986 16.5379 34.8202 16.4689 33.7437Z" fill="#1E1D25"/>
<g opacity="0.5">
<path d="M14.5571 47.6268C14.3811 47.6268 14.2128 47.5228 14.0543 47.3176C13.5136 46.6145 10.8062 34.4186 11.0552 28.4894L11.4559 28.5059C11.1982 34.6442 13.959 46.5299 14.3723 47.0725C14.4637 47.1911 14.5318 47.2291 14.5629 47.2252C14.6874 47.2106 14.8586 46.8323 14.9227 46.6893C14.9461 46.6378 14.9675 46.5911 14.9859 46.5532C15.019 46.4861 15.3584 45.6721 15.8281 44.547C17.6058 40.2885 21.769 30.3157 22.5645 29.0418L22.9049 29.2547C22.1259 30.5005 17.9725 40.4519 16.1987 44.7016C15.6317 46.0611 15.3788 46.665 15.3448 46.7321C15.3283 46.7662 15.3088 46.807 15.2884 46.8537C15.1571 47.1435 14.9597 47.5821 14.6086 47.6229C14.5911 47.6258 14.5736 47.6268 14.5571 47.6268Z" fill="#DAE9F1"/>
</g>
<path d="M14.6979 23.2594L13.2557 25.5652L12.5273 27.9575C12.5273 27.9575 12.5906 32.1391 13.3258 32.2733C14.061 32.4066 16.1994 29.6 16.1994 29.6C16.1994 29.6 17.7039 34.0724 18.3379 33.6766C21.2369 31.8707 23.6477 28.5176 24.2195 27.3934C24.8856 26.0854 25.333 25.2754 25.333 25.2754C25.333 25.2754 23.2684 21.5157 23.001 21.5157C22.8337 22.4182 18.2806 27.8281 17.3353 27.8281C16.7003 27.8281 15.6315 27.9341 15.4643 27.5276C14.9965 26.3918 14.6979 23.2594 14.6979 23.2594Z" fill="white"/>
<path d="M23.3531 21.9146C23.9979 22.0137 25.7522 23.1603 28.2321 24.5198C28.4129 24.619 28.7844 25.4884 28.9672 25.5896C33.0468 27.8457 37.8567 29.8675 37.8567 29.8675C37.8567 29.8675 37.3218 58.474 37.3218 64.3555C37.3218 70.2371 37.8567 84.0055 37.8567 84.0055C37.8567 84.0055 34.7681 85.3621 29.9699 86.0107C25.0238 86.6788 21.6824 87.0804 21.6824 87.0804C21.6824 87.0804 20.0778 67.5637 21.5482 50.4539C23.0186 33.3431 23.3531 21.9146 23.3531 21.9146Z" fill="#1E1D25"/>
<path d="M14.6995 23.2594C9.21859 33.6863 10.1852 39.5582 9.91879 49.0486C9.65135 58.539 9.35085 85.8424 9.35085 85.8424C9.35085 85.8424 5.50762 85.1403 4.83952 84.7396C4.17143 84.3389 3.90399 36.35 4.43885 33.0075C4.97371 29.6661 4.97371 29.6661 4.97371 29.6661L9.98686 26.9928L10.7221 25.7898L14.6995 23.2594Z" fill="#1E1D25"/>
<path d="M21.0801 74.4479L37.5694 75.7724C37.442 71.7356 37.3215 67.1533 37.3215 64.3554C37.3215 58.4739 38.3241 29.8003 38.3241 29.8003C38.3241 29.8003 33.0464 27.8456 28.9669 25.5895C28.892 25.5477 28.784 25.3755 28.6712 25.181L28.6324 25.2549L29.7021 32.4737L26.3607 35.749L29.034 37.2865C29.034 37.2865 23.2195 52.7256 22.283 60.412C21.3475 68.0976 21.0801 74.4479 21.0801 74.4479Z" fill="url(#paint0_linear_550_178)"/>
<path d="M10.7221 25.7898L9.98695 26.9928L4.76571 29.599C4.76571 29.599 4.74042 30.2836 4.37282 33.0241C4.06065 35.3473 4.08399 58.7374 4.34948 73.0446C6.43545 72.1119 8.35901 70.9985 8.44945 70.0347C8.64978 67.8962 7.64717 57.7367 7.44684 51.6549C7.24651 45.573 6.5113 35.8141 6.5113 35.8141L9.18465 34.8115L7.78137 32.1381C7.78137 32.1381 8.18203 31.5362 8.58367 30.4003C8.98433 29.2654 9.58629 27.7279 10.7221 25.7898Z" fill="url(#paint1_linear_550_178)"/>
<path d="M37.3222 30.9031C30.6053 34.0111 28.1994 48.7481 27.5974 56.4686C27.08 63.1048 28.6059 86.1954 29.9702 86.0106C34.7685 85.362 37.8571 84.0054 37.8571 84.0054C37.8571 84.0054 37.3222 70.237 37.3222 64.3554C37.3222 59.2071 37.7316 36.6475 37.8337 31.1024L37.3222 30.9031Z" fill="#1E1D25"/>
<path d="M34.3114 82.2006C34.3114 82.2006 33.8806 87.6182 33.9769 88.8173C34.2444 92.1257 35.8149 91.1065 35.8149 91.1065L36.4169 84.2894L34.3114 82.2006Z" fill="#E9D4C5"/>
<path d="M48.6697 109.919L28.4819 115.302C25.6248 115.302 23.0681 114.299 23.0176 113.29V95.1783C23.0176 94.4985 23.5126 93.9199 24.1846 93.8159L48.5326 90.1379C50.6253 90.2916 53.746 91.1308 53.746 91.9769V109.337C53.747 110.016 49.3416 109.815 48.6697 109.919Z" fill="#9B9DAA"/>
<path d="M49.4876 90.3878L25.1396 94.267C24.4676 94.3711 23.9727 94.9497 23.9727 95.6295V113.741C23.9872 114.028 24.1584 114.315 24.4618 114.579C25.4819 115.008 26.9387 115.302 28.485 115.302L48.6727 109.919C49.3447 109.815 53.75 110.016 53.75 109.337V92.1062C53.2881 91.337 51.3198 90.523 49.4876 90.3878Z" fill="#727481"/>
<path d="M51.9773 111.072L32.692 114.35C28.4316 115.603 26.3758 115.452 26.3262 114.443V96.3315C26.3262 95.6518 26.8212 95.0731 27.4931 94.9691L51.8411 91.0898C53.9339 91.2435 53.6461 92.5495 53.6461 93.3956L53.1948 108.383C53.1948 109.064 52.6493 110.967 51.9773 111.072Z" fill="#9597A4"/>
<path d="M52.7913 111.306L28.4695 115.329C27.713 115.447 27.0293 114.861 27.0293 114.095V96.4707C27.0293 95.8551 27.4776 95.3319 28.0864 95.2366L52.4081 91.2135C53.1647 91.0958 53.8484 91.6812 53.8484 92.4475V110.072C53.8474 110.687 53.3991 111.211 52.7913 111.306Z" fill="#9B9DAA"/>
<path d="M27.4597 93.3296C27.309 92.6274 28.0179 92.6343 28.9758 92.5273C29.6527 92.4524 29.9036 92.465 30.1535 92.6148C30.4044 92.7655 32.7354 93.5795 32.9357 94.0307C33.1361 94.482 33.0359 94.5072 33.0359 94.5072C33.0359 94.5072 30.3373 94.9838 30.1369 94.8836C29.9376 94.7825 27.4597 93.3296 27.4597 93.3296Z" fill="#E9E5D0"/>
<path d="M28.0723 93.0028C29.6759 93.9052 29.9773 93.9801 30.203 94.1561C30.4286 94.3312 30.4033 94.7581 30.4033 94.7581C30.4033 94.7581 32.6089 94.5072 32.5593 94.3575C32.5087 94.2067 30.2282 94.232 31.0558 94.0822C31.8824 93.9315 31.5567 93.7312 31.5567 93.7312C31.5567 93.7312 31.1307 93.5055 30.1028 93.1798C29.0749 92.854 28.0723 93.0028 28.0723 93.0028Z" fill="white"/>
<path d="M44.2723 90.7388C44.1215 90.0367 44.8285 90.165 45.7757 89.9871C46.1764 89.9122 46.8036 89.9365 47.0535 90.0872C47.3044 90.238 49.1463 90.7894 49.3467 91.2406C49.547 91.6918 49.4595 91.7424 49.4595 91.7424C49.4595 91.7424 46.9534 92.2432 46.7531 92.1431C46.5527 92.0429 44.2723 90.7388 44.2723 90.7388Z" fill="#E9E5D0"/>
<path d="M44.7383 90.3761C46.0667 91.0403 46.5306 91.2154 46.7562 91.3914C46.9818 91.5664 46.9565 91.9934 46.9565 91.9934C46.9565 91.9934 49.2623 91.6929 49.2127 91.5421C49.1621 91.3914 46.7815 91.4672 47.6081 91.3165C48.4347 91.1658 48.4104 91.0413 48.4104 91.0413C48.4104 91.0413 47.6839 90.7408 46.656 90.415C45.6281 90.0873 44.7383 90.3761 44.7383 90.3761Z" fill="white"/>
<path d="M41.7675 87.2467C43.5053 88.7502 44.4408 90.3547 44.8424 90.8225C45.2431 91.2903 46.1125 91.9253 45.9452 91.9924C45.778 92.0595 45.2431 92.1266 44.8094 92.0255C44.3747 91.9253 41.7013 89.7528 40.8329 89.5525C39.9625 89.3521 41.7675 87.2467 41.7675 87.2467Z" fill="#9597A4"/>
<path d="M33.7129 82.0674C34.1486 83.8762 34.4218 86.214 34.9159 87.1807C36.4534 90.1886 35.2504 91.408 35.2163 91.8087C35.8679 92.4603 40.9647 91.3244 41.8662 90.6223C44.1671 88.8329 41.2817 83.4376 41.2817 83.4376L33.7129 82.0674Z" fill="#ECCBB3"/>
<path d="M33.5977 81.7833L33.8982 85.9436C33.8982 85.9436 42.737 84.8739 42.8372 84.5734C42.9374 84.2729 42.5698 76.3521 42.5698 76.3521L33.5977 81.7833Z" fill="white"/>
<path d="M38.3238 29.8335C40.5965 35.4476 42.5395 58.3719 42.7019 65.5916C42.8692 73.0437 43.1366 83.2703 43.1366 83.2703C43.1366 83.2703 34.5817 84.0726 33.3787 84.0726C32.7768 83.6214 32.2088 75.2162 31.2062 62.5847C30.2036 49.9522 32.6912 36.6195 33.7123 34.2126C35.1156 30.9032 38.3238 29.8335 38.3238 29.8335Z" fill="#1E1D25"/>
<path d="M33.1084 94.0153C33.1434 94.0551 33.1969 94.0756 33.2484 94.0619C34.2939 93.7819 35.2634 91.9974 35.4929 91.1076C35.6174 90.6252 35.7312 90.1302 35.702 89.253C35.6971 89.114 35.5503 88.4896 35.4676 88.6015C35.1477 89.0352 34.5701 89.8599 34.0138 90.6067C32.8945 92.1102 31.0575 92.7822 31.1732 92.8288C32.4374 93.3394 32.9548 93.8393 33.1084 94.0153Z" fill="#9597A4"/>
<path d="M26.2265 152.714C29.5086 151.401 33.9791 152.647 33.4452 153.049C32.9113 153.45 25.5584 152.981 26.2265 152.714Z" fill="#9B9DAA"/>
<path d="M21.2448 12.2637C21.2448 12.2637 23.2501 11.1279 23.8511 12.3308C24.453 13.5338 23.5165 15.6061 22.6481 15.7394C21.7787 15.8726 21.1777 15.8726 21.1777 15.8726L21.2448 12.2637Z" fill="#ECCBB3"/>
<path d="M23.1219 6.28376C23.1151 6.28376 23.1093 6.28376 23.1025 6.28279C23.0003 6.27307 22.9225 6.18846 22.9206 6.08635C22.8875 3.75045 21.3384 2.91801 21.3228 2.90926C21.2246 2.85772 21.1867 2.73713 21.2372 2.63891C21.2888 2.54069 21.4094 2.50179 21.5076 2.55333C21.563 2.5825 22.5715 3.12418 23.0606 4.52649C23.0451 3.48205 22.8263 2.72157 22.8233 2.71087C22.7922 2.60487 22.8525 2.49304 22.9595 2.46192C23.0655 2.4308 23.1773 2.49109 23.2084 2.59806C23.2289 2.66614 23.6957 4.28823 23.3183 6.12428C23.2989 6.21764 23.2162 6.28376 23.1219 6.28376Z" fill="#1E1D25"/>
<path d="M9.23543 7.75914C6.31119 -0.646984 15.8716 -0.721865 19.5087 1.66266C22.5166 3.63485 23.2849 6.24109 23.2849 6.24109L22.9717 11.7803C22.9717 11.7803 21.6015 12.146 21.2961 14.6433C20.9917 17.1407 20.0776 14.5218 19.6517 12.4504C19.2257 10.379 20.8702 7.88167 19.8345 8.06449C18.7988 8.24732 17.3372 9.16048 14.1085 9.83149C10.0912 10.6649 9.60109 8.55268 9.60109 8.55268L9.23543 7.75914Z" fill="#1E1D25"/>
<defs>
<linearGradient id="paint0_linear_550_178" x1="25.7657" y1="47.3186" x2="35.2827" y2="58.9363" gradientUnits="userSpaceOnUse">
<stop stop-color="#2B2B2B"/>
<stop offset="0.4067" stop-color="#353535"/>
<stop offset="1" stop-color="#232323"/>
</linearGradient>
<linearGradient id="paint1_linear_550_178" x1="10.0374" y1="38.8119" x2="1.74965" y2="65.4799" gradientUnits="userSpaceOnUse">
<stop stop-color="#4F4F4F"/>
<stop offset="0.4067" stop-color="#393939"/>
<stop offset="1" stop-color="#101010"/>
</linearGradient>
</defs>
</svg>
