<svg width="154" height="45" viewBox="0 0 154 45" fill="none" xmlns="http://www.w3.org/2000/svg">
<path fill-rule="evenodd" clip-rule="evenodd" d="M52.7584 20.1799V1.53414H59.5837C61.0311 1.53414 61.9625 1.8431 62.7896 2.15206C64.6514 3.07894 65.4776 4.83058 65.4776 6.37538C65.4776 8.12702 64.7539 9.36286 63.3056 10.2897C65.4776 10.8047 66.7191 12.2474 66.7191 14.5131C66.7191 17.0886 65.1674 18.9424 62.5819 19.7671C61.6514 20.0761 60.6176 20.1791 59.0659 20.1791L52.7584 20.1799ZM61.1345 4.7276C60.6176 4.52162 60.1006 4.41864 59.376 4.41864H55.86V9.25988H59.1693C60.0998 9.25988 60.7209 9.15689 61.2379 8.84793C61.587 8.65408 61.877 8.3698 62.0772 8.02518C62.2774 7.68057 62.3804 7.28844 62.3751 6.89032C62.3751 5.96431 61.8582 5.13954 61.1345 4.7276ZM62.0658 12.4533C61.6523 12.2474 61.0311 12.1444 59.9972 12.1444H55.8609V17.2946H59.6871C60.9277 17.2946 61.5489 17.0886 62.0658 16.8826C62.9963 16.4707 63.4099 15.6459 63.4099 14.6161C63.4099 13.5862 62.9963 12.8662 62.0658 12.4533ZM85.333 20.1799V1.53414H88.5398V20.1799H85.333ZM108.601 20.1799V1.53414H111.808V20.1799H108.601ZM122.046 1.43115C124.113 1.43115 126.182 1.94608 127.32 2.46189L127.216 5.55236C125.561 4.72847 124.011 4.21267 122.047 4.21267C120.287 4.21267 118.737 4.7276 118.737 6.17028C118.737 9.98166 128.355 8.43599 128.355 14.7199C128.355 18.2223 125.459 20.3859 121.116 20.3859C118.22 20.3859 116.254 19.562 114.807 18.7373L116.152 16.1617C117.29 16.8826 119.152 17.6035 121.219 17.6035C123.183 17.6035 124.942 16.8826 124.942 15.2348C124.942 11.2166 115.428 12.9683 115.428 6.68434C115.427 3.28579 118.115 1.43115 122.046 1.43115ZM143.452 20.1799V12.1452H134.454V20.1799H131.249V1.53414H134.454V9.15777H143.452V1.53414H146.657V20.1799H143.452ZM59.7905 23.3734C61.7548 23.3734 63.3065 23.7853 64.9607 24.5063L64.0302 27.1848C63.0997 26.772 61.8582 26.2579 60.1006 26.2579C56.5846 26.2579 54.4126 29.2454 54.4126 32.8508C54.4126 36.56 56.4812 39.5467 60.1006 39.5467C61.8582 39.5467 63.0997 39.0317 64.0302 38.6198L64.9607 41.2974C63.3056 42.0183 61.7548 42.4312 59.7905 42.4312C54.2059 42.4312 51 38.5168 51 32.9538C51 27.6997 54.2059 23.3734 59.7905 23.3734ZM129.699 23.3734C131.766 23.3734 133.318 23.7853 134.868 24.5063L133.938 27.1848C133.007 26.772 131.766 26.2579 130.009 26.2579C126.492 26.2579 124.321 29.2454 124.321 32.8508C124.321 36.56 126.39 39.5467 130.009 39.5467C131.767 39.5467 133.007 39.0317 133.938 38.6198L134.868 41.2974C133.317 42.0183 131.766 42.4312 129.699 42.4312C124.113 42.4312 120.908 38.5168 120.908 32.9538C120.908 27.6997 124.113 23.3734 129.699 23.3734ZM83.1611 32.8499C83.1611 38.4129 79.6459 42.4312 74.3715 42.4312C69.097 42.4312 65.581 38.5168 65.581 32.9538C65.581 27.3908 69.0979 23.3734 74.3715 23.3734C79.7493 23.3734 83.1611 27.2878 83.1611 32.8499ZM79.8518 32.8499C79.8518 28.8326 77.4748 26.257 74.3715 26.257C71.269 26.257 68.8911 28.8326 68.8911 32.9529C68.8911 36.9711 71.2699 39.5458 74.3715 39.5458C77.4748 39.5458 79.8518 36.9711 79.8518 32.8499ZM85.333 35.1165V23.5794H88.5398V35.2195C88.5398 38.4129 90.1948 39.5458 92.8829 39.5458C95.5709 39.5458 97.226 38.4129 97.226 35.2195V23.5794H100.431V35.1165C100.431 40.1646 97.5353 42.4312 92.8829 42.4312C88.2287 42.4312 85.333 40.1646 85.333 35.1165ZM106.429 28.6266H106.327C106.429 29.2445 106.429 30.2752 106.429 31.0991V42.1213H103.224V23.5794H106.741L115.323 36.2502H115.427C115.323 35.6323 115.323 34.6016 115.323 33.7777V23.5794H118.53V42.1213H115.737L106.429 28.6266ZM137.351 42.1213V23.5794H140.556V42.1213H137.351ZM143.452 42.1213V23.5794H146.657V39.2377H154V42.1213H143.452ZM106.12 1.638H91.021V4.52162H97.0192V20.1799H100.226V4.52162H106.12V1.638ZM79.6468 20.1799C76.957 14.5139 76.2333 12.9691 75.096 12.9691H72.097V20.1799H68.8911V1.638H75.1994C80.0595 1.638 81.8188 4.11055 81.8188 6.89119C81.8188 9.46673 80.4739 11.1145 78.4053 11.7324C79.2332 12.2474 80.1646 13.999 83.2671 20.1799H79.6468ZM75.4053 4.41864H72.0961V10.0846H75.3019C77.5773 10.0846 78.6103 8.95179 78.6103 7.20015C78.6112 5.65535 77.6807 4.41864 75.4053 4.41864Z" fill="#164C82"/>
<path fill-rule="evenodd" clip-rule="evenodd" d="M21.3299 11.0446C21.3299 16.9184 16.4872 21.6581 10.6135 21.6581C4.84271 21.6581 0 16.9175 0 11.0446C0 5.17173 4.84271 0.431163 10.6135 0.431163C16.4872 0.431163 21.3299 5.17085 21.3299 11.0446ZM44 11.0446C44.0019 12.4389 43.7288 13.82 43.1961 15.1085C42.6634 16.3971 41.8817 17.5679 40.8957 18.5538C39.9098 19.5398 38.739 20.3215 37.4504 20.8542C36.1619 21.3868 34.7809 21.66 33.3865 21.6581C27.5128 21.6581 22.7731 16.9175 22.7731 11.0446C22.7731 5.17173 27.5136 0.431163 33.3865 0.431163C34.7809 0.429209 36.1619 0.7024 37.4504 1.23508C38.739 1.76777 39.9098 2.54947 40.8957 3.53541C41.8817 4.52135 42.6634 5.69215 43.1961 6.98071C43.7288 8.26928 44.0019 9.65029 44 11.0446ZM21.3299 33.8177C21.3299 39.6914 16.4872 44.4311 10.6135 44.4311C4.84271 44.4311 0 39.6906 0 33.8177C0 27.943 4.84271 23.2042 10.6135 23.2042C16.4872 23.2042 21.3299 27.943 21.3299 33.8177ZM44 33.8177C44.0019 35.212 43.7288 36.593 43.1961 37.8816C42.6634 39.1702 41.8817 40.3409 40.8957 41.3269C39.9098 42.3128 38.739 43.0945 37.4504 43.6272C36.1619 44.1599 34.7809 44.4331 33.3865 44.4311C31.9922 44.4331 30.6112 44.1599 29.3226 43.6272C28.0341 43.0945 26.8633 42.3128 25.8773 41.3269C24.8914 40.3409 24.1097 39.1702 23.577 37.8816C23.0443 36.593 22.7711 35.212 22.7731 33.8177C22.7711 32.4233 23.0443 31.0423 23.577 29.7538C24.1097 28.4652 24.8914 27.2944 25.8773 26.3085C26.8633 25.3225 28.0341 24.5408 29.3226 24.0081C30.6112 23.4755 31.9922 23.2023 33.3865 23.2042C34.7809 23.2022 36.162 23.4753 37.4506 24.0079C38.7392 24.5406 39.91 25.3223 40.896 26.3082C41.882 27.2942 42.6637 28.465 43.1963 29.7536C43.7289 31.0423 44.0021 32.4233 44 33.8177Z" fill="#00A0E2"/>
</svg>
