<svg width="60" height="60" viewBox="0 0 60 60" fill="none" xmlns="http://www.w3.org/2000/svg">
<path d="M0 9H60V45H57.75C57.75 39.63 53.37 35.25 48 35.25C44.07 35.25 40.74 37.62 39.18 40.98C38.43 40.68 37.62 40.5 36.75 40.5C33.81 40.5 31.35 42.39 30.42 45H0V9ZM25.11 18.33C24.93 18.78 24.81 19.26 24.78 19.74C24.75 20.22 24.75 20.73 24.81 21.24L24.87 21.48C24.9 21.66 24.93 21.9 25.02 22.17C25.08 22.47 25.2 22.77 25.32 23.1C25.41 23.43 25.59 23.76 25.77 24.09C25.98 24.45 26.22 24.75 26.46 25.02C26.7 25.29 27 25.53 27.39 25.71C27.75 25.89 28.14 25.98 28.59 25.98C29.01 25.98 29.4 25.89 29.76 25.71C30.12 25.53 30.42 25.29 30.66 25.05C30.93 24.78 31.14 24.45 31.32 24.09C31.53 23.73 31.68 23.4 31.8 23.1C31.92 22.8 32.01 22.5 32.07 22.17C32.16 21.84 32.19 21.63 32.22 21.51C32.25 21.39 32.25 21.3 32.25 21.24C32.4 20.37 32.34 19.56 32.13 18.78C31.92 18 31.5 17.34 30.9 16.8C30.27 16.26 29.49 15.99 28.53 15.99C27.96 15.99 27.45 16.08 26.97 16.29C26.52 16.5 26.13 16.77 25.83 17.13C25.56 17.46 25.32 17.88 25.11 18.33ZM38.55 36.45V33.03C38.55 32.04 38.25 31.05 37.68 30.09C37.11 29.13 36.33 28.32 35.37 27.72C34.41 27.09 33.39 26.79 32.31 26.79L28.59 29.31L24.75 26.85C23.64 26.85 22.59 27.15 21.63 27.75C20.7 28.35 19.95 29.13 19.41 30.06C18.87 31.02 18.6 32.01 18.6 33.03V36.45L19.14 36.6C19.5 36.72 20.01 36.84 20.67 37.02C21.36 37.17 22.08 37.32 22.89 37.47C23.67 37.62 24.6 37.74 25.62 37.86C26.64 37.95 27.63 38.01 28.59 38.01C29.49 38.01 30.48 37.95 31.53 37.86C32.55 37.74 33.45 37.62 34.2 37.47C34.95 37.35 35.7 37.17 36.48 36.99L37.98 36.63C38.22 36.57 38.4 36.51 38.55 36.45ZM48 36.75C52.56 36.75 56.25 40.44 56.25 45C56.25 49.56 52.56 53.25 48 53.25C45.81 53.25 43.86 52.35 42.39 50.94C43.3675 49.4625 43.7205 47.6583 43.372 45.9214C43.0235 44.1844 42.0018 42.656 40.53 41.67C41.82 38.79 44.64 36.75 48 36.75ZM31.5 47.25C31.5 44.37 33.87 42 36.75 42C39.63 42 42 44.37 42 47.25C42 50.13 39.63 52.5 36.75 52.5C33.87 52.5 31.5 50.13 31.5 47.25Z" fill="url(#paint0_linear_550_733)"/>
<defs>
<linearGradient id="paint0_linear_550_733" x1="9.4837e-08" y1="-5.85535" x2="108.574" y2="18.4792" gradientUnits="userSpaceOnUse">
<stop stop-color="#4D4B5A"/>
<stop offset="1" stop-color="#485C63"/>
</linearGradient>
</defs>
</svg>
