<svg width="171" height="169" viewBox="0 0 171 169" fill="none" xmlns="http://www.w3.org/2000/svg">
<circle cx="44" cy="44" r="44" fill="url(#paint0_linear_1102_248)"/>
<path d="M34.7184 56V32.2H44.0004C46.0858 32.2 47.8651 32.5287 49.3384 33.186C50.8118 33.8433 51.9451 34.7953 52.7384 36.042C53.5318 37.2887 53.9284 38.7733 53.9284 40.496C53.9284 42.2187 53.5318 43.7033 52.7384 44.95C51.9451 46.174 50.8118 47.1147 49.3384 47.772C47.8651 48.4293 46.0858 48.758 44.0004 48.758H36.5884L38.1184 47.194V56H34.7184ZM50.6304 56L44.5784 47.364H48.2164L54.3364 56H50.6304ZM38.1184 47.534L36.5884 45.868H43.8984C46.0744 45.868 47.7178 45.4033 48.8284 44.474C49.9618 43.522 50.5284 42.196 50.5284 40.496C50.5284 38.796 49.9618 37.4813 48.8284 36.552C47.7178 35.6227 46.0744 35.158 43.8984 35.158H36.5884L38.1184 33.458V47.534Z" fill="#D6DBE7"/>
<circle cx="142.5" cy="72.5" r="28.5" fill="url(#paint1_linear_1102_248)"/>
<path d="M136.89 79.8975V64.4816H142.902C144.253 64.4816 145.406 64.6944 146.36 65.1202C147.314 65.546 148.048 66.1626 148.562 66.9701C149.076 67.7776 149.333 68.7393 149.333 69.8551C149.333 70.9709 149.076 71.9326 148.562 72.7401C148.048 73.5329 147.314 74.1422 146.36 74.568C145.406 74.9937 144.253 75.2066 142.902 75.2066H138.101L139.092 74.1936V79.8975H136.89ZM147.197 79.8975L143.277 74.3037H145.633L149.597 79.8975H147.197ZM139.092 74.4138L138.101 73.3347H142.836C144.246 73.3347 145.31 73.0337 146.029 72.4318C146.764 71.8151 147.131 70.9562 147.131 69.8551C147.131 68.754 146.764 67.9024 146.029 67.3005C145.31 66.6985 144.246 66.3975 142.836 66.3975H138.101L139.092 65.2964V74.4138Z" fill="#D6DBE7"/>
<circle cx="72.5" cy="140.5" r="28.5" fill="url(#paint2_linear_1102_248)"/>
<path d="M66.8901 147.897V132.482H72.9023C74.253 132.482 75.4055 132.694 76.3598 133.12C77.3142 133.546 78.0482 134.163 78.5621 134.97C79.076 135.778 79.3329 136.739 79.3329 137.855C79.3329 138.971 79.076 139.933 78.5621 140.74C78.0482 141.533 77.3142 142.142 76.3598 142.568C75.4055 142.994 74.253 143.207 72.9023 143.207H68.1013L69.0923 142.194V147.897H66.8901ZM77.1967 147.897L73.2767 142.304H75.6331L79.5972 147.897H77.1967ZM69.0923 142.414L68.1013 141.335H72.8362C74.2457 141.335 75.3101 141.034 76.0295 140.432C76.7636 139.815 77.1306 138.956 77.1306 137.855C77.1306 136.754 76.7636 135.902 76.0295 135.3C75.3101 134.699 74.2457 134.398 72.8362 134.398H68.1013L69.0923 133.296V142.414Z" fill="#D6DBE7"/>
<defs>
<linearGradient id="paint0_linear_1102_248" x1="44" y1="-1.60187e-06" x2="151.5" y2="148" gradientUnits="userSpaceOnUse">
<stop stop-color="#F3F5FA"/>
<stop offset="1" stop-color="white" stop-opacity="0"/>
</linearGradient>
<linearGradient id="paint1_linear_1102_248" x1="142.5" y1="44" x2="212.131" y2="139.864" gradientUnits="userSpaceOnUse">
<stop stop-color="#F3F5FA"/>
<stop offset="1" stop-color="white" stop-opacity="0"/>
</linearGradient>
<linearGradient id="paint2_linear_1102_248" x1="72.5" y1="112" x2="142.131" y2="207.864" gradientUnits="userSpaceOnUse">
<stop stop-color="#F3F5FA"/>
<stop offset="1" stop-color="white" stop-opacity="0"/>
</linearGradient>
</defs>
</svg>
