<svg width="105" height="104" viewBox="0 0 105 104" fill="none" xmlns="http://www.w3.org/2000/svg">
<circle cx="52.5346" cy="52.037" r="51.892" fill="url(#paint0_linear_550_859)"/>
<circle cx="52.9127" cy="51.6583" r="48.2937" stroke="white" stroke-opacity="0.61" stroke-width="0.378774"/>
<path d="M56.0921 73.4759H49.7287C49.3068 73.4759 48.9021 73.6435 48.6038 73.9419C48.3055 74.2402 48.1379 74.6449 48.1379 75.0668C48.1379 75.4887 48.3055 75.8933 48.6038 76.1917C48.9021 76.49 49.3068 76.6576 49.7287 76.6576H56.0921C56.514 76.6576 56.9186 76.49 57.2169 76.1917C57.5153 75.8933 57.6829 75.4887 57.6829 75.0668C57.6829 74.6449 57.5153 74.2402 57.2169 73.9419C56.9186 73.6435 56.514 73.4759 56.0921 73.4759ZM57.6829 68.7034H48.1379C47.7159 68.7034 47.3113 68.871 47.013 69.1693C46.7146 69.4677 46.547 69.8723 46.547 70.2942C46.547 70.7162 46.7146 71.1208 47.013 71.4191C47.3113 71.7175 47.7159 71.8851 48.1379 71.8851H57.6829C58.1048 71.8851 58.5094 71.7175 58.8078 71.4191C59.1061 71.1208 59.2737 70.7162 59.2737 70.2942C59.2737 69.8723 59.1061 69.4677 58.8078 69.1693C58.5094 68.871 58.1048 68.7034 57.6829 68.7034ZM64.1874 33.5745C61.1977 30.5807 57.1927 28.9322 52.9104 28.9322C50.8199 28.9272 48.749 29.3353 46.8166 30.133C44.8843 30.9307 43.1286 32.1023 41.6503 33.5806C40.1721 35.0588 39.0005 36.8145 38.2028 38.7469C37.4051 40.6792 36.997 42.7501 37.002 44.8407C37.002 49.476 38.7788 53.8121 41.8739 56.7362L42.3074 57.1429C44.0981 58.8173 46.547 61.1111 46.547 63.1354V65.5217C46.547 65.9436 46.7146 66.3483 47.013 66.6466C47.3113 66.9449 47.7159 67.1125 48.1379 67.1125H50.5241C50.7351 67.1125 50.9374 67.0287 51.0866 66.8796C51.2357 66.7304 51.3195 66.5281 51.3195 66.3171V54.6661C51.3196 54.5053 51.2709 54.3482 51.1798 54.2156C51.0887 54.083 50.9596 53.9811 50.8095 53.9234C49.8909 53.5486 49.0182 53.0699 48.2085 52.4966C48.0265 52.3804 47.8701 52.2284 47.7488 52.0498C47.6274 51.8712 47.5437 51.6698 47.5027 51.4579C47.4618 51.2459 47.4643 51.0278 47.5104 50.8169C47.5564 50.6059 47.6448 50.4065 47.7703 50.2309C47.8959 50.0552 48.0558 49.907 48.2405 49.7951C48.4252 49.6833 48.6307 49.6102 48.8445 49.5803C49.0583 49.5504 49.276 49.5644 49.4842 49.6213C49.6925 49.6782 49.8869 49.777 50.0558 49.9115C50.7916 50.4325 52.2084 51.2041 52.9104 51.2041C53.6123 51.2041 55.0292 50.4305 55.7669 49.9115C56.1104 49.6955 56.5235 49.619 56.9216 49.6975C57.3196 49.7761 57.6727 50.0038 57.9084 50.334C58.1442 50.6643 58.2448 51.0721 58.1898 51.4741C58.1347 51.8761 57.9281 52.2419 57.6123 52.4966C56.8024 53.0689 55.9298 53.5466 55.0113 53.9204C54.8611 53.9781 54.732 54.08 54.6409 54.2126C54.5499 54.3452 54.5012 54.5023 54.5012 54.6632V66.3171C54.5012 66.5281 54.585 66.7304 54.7342 66.8796C54.8834 67.0287 55.0857 67.1125 55.2966 67.1125H57.6829C58.1048 67.1125 58.5094 66.9449 58.8078 66.6466C59.1061 66.3483 59.2737 65.9436 59.2737 65.5217V63.1354C59.2737 61.1588 61.6958 58.867 63.4646 57.1926L63.9528 56.7293C67.1364 53.6898 68.8188 49.5744 68.8188 44.8407C68.8293 42.7499 68.4254 40.6778 67.6305 38.7441C66.8356 36.8104 65.6654 35.0533 64.1874 33.5745Z" fill="url(#paint1_linear_550_859)"/>
<defs>
<linearGradient id="paint0_linear_550_859" x1="0.642578" y1="-34.6968" x2="192.636" y2="-2.9614" gradientUnits="userSpaceOnUse">
<stop stop-color="#EAEDF7"/>
<stop offset="1" stop-color="#7C7C9B"/>
</linearGradient>
<linearGradient id="paint1_linear_550_859" x1="37.002" y1="33.8562" x2="93.818" y2="94.8388" gradientUnits="userSpaceOnUse">
<stop stop-color="white"/>
<stop offset="1" stop-color="white" stop-opacity="0"/>
</linearGradient>
</defs>
</svg>
