<svg width="104" height="104" viewBox="0 0 104 104" fill="none" xmlns="http://www.w3.org/2000/svg">
<circle cx="51.892" cy="51.892" r="51.892" fill="url(#paint0_linear_550_785)"/>
<circle cx="52.2702" cy="51.5133" r="48.2937" stroke="white" stroke-opacity="0.61" stroke-width="0.378774"/>
<path d="M55.4534 73.3304H49.09C48.6681 73.3304 48.2635 73.498 47.9651 73.7964C47.6668 74.0947 47.4992 74.4994 47.4992 74.9213C47.4992 75.3432 47.6668 75.7478 47.9651 76.0462C48.2635 76.3445 48.6681 76.5121 49.09 76.5121H55.4534C55.8753 76.5121 56.2799 76.3445 56.5783 76.0462C56.8766 75.7478 57.0442 75.3432 57.0442 74.9213C57.0442 74.4994 56.8766 74.0947 56.5783 73.7964C56.2799 73.498 55.8753 73.3304 55.4534 73.3304ZM57.0442 68.5579H47.4992C47.0773 68.5579 46.6726 68.7255 46.3743 69.0238C46.076 69.3222 45.9084 69.7268 45.9084 70.1487C45.9084 70.5707 46.076 70.9753 46.3743 71.2736C46.6726 71.572 47.0773 71.7396 47.4992 71.7396H57.0442C57.4661 71.7396 57.8708 71.572 58.1691 71.2736C58.4675 70.9753 58.6351 70.5707 58.6351 70.1487C58.6351 69.7268 58.4675 69.3222 58.1691 69.0238C57.8708 68.7255 57.4661 68.5579 57.0442 68.5579ZM63.5488 33.429C60.559 30.4352 56.554 28.7867 52.2717 28.7867C50.1812 28.7817 48.1103 29.1898 46.1779 29.9875C44.2456 30.7852 42.4899 31.9568 41.0117 33.435C39.5334 34.9133 38.3618 36.669 37.5641 38.6013C36.7664 40.5337 36.3583 42.6046 36.3633 44.6952C36.3633 49.3305 38.1401 53.6665 41.2353 56.5907L41.6688 56.9974C43.4595 58.6718 45.9084 60.9656 45.9084 62.9899V65.3762C45.9084 65.7981 46.076 66.2027 46.3743 66.5011C46.6726 66.7994 47.0773 66.967 47.4992 66.967H49.8854C50.0964 66.967 50.2987 66.8832 50.4479 66.7341C50.5971 66.5849 50.6809 66.3826 50.6809 66.1716V54.5206C50.6809 54.3598 50.6322 54.2027 50.5411 54.0701C50.4501 53.9375 50.321 53.8356 50.1708 53.7779C49.2522 53.4031 48.3795 52.9244 47.5698 52.3511C47.3878 52.2349 47.2314 52.0829 47.1101 51.9043C46.9888 51.7257 46.9051 51.5243 46.8641 51.3123C46.8231 51.1004 46.8257 50.8823 46.8717 50.6713C46.9177 50.4604 47.0061 50.261 47.1317 50.0854C47.2572 49.9097 47.4172 49.7615 47.6018 49.6496C47.7865 49.5378 47.992 49.4647 48.2058 49.4348C48.4196 49.4049 48.6373 49.4189 48.8455 49.4758C49.0538 49.5327 49.2483 49.6315 49.4171 49.766C50.1529 50.287 51.5697 51.0585 52.2717 51.0585C52.9737 51.0585 54.3905 50.285 55.1283 49.766C55.4718 49.55 55.8848 49.4735 56.2829 49.552C56.681 49.6306 57.034 49.8583 57.2697 50.1885C57.5055 50.5188 57.6061 50.9266 57.5511 51.3286C57.496 51.7306 57.2895 52.0964 56.9736 52.3511C56.1638 52.9234 55.2911 53.4011 54.3726 53.7749C54.2225 53.8326 54.0933 53.9345 54.0023 54.0671C53.9112 54.1997 53.8625 54.3568 53.8625 54.5177V66.1716C53.8625 66.3826 53.9463 66.5849 54.0955 66.7341C54.2447 66.8832 54.447 66.967 54.658 66.967H57.0442C57.4661 66.967 57.8708 66.7994 58.1691 66.5011C58.4675 66.2027 58.6351 65.7981 58.6351 65.3762V62.9899C58.6351 61.0133 61.0571 58.7215 62.8259 57.0471L63.3141 56.5838C66.4978 53.5443 68.1801 49.4289 68.1801 44.6952C68.1906 42.6044 67.7868 40.5323 66.9918 38.5986C66.1969 36.6649 65.0267 34.9078 63.5488 33.429Z" fill="url(#paint1_linear_550_785)"/>
<defs>
<linearGradient id="paint0_linear_550_785" x1="1.64043e-07" y1="-34.8418" x2="191.993" y2="-3.10641" gradientUnits="userSpaceOnUse">
<stop stop-color="#EAEDF7"/>
<stop offset="1" stop-color="#7C7C9B"/>
</linearGradient>
<linearGradient id="paint1_linear_550_785" x1="36.3633" y1="33.7107" x2="93.1794" y2="94.6933" gradientUnits="userSpaceOnUse">
<stop stop-color="white"/>
<stop offset="1" stop-color="white" stop-opacity="0"/>
</linearGradient>
</defs>
</svg>
