<svg width="105" height="104" viewBox="0 0 105 104" fill="none" xmlns="http://www.w3.org/2000/svg">
<circle cx="52.2065" cy="52.037" r="51.892" fill="url(#paint0_linear_550_837)"/>
<circle cx="52.5846" cy="51.6583" r="48.2937" stroke="white" stroke-opacity="0.61" stroke-width="0.378774"/>
<path d="M55.7678 73.4759H49.4045C48.9826 73.4759 48.5779 73.6435 48.2796 73.9419C47.9813 74.2402 47.8136 74.6449 47.8136 75.0668C47.8136 75.4887 47.9813 75.8933 48.2796 76.1917C48.5779 76.49 48.9826 76.6576 49.4045 76.6576H55.7678C56.1898 76.6576 56.5944 76.49 56.8927 76.1917C57.1911 75.8933 57.3587 75.4887 57.3587 75.0668C57.3587 74.6449 57.1911 74.2402 56.8927 73.9419C56.5944 73.6435 56.1898 73.4759 55.7678 73.4759ZM57.3587 68.7034H47.8136C47.3917 68.7034 46.9871 68.871 46.6888 69.1693C46.3904 69.4677 46.2228 69.8723 46.2228 70.2942C46.2228 70.7162 46.3904 71.1208 46.6888 71.4191C46.9871 71.7175 47.3917 71.8851 47.8136 71.8851H57.3587C57.7806 71.8851 58.1852 71.7175 58.4836 71.4191C58.7819 71.1208 58.9495 70.7162 58.9495 70.2942C58.9495 69.8723 58.7819 69.4677 58.4836 69.1693C58.1852 68.871 57.7806 68.7034 57.3587 68.7034ZM63.8632 33.5745C60.8734 30.5807 56.8685 28.9322 52.5862 28.9322C50.4956 28.9272 48.4247 29.3353 46.4924 30.133C44.5601 30.9307 42.8043 32.1023 41.3261 33.5806C39.8479 35.0588 38.6763 36.8145 37.8786 38.7469C37.0809 40.6792 36.6728 42.7501 36.6778 44.8407C36.6778 49.476 38.4545 53.8121 41.5497 56.7362L41.9832 57.1429C43.7739 58.8173 46.2228 61.1111 46.2228 63.1354V65.5217C46.2228 65.9436 46.3904 66.3483 46.6888 66.6466C46.9871 66.9449 47.3917 67.1125 47.8136 67.1125H50.1999C50.4109 67.1125 50.6132 67.0287 50.7623 66.8796C50.9115 66.7304 50.9953 66.5281 50.9953 66.3171V54.6661C50.9954 54.5053 50.9467 54.3482 50.8556 54.2156C50.7645 54.083 50.6354 53.9811 50.4853 53.9234C49.5666 53.5486 48.694 53.0699 47.8842 52.4966C47.7023 52.3804 47.5459 52.2284 47.4245 52.0498C47.3032 51.8712 47.2195 51.6698 47.1785 51.4579C47.1375 51.2459 47.1401 51.0278 47.1861 50.8169C47.2321 50.6059 47.3206 50.4065 47.4461 50.2309C47.5716 50.0552 47.7316 49.907 47.9163 49.7951C48.1009 49.6833 48.3064 49.6102 48.5203 49.5803C48.7341 49.5504 48.9517 49.5644 49.16 49.6213C49.3682 49.6782 49.5627 49.777 49.7316 49.9115C50.4674 50.4325 51.8842 51.2041 52.5862 51.2041C53.2881 51.2041 54.705 50.4305 55.4427 49.9115C55.7862 49.6955 56.1993 49.619 56.5973 49.6975C56.9954 49.7761 57.3485 50.0038 57.5842 50.334C57.8199 50.6643 57.9206 51.0721 57.8655 51.4741C57.8105 51.8761 57.6039 52.2419 57.2881 52.4966C56.4782 53.0689 55.6055 53.5466 54.6871 53.9204C54.5369 53.9781 54.4078 54.08 54.3167 54.2126C54.2257 54.3452 54.1769 54.5023 54.177 54.6632V66.3171C54.177 66.5281 54.2608 66.7304 54.41 66.8796C54.5591 67.0287 54.7615 67.1125 54.9724 67.1125H57.3587C57.7806 67.1125 58.1852 66.9449 58.4836 66.6466C58.7819 66.3483 58.9495 65.9436 58.9495 65.5217V63.1354C58.9495 61.1588 61.3716 58.867 63.1404 57.1926L63.6286 56.7293C66.8122 53.6898 68.4945 49.5744 68.4945 44.8407C68.5051 42.7499 68.1012 40.6778 67.3063 38.7441C66.5114 36.8104 65.3411 35.0533 63.8632 33.5745Z" fill="url(#paint1_linear_550_837)"/>
<defs>
<linearGradient id="paint0_linear_550_837" x1="0.314453" y1="-34.6968" x2="192.308" y2="-2.9614" gradientUnits="userSpaceOnUse">
<stop stop-color="#EAEDF7"/>
<stop offset="1" stop-color="#7C7C9B"/>
</linearGradient>
<linearGradient id="paint1_linear_550_837" x1="36.6777" y1="33.8562" x2="93.4938" y2="94.8388" gradientUnits="userSpaceOnUse">
<stop stop-color="white"/>
<stop offset="1" stop-color="white" stop-opacity="0"/>
</linearGradient>
</defs>
</svg>
