<svg width="105" height="104" viewBox="0 0 105 104" fill="none" xmlns="http://www.w3.org/2000/svg">
<circle cx="52.5346" cy="51.892" r="51.892" fill="url(#paint0_linear_550_847)"/>
<circle cx="52.9127" cy="51.5133" r="48.2937" stroke="white" stroke-opacity="0.61" stroke-width="0.378774"/>
<path d="M70.6707 48.277H55.9071C54.5646 48.277 53.2771 47.7437 52.3279 46.7944C51.3786 45.8451 50.8453 44.5576 50.8453 43.2152V28.4516C50.8453 28.3397 50.8009 28.2324 50.7218 28.1533C50.6427 28.0742 50.5354 28.0298 50.4235 28.0298H40.7217C38.9318 28.0298 37.2151 28.7408 35.9494 30.0065C34.6837 31.2722 33.9727 32.9889 33.9727 34.7788V68.5242C33.9727 70.3141 34.6837 72.0308 35.9494 73.2965C37.2151 74.5622 38.9318 75.2732 40.7217 75.2732H64.3434C66.1334 75.2732 67.85 74.5622 69.1157 73.2965C70.3814 72.0308 71.0925 70.3141 71.0925 68.5242V48.6988C71.0925 48.5869 71.0481 48.4796 70.9689 48.4005C70.8898 48.3214 70.7826 48.277 70.6707 48.277Z" fill="url(#paint1_linear_550_847)"/>
<path d="M69.7437 44.5431L54.5783 29.3777C54.5489 29.3484 54.5114 29.3285 54.4706 29.3204C54.4298 29.3123 54.3875 29.3165 54.3491 29.3324C54.3106 29.3483 54.2778 29.3752 54.2546 29.4097C54.2314 29.4442 54.2189 29.4848 54.2188 29.5264V43.2154C54.2188 43.6629 54.3965 44.0921 54.7129 44.4085C55.0294 44.7249 55.4585 44.9027 55.906 44.9027H69.595C69.6366 44.9025 69.6772 44.89 69.7117 44.8669C69.7462 44.8437 69.7731 44.8108 69.789 44.7724C69.8049 44.7339 69.8091 44.6917 69.801 44.6509C69.793 44.6101 69.773 44.5726 69.7437 44.5431Z" fill="url(#paint2_linear_550_847)"/>
<defs>
<linearGradient id="paint0_linear_550_847" x1="0.642578" y1="-34.8418" x2="192.636" y2="-3.10641" gradientUnits="userSpaceOnUse">
<stop stop-color="#EAEDF7"/>
<stop offset="1" stop-color="#7C7C9B"/>
</linearGradient>
<linearGradient id="paint1_linear_550_847" x1="33.9727" y1="32.9041" x2="88.833" y2="102.302" gradientUnits="userSpaceOnUse">
<stop stop-color="white"/>
<stop offset="1" stop-color="white" stop-opacity="0"/>
</linearGradient>
<linearGradient id="paint2_linear_550_847" x1="54.2188" y1="30.9245" x2="70.8934" y2="57.7707" gradientUnits="userSpaceOnUse">
<stop stop-color="white"/>
<stop offset="1" stop-color="white" stop-opacity="0"/>
</linearGradient>
</defs>
</svg>
