<svg width="105" height="104" viewBox="0 0 105 104" fill="none" xmlns="http://www.w3.org/2000/svg">
<circle cx="52.5502" cy="51.892" r="51.892" fill="url(#paint0_linear_550_807)"/>
<path d="M66.8678 47.1145C66.8678 52.7062 64.4275 56.2293 59.5468 57.6838L68.4192 69.9985H61.1468L53.0501 58.605H45.5352V69.9985H39.8142V36.1089H52.4198C57.5914 36.1089 61.2922 36.9816 63.5225 38.727C65.7527 40.4724 66.8678 43.2682 66.8678 47.1145ZM52.6623 53.4173C55.8945 53.4173 58.0924 52.9163 59.256 51.9144C60.4195 50.9124 61.0013 49.3124 61.0013 47.1145C61.0013 44.8843 60.4034 43.3652 59.2075 42.5571C58.0116 41.7168 55.8783 41.2966 52.8077 41.2966H45.5352V53.4173H52.6623Z" fill="url(#paint1_linear_550_807)"/>
<circle cx="52.9284" cy="51.5133" r="48.2937" stroke="white" stroke-opacity="0.61" stroke-width="0.378774"/>
<defs>
<linearGradient id="paint0_linear_550_807" x1="0.658203" y1="-34.8418" x2="192.651" y2="-3.10641" gradientUnits="userSpaceOnUse">
<stop stop-color="#EAEDF7"/>
<stop offset="1" stop-color="#7C7C9B"/>
</linearGradient>
<linearGradient id="paint1_linear_550_807" x1="34.748" y1="31.7049" x2="111.816" y2="100.426" gradientUnits="userSpaceOnUse">
<stop stop-color="white"/>
<stop offset="1" stop-color="white" stop-opacity="0"/>
</linearGradient>
</defs>
</svg>
