<svg width="105" height="104" viewBox="0 0 105 104" fill="none" xmlns="http://www.w3.org/2000/svg">
<circle cx="52.2045" cy="51.892" r="51.892" fill="url(#paint0_linear_550_827)"/>
<circle cx="52.5827" cy="51.5133" r="48.2937" stroke="white" stroke-opacity="0.61" stroke-width="0.378774"/>
<path d="M66.5221 47.1145C66.5221 52.7062 64.0818 56.2293 59.2011 57.6838L68.0735 69.9985H60.8011L52.7044 58.605H45.1895V69.9985H39.4685V36.1089H52.0741C57.2457 36.1089 60.9465 36.9816 63.1768 38.727C65.407 40.4724 66.5221 43.2682 66.5221 47.1145ZM52.3166 53.4173C55.5488 53.4173 57.7467 52.9163 58.9102 51.9144C60.0738 50.9124 60.6556 49.3124 60.6556 47.1145C60.6556 44.8843 60.0577 43.3652 58.8618 42.5571C57.6658 41.7168 55.5326 41.2966 52.462 41.2966H45.1895V53.4173H52.3166Z" fill="url(#paint1_linear_550_827)"/>
<defs>
<linearGradient id="paint0_linear_550_827" x1="0.3125" y1="-34.8418" x2="192.306" y2="-3.10641" gradientUnits="userSpaceOnUse">
<stop stop-color="#EAEDF7"/>
<stop offset="1" stop-color="#7C7C9B"/>
</linearGradient>
<linearGradient id="paint1_linear_550_827" x1="34.4023" y1="31.7049" x2="111.47" y2="100.426" gradientUnits="userSpaceOnUse">
<stop stop-color="white"/>
<stop offset="1" stop-color="white" stop-opacity="0"/>
</linearGradient>
</defs>
</svg>
