<svg width="86" height="31" viewBox="0 0 86 31" fill="none" xmlns="http://www.w3.org/2000/svg">
<path d="M0.822 24V0.199998H6.33V19.512H18.264V24H0.822ZM29.5387 24.272C27.5894 24.272 25.8554 23.864 24.3367 23.048C22.8407 22.232 21.6507 21.1213 20.7667 19.716C19.9054 18.288 19.4747 16.6673 19.4747 14.854C19.4747 13.018 19.9054 11.3973 20.7667 9.992C21.6507 8.564 22.8407 7.45333 24.3367 6.66C25.8554 5.844 27.5894 5.436 29.5387 5.436C31.4654 5.436 33.1881 5.844 34.7067 6.66C36.2254 7.45333 37.4154 8.55267 38.2767 9.958C39.1381 11.3633 39.5687 12.9953 39.5687 14.854C39.5687 16.6673 39.1381 18.288 38.2767 19.716C37.4154 21.1213 36.2254 22.232 34.7067 23.048C33.1881 23.864 31.4654 24.272 29.5387 24.272ZM29.5387 19.92C30.4227 19.92 31.2161 19.716 31.9187 19.308C32.6214 18.9 33.1767 18.322 33.5847 17.574C33.9927 16.8033 34.1967 15.8967 34.1967 14.854C34.1967 13.7887 33.9927 12.882 33.5847 12.134C33.1767 11.386 32.6214 10.808 31.9187 10.4C31.2161 9.992 30.4227 9.788 29.5387 9.788C28.6547 9.788 27.8614 9.992 27.1587 10.4C26.4561 10.808 25.8894 11.386 25.4587 12.134C25.0507 12.882 24.8467 13.7887 24.8467 14.854C24.8467 15.8967 25.0507 16.8033 25.4587 17.574C25.8894 18.322 26.4561 18.9 27.1587 19.308C27.8614 19.716 28.6547 19.92 29.5387 19.92ZM51.716 30.868C49.9933 30.868 48.3273 30.6527 46.718 30.222C45.1313 29.814 43.8053 29.1907 42.74 28.352L44.848 24.544C45.6187 25.1787 46.5933 25.6773 47.772 26.04C48.9733 26.4253 50.152 26.618 51.308 26.618C53.1893 26.618 54.5493 26.1987 55.388 25.36C56.2493 24.5213 56.68 23.2747 56.68 21.62V18.866L57.02 14.276L56.952 9.652V5.708H61.984V20.94C61.984 24.34 61.1 26.8447 59.332 28.454C57.564 30.0633 55.0253 30.868 51.716 30.868ZM50.9 23.116C49.2 23.116 47.6587 22.7533 46.276 22.028C44.916 21.28 43.8167 20.2487 42.978 18.934C42.162 17.5967 41.754 16.044 41.754 14.276C41.754 12.4853 42.162 10.9327 42.978 9.618C43.8167 8.28067 44.916 7.24933 46.276 6.524C47.6587 5.79867 49.2 5.436 50.9 5.436C52.4413 5.436 53.8013 5.75333 54.98 6.388C56.1587 7 57.0767 7.96333 57.734 9.278C58.3913 10.57 58.72 12.236 58.72 14.276C58.72 16.2933 58.3913 17.9593 57.734 19.274C57.0767 20.566 56.1587 21.5293 54.98 22.164C53.8013 22.7987 52.4413 23.116 50.9 23.116ZM51.954 18.764C52.8833 18.764 53.7107 18.5827 54.436 18.22C55.1613 17.8347 55.728 17.302 56.136 16.622C56.544 15.942 56.748 15.16 56.748 14.276C56.748 13.3693 56.544 12.5873 56.136 11.93C55.728 11.25 55.1613 10.7287 54.436 10.366C53.7107 9.98067 52.8833 9.788 51.954 9.788C51.0247 9.788 50.1973 9.98067 49.472 10.366C48.7467 10.7287 48.1687 11.25 47.738 11.93C47.33 12.5873 47.126 13.3693 47.126 14.276C47.126 15.16 47.33 15.942 47.738 16.622C48.1687 17.302 48.7467 17.8347 49.472 18.22C50.1973 18.5827 51.0247 18.764 51.954 18.764ZM75.6247 24.272C73.6753 24.272 71.9413 23.864 70.4227 23.048C68.9267 22.232 67.7367 21.1213 66.8527 19.716C65.9913 18.288 65.5607 16.6673 65.5607 14.854C65.5607 13.018 65.9913 11.3973 66.8527 9.992C67.7367 8.564 68.9267 7.45333 70.4227 6.66C71.9413 5.844 73.6753 5.436 75.6247 5.436C77.5513 5.436 79.274 5.844 80.7927 6.66C82.3113 7.45333 83.5013 8.55267 84.3627 9.958C85.224 11.3633 85.6547 12.9953 85.6547 14.854C85.6547 16.6673 85.224 18.288 84.3627 19.716C83.5013 21.1213 82.3113 22.232 80.7927 23.048C79.274 23.864 77.5513 24.272 75.6247 24.272ZM75.6247 19.92C76.5087 19.92 77.302 19.716 78.0047 19.308C78.7073 18.9 79.2627 18.322 79.6707 17.574C80.0787 16.8033 80.2827 15.8967 80.2827 14.854C80.2827 13.7887 80.0787 12.882 79.6707 12.134C79.2627 11.386 78.7073 10.808 78.0047 10.4C77.302 9.992 76.5087 9.788 75.6247 9.788C74.7407 9.788 73.9473 9.992 73.2447 10.4C72.542 10.808 71.9753 11.386 71.5447 12.134C71.1367 12.882 70.9327 13.7887 70.9327 14.854C70.9327 15.8967 71.1367 16.8033 71.5447 17.574C71.9753 18.322 72.542 18.9 73.2447 19.308C73.9473 19.716 74.7407 19.92 75.6247 19.92Z" fill="#1E1D25"/>
</svg>
