<svg width="168" height="37" viewBox="0 0 168 37" fill="none" xmlns="http://www.w3.org/2000/svg">
<path d="M168 16.3045V13.2789H164.343V8.57536L164.22 8.6143L160.784 9.69404L160.717 9.71518V13.2791H155.295V11.2937C155.295 10.3692 155.496 9.66176 155.893 9.18995C156.286 8.72381 156.85 8.48682 157.568 8.48682C158.085 8.48682 158.619 8.6118 159.158 8.85827L159.292 8.92018V5.73387L159.229 5.70991C158.727 5.52451 158.044 5.43115 157.198 5.43115C156.131 5.43115 155.162 5.66964 154.316 6.14227C153.471 6.61558 152.805 7.29125 152.339 8.15032C151.875 9.00839 151.639 9.99943 151.639 11.0961V13.2789H149.093V16.3045H151.639V29.0505H155.295V16.3045H160.717V24.4044C160.717 27.7403 162.248 29.4308 165.269 29.4308C165.765 29.4308 166.288 29.3711 166.821 29.2541C167.364 29.1339 167.734 29.0139 167.952 28.8858L168 28.8565V25.803L167.851 25.904C167.653 26.0398 167.406 26.1508 167.116 26.2334C166.825 26.3174 166.582 26.3595 166.394 26.3595C165.686 26.3595 165.163 26.1636 164.838 25.777C164.51 25.3869 164.343 24.7048 164.343 23.7505V16.3045H168ZM140.929 26.36C139.602 26.36 138.556 25.908 137.818 25.0176C137.077 24.1228 136.701 22.847 136.701 21.2261C136.701 19.5537 137.077 18.2448 137.819 17.3341C138.556 16.4295 139.593 15.9703 140.899 15.9703C142.167 15.9703 143.176 16.4088 143.898 17.2744C144.625 18.1444 144.993 19.4429 144.993 21.1347C144.993 22.8473 144.647 24.1629 143.963 25.0429C143.284 25.9163 142.263 26.36 140.929 26.36ZM141.091 12.899C138.56 12.899 136.549 13.661 135.115 15.164C133.683 16.6671 132.956 18.7472 132.956 21.3471C132.956 23.8164 133.665 25.8027 135.064 27.2497C136.463 28.6972 138.366 29.4305 140.721 29.4305C143.175 29.4305 145.146 28.6578 146.579 27.134C148.011 25.6119 148.737 23.5515 148.737 21.0124C148.737 18.5044 148.056 16.5034 146.712 15.066C145.367 13.6279 143.476 12.899 141.091 12.899ZM127.062 12.899C125.34 12.899 123.916 13.3515 122.828 14.2437C121.733 15.1412 121.177 16.3183 121.177 17.7427C121.177 18.4831 121.297 19.1408 121.533 19.6986C121.771 20.2583 122.138 20.7511 122.626 21.1647C123.11 21.5749 123.857 22.0046 124.848 22.4418C125.68 22.7938 126.301 23.0915 126.696 23.3261C127.081 23.5561 127.355 23.7873 127.51 24.0125C127.66 24.2328 127.736 24.5344 127.736 24.9065C127.736 25.9661 126.963 26.4817 125.374 26.4817C124.785 26.4817 124.112 26.3552 123.376 26.1059C122.644 25.8603 121.954 25.5008 121.329 25.0398L121.177 24.9279V28.5438L121.233 28.5704C121.75 28.8157 122.402 29.0226 123.171 29.1853C123.938 29.3483 124.635 29.4312 125.241 29.4312C127.109 29.4312 128.614 28.9765 129.712 28.079C130.817 27.1753 131.377 25.9704 131.377 24.4967C131.377 23.4336 131.076 22.522 130.481 21.7867C129.891 21.0575 128.867 20.388 127.438 19.7962C126.3 19.3269 125.571 18.9373 125.27 18.6382C124.98 18.3493 124.833 17.9407 124.833 17.4233C124.833 16.9647 125.015 16.5972 125.388 16.2997C125.764 16.0006 126.287 15.8485 126.944 15.8485C127.553 15.8485 128.176 15.9473 128.796 16.1411C129.415 16.3348 129.959 16.5942 130.413 16.9116L130.562 17.0164V13.5865L130.505 13.5612C130.086 13.3766 129.534 13.2187 128.863 13.0905C128.195 12.9632 127.589 12.899 127.062 12.899ZM111.647 26.36C110.321 26.36 109.274 25.908 108.537 25.0176C107.795 24.1228 107.42 22.8473 107.42 21.2261C107.42 19.5537 107.796 18.2448 108.538 17.3341C109.275 16.4295 110.311 15.9703 111.618 15.9703C112.885 15.9703 113.894 16.4088 114.617 17.2744C115.344 18.1444 115.712 19.4429 115.712 21.1347C115.712 22.8473 115.365 24.1629 114.682 25.0429C114.003 25.9163 112.982 26.36 111.647 26.36ZM111.81 12.899C109.278 12.899 107.267 13.661 105.834 15.164C104.402 16.6671 103.675 18.7472 103.675 21.3471C103.675 23.8174 104.384 25.8027 105.783 27.2497C107.182 28.6972 109.085 29.4305 111.44 29.4305C113.893 29.4305 115.865 28.6578 117.298 27.134C118.73 25.6119 119.456 23.5515 119.456 21.0124C119.456 18.5044 118.775 16.5034 117.431 15.066C116.085 13.6279 114.194 12.899 111.81 12.899ZM98.1254 16.0102V13.2789H94.5142V29.0502H98.1254V20.9826C98.1254 19.6108 98.4282 18.4838 99.0256 17.6325C99.6155 16.7914 100.401 16.3652 101.361 16.3652C101.686 16.3652 102.052 16.4203 102.447 16.5293C102.838 16.6377 103.122 16.7553 103.289 16.8791L103.441 16.9921V13.252L103.382 13.2262C103.046 13.0794 102.57 13.0053 101.968 13.0053C101.061 13.0053 100.249 13.3049 99.5531 13.8947C98.9425 14.4131 98.5013 15.1239 98.1638 16.0102H98.1254ZM88.0472 12.899C86.3905 12.899 84.9128 13.264 83.6559 13.9834C82.3964 14.7045 81.4223 15.734 80.7596 17.0431C80.0998 18.349 79.7648 19.8744 79.7648 21.5756C79.7648 23.0657 80.0896 24.4332 80.7316 25.6384C81.3739 26.8456 82.283 27.7901 83.4338 28.4451C84.583 29.0993 85.9112 29.431 87.3818 29.431C89.0979 29.431 90.5632 29.0785 91.738 28.3834L91.7854 28.3554V24.9566L91.6337 25.0704C91.1015 25.4687 90.5068 25.7865 89.8669 26.0155C89.2287 26.2443 88.6468 26.36 88.1365 26.36C86.7195 26.36 85.582 25.9045 84.7563 25.0065C83.9288 24.1073 83.5093 22.8447 83.5093 21.2559C83.5093 19.657 83.9468 18.3619 84.8091 17.4064C85.6688 16.4536 86.8085 15.9703 88.1961 15.9703C89.3831 15.9703 90.5397 16.3832 91.634 17.1987L91.7854 17.3117V13.7304L91.7365 13.7021C91.3247 13.4653 90.7631 13.2698 90.0659 13.1215C89.3716 12.9735 88.6925 12.899 88.0472 12.899ZM77.2777 13.2791H73.6665V29.0502H77.2777V13.2791ZM75.509 6.56049C74.9146 6.56049 74.3963 6.76835 73.9704 7.18024C73.5427 7.5933 73.3258 8.11337 73.3258 8.72713C73.3258 9.33124 73.5401 9.84183 73.9637 10.2439C74.3846 10.6448 74.9046 10.848 75.5092 10.848C76.1136 10.848 76.6355 10.6448 77.0614 10.2446C77.49 9.84183 77.7074 9.33141 77.7074 8.72713C77.7074 8.13484 77.4959 7.6201 77.0791 7.19689C76.6626 6.77451 76.1341 6.56049 75.509 6.56049ZM66.4988 12.1155V29.0502H70.1842V7.04328H65.0835L58.6001 23.3894L52.3084 7.04328H47V29.05H50.4633V12.1138H50.5822L57.2261 29.0502H59.8397L66.3799 12.1155H66.4988Z" fill="#706D6E"/>
<path d="M17 18.4312H0V0.431152H17V18.4312Z" fill="#F1511B"/>
<path d="M36 18.4312H19V0.431152H36V18.4312Z" fill="#80CC28"/>
<path d="M17 36.4312H0V18.4312H17V36.4312Z" fill="#00ADEF"/>
<path d="M35.1914 36.4312H18.1914V18.4312H35.1914V36.4312Z" fill="#FBBC09"/>
</svg>
