<svg width="167" height="38" viewBox="0 0 167 38" fill="none" xmlns="http://www.w3.org/2000/svg">
<path d="M62.8918 18.2612C62.8918 20.6056 62.4636 22.6611 61.6067 24.4257C60.7473 26.1906 59.5155 27.5505 57.9077 28.502C56.3005 29.4533 54.4497 29.9312 52.3541 29.9312C50.3297 29.9312 48.5308 29.4679 46.954 28.5419C45.376 27.6156 44.1579 26.3009 43.2953 24.5945C42.4321 22.8914 42 20.9598 42 18.7993C42 16.4746 42.4368 14.4285 43.3105 12.6568C44.1818 10.8871 45.4365 9.52814 47.0691 8.58105C48.7019 7.63366 50.5924 7.15996 52.7384 7.15996C54.7005 7.15996 56.4603 7.62623 58.0169 8.55727C59.5716 9.48831 60.7738 10.7997 61.621 12.4877C62.4684 14.1759 62.8918 16.101 62.8918 18.2612ZM60.1808 18.599C60.1808 15.7322 59.5078 13.4954 58.163 11.8889C56.8152 10.283 54.9414 9.47881 52.5392 9.47881C51.0292 9.47881 49.6749 9.86067 48.4789 10.6226C47.2829 11.3852 46.3552 12.4672 45.6972 13.8707C45.0406 15.2749 44.7114 16.8395 44.7114 18.5687C44.7114 20.3292 45.0274 21.8992 45.6599 23.276C46.2917 24.6528 47.1917 25.7169 48.3626 26.47C49.5348 27.2212 50.8644 27.5995 52.3538 27.5995C54.798 27.5995 56.7141 26.8004 58.1009 25.2034C59.4878 23.6052 60.1808 21.4032 60.1808 18.599ZM74 8.4806C73.5059 8.20274 72.9474 8.06575 72.3194 8.06575C70.553 8.06575 69.6698 9.17717 69.6698 11.3994V13.8244H73.3673V15.9575H69.6698V29.5469H67.1427V15.9572H64.4621V13.8241H67.1427V11.2755C67.1427 9.67672 67.6153 8.38729 68.5597 7.40602C69.5049 6.42238 70.7081 5.93115 72.1665 5.93115C72.9367 5.93115 73.5462 6.02357 73.9997 6.20901V8.48119L74 8.4806Z" fill="#C75B12"/>
<path d="M82.3573 9.32314C81.8655 9.04325 81.3078 8.90525 80.6825 8.90525C78.9212 8.90525 78.0406 10.0248 78.0406 12.2634V14.7061H81.7273V16.8548H78.0406V30.5438H75.52V16.8545H72.8472V14.7058H75.52V12.1385C75.52 10.528 75.9912 9.22914 76.9337 8.24069C77.8762 7.24984 79.075 6.75501 80.5291 6.75501C81.298 6.75501 81.9057 6.84811 82.357 7.03491L82.3573 9.32314ZM87.0031 9.02918C87.0031 9.50395 86.8396 9.89819 86.5116 10.2113C86.1834 10.5265 85.7951 10.6825 85.3444 10.6825C84.8836 10.6825 84.4932 10.5322 84.1765 10.2272C83.8596 9.92304 83.7003 9.52251 83.7003 9.02858C83.7003 8.58494 83.8551 8.20087 84.1682 7.87668C84.4819 7.55039 84.8722 7.38934 85.3435 7.38934C85.8132 7.38934 86.2084 7.54709 86.5265 7.8686C86.8443 8.1874 87.0031 8.57387 87.0031 9.02918ZM86.5732 30.5423H84.0529V14.704H86.5732V30.5423ZM100.952 29.817C99.7331 30.5594 98.2938 30.9305 96.6345 30.9305C95.2018 30.9305 93.9135 30.5971 92.771 29.9337C91.6284 29.2674 90.7415 28.3268 90.1058 27.109C89.4702 25.8931 89.1541 24.5274 89.1541 23.0115C89.1541 20.3934 89.8983 18.2893 91.3882 16.6994C92.8783 15.1129 94.8637 14.3175 97.3412 14.3175C98.7145 14.3175 99.9276 14.5857 100.983 15.1225V17.7202C99.8048 16.8958 98.5552 16.4836 97.2345 16.4836C95.6061 16.4836 94.2822 17.07 93.2636 18.239C92.2441 19.41 91.7339 20.9212 91.7339 22.7792C91.7339 24.6265 92.2188 26.0829 93.1869 27.1566C94.1537 28.2286 95.4518 28.7638 97.0805 28.7638C98.4529 28.7638 99.7435 28.3112 100.952 27.4024L100.952 29.817ZM116.431 23.2591H105.325C105.367 25.0435 105.835 26.4065 106.731 27.3503C107.627 28.2924 108.868 28.7647 110.454 28.7647C112.237 28.7647 113.86 28.1876 115.326 27.033V29.4006C113.954 30.4213 112.13 30.9305 109.857 30.9305C107.612 30.9305 105.863 30.2007 104.602 28.7417C103.343 27.2836 102.712 25.2641 102.712 22.6858C102.712 21.119 103.028 19.6887 103.659 18.3947C104.287 17.1009 105.157 16.0989 106.261 15.3865C107.368 14.6755 108.597 14.3178 109.948 14.3178C111.985 14.3178 113.575 14.9854 114.718 16.3225C115.861 17.6565 116.431 19.5256 116.431 21.9288V23.2591ZM113.852 21.1086C113.831 19.645 113.48 18.5078 112.798 17.6972C112.117 16.8877 111.157 16.483 109.919 16.483C108.751 16.483 107.751 16.9063 106.923 17.751C106.093 18.5961 105.571 19.7157 105.357 21.1077L113.852 21.1086ZM135.6 24.2637C135.6 26.2643 134.889 27.8754 133.465 29.0976C132.042 30.3196 130.171 30.9299 127.858 30.9299C125.759 30.9299 124.089 30.5273 122.849 29.7242V27.0016C124.335 28.1759 126.035 28.7641 127.948 28.7641C129.496 28.7641 130.728 28.3789 131.644 27.6116C132.562 26.8447 133.02 25.8051 133.02 24.4948C133.02 21.5986 130.97 20.1494 126.875 20.1494H125.047V17.9986H126.782C130.407 17.9986 132.221 16.6375 132.221 13.9149C132.221 11.3991 130.839 10.1419 128.072 10.1419C126.516 10.1419 125.057 10.6675 123.695 11.7191V9.26028C125.098 8.41521 126.766 7.99193 128.703 7.99193C130.526 7.99193 131.998 8.47777 133.119 9.45425C134.241 10.4286 134.8 11.7057 134.8 13.2814C134.8 16.2004 133.336 18.0764 130.407 18.9128V18.9736C131.963 19.1493 133.22 19.7151 134.172 20.6754C135.124 21.6342 135.6 22.8307 135.6 24.2637ZM152.175 23.5067C152.175 24.9097 151.876 26.1823 151.277 27.3264C150.678 28.4702 149.852 29.3584 148.794 29.9867C147.74 30.6165 146.558 30.9305 145.247 30.9305C143.045 30.9305 141.318 30.0388 140.061 28.255C138.807 26.472 138.18 23.9802 138.18 20.7832C138.18 18.2477 138.552 16.0064 139.295 14.0643C140.037 12.12 141.089 10.6229 142.45 9.5719C143.813 8.51849 145.385 7.99342 147.166 7.99342C148.683 7.99342 149.901 8.20447 150.824 8.62775V11.0258C149.687 10.4376 148.488 10.1443 147.228 10.1443C145.282 10.1443 143.724 11.0234 142.551 12.7821C141.377 14.5396 140.791 16.8832 140.791 19.8112H140.853C141.867 17.7169 143.542 16.6707 145.876 16.6707C147.781 16.6707 149.308 17.2969 150.455 18.5506C151.603 19.8019 152.175 21.4537 152.175 23.5067ZM149.595 23.8309C149.595 22.2829 149.217 21.0622 148.466 20.1644C147.713 19.2682 146.66 18.8212 145.308 18.8212C144.08 18.8212 143.046 19.2556 142.205 20.1276C141.365 20.9966 140.947 22.0533 140.947 23.2893C140.947 24.8471 141.363 26.1496 142.198 27.1941C143.033 28.2421 144.086 28.7644 145.356 28.7644C146.615 28.7644 147.637 28.3091 148.42 27.3955C149.203 26.4828 149.595 25.2944 149.595 23.8309ZM167 23.7686C167 25.9251 166.292 27.6551 164.873 28.9671C163.455 30.275 161.562 30.9287 159.196 30.9287C157.147 30.9287 155.627 30.621 154.634 30.0023V27.3102C156.128 28.2816 157.659 28.7653 159.226 28.7653C160.783 28.7653 162.037 28.3259 162.989 27.4494C163.943 26.5723 164.419 25.3977 164.419 23.9254C164.419 22.4799 163.936 21.3492 162.976 20.5287C162.012 19.7097 160.615 19.3002 158.782 19.3002C157.317 19.3002 156.073 19.3607 155.048 19.4837L155.8 8.36342H165.986V10.6523H157.982L157.537 17.164L159.565 17.0853C161.859 17.0853 163.672 17.6699 165.003 18.835C166.334 19.9998 167 21.6456 167 23.7686ZM30.6535 34.8478L30.6502 34.846V4.10876L19.7124 0.931152L0.0493538 8.36492L0 8.3745L0.0023785 30.5998L6.71242 27.9556V9.87275L19.7124 6.74334L19.7106 33.3298L0.0133791 30.5998L19.7106 37.9231V37.9312L30.6502 34.8829V34.8478H30.6535Z" fill="#C75B12"/>
</svg>
