<svg width="21" height="21" viewBox="0 0 21 21" fill="none" xmlns="http://www.w3.org/2000/svg">
<g clip-path="url(#clip0_551_31)">
<path d="M3.42642 9.00792C3.35966 9.07596 3.28001 9.13 3.19212 9.16689C3.10423 9.20379 3.00986 9.22279 2.91454 9.22279C2.81922 9.22279 2.72486 9.20379 2.63697 9.16689C2.54908 9.13 2.46943 9.07596 2.40267 9.00792C2.26679 8.86968 2.19064 8.68359 2.19064 8.48975C2.19064 8.2959 2.26679 8.10981 2.40267 7.97157L8.73522 1.57497C10.1632 0.466171 11.5996 -0.0661789 13.0297 0.00627114C14.8315 0.0986711 16.2343 0.785371 17.425 1.91202C18.6388 3.06072 19.4242 4.69977 19.4242 6.68637C19.4242 8.21097 18.9811 9.55287 18.0456 10.7436L9.11742 19.9416C8.21442 20.6818 7.21062 21.0399 6.13542 20.9968C4.77042 20.9401 3.75507 20.4991 3.00012 19.7526C2.11602 18.88 1.57422 17.808 1.57422 16.3663C1.57422 15.2197 1.97007 14.1613 2.78697 13.168L10.6452 5.14497C11.2752 4.47297 11.8915 4.07397 12.5215 3.97737C12.942 3.91114 13.3723 3.94875 13.775 4.08693C14.1776 4.2251 14.5403 4.45965 14.8315 4.77012C15.3901 5.36127 15.6295 6.09837 15.5455 6.93732C15.4878 7.50957 15.2536 8.03667 14.8231 8.54172L7.59912 15.9421C7.5328 16.0104 7.45354 16.0648 7.36597 16.1021C7.27841 16.1395 7.18428 16.159 7.08909 16.1596C6.9939 16.1602 6.89954 16.1418 6.81152 16.1056C6.7235 16.0693 6.64358 16.0159 6.57642 15.9484C6.43969 15.811 6.36241 15.6254 6.36124 15.4315C6.36006 15.2377 6.43507 15.0511 6.57012 14.9121L13.7595 7.54947C13.9695 7.30272 14.0797 7.05387 14.106 6.78927C14.148 6.36927 14.0472 6.05952 13.7857 5.78337C13.6537 5.64194 13.4887 5.53534 13.3055 5.47306C13.1223 5.41077 12.9266 5.39474 12.7357 5.42637C12.4806 5.46522 12.1236 5.69727 11.6836 6.16557L3.85797 14.1529C3.29412 14.8407 3.02112 15.5704 3.02112 16.3674C3.02112 17.3691 3.38337 18.0862 4.01022 18.7047C4.50897 19.1982 5.18622 19.4922 6.19422 19.5342C6.90822 19.5625 7.56972 19.3263 8.14512 18.8601L16.962 9.77757C17.6392 8.90922 17.9773 7.88757 17.9773 6.68742C17.9773 5.13132 17.3715 3.86922 16.4359 2.98302C15.4804 2.07792 14.3884 1.54452 12.9573 1.47102C11.8989 1.41642 10.789 1.82802 9.68442 2.67432L3.42642 9.00792Z" fill="#1E1D25"/>
</g>
<defs>
<clipPath id="clip0_551_31">
<rect width="21" height="21" fill="white"/>
</clipPath>
</defs>
</svg>
