<svg width="126" height="105" viewBox="0 0 126 105" fill="none" xmlns="http://www.w3.org/2000/svg">
<path d="M67.2273 53.4268H40.1818C37.7225 53.4268 35.364 52.4221 33.625 50.6339C31.886 48.8456 30.9091 46.4201 30.9091 43.8911V16.0786C30.9091 15.8678 30.8277 15.6657 30.6828 15.5167C30.5378 15.3677 30.3413 15.2839 30.1364 15.2839H12.3636C9.0846 15.2839 5.93986 16.6235 3.62122 19.0079C1.30259 21.3923 0 24.6262 0 27.9982V91.5696C0 94.9417 1.30259 98.1756 3.62122 100.56C5.93986 102.944 9.0846 104.284 12.3636 104.284H55.6364C58.9154 104.284 62.0601 102.944 64.3788 100.56C66.6974 98.1756 68 94.9417 68 91.5696V54.2214C68 54.0107 67.9186 53.8086 67.7737 53.6595C67.6288 53.5105 67.4322 53.4268 67.2273 53.4268Z" fill="#DFE3EE"/>
<path d="M65.8859 45.6149L37.6691 17.3981C37.6142 17.3435 37.5444 17.3064 37.4685 17.2914C37.3926 17.2764 37.314 17.2841 37.2425 17.3137C37.171 17.3433 37.1098 17.3933 37.0667 17.4576C37.0235 17.5218 37.0003 17.5973 37 17.6747V43.1446C37 43.9772 37.3307 44.7757 37.9195 45.3644C38.5082 45.9532 39.3067 46.2839 40.1393 46.2839H65.6092C65.6866 46.2836 65.7621 46.2604 65.8264 46.2173C65.8906 46.1741 65.9407 46.113 65.9702 46.0415C65.9998 45.97 66.0076 45.8913 65.9925 45.8154C65.9775 45.7395 65.9404 45.6697 65.8859 45.6149Z" fill="#DFE3EE"/>
<circle cx="104" cy="22.2839" r="22" fill="#DFE3EE"/>
<path d="M100.986 25.2839V14.0839H105.594C107.066 14.0839 108.224 14.4039 109.066 15.0439C109.92 15.6733 110.346 16.6066 110.346 17.8439C110.346 19.0706 109.92 20.0039 109.066 20.6439C108.224 21.2733 107.066 21.5879 105.594 21.5879H102.138L103.066 20.6279V25.2839H100.986ZM103.066 20.8519L102.138 19.9079H105.578C106.432 19.9079 107.088 19.7319 107.546 19.3799C108.016 19.0173 108.25 18.5106 108.25 17.8599C108.25 17.2093 108.016 16.7133 107.546 16.3719C107.088 16.0199 106.432 15.8439 105.578 15.8439H102.138L103.066 14.8199V20.8519ZM99.3863 23.6199V22.4999H106.586V23.6199H99.3863Z" fill="#ABB3C8"/>
<ellipse cx="47" cy="62.7839" rx="15" ry="15.5" fill="#DFE3EE"/>
<path d="M45.2405 64.2839V56.5839H48.4085C49.4205 56.5839 50.2162 56.8039 50.7955 57.2439C51.3822 57.6766 51.6755 58.3183 51.6755 59.1689C51.6755 60.0123 51.3822 60.6539 50.7955 61.0939C50.2162 61.5266 49.4205 61.7429 48.4085 61.7429H46.0325L46.6705 61.0829V64.2839H45.2405ZM46.6705 61.2369L46.0325 60.5879H48.3975C48.9842 60.5879 49.4352 60.4669 49.7505 60.2249C50.0732 59.9756 50.2345 59.6273 50.2345 59.1799C50.2345 58.7326 50.0732 58.3916 49.7505 58.1569C49.4352 57.9149 48.9842 57.7939 48.3975 57.7939H46.0325L46.6705 57.0899V61.2369ZM44.1405 63.1399V62.3699H49.0905V63.1399H44.1405Z" fill="#ABB3C8"/>
<ellipse cx="95" cy="78.7839" rx="15" ry="15.5" fill="#DFE3EE"/>
<path d="M93.2405 80.2839V72.5839H96.4085C97.4205 72.5839 98.2162 72.8039 98.7955 73.2439C99.3822 73.6766 99.6755 74.3183 99.6755 75.1689C99.6755 76.0123 99.3822 76.6539 98.7955 77.0939C98.2162 77.5266 97.4205 77.7429 96.4085 77.7429H94.0325L94.6705 77.0829V80.2839H93.2405ZM94.6705 77.2369L94.0325 76.5879H96.3975C96.9842 76.5879 97.4352 76.4669 97.7505 76.2249C98.0732 75.9756 98.2345 75.6273 98.2345 75.1799C98.2345 74.7326 98.0732 74.3916 97.7505 74.1569C97.4352 73.9149 96.9842 73.7939 96.3975 73.7939H94.0325L94.6705 73.0899V77.2369ZM92.1405 79.1399V78.3699H97.0905V79.1399H92.1405Z" fill="#ABB3C8"/>
</svg>
