<svg width="162" height="29" viewBox="0 0 162 29" fill="none" xmlns="http://www.w3.org/2000/svg">
<path fill-rule="evenodd" clip-rule="evenodd" d="M159.527 22.4316C159.197 22.4254 158.87 22.4854 158.563 22.6082C158.257 22.7311 157.978 22.9142 157.743 23.1469C157.508 23.3796 157.321 23.6573 157.193 23.9636C157.066 24.27 157 24.5989 157 24.9312C157 25.2634 157.066 25.5923 157.193 25.8987C157.321 26.205 157.508 26.4827 157.743 26.7154C157.978 26.9481 158.257 27.1312 158.563 27.2541C158.87 27.3769 159.197 27.4369 159.527 27.4307C159.852 27.4304 160.175 27.3653 160.476 27.2391C160.776 27.1129 161.049 26.9282 161.279 26.6954C161.509 26.4627 161.691 26.1866 161.815 25.8828C161.938 25.5791 162.001 25.2538 162 24.9255C162 24.598 161.936 24.2737 161.812 23.9712C161.688 23.6686 161.506 23.3937 161.276 23.1621C161.046 22.9305 160.774 22.7468 160.473 22.6214C160.173 22.4961 159.852 22.4316 159.527 22.4316ZM159.527 27.1301C159.24 27.1304 158.955 27.0736 158.69 26.9628C158.425 26.8521 158.184 26.6896 157.982 26.4847C157.779 26.2799 157.618 26.0367 157.509 25.7691C157.4 25.5015 157.344 25.2148 157.346 24.9255C157.346 24.6371 157.402 24.3515 157.512 24.0852C157.622 23.8189 157.782 23.577 157.985 23.3733C158.188 23.1697 158.428 23.0083 158.693 22.8985C158.957 22.7886 159.241 22.7324 159.527 22.7331C159.812 22.7331 160.095 22.7898 160.359 22.9C160.623 23.0102 160.862 23.1717 161.064 23.3753C161.266 23.5789 161.426 23.8206 161.536 24.0866C161.645 24.3525 161.701 24.6376 161.701 24.9255C161.702 25.2143 161.647 25.5005 161.538 25.7677C161.43 26.035 161.27 26.278 161.068 26.4828C160.866 26.6876 160.626 26.8502 160.361 26.9613C160.097 27.0724 159.813 27.1297 159.527 27.1301Z" fill="black"/>
<path fill-rule="evenodd" clip-rule="evenodd" d="M161.15 24.843C161.15 24.6121 161.046 24.3692 160.84 24.2534C160.632 24.1315 160.399 24.1195 160.166 24.1195H158.96V26.8546H159.298V25.593H159.92L160.71 26.8546H161.111L160.276 25.593C160.769 25.5793 161.15 25.3811 161.15 24.843ZM159.816 25.3296H159.297V24.3624H160.087C160.43 24.3624 160.807 24.4139 160.807 24.837C160.808 25.3939 160.204 25.3296 159.816 25.3296ZM145.375 11.6197L150.434 6.27728C150.728 5.88508 150.873 5.61046 150.873 5.37531C150.873 4.98311 150.532 4.82605 149.46 4.82605H148.183V1.45328H162V4.82605H160.185C158.088 4.82605 157.698 5.1393 154.773 8.7867L146.77 17.3345V22.5507C146.77 23.8852 147.451 24.3546 149.402 24.3546H152.423V27.609H133.071V24.3546H136.093C138.042 24.3546 138.725 23.8852 138.725 22.5507V17.3345L129.298 7.02136C127.74 5.21826 127.956 4.82605 123.618 4.82605V1.45328H141.12V4.82605H139.874C138.606 4.82605 138.069 5.0612 138.069 5.5315C138.069 5.92456 138.458 6.23781 138.702 6.55105L143.471 11.6917C144.038 12.2745 144.73 12.35 145.375 11.6197ZM27.9509 1.45243H32.1726V10.8636H28.2737C27.9284 8.98237 26.7378 8.25031 25.6522 7.26337C23.6936 5.48344 19.452 4.00131 15.8846 4.00131C11.2802 4.00131 7.39428 5.41393 7.39428 7.4908C7.39428 13.2563 33.7268 8.66826 33.7268 19.5693C33.7268 25.2549 28.0863 28.4312 17.9568 28.4312C14.4501 28.4312 9.14371 27.355 6.01279 25.7106C5.03134 25.1502 4.61481 26.241 4.43084 27.6081H0.102397V17.8829H4.01778C4.88122 20.3537 6.07093 20.8626 7.16519 21.8435C9.06388 23.5694 13.5832 24.8249 17.7277 24.7846C23.9765 24.7237 26.1251 23.3729 26.1251 21.4118C26.1251 19.4517 24 18.9805 17.1524 17.9224L11.3383 16.9809C4.77708 16 0 14.5496 0 9.37371C0 4.00131 6.04316 0.628537 15.5982 0.628537C19.6247 0.628537 22.9934 1.16063 26.2267 2.96803C27.1222 3.54389 27.9622 3.61254 27.9509 1.45243ZM110.341 17.2092L110.424 6.7493C110.424 5.37702 109.702 4.90672 107.639 4.90672H105.216V1.65238H120.636V4.90672H118.626C116.562 4.90672 115.84 5.37788 115.84 6.7493V27.8072L109.804 27.76L90.2587 9.45524V22.7489C90.2587 24.0826 90.9807 24.5915 93.0434 24.5915H95.7265V27.8072H79.7118V24.5915H82.3654C84.4281 24.5915 85.1501 24.0817 85.1501 22.7489V6.7493C85.1501 5.37702 84.4281 4.90672 82.3654 4.90672H79.7118V1.65238H93.558L110.341 17.2092ZM58.6883 0.431152C46.3989 0.431152 38.7061 5.80441 38.7061 14.4303C38.7061 22.9017 46.2922 28.2338 58.3134 28.2338C71.0818 28.2338 78.5091 22.9798 78.5091 13.9995C78.5099 5.92199 70.4952 0.431152 58.6883 0.431152ZM58.4089 24.8232C51.6064 24.8232 47.6962 20.9407 47.6962 14.2346C47.6962 7.68647 51.7765 3.80392 58.749 3.80392C65.4378 3.80392 69.348 7.76542 69.348 14.5101C69.348 21.0977 65.3805 24.8232 58.4089 24.8232Z" fill="black"/>
</svg>
