<svg width="39" height="48" viewBox="0 0 39 48" fill="none" xmlns="http://www.w3.org/2000/svg">
<path d="M37.7545 16.3648C37.4766 16.5809 32.5711 19.3507 32.5711 25.5098C32.5711 32.6337 38.8132 35.1539 39 35.2163C38.9713 35.3699 38.0084 38.6679 35.7089 42.0282C33.6585 44.9853 31.5171 47.9376 28.2596 47.9376C25.002 47.9376 24.1636 46.0414 20.403 46.0414C16.7382 46.0414 15.4352 48 12.4555 48C9.47574 48 7.39663 45.2637 5.00614 41.9034C2.23719 37.9574 0 31.8272 0 26.009C0 16.6769 6.05528 11.7276 12.0147 11.7276C15.1813 11.7276 17.8209 13.811 19.809 13.811C21.7013 13.811 24.6523 11.6028 28.2548 11.6028C29.6201 11.6028 34.5256 11.7276 37.7545 16.3648ZM26.5445 7.65196C28.0344 5.88059 29.0883 3.42274 29.0883 0.964896C29.0883 0.624062 29.0596 0.278428 28.9973 0C26.5733 0.0912091 23.6894 1.61776 21.9504 3.63876C20.5851 5.19412 19.3108 7.65197 19.3108 10.1434C19.3108 10.5179 19.3731 10.8923 19.4018 11.0123C19.5551 11.0411 19.8042 11.0747 20.0533 11.0747C22.2282 11.0747 24.9636 9.61536 26.5445 7.65196Z" fill="black"/>
</svg>
