<svg width="49" height="49" viewBox="0 0 49 49" fill="none" xmlns="http://www.w3.org/2000/svg">
<path d="M48.0153 24.1309C48.0153 37.4581 37.2667 48.2618 24.0077 48.2618C10.7487 48.2618 0 37.4583 0 24.1309C0 10.8039 10.7487 0 24.0077 0C37.2668 0 48.0153 10.8039 48.0153 24.1309Z" fill="white"/>
<path d="M23.8073 8.579C24.6524 9.06613 25.5489 9.69305 26.2313 10.3574L25.9632 10.6268C24.6166 10.4836 23.1983 10.6623 21.9217 10.682C21.7793 10.5384 21.4925 10.3224 21.7596 10.1419L23.8073 8.579ZM47.6187 25.3071C47.6366 25.915 47.6938 26.437 47.4567 27.0591C44.9965 27.7588 43.3804 25.1539 40.9933 25.5468L41.2632 26.897C43.4716 26.9696 44.851 29.0874 47.1326 28.9963C46.8084 29.6437 47.2772 31.3494 45.8411 30.6676C44.3505 30.3094 43.2727 28.9963 41.6393 28.9963C41.4422 29.3582 41.567 29.8592 41.5324 30.2873C43.2556 30.5576 44.4949 32.0141 46.2177 32.283C46.0556 32.875 45.895 33.5379 45.4098 33.899C44.0083 33.5579 42.9136 32.2993 41.4215 32.3353L41.1558 33.5751C42.5738 33.6115 43.49 34.866 44.7643 35.2426C44.7994 35.7656 44.3319 36.2328 44.0627 36.6996C42.9314 36.3599 42.0686 35.388 40.776 35.4597C40.7581 34.9727 41.0472 34.4197 40.9381 33.899C39.4864 34.3308 38.5129 32.9819 37.4369 32.1727C37.406 29.5248 34.6184 27.7877 34.4712 25.3071C34.4429 24.8126 34.5183 24.2846 34.7436 23.7172C35.6598 21.5989 35.372 18.8486 34.3674 16.8736C34.0622 16.3538 33.5213 15.9435 33.0172 15.638C33.7547 17.2009 34.6534 19.0476 34.2049 20.9687C34.1529 22.4522 33.2775 23.877 33.2675 25.3071C33.2642 25.817 33.3729 26.3269 33.6662 26.8418C34.8342 28.9453 36.9354 30.9365 36.1453 33.5746C35.9281 34.3849 35.2811 35.0115 35.1197 35.8361C36.4861 36.9678 37.778 38.2429 39.591 38.3147C40.2369 37.9022 39.8781 36.0726 41.207 36.9164L43.1473 37.887C43.0059 38.4064 42.5711 38.8719 42.1772 39.2296C41.4411 38.8713 40.7229 38.4417 39.805 38.4768C39.5343 38.7639 39.3014 39.0863 39.3221 39.4983C39.968 39.6047 40.5606 39.8773 41.1002 40.255C40.8496 40.7946 40.3614 41.1328 39.9125 41.546L38.4073 41.0079C38.156 41.3675 37.634 41.7453 37.8172 42.14C38.1568 42.2854 38.5336 42.482 38.7836 42.734C38.1192 43.4521 37.2771 43.9141 36.4669 44.4015C35.7689 42.1203 33.4693 40.5209 33.6667 37.8828L33.5599 37.7761C33.0193 38.3838 33.1999 39.3557 33.2348 40.1443C33.8817 41.7967 35.4248 43.0729 35.6588 44.8849C35.3886 45.3513 34.7795 45.4442 34.3122 45.6416C34.3664 42.3747 29.411 39.8969 32.5888 36.5923C33.6486 34.9742 35.4243 33.43 34.7951 31.2022C34.1492 29.0512 31.8644 27.7184 31.8846 25.3071L31.8881 25.1191C32.4085 22.6045 33.9894 19.9287 32.6961 17.2537C32.3357 16.1777 31.5304 14.955 30.4351 14.5054C32.0681 16.3745 32.7155 19.4242 31.7813 21.9393C31.3104 22.9397 30.6622 24.1316 30.5972 25.3076H30.5933C30.5586 25.9218 30.684 26.5325 31.0803 27.1117C32.3202 29.1235 34.4738 31.3334 33.2349 33.9552C31.8345 36.0551 29.3926 38.1912 30.7563 40.9572C31.7438 42.6091 33.2714 44.2574 32.8593 46.2881L31.2433 46.8262C32.3207 43.0386 27.041 40.813 29.2512 37.0241C30.6157 34.9951 33.0563 33.0915 31.6747 30.3987C30.8488 28.7302 29.1422 27.7426 29.1961 25.6575L29.2549 25.3074C29.8109 22.3502 32.0589 19.551 30.4871 16.3909C30.074 15.4578 29.2486 14.5065 28.3324 13.9674L28.277 14.0227C30.1095 15.8003 30.6671 18.7251 29.6791 21.0762C29.2181 22.4556 28.2064 23.8297 28.0007 25.3079C27.9029 26.0049 27.9854 26.7272 28.3881 27.4881C29.5551 29.3361 31.6016 31.2964 30.3245 33.6856C28.9797 35.659 26.7344 37.5792 27.6312 40.1454C28.6191 42.3907 30.6817 44.5295 29.568 47.3135L27.9005 47.6901C29.2287 44.9769 27.2371 42.2848 26.0704 39.9317C24.6511 36.5558 29.1198 34.9393 29.1914 31.8528C29.1745 29.8607 27.0566 28.7295 26.609 26.8981C25.6924 26.1248 24.7423 27.2056 23.6465 27.005C22.8375 27.1675 21.595 25.8914 21.112 27.2747C20.5369 29.3027 17.9169 30.7936 19.0684 33.199C20.1641 35.3365 22.8009 36.8996 21.92 39.6659C21.1314 42.2498 18.5262 44.71 20.1419 47.6901C19.4782 47.4751 18.2388 47.8867 18.2567 46.8264C17.2337 43.2174 21.5963 41.1149 20.2488 37.5078C19.6217 35.2984 16.7646 34.0779 17.3936 31.4205C17.8586 29.2331 20.3132 27.7039 19.9689 25.3078C19.941 25.1071 19.8916 24.9018 19.8211 24.6878C18.9049 22.1021 17.0358 19.5159 18.1498 16.4981C18.4557 15.6362 19.0666 14.9002 19.6035 14.1297C17.8257 15.0811 16.9289 17.0928 16.9657 19.1393C16.8882 21.3648 18.5322 23.2712 18.7661 25.3078C18.8581 26.1297 18.7235 26.9713 18.1498 27.864C16.9836 29.4465 15.4585 31.115 16.1577 33.1986C16.8225 35.3004 19.4438 36.5736 19.2823 39.0165C19.2645 41.9063 15.9067 43.7055 16.8584 46.9373L15.1871 46.3951C14.5236 43.5233 17.5755 42.054 17.6105 39.3968C18.0425 36.3412 14.1452 35.2074 14.3791 32.2287C14.3623 29.9656 16.3544 28.5323 17.2343 26.6286C17.3852 26.1653 17.4354 25.7276 17.4152 25.3079C17.3074 23.2031 15.4108 21.5575 15.7256 19.1911C15.8315 17.4495 16.424 15.9229 17.5557 14.613C15.9943 15.2403 15.3493 17.0376 14.9181 18.5461C14.1696 20.965 15.9562 23.1408 16.1354 25.3081C16.2148 26.2651 15.9809 27.2166 15.0804 28.1894C13.7869 29.7138 12.4751 31.6372 13.409 33.6859C14.398 35.9465 17.505 37.706 16.1574 40.5256C15.4221 42.3035 13.6616 43.6493 13.7339 45.7495C13.2675 45.5519 12.7836 45.355 12.3871 44.9968C12.3871 42.3219 16.1922 40.6511 14.3793 37.8321C14.2187 38.3883 14.1841 39.1442 14.0584 39.7726C13.4292 41.4073 12.083 42.7159 11.5793 44.4059C10.7369 44.0808 9.85605 43.3977 9.15537 42.6796L10.1259 42.0856C10.0181 41.7258 9.73128 41.4209 9.48045 41.1157C8.85014 41.0271 8.43628 41.4406 7.9167 41.6027C7.46782 41.2069 7.03459 40.8476 6.67674 40.3629C6.99892 39.4452 9.51628 40.204 8.24097 38.6953C7.38001 38.157 6.51582 38.926 5.76187 39.285L4.73982 37.994C5.61967 37.4559 6.49725 36.7 7.59162 36.9167C7.86134 37.4024 7.88006 38.1167 8.39964 38.3702C10.2494 38.3343 11.5601 36.9351 12.9781 35.8395C11.9897 34.3689 11.1853 32.3386 12.0632 30.5602C12.7666 28.7781 14.5994 27.2771 14.6826 25.307C14.7013 24.8586 14.6314 24.3868 14.4353 23.879C13.4662 21.3827 13.1241 18.0091 14.9739 15.7997C13.9681 16.0699 13.3751 17.3234 13.0334 18.2753C11.9215 20.7127 13.3278 22.9709 13.3764 25.3068C13.383 25.7269 13.349 26.1481 13.2471 26.5723C12.2951 28.4934 10.7527 30.179 10.5022 32.3897C9.40652 33.0886 8.50698 34.3108 6.94582 33.8984C6.89094 34.3109 7.01667 34.9398 7.15985 35.4071C5.92183 35.3551 5.07765 36.2675 4.03526 36.6985C3.48 36.5203 3.33554 35.8025 3.12054 35.3002C4.34065 34.8881 5.22082 33.665 6.6217 33.6843C6.78408 33.2332 6.53067 32.8198 6.45916 32.3893C4.71657 31.6159 1.95435 36.2128 1.72208 32.2273C3.46338 32.1195 4.57614 30.5031 6.30066 30.342L6.35215 29.051C4.39504 28.8533 3.13604 30.8653 1.17974 30.6669L0.74829 28.9442C3.01127 29.0856 4.35953 27.0576 6.51469 26.9485C6.80103 26.5719 6.83557 26.0152 6.89077 25.495C4.53837 25.1885 2.92411 27.7954 0.427405 27.0037C0.427405 27.0037 0.341374 25.9187 0.294726 25.307H0.298115C0.281167 25.0677 0.265026 24.901 0.265026 24.901C2.49136 25.7649 4.4475 24.1658 6.35215 23.3403C6.83654 23.1954 7.59194 23.4467 7.8092 22.9086C7.79032 22.4955 8.54362 22.0126 7.91654 21.7243C5.13204 21.3464 3.28228 24.7049 0.427083 23.1778L0.212891 22.746C0.806882 14.6311 5.38352 6.78556 12.9781 2.92478C16.0539 1.16702 19.8751 0.271027 23.7288 0.239229C28.3795 0.200652 33.0789 1.42059 36.5747 3.89518C39.9695 5.97754 43.2167 9.40929 44.979 12.893C46.6645 15.9453 47.4402 19.3703 47.6718 23.0165C44.7264 25.2421 42.7504 20.9198 39.7511 21.8871C39.9127 22.3549 40.0021 22.8388 40.3449 23.2338C43.0032 23.2151 44.8338 25.9984 47.6163 24.9015L47.6187 25.3071ZM13.7851 15.3129C11.9174 14.0915 9.54953 15.2415 7.80888 15.9067C7.64731 14.272 6.98342 12.7826 5.59917 11.7054C5.46487 11.6385 5.27925 11.4979 5.11203 11.4876C5.01195 11.4813 4.91672 11.5217 4.8428 11.6497C5.4702 15.5095 2.96107 18.2028 1.18297 21.1308C1.77502 21.6147 2.72622 21.5424 3.44433 21.4002C5.32929 20.6464 7.12482 19.3344 9.36924 19.7841C10.033 18.653 11.1481 17.5573 12.0625 16.6595C12.6212 16.1761 13.3887 15.8691 13.7851 15.3129ZM19.4961 17.737C19.4603 17.9694 19.5141 18.3837 19.8724 18.2236C20.4299 17.4516 21.4169 18.0624 22.0271 18.1168V17.8995C21.6923 17.3738 21.0036 17.1097 20.3042 17.136C20.1428 17.1417 19.9788 17.1652 19.8209 17.2019C19.5869 17.2539 19.424 17.468 19.4961 17.737ZM28.2762 15.4238C27.7749 14.3102 26.6257 13.8595 25.5828 13.5903C25.0716 13.5274 24.541 13.4848 24.0148 13.4797C23.9162 13.4788 23.8178 13.4775 23.7196 13.4797C22.2477 13.5094 20.8413 13.8873 19.9822 15.0989C19.8588 15.4409 19.3167 15.9212 19.8201 16.2278C20.9514 16.1555 22.2424 16.0136 22.9965 16.9845C22.9965 17.8472 23.5535 18.995 22.6202 19.408C21.8469 18.692 20.9311 19.7128 20.0896 19.1382C19.694 18.9044 19.4437 19.1772 19.2816 19.5183C19.0477 21.7443 20.2133 24.201 22.2958 25.4395C23.1398 25.7439 24.2744 26.0335 25.1552 25.6015C27.2739 24.615 28.1515 22.3539 28.546 20.2708C28.493 19.8744 28.5119 19.1018 27.9557 19.0831C27.3276 19.4804 26.4116 19.2457 25.746 19.0831C25.3524 19.2101 25.3344 19.7859 24.8865 19.895L24.6135 19.6773C24.3798 18.6912 24.2356 17.2902 25.1523 16.6079C26.1766 16.1948 27.3796 16.0144 28.4389 16.3385C28.6367 15.9976 28.3314 15.7292 28.2762 15.4238ZM27.1953 17.1943C27.1241 17.1961 27.0548 17.1996 26.9848 17.2019C26.6085 17.4529 25.5121 17.2724 25.9079 18.1168C26.5906 17.5767 27.5423 17.9552 28.2246 18.2236C28.4769 18.0984 28.4222 17.8469 28.4388 17.6301C28.2197 17.2225 27.6963 17.1843 27.1953 17.1943ZM35.013 9.6025C33.684 9.53197 32.5711 10.2864 31.3498 10.6278C31.2435 9.58862 32.0329 8.49119 32.213 7.44799C30.2385 7.57502 28.6746 8.76349 27.0411 9.71291C26.6631 8.79948 26.2839 7.88138 25.9085 6.96457L28.0632 4.91707L28.1184 4.64736L25.208 4.4853C24.7066 3.6069 24.5091 2.54885 23.9165 1.74083C23.4317 2.65652 23.1059 3.62563 22.6215 4.5405L19.7145 4.70304V4.91707L21.9209 6.9092C21.6511 7.93319 21.4005 9.0458 20.7367 9.81976C19.444 9.04547 18.1697 8.20275 16.7523 7.66509C16.4113 7.55501 15.9251 7.376 15.6199 7.60989C16.0681 8.59772 16.6958 9.66029 16.5903 10.7385C15.9974 10.6294 15.5314 10.2493 14.9744 10.0895C14.3082 9.90773 13.5178 9.55263 12.8715 9.76859C13.9491 11.276 14.8286 12.8536 15.1329 14.6677C18.7077 12.9424 22.8766 11.9935 27.204 12.7308C29.2324 13.0536 31.0977 13.8799 32.9115 14.5606C32.9823 12.6583 34.1853 11.1298 35.013 9.6025ZM41.1518 19.9463C42.9819 20.4307 44.8178 22.4246 46.7557 21.1309C45.068 18.3303 42.5559 15.744 43.2545 12.0816C43.3276 11.8316 43.1661 11.5785 42.9336 11.543C41.8388 11.9904 40.9909 13.0691 40.5577 14.1294C40.3795 14.7565 40.2739 15.4231 40.0229 16.0142C38.7113 15.3316 37.3117 14.6703 35.7137 14.8301C35.1375 14.9019 34.3114 14.9397 34.205 15.5313C36.0185 16.5004 37.5097 18.1177 38.6211 19.84C39.3949 19.7138 40.3438 19.8216 41.1518 19.9463ZM21.9753 22.4774L22.0269 22.802C22.7286 23.2695 22.9444 24.0617 23.9157 23.9897C24.7772 24.0408 25.4235 23.2338 25.8527 22.5878C24.6869 22.4269 23.2685 22.676 21.9753 22.4774ZM22.9453 21.0239C22.9804 21.1677 22.8564 21.3832 23.0522 21.4559C23.6268 21.3311 24.6677 21.7616 24.9886 21.0793C24.7646 20.8283 24.3988 20.7143 24.015 20.7143C23.6313 20.7143 23.2331 20.8262 22.9453 21.0239Z" fill="#007042"/>
<path opacity="0.99" d="M21.9766 20.4008H25.9137V22.0183H21.9766V20.4008Z" fill="white"/>
<path d="M22.7042 21.2657C23.213 21.3861 23.3389 21.5665 23.741 21.6169C24.1684 21.6093 24.1067 21.5225 24.8523 21.2652C24.9012 21.2479 24.9685 21.1399 24.885 21.0571C24.4221 20.5976 24.1022 20.9259 23.812 20.9346C23.427 20.9388 23.0659 20.605 22.6898 21.0389C22.6258 21.127 22.5924 21.2135 22.7042 21.2657Z" fill="#007042"/>
<path d="M41.3033 47.8053V45.5015H40.4805V45.0325H42.684V45.5015H41.8631V47.8053H41.3033Z" fill="#007042"/>
<path d="M43.041 47.8053V45.0323H43.8789L44.382 46.9239L44.8795 45.0323H45.7193V47.8053H45.1991V45.6226L44.6487 47.8053H44.1096L43.5611 45.6226V47.8053H43.041Z" fill="#007042"/>
</svg>
