<?xml version="1.0" encoding="UTF-8"?>
<svg xmlns="http://www.w3.org/2000/svg" width="239" height="63" viewBox="0 0 239 63" fill="none">
  <path d="M0.49 41.824L0.868 41.082C1.29733 41.4553 1.778 41.7353 2.31 41.922C2.85133 42.0993 3.39267 42.1927 3.934 42.202C4.47533 42.202 4.97 42.1227 5.418 41.964C5.87533 41.8053 6.244 41.572 6.524 41.264C6.804 40.9467 6.944 40.564 6.944 40.116C6.944 39.5467 6.71533 39.108 6.258 38.8C5.81 38.492 5.18467 38.338 4.382 38.338H2.282V37.498H4.326C5.01667 37.498 5.55333 37.3533 5.936 37.064C6.328 36.7653 6.524 36.3547 6.524 35.832C6.524 35.4587 6.412 35.1413 6.188 34.88C5.97333 34.6093 5.67467 34.404 5.292 34.264C4.91867 34.1147 4.49867 34.0353 4.032 34.026C3.56533 34.0073 3.08 34.068 2.576 34.208C2.08133 34.3387 1.60067 34.5487 1.134 34.838L0.798 33.984C1.37667 33.6387 1.97867 33.4007 2.604 33.27C3.22933 33.13 3.836 33.0833 4.424 33.13C5.012 33.1767 5.53933 33.312 6.006 33.536C6.482 33.76 6.86 34.054 7.14 34.418C7.42 34.782 7.56 35.216 7.56 35.72C7.56 36.1867 7.43867 36.5973 7.196 36.952C6.96267 37.3067 6.63133 37.582 6.202 37.778C5.782 37.9647 5.28267 38.058 4.704 38.058L4.76 37.75C5.41333 37.75 5.978 37.8527 6.454 38.058C6.93933 38.2633 7.31267 38.5573 7.574 38.94C7.84467 39.3133 7.98 39.752 7.98 40.256C7.98 40.732 7.85867 41.1567 7.616 41.53C7.38267 41.894 7.056 42.202 6.636 42.454C6.22533 42.6967 5.76333 42.874 5.25 42.986C4.73667 43.0887 4.2 43.1167 3.64 43.07C3.08 43.0233 2.52933 42.902 1.988 42.706C1.44667 42.5007 0.947333 42.2067 0.49 41.824ZM14.8784 43V41.376L14.8364 41.11V38.394C14.8364 37.7687 14.6591 37.288 14.3044 36.952C13.9591 36.616 13.4411 36.448 12.7504 36.448C12.2744 36.448 11.8217 36.5273 11.3924 36.686C10.9631 36.8447 10.5991 37.0547 10.3004 37.316L9.85239 36.574C10.2257 36.2567 10.6737 36.014 11.1964 35.846C11.7191 35.6687 12.2697 35.58 12.8484 35.58C13.8004 35.58 14.5331 35.818 15.0464 36.294C15.5691 36.7607 15.8304 37.4747 15.8304 38.436V43H14.8784ZM12.3444 43.07C11.7937 43.07 11.3131 42.9813 10.9024 42.804C10.5011 42.6173 10.1931 42.3653 9.97839 42.048C9.76372 41.7213 9.65639 41.348 9.65639 40.928C9.65639 40.5453 9.74506 40.2 9.92239 39.892C10.1091 39.5747 10.4077 39.3227 10.8184 39.136C11.2384 38.94 11.7984 38.842 12.4984 38.842H15.0324V39.584H12.5264C11.8171 39.584 11.3224 39.71 11.0424 39.962C10.7717 40.214 10.6364 40.5267 10.6364 40.9C10.6364 41.32 10.7997 41.656 11.1264 41.908C11.4531 42.16 11.9104 42.286 12.4984 42.286C13.0584 42.286 13.5391 42.16 13.9404 41.908C14.3511 41.6467 14.6497 41.2733 14.8364 40.788L15.0604 41.474C14.8737 41.9593 14.5471 42.3467 14.0804 42.636C13.6231 42.9253 13.0444 43.07 12.3444 43.07ZM23.3065 42.132L23.0825 42.398V35.65H24.0765V42.398L23.8105 42.132H27.9125L27.6465 42.398V35.65H28.6405V43H18.4765V35.65H19.4705V42.398L19.2185 42.132H23.3065ZM28.8365 44.61V42.734L29.0885 43H27.5905V42.132H29.7745V44.61H28.8365ZM31.4648 43V35.65H32.4588V41.488L37.3728 35.65H38.2548V43H37.2608V37.148L32.3608 43H31.4648ZM42.5035 43V36.252L42.7555 36.518H39.7175V35.65H46.2835V36.518H43.2455L43.4975 36.252V43H42.5035ZM52.2846 43V41.376L52.2426 41.11V38.394C52.2426 37.7687 52.0653 37.288 51.7106 36.952C51.3653 36.616 50.8473 36.448 50.1566 36.448C49.6806 36.448 49.228 36.5273 48.7986 36.686C48.3693 36.8447 48.0053 37.0547 47.7066 37.316L47.2586 36.574C47.632 36.2567 48.08 36.014 48.6026 35.846C49.1253 35.6687 49.676 35.58 50.2546 35.58C51.2066 35.58 51.9393 35.818 52.4526 36.294C52.9753 36.7607 53.2366 37.4747 53.2366 38.436V43H52.2846ZM49.7506 43.07C49.2 43.07 48.7193 42.9813 48.3086 42.804C47.9073 42.6173 47.5993 42.3653 47.3846 42.048C47.17 41.7213 47.0626 41.348 47.0626 40.928C47.0626 40.5453 47.1513 40.2 47.3286 39.892C47.5153 39.5747 47.814 39.3227 48.2246 39.136C48.6446 38.94 49.2046 38.842 49.9046 38.842H52.4386V39.584H49.9326C49.2233 39.584 48.7286 39.71 48.4486 39.962C48.178 40.214 48.0426 40.5267 48.0426 40.9C48.0426 41.32 48.206 41.656 48.5326 41.908C48.8593 42.16 49.3166 42.286 49.9046 42.286C50.4646 42.286 50.9453 42.16 51.3466 41.908C51.7573 41.6467 52.056 41.2733 52.2426 40.788L52.4666 41.474C52.28 41.9593 51.9533 42.3467 51.4866 42.636C51.0293 42.9253 50.4506 43.07 49.7506 43.07ZM59.5468 43V35.65H60.5408V41.488L65.4548 35.65H66.3368V43H65.3428V37.148L60.4428 43H59.5468ZM69.1855 43V35.65H70.1795V38.898H74.8135V35.65H75.8075V43H74.8135V39.752H70.1795V43H69.1855ZM80.0328 43V36.252L80.2848 36.518H77.2468V35.65H83.8128V36.518H80.7748L81.0268 36.252V43H80.0328ZM88.0581 43.07C87.2928 43.07 86.6208 42.9113 86.0421 42.594C85.4635 42.2673 85.0108 41.824 84.6841 41.264C84.3575 40.6947 84.1941 40.046 84.1941 39.318C84.1941 38.59 84.3481 37.946 84.6561 37.386C84.9735 36.826 85.4028 36.3873 85.9441 36.07C86.4948 35.7433 87.1108 35.58 87.7921 35.58C88.4828 35.58 89.0941 35.7387 89.6261 36.056C90.1675 36.364 90.5921 36.8027 90.9001 37.372C91.2081 37.932 91.3621 38.5807 91.3621 39.318C91.3621 39.3647 91.3575 39.416 91.3481 39.472C91.3481 39.5187 91.3481 39.57 91.3481 39.626H84.9501V38.884H90.8161L90.4241 39.178C90.4241 38.646 90.3075 38.1747 90.0741 37.764C89.8501 37.344 89.5421 37.0173 89.1501 36.784C88.7581 36.5507 88.3055 36.434 87.7921 36.434C87.2881 36.434 86.8355 36.5507 86.4341 36.784C86.0328 37.0173 85.7201 37.344 85.4961 37.764C85.2721 38.184 85.1601 38.6647 85.1601 39.206V39.36C85.1601 39.92 85.2815 40.4147 85.5241 40.844C85.7761 41.264 86.1215 41.5953 86.5601 41.838C87.0081 42.0713 87.5168 42.188 88.0861 42.188C88.5341 42.188 88.9495 42.1087 89.3321 41.95C89.7241 41.7913 90.0601 41.5487 90.3401 41.222L90.9001 41.866C90.5735 42.258 90.1628 42.5567 89.6681 42.762C89.1828 42.9673 88.6461 43.07 88.0581 43.07ZM92.068 42.986L92.138 42.132C92.2034 42.1413 92.264 42.1553 92.32 42.174C92.3854 42.1833 92.4414 42.188 92.488 42.188C92.7867 42.188 93.0247 42.076 93.202 41.852C93.3887 41.628 93.5287 41.3293 93.622 40.956C93.7154 40.5827 93.7807 40.1627 93.818 39.696C93.8554 39.22 93.888 38.744 93.916 38.268L94.042 35.65H99.432V43H98.438V36.224L98.69 36.518H94.686L94.924 36.21L94.812 38.338C94.784 38.9727 94.7327 39.5793 94.658 40.158C94.5927 40.7367 94.4854 41.2453 94.336 41.684C94.196 42.1227 94 42.468 93.748 42.72C93.496 42.9627 93.174 43.084 92.782 43.084C92.67 43.084 92.5534 43.0747 92.432 43.056C92.32 43.0373 92.1987 43.014 92.068 42.986ZM100.914 42.986L100.984 42.132C101.049 42.1413 101.11 42.1553 101.166 42.174C101.231 42.1833 101.287 42.188 101.334 42.188C101.632 42.188 101.87 42.076 102.048 41.852C102.234 41.628 102.374 41.3293 102.468 40.956C102.561 40.5827 102.626 40.1627 102.664 39.696C102.701 39.22 102.734 38.744 102.762 38.268L102.888 35.65H108.278V43H107.284V36.224L107.536 36.518H103.532L103.77 36.21L103.658 38.338C103.63 38.9727 103.578 39.5793 103.504 40.158C103.438 40.7367 103.331 41.2453 103.182 41.684C103.042 42.1227 102.846 42.468 102.594 42.72C102.342 42.9627 102.02 43.084 101.628 43.084C101.516 43.084 101.399 43.0747 101.278 43.056C101.166 43.0373 101.044 43.014 100.914 42.986ZM114.253 43.07C113.488 43.07 112.816 42.9113 112.237 42.594C111.659 42.2673 111.206 41.824 110.879 41.264C110.553 40.6947 110.389 40.046 110.389 39.318C110.389 38.59 110.543 37.946 110.851 37.386C111.169 36.826 111.598 36.3873 112.139 36.07C112.69 35.7433 113.306 35.58 113.987 35.58C114.678 35.58 115.289 35.7387 115.821 36.056C116.363 36.364 116.787 36.8027 117.095 37.372C117.403 37.932 117.557 38.5807 117.557 39.318C117.557 39.3647 117.553 39.416 117.543 39.472C117.543 39.5187 117.543 39.57 117.543 39.626H111.145V38.884H117.011L116.619 39.178C116.619 38.646 116.503 38.1747 116.269 37.764C116.045 37.344 115.737 37.0173 115.345 36.784C114.953 36.5507 114.501 36.434 113.987 36.434C113.483 36.434 113.031 36.5507 112.629 36.784C112.228 37.0173 111.915 37.344 111.691 37.764C111.467 38.184 111.355 38.6647 111.355 39.206V39.36C111.355 39.92 111.477 40.4147 111.719 40.844C111.971 41.264 112.317 41.5953 112.755 41.838C113.203 42.0713 113.712 42.188 114.281 42.188C114.729 42.188 115.145 42.1087 115.527 41.95C115.919 41.7913 116.255 41.5487 116.535 41.222L117.095 41.866C116.769 42.258 116.358 42.5567 115.863 42.762C115.378 42.9673 114.841 43.07 114.253 43.07ZM125.148 43L122.124 39.36L122.95 38.87L126.324 43H125.148ZM119.758 43V35.65H120.752V43H119.758ZM120.444 39.724V38.87H122.81V39.724H120.444ZM123.034 39.43L122.11 39.29L125.036 35.65H126.114L123.034 39.43ZM129.142 43V36.252L129.394 36.518H126.356V35.65H132.922V36.518H129.884L130.136 36.252V43H129.142ZM134.485 45.786C134.14 45.786 133.809 45.73 133.491 45.618C133.183 45.506 132.917 45.338 132.693 45.114L133.155 44.372C133.342 44.5493 133.543 44.6847 133.757 44.778C133.981 44.8807 134.229 44.932 134.499 44.932C134.826 44.932 135.106 44.8387 135.339 44.652C135.582 44.4747 135.811 44.1573 136.025 43.7L136.501 42.622L136.613 42.468L139.637 35.65H140.617L136.935 43.882C136.73 44.358 136.501 44.736 136.249 45.016C136.007 45.296 135.741 45.492 135.451 45.604C135.162 45.7253 134.84 45.786 134.485 45.786ZM136.445 43.21L133.057 35.65H134.093L137.089 42.398L136.445 43.21ZM146.511 43V41.376L146.469 41.11V38.394C146.469 37.7687 146.292 37.288 145.937 36.952C145.592 36.616 145.074 36.448 144.383 36.448C143.907 36.448 143.455 36.5273 143.025 36.686C142.596 36.8447 142.232 37.0547 141.933 37.316L141.485 36.574C141.859 36.2567 142.307 36.014 142.829 35.846C143.352 35.6687 143.903 35.58 144.481 35.58C145.433 35.58 146.166 35.818 146.679 36.294C147.202 36.7607 147.463 37.4747 147.463 38.436V43H146.511ZM143.977 43.07C143.427 43.07 142.946 42.9813 142.535 42.804C142.134 42.6173 141.826 42.3653 141.611 42.048C141.397 41.7213 141.289 41.348 141.289 40.928C141.289 40.5453 141.378 40.2 141.555 39.892C141.742 39.5747 142.041 39.3227 142.451 39.136C142.871 38.94 143.431 38.842 144.131 38.842H146.665V39.584H144.159C143.45 39.584 142.955 39.71 142.675 39.962C142.405 40.214 142.269 40.5267 142.269 40.9C142.269 41.32 142.433 41.656 142.759 41.908C143.086 42.16 143.543 42.286 144.131 42.286C144.691 42.286 145.172 42.16 145.573 41.908C145.984 41.6467 146.283 41.2733 146.469 40.788L146.693 41.474C146.507 41.9593 146.18 42.3467 145.713 42.636C145.256 42.9253 144.677 43.07 143.977 43.07ZM148.765 42.986L148.835 42.132C148.901 42.1413 148.961 42.1553 149.017 42.174C149.083 42.1833 149.139 42.188 149.185 42.188C149.484 42.188 149.722 42.076 149.899 41.852C150.086 41.628 150.226 41.3293 150.319 40.956C150.413 40.5827 150.478 40.1627 150.515 39.696C150.553 39.22 150.585 38.744 150.613 38.268L150.739 35.65H156.129V43H155.135V36.224L155.387 36.518H151.383L151.621 36.21L151.509 38.338C151.481 38.9727 151.43 39.5793 151.355 40.158C151.29 40.7367 151.183 41.2453 151.033 41.684C150.893 42.1227 150.697 42.468 150.445 42.72C150.193 42.9627 149.871 43.084 149.479 43.084C149.367 43.084 149.251 43.0747 149.129 43.056C149.017 43.0373 148.896 43.014 148.765 42.986ZM162.119 38.24C163.043 38.2493 163.743 38.4547 164.219 38.856C164.704 39.2573 164.947 39.836 164.947 40.592C164.947 41.376 164.686 41.978 164.163 42.398C163.65 42.818 162.903 43.0233 161.923 43.014L158.955 43V35.65H159.949V38.212L162.119 38.24ZM161.867 42.258C162.548 42.2673 163.062 42.132 163.407 41.852C163.762 41.5627 163.939 41.1427 163.939 40.592C163.939 40.0413 163.766 39.64 163.421 39.388C163.076 39.1267 162.558 38.9913 161.867 38.982L159.949 38.954V42.23L161.867 42.258ZM166.844 43V35.65H167.838V38.898H172.472V35.65H173.466V43H172.472V39.752H167.838V43H166.844ZM179.315 43.07C178.606 43.07 177.966 42.9113 177.397 42.594C176.837 42.2673 176.394 41.824 176.067 41.264C175.74 40.6947 175.577 40.046 175.577 39.318C175.577 38.5807 175.74 37.932 176.067 37.372C176.394 36.812 176.837 36.3733 177.397 36.056C177.957 35.7387 178.596 35.58 179.315 35.58C180.043 35.58 180.687 35.7387 181.247 36.056C181.816 36.3733 182.26 36.812 182.577 37.372C182.904 37.932 183.067 38.5807 183.067 39.318C183.067 40.046 182.904 40.6947 182.577 41.264C182.26 41.824 181.816 42.2673 181.247 42.594C180.678 42.9113 180.034 43.07 179.315 43.07ZM179.315 42.188C179.847 42.188 180.318 42.0713 180.729 41.838C181.14 41.5953 181.462 41.2593 181.695 40.83C181.938 40.3913 182.059 39.8873 182.059 39.318C182.059 38.7393 181.938 38.2353 181.695 37.806C181.462 37.3767 181.14 37.0453 180.729 36.812C180.318 36.5693 179.852 36.448 179.329 36.448C178.806 36.448 178.34 36.5693 177.929 36.812C177.518 37.0453 177.192 37.3767 176.949 37.806C176.706 38.2353 176.585 38.7393 176.585 39.318C176.585 39.8873 176.706 40.3913 176.949 40.83C177.192 41.2593 177.518 41.5953 177.929 41.838C178.34 42.0713 178.802 42.188 179.315 42.188ZM185.191 43V35.65H186.185V41.488L191.099 35.65H191.981V43H190.987V37.148L186.087 43H185.191ZM188.523 34.586C187.907 34.586 187.408 34.432 187.025 34.124C186.652 33.8067 186.456 33.354 186.437 32.766H187.151C187.161 33.1393 187.291 33.4333 187.543 33.648C187.795 33.8627 188.122 33.97 188.523 33.97C188.925 33.97 189.251 33.8627 189.503 33.648C189.765 33.4333 189.9 33.1393 189.909 32.766H190.623C190.614 33.354 190.418 33.8067 190.035 34.124C189.653 34.432 189.149 34.586 188.523 34.586ZM4.494 60.07C3.766 60.07 3.11267 59.9113 2.534 59.594C1.96467 59.2673 1.51667 58.824 1.19 58.264C0.863333 57.6947 0.7 57.046 0.7 56.318C0.7 55.5807 0.863333 54.932 1.19 54.372C1.51667 53.812 1.96467 53.3733 2.534 53.056C3.11267 52.7387 3.766 52.58 4.494 52.58C5.11933 52.58 5.684 52.7013 6.188 52.944C6.692 53.1867 7.08867 53.5507 7.378 54.036L6.636 54.54C6.384 54.1667 6.07133 53.8913 5.698 53.714C5.32467 53.5367 4.91867 53.448 4.48 53.448C3.95733 53.448 3.486 53.5693 3.066 53.812C2.646 54.0453 2.31467 54.3767 2.072 54.806C1.82933 55.2353 1.708 55.7393 1.708 56.318C1.708 56.8967 1.82933 57.4007 2.072 57.83C2.31467 58.2593 2.646 58.5953 3.066 58.838C3.486 59.0713 3.95733 59.188 4.48 59.188C4.91867 59.188 5.32467 59.0993 5.698 58.922C6.07133 58.7447 6.384 58.474 6.636 58.11L7.378 58.614C7.08867 59.09 6.692 59.454 6.188 59.706C5.684 59.9487 5.11933 60.07 4.494 60.07ZM12.2036 60.07C11.4943 60.07 10.855 59.9113 10.2856 59.594C9.72563 59.2673 9.28229 58.824 8.95563 58.264C8.62896 57.6947 8.46563 57.046 8.46563 56.318C8.46563 55.5807 8.62896 54.932 8.95563 54.372C9.28229 53.812 9.72563 53.3733 10.2856 53.056C10.8456 52.7387 11.485 52.58 12.2036 52.58C12.9316 52.58 13.5756 52.7387 14.1356 53.056C14.705 53.3733 15.1483 53.812 15.4656 54.372C15.7923 54.932 15.9556 55.5807 15.9556 56.318C15.9556 57.046 15.7923 57.6947 15.4656 58.264C15.1483 58.824 14.705 59.2673 14.1356 59.594C13.5663 59.9113 12.9223 60.07 12.2036 60.07ZM12.2036 59.188C12.7356 59.188 13.207 59.0713 13.6176 58.838C14.0283 58.5953 14.3503 58.2593 14.5836 57.83C14.8263 57.3913 14.9476 56.8873 14.9476 56.318C14.9476 55.7393 14.8263 55.2353 14.5836 54.806C14.3503 54.3767 14.0283 54.0453 13.6176 53.812C13.207 53.5693 12.7403 53.448 12.2176 53.448C11.695 53.448 11.2283 53.5693 10.8176 53.812C10.407 54.0453 10.0803 54.3767 9.83763 54.806C9.59496 55.2353 9.47363 55.7393 9.47363 56.318C9.47363 56.8873 9.59496 57.3913 9.83763 57.83C10.0803 58.2593 10.407 58.5953 10.8176 58.838C11.2283 59.0713 11.6903 59.188 12.2036 59.188ZM21.384 60.084C20.7867 60.084 20.2547 59.986 19.788 59.79C19.3307 59.594 18.9387 59.2953 18.612 58.894C18.2853 58.4927 18.038 57.998 17.87 57.41C17.702 56.8127 17.618 56.122 17.618 55.338C17.618 54.638 17.6833 54.0267 17.814 53.504C17.9447 52.972 18.1267 52.5147 18.36 52.132C18.5933 51.7493 18.864 51.4273 19.172 51.166C19.4893 50.8953 19.83 50.6807 20.194 50.522C20.5673 50.354 20.95 50.228 21.342 50.144L24.646 49.374L24.814 50.298L21.706 50.998C21.51 51.0447 21.272 51.11 20.992 51.194C20.7213 51.278 20.4413 51.404 20.152 51.572C19.872 51.74 19.6107 51.9733 19.368 52.272C19.1253 52.5707 18.9293 52.958 18.78 53.434C18.64 53.9007 18.57 54.484 18.57 55.184C18.57 55.3333 18.5747 55.4547 18.584 55.548C18.5933 55.632 18.6027 55.7253 18.612 55.828C18.6307 55.9213 18.6447 56.0613 18.654 56.248L18.22 55.884C18.3227 55.3147 18.5327 54.82 18.85 54.4C19.1673 53.9707 19.564 53.6393 20.04 53.406C20.5253 53.1633 21.062 53.042 21.65 53.042C22.3313 53.042 22.938 53.1913 23.47 53.49C24.002 53.7793 24.4173 54.1853 24.716 54.708C25.024 55.2307 25.178 55.8373 25.178 56.528C25.178 57.2093 25.0193 57.8207 24.702 58.362C24.394 58.9033 23.9553 59.328 23.386 59.636C22.8167 59.9347 22.1493 60.084 21.384 60.084ZM21.496 59.258C22.0187 59.258 22.4807 59.1413 22.882 58.908C23.2833 58.6653 23.596 58.3387 23.82 57.928C24.0533 57.5173 24.17 57.0553 24.17 56.542C24.17 56.038 24.0533 55.59 23.82 55.198C23.596 54.806 23.2833 54.498 22.882 54.274C22.4807 54.0407 22.014 53.924 21.482 53.924C20.9593 53.924 20.4973 54.036 20.096 54.26C19.6947 54.4747 19.3773 54.778 19.144 55.17C18.92 55.562 18.808 56.0147 18.808 56.528C18.808 57.0413 18.92 57.5033 19.144 57.914C19.3773 58.3247 19.6947 58.6513 20.096 58.894C20.5067 59.1367 20.9733 59.258 21.496 59.258ZM30.3885 60.07C29.6605 60.07 29.0072 59.9113 28.4285 59.594C27.8592 59.2673 27.4112 58.824 27.0845 58.264C26.7579 57.6947 26.5945 57.046 26.5945 56.318C26.5945 55.5807 26.7579 54.932 27.0845 54.372C27.4112 53.812 27.8592 53.3733 28.4285 53.056C29.0072 52.7387 29.6605 52.58 30.3885 52.58C31.0139 52.58 31.5785 52.7013 32.0825 52.944C32.5865 53.1867 32.9832 53.5507 33.2725 54.036L32.5305 54.54C32.2785 54.1667 31.9659 53.8913 31.5925 53.714C31.2192 53.5367 30.8132 53.448 30.3745 53.448C29.8519 53.448 29.3805 53.5693 28.9605 53.812C28.5405 54.0453 28.2092 54.3767 27.9665 54.806C27.7239 55.2353 27.6025 55.7393 27.6025 56.318C27.6025 56.8967 27.7239 57.4007 27.9665 57.83C28.2092 58.2593 28.5405 58.5953 28.9605 58.838C29.3805 59.0713 29.8519 59.188 30.3745 59.188C30.8132 59.188 31.2192 59.0993 31.5925 58.922C31.9659 58.7447 32.2785 58.474 32.5305 58.11L33.2725 58.614C32.9832 59.09 32.5865 59.454 32.0825 59.706C31.5785 59.9487 31.0139 60.07 30.3885 60.07ZM36.4605 60V53.252L36.7125 53.518H33.6745V52.65H40.2405V53.518H37.2025L37.4545 53.252V60H36.4605ZM41.6777 60V52.65H44.9257C45.7563 52.65 46.4097 52.8087 46.8857 53.126C47.371 53.4433 47.6137 53.91 47.6137 54.526C47.6137 55.1233 47.385 55.5853 46.9277 55.912C46.4703 56.2293 45.8683 56.388 45.1217 56.388L45.3177 56.094C46.195 56.094 46.839 56.2573 47.2497 56.584C47.6603 56.9107 47.8657 57.382 47.8657 57.998C47.8657 58.6327 47.6323 59.1273 47.1657 59.482C46.7083 59.8273 45.9943 60 45.0237 60H41.6777ZM42.6437 59.216H44.9817C45.607 59.216 46.0783 59.118 46.3957 58.922C46.7223 58.7167 46.8857 58.39 46.8857 57.942C46.8857 57.494 46.741 57.1673 46.4517 56.962C46.1623 56.7567 45.705 56.654 45.0797 56.654H42.6437V59.216ZM42.6437 55.912H44.8557C45.425 55.912 45.859 55.8047 46.1577 55.59C46.4657 55.3753 46.6197 55.0627 46.6197 54.652C46.6197 54.2413 46.4657 53.9333 46.1577 53.728C45.859 53.5227 45.425 53.42 44.8557 53.42H42.6437V55.912ZM53.3453 60.07C52.5799 60.07 51.9079 59.9113 51.3293 59.594C50.7506 59.2673 50.2979 58.824 49.9713 58.264C49.6446 57.6947 49.4813 57.046 49.4813 56.318C49.4813 55.59 49.6353 54.946 49.9433 54.386C50.2606 53.826 50.6899 53.3873 51.2313 53.07C51.7819 52.7433 52.3979 52.58 53.0793 52.58C53.7699 52.58 54.3813 52.7387 54.9133 53.056C55.4546 53.364 55.8793 53.8027 56.1873 54.372C56.4953 54.932 56.6493 55.5807 56.6493 56.318C56.6493 56.3647 56.6446 56.416 56.6353 56.472C56.6353 56.5187 56.6353 56.57 56.6353 56.626H50.2373V55.884H56.1033L55.7113 56.178C55.7113 55.646 55.5946 55.1747 55.3613 54.764C55.1373 54.344 54.8293 54.0173 54.4373 53.784C54.0453 53.5507 53.5926 53.434 53.0793 53.434C52.5753 53.434 52.1226 53.5507 51.7213 53.784C51.3199 54.0173 51.0073 54.344 50.7833 54.764C50.5593 55.184 50.4473 55.6647 50.4473 56.206V56.36C50.4473 56.92 50.5686 57.4147 50.8113 57.844C51.0633 58.264 51.4086 58.5953 51.8473 58.838C52.2953 59.0713 52.8039 59.188 53.3733 59.188C53.8213 59.188 54.2366 59.1087 54.6193 58.95C55.0113 58.7913 55.3473 58.5487 55.6273 58.222L56.1873 58.866C55.8606 59.258 55.4499 59.5567 54.9553 59.762C54.4699 59.9673 53.9333 60.07 53.3453 60.07ZM58.8495 60V52.65H59.8435V55.898H64.4775V52.65H65.4715V60H64.4775V56.752H59.8435V60H58.8495ZM68.2968 60V52.65H69.2908V55.898H73.9248V52.65H74.9188V60H73.9248V56.752H69.2908V60H68.2968ZM80.7681 60.07C80.0587 60.07 79.4194 59.9113 78.8501 59.594C78.2901 59.2673 77.8467 58.824 77.5201 58.264C77.1934 57.6947 77.0301 57.046 77.0301 56.318C77.0301 55.5807 77.1934 54.932 77.5201 54.372C77.8467 53.812 78.2901 53.3733 78.8501 53.056C79.4101 52.7387 80.0494 52.58 80.7681 52.58C81.4961 52.58 82.1401 52.7387 82.7001 53.056C83.2694 53.3733 83.7127 53.812 84.0301 54.372C84.3567 54.932 84.5201 55.5807 84.5201 56.318C84.5201 57.046 84.3567 57.6947 84.0301 58.264C83.7127 58.824 83.2694 59.2673 82.7001 59.594C82.1307 59.9113 81.4867 60.07 80.7681 60.07ZM80.7681 59.188C81.3001 59.188 81.7714 59.0713 82.1821 58.838C82.5927 58.5953 82.9147 58.2593 83.1481 57.83C83.3907 57.3913 83.5121 56.8873 83.5121 56.318C83.5121 55.7393 83.3907 55.2353 83.1481 54.806C82.9147 54.3767 82.5927 54.0453 82.1821 53.812C81.7714 53.5693 81.3047 53.448 80.7821 53.448C80.2594 53.448 79.7927 53.5693 79.3821 53.812C78.9714 54.0453 78.6447 54.3767 78.4021 54.806C78.1594 55.2353 78.0381 55.7393 78.0381 56.318C78.0381 56.8873 78.1594 57.3913 78.4021 57.83C78.6447 58.2593 78.9714 58.5953 79.3821 58.838C79.7927 59.0713 80.2547 59.188 80.7681 59.188ZM89.7245 60.07C88.9965 60.07 88.3431 59.9113 87.7645 59.594C87.1951 59.2673 86.7471 58.824 86.4205 58.264C86.0938 57.6947 85.9305 57.046 85.9305 56.318C85.9305 55.5807 86.0938 54.932 86.4205 54.372C86.7471 53.812 87.1951 53.3733 87.7645 53.056C88.3431 52.7387 88.9965 52.58 89.7245 52.58C90.3498 52.58 90.9145 52.7013 91.4185 52.944C91.9225 53.1867 92.3191 53.5507 92.6085 54.036L91.8665 54.54C91.6145 54.1667 91.3018 53.8913 90.9285 53.714C90.5551 53.5367 90.1491 53.448 89.7105 53.448C89.1878 53.448 88.7165 53.5693 88.2965 53.812C87.8765 54.0453 87.5451 54.3767 87.3025 54.806C87.0598 55.2353 86.9385 55.7393 86.9385 56.318C86.9385 56.8967 87.0598 57.4007 87.3025 57.83C87.5451 58.2593 87.8765 58.5953 88.2965 58.838C88.7165 59.0713 89.1878 59.188 89.7105 59.188C90.1491 59.188 90.5551 59.0993 90.9285 58.922C91.3018 58.7447 91.6145 58.474 91.8665 58.11L92.6085 58.614C92.3191 59.09 91.9225 59.454 91.4185 59.706C90.9145 59.9487 90.3498 60.07 89.7245 60.07ZM95.7964 60V53.252L96.0484 53.518H93.0104V52.65H99.5764V53.518H96.5384L96.7904 53.252V60H95.7964ZM101.014 60V52.65H102.008V58.488L106.922 52.65H107.804V60H106.81V54.148L101.91 60H101.014Z" fill="#1E1D25"></path>
  <path d="M7.578 17.18C6.594 17.18 5.688 17.024 4.86 16.712C4.044 16.388 3.33 15.938 2.718 15.362C2.106 14.774 1.632 14.084 1.296 13.292C0.96 12.5 0.792 11.636 0.792 10.7C0.792 9.764 0.96 8.9 1.296 8.108C1.632 7.316 2.106 6.632 2.718 6.056C3.342 5.468 4.068 5.018 4.896 4.706C5.724 4.382 6.63 4.22 7.614 4.22C8.682 4.22 9.642 4.394 10.494 4.742C11.358 5.09 12.084 5.6 12.672 6.272L11.196 7.712C10.704 7.22 10.17 6.86 9.594 6.632C9.03 6.392 8.406 6.272 7.722 6.272C7.062 6.272 6.45 6.38 5.886 6.596C5.322 6.812 4.836 7.118 4.428 7.514C4.02 7.91 3.702 8.378 3.474 8.918C3.258 9.458 3.15 10.052 3.15 10.7C3.15 11.336 3.258 11.924 3.474 12.464C3.702 13.004 4.02 13.478 4.428 13.886C4.836 14.282 5.316 14.588 5.868 14.804C6.42 15.02 7.032 15.128 7.704 15.128C8.328 15.128 8.928 15.032 9.504 14.84C10.092 14.636 10.65 14.3 11.178 13.832L12.51 15.578C11.85 16.106 11.082 16.508 10.206 16.784C9.342 17.048 8.466 17.18 7.578 17.18ZM10.296 15.272V10.556H12.51V15.578L10.296 15.272ZM21.5003 17.18C20.5163 17.18 19.6103 17.018 18.7823 16.694C17.9543 16.37 17.2343 15.92 16.6223 15.344C16.0103 14.756 15.5363 14.072 15.2003 13.292C14.8643 12.5 14.6963 11.636 14.6963 10.7C14.6963 9.764 14.8643 8.906 15.2003 8.126C15.5363 7.334 16.0103 6.65 16.6223 6.074C17.2343 5.486 17.9543 5.03 18.7823 4.706C19.6103 4.382 20.5103 4.22 21.4823 4.22C22.4663 4.22 23.3663 4.382 24.1823 4.706C25.0103 5.03 25.7303 5.486 26.3423 6.074C26.9543 6.65 27.4283 7.334 27.7643 8.126C28.1003 8.906 28.2683 9.764 28.2683 10.7C28.2683 11.636 28.1003 12.5 27.7643 13.292C27.4283 14.084 26.9543 14.768 26.3423 15.344C25.7303 15.92 25.0103 16.37 24.1823 16.694C23.3663 17.018 22.4723 17.18 21.5003 17.18ZM21.4823 15.128C22.1183 15.128 22.7063 15.02 23.2463 14.804C23.7863 14.588 24.2543 14.282 24.6503 13.886C25.0463 13.478 25.3523 13.01 25.5683 12.482C25.7963 11.942 25.9103 11.348 25.9103 10.7C25.9103 10.052 25.7963 9.464 25.5683 8.936C25.3523 8.396 25.0463 7.928 24.6503 7.532C24.2543 7.124 23.7863 6.812 23.2463 6.596C22.7063 6.38 22.1183 6.272 21.4823 6.272C20.8463 6.272 20.2583 6.38 19.7183 6.596C19.1903 6.812 18.7223 7.124 18.3143 7.532C17.9183 7.928 17.6063 8.396 17.3783 8.936C17.1623 9.464 17.0543 10.052 17.0543 10.7C17.0543 11.336 17.1623 11.924 17.3783 12.464C17.6063 13.004 17.9183 13.478 18.3143 13.886C18.7103 14.282 19.1783 14.588 19.7183 14.804C20.2583 15.02 20.8463 15.128 21.4823 15.128ZM34.6546 17.18C33.6706 17.18 32.7286 17.042 31.8286 16.766C30.9286 16.478 30.2146 16.112 29.6866 15.668L30.4966 13.85C31.0006 14.246 31.6246 14.576 32.3686 14.84C33.1126 15.104 33.8746 15.236 34.6546 15.236C35.3146 15.236 35.8486 15.164 36.2566 15.02C36.6646 14.876 36.9646 14.684 37.1566 14.444C37.3486 14.192 37.4446 13.91 37.4446 13.598C37.4446 13.214 37.3066 12.908 37.0306 12.68C36.7546 12.44 36.3946 12.254 35.9506 12.122C35.5186 11.978 35.0326 11.846 34.4926 11.726C33.9646 11.606 33.4306 11.468 32.8906 11.312C32.3626 11.144 31.8766 10.934 31.4326 10.682C31.0006 10.418 30.6466 10.07 30.3706 9.638C30.0946 9.206 29.9566 8.654 29.9566 7.982C29.9566 7.298 30.1366 6.674 30.4966 6.11C30.8686 5.534 31.4266 5.078 32.1706 4.742C32.9266 4.394 33.8806 4.22 35.0326 4.22C35.7886 4.22 36.5386 4.316 37.2826 4.508C38.0266 4.7 38.6746 4.976 39.2266 5.336L38.4886 7.154C37.9246 6.818 37.3426 6.572 36.7426 6.416C36.1426 6.248 35.5666 6.164 35.0146 6.164C34.3666 6.164 33.8386 6.242 33.4306 6.398C33.0346 6.554 32.7406 6.758 32.5486 7.01C32.3686 7.262 32.2786 7.55 32.2786 7.874C32.2786 8.258 32.4106 8.57 32.6746 8.81C32.9506 9.038 33.3046 9.218 33.7366 9.35C34.1806 9.482 34.6726 9.614 35.2126 9.746C35.7526 9.866 36.2866 10.004 36.8146 10.16C37.3546 10.316 37.8406 10.52 38.2726 10.772C38.7166 11.024 39.0706 11.366 39.3346 11.798C39.6106 12.23 39.7486 12.776 39.7486 13.436C39.7486 14.108 39.5626 14.732 39.1906 15.308C38.8306 15.872 38.2726 16.328 37.5166 16.676C36.7606 17.012 35.8066 17.18 34.6546 17.18ZM47.0436 17V4.4H52.2276C53.3436 4.4 54.2976 4.58 55.0896 4.94C55.8936 5.3 56.5116 5.816 56.9436 6.488C57.3756 7.16 57.5916 7.958 57.5916 8.882C57.5916 9.806 57.3756 10.604 56.9436 11.276C56.5116 11.948 55.8936 12.464 55.0896 12.824C54.2976 13.184 53.3436 13.364 52.2276 13.364H48.3396L49.3836 12.266V17H47.0436ZM49.3836 12.518L48.3396 11.384H52.1196C53.1516 11.384 53.9256 11.168 54.4416 10.736C54.9696 10.292 55.2336 9.674 55.2336 8.882C55.2336 8.078 54.9696 7.46 54.4416 7.028C53.9256 6.596 53.1516 6.38 52.1196 6.38H48.3396L49.3836 5.228V12.518ZM57.5135 17L63.1835 4.4H65.4875L71.1755 17H68.7275L63.8495 5.642H64.7855L59.9255 17H57.5135ZM60.1235 14.084L60.7535 12.248H67.5575L68.1875 14.084H60.1235ZM74.7011 17V6.38H70.5251V4.4H81.2171V6.38H77.0411V17H74.7011ZM85.1333 9.638H91.3973V11.564H85.1333V9.638ZM85.3133 15.038H92.4233V17H82.9733V4.4H92.1713V6.362H85.3133V15.038ZM95.0318 17V4.4H96.9578L104.86 14.102H103.906V4.4H106.228V17H104.302L96.3998 7.298H97.3538V17H95.0318ZM112.16 17V6.38H107.984V4.4H118.676V6.38H114.5V17H112.16Z" fill="#1E1D25"></path>
</svg>
