<?xml version="1.0" encoding="UTF-8"?>
<svg xmlns="http://www.w3.org/2000/svg" width="241" height="44" viewBox="0 0 241 44" fill="none">
  <path d="M1.652 14V4.2H9.898V14H8.876V4.816L9.142 5.096H2.408L2.674 4.816V14H1.652ZM17.5307 14V12.376L17.4887 12.11V9.394C17.4887 8.76867 17.3114 8.288 16.9567 7.952C16.6114 7.616 16.0934 7.448 15.4027 7.448C14.9267 7.448 14.4741 7.52733 14.0447 7.686C13.6154 7.84467 13.2514 8.05467 12.9527 8.316L12.5047 7.574C12.8781 7.25667 13.3261 7.014 13.8487 6.846C14.3714 6.66867 14.9221 6.58 15.5007 6.58C16.4527 6.58 17.1854 6.818 17.6987 7.294C18.2214 7.76067 18.4827 8.47467 18.4827 9.436V14H17.5307ZM14.9967 14.07C14.4461 14.07 13.9654 13.9813 13.5547 13.804C13.1534 13.6173 12.8454 13.3653 12.6307 13.048C12.4161 12.7213 12.3087 12.348 12.3087 11.928C12.3087 11.5453 12.3974 11.2 12.5747 10.892C12.7614 10.5747 13.0601 10.3227 13.4707 10.136C13.8907 9.94 14.4507 9.842 15.1507 9.842H17.6847V10.584H15.1787C14.4694 10.584 13.9747 10.71 13.6947 10.962C13.4241 11.214 13.2887 11.5267 13.2887 11.9C13.2887 12.32 13.4521 12.656 13.7787 12.908C14.1054 13.16 14.5627 13.286 15.1507 13.286C15.7107 13.286 16.1914 13.16 16.5927 12.908C17.0034 12.6467 17.3021 12.2733 17.4887 11.788L17.7127 12.474C17.5261 12.9593 17.1994 13.3467 16.7327 13.636C16.2754 13.9253 15.6967 14.07 14.9967 14.07ZM22.5288 14V7.252L22.7808 7.518H19.7428V6.65H26.3088V7.518H23.2708L23.5228 7.252V14H22.5288ZM30.5542 14.07C29.7889 14.07 29.1169 13.9113 28.5382 13.594C27.9596 13.2673 27.5069 12.824 27.1802 12.264C26.8536 11.6947 26.6902 11.046 26.6902 10.318C26.6902 9.59 26.8442 8.946 27.1522 8.386C27.4696 7.826 27.8989 7.38733 28.4402 7.07C28.9909 6.74333 29.6069 6.58 30.2882 6.58C30.9789 6.58 31.5902 6.73867 32.1222 7.056C32.6636 7.364 33.0882 7.80267 33.3962 8.372C33.7042 8.932 33.8582 9.58067 33.8582 10.318C33.8582 10.3647 33.8536 10.416 33.8442 10.472C33.8442 10.5187 33.8442 10.57 33.8442 10.626H27.4462V9.884H33.3122L32.9202 10.178C32.9202 9.646 32.8036 9.17467 32.5702 8.764C32.3462 8.344 32.0382 8.01733 31.6462 7.784C31.2542 7.55067 30.8016 7.434 30.2882 7.434C29.7842 7.434 29.3316 7.55067 28.9302 7.784C28.5289 8.01733 28.2162 8.344 27.9922 8.764C27.7682 9.184 27.6562 9.66467 27.6562 10.206V10.36C27.6562 10.92 27.7776 11.4147 28.0202 11.844C28.2722 12.264 28.6176 12.5953 29.0562 12.838C29.5042 13.0713 30.0129 13.188 30.5822 13.188C31.0302 13.188 31.4456 13.1087 31.8282 12.95C32.2202 12.7913 32.5562 12.5487 32.8362 12.222L33.3962 12.866C33.0696 13.258 32.6589 13.5567 32.1642 13.762C31.6789 13.9673 31.1422 14.07 30.5542 14.07ZM36.0585 14V6.65H37.0525V9.898H41.6865V6.65H42.6805V14H41.6865V10.752H37.0525V14H36.0585ZM46.9058 14V7.252L47.1578 7.518H44.1198V6.65H50.6858V7.518H47.6478L47.8998 7.252V14H46.9058ZM52.123 14V6.65H53.117V9.898H57.751V6.65H58.745V14H57.751V10.752H53.117V14H52.123ZM68.7383 14V6.65H69.7323V14H68.7383ZM64.6643 9.24C65.5883 9.24933 66.2929 9.45467 66.7783 9.856C67.2636 10.2573 67.5063 10.836 67.5063 11.592C67.5063 12.376 67.2449 12.978 66.7223 13.398C66.1996 13.818 65.4529 14.0233 64.4823 14.014L61.5703 14V6.65H62.5643V9.212L64.6643 9.24ZM64.4123 13.258C65.1029 13.2673 65.6209 13.132 65.9663 12.852C66.3209 12.5627 66.4983 12.1427 66.4983 11.592C66.4983 11.0413 66.3256 10.64 65.9803 10.388C65.6349 10.1267 65.1123 9.99133 64.4123 9.982L62.5643 9.954V13.23L64.4123 13.258ZM72.5624 14V6.65H73.5564V12.488L78.4704 6.65H79.3524V14H78.3584V8.148L73.4584 14H72.5624ZM75.8944 5.586C75.2784 5.586 74.7791 5.432 74.3964 5.124C74.0231 4.80667 73.8271 4.354 73.8084 3.766H74.5224C74.5318 4.13933 74.6624 4.43333 74.9144 4.648C75.1664 4.86267 75.4931 4.97 75.8944 4.97C76.2958 4.97 76.6224 4.86267 76.8744 4.648C77.1358 4.43333 77.2711 4.13933 77.2804 3.766H77.9944C77.9851 4.354 77.7891 4.80667 77.4064 5.124C77.0238 5.432 76.5198 5.586 75.8944 5.586ZM85.8652 14V6.65H92.4732V14H91.4792V7.252L91.7312 7.518H86.6072L86.8592 7.252V14H85.8652ZM98.3228 14.07C97.6134 14.07 96.9741 13.9113 96.4048 13.594C95.8448 13.2673 95.4014 12.824 95.0748 12.264C94.7481 11.6947 94.5848 11.046 94.5848 10.318C94.5848 9.58067 94.7481 8.932 95.0748 8.372C95.4014 7.812 95.8448 7.37333 96.4048 7.056C96.9648 6.73867 97.6041 6.58 98.3228 6.58C99.0508 6.58 99.6948 6.73867 100.255 7.056C100.824 7.37333 101.267 7.812 101.585 8.372C101.911 8.932 102.075 9.58067 102.075 10.318C102.075 11.046 101.911 11.6947 101.585 12.264C101.267 12.824 100.824 13.2673 100.255 13.594C99.6854 13.9113 99.0414 14.07 98.3228 14.07ZM98.3228 13.188C98.8548 13.188 99.3261 13.0713 99.7368 12.838C100.147 12.5953 100.469 12.2593 100.703 11.83C100.945 11.3913 101.067 10.8873 101.067 10.318C101.067 9.73933 100.945 9.23533 100.703 8.806C100.469 8.37667 100.147 8.04533 99.7368 7.812C99.3261 7.56933 98.8594 7.448 98.3368 7.448C97.8141 7.448 97.3474 7.56933 96.9368 7.812C96.5261 8.04533 96.1994 8.37667 95.9568 8.806C95.7141 9.23533 95.5928 9.73933 95.5928 10.318C95.5928 10.8873 95.7141 11.3913 95.9568 11.83C96.1994 12.2593 96.5261 12.5953 96.9368 12.838C97.3474 13.0713 97.8094 13.188 98.3228 13.188ZM104.199 14V6.65H107.447C108.278 6.65 108.931 6.80867 109.407 7.126C109.892 7.44333 110.135 7.91 110.135 8.526C110.135 9.12333 109.906 9.58533 109.449 9.912C108.992 10.2293 108.39 10.388 107.643 10.388L107.839 10.094C108.716 10.094 109.36 10.2573 109.771 10.584C110.182 10.9107 110.387 11.382 110.387 11.998C110.387 12.6327 110.154 13.1273 109.687 13.482C109.23 13.8273 108.516 14 107.545 14H104.199ZM105.165 13.216H107.503C108.128 13.216 108.6 13.118 108.917 12.922C109.244 12.7167 109.407 12.39 109.407 11.942C109.407 11.494 109.262 11.1673 108.973 10.962C108.684 10.7567 108.226 10.654 107.601 10.654H105.165V13.216ZM105.165 9.912H107.377C107.946 9.912 108.38 9.80467 108.679 9.59C108.987 9.37533 109.141 9.06267 109.141 8.652C109.141 8.24133 108.987 7.93333 108.679 7.728C108.38 7.52267 107.946 7.42 107.377 7.42H105.165V9.912ZM115.867 14.07C115.101 14.07 114.429 13.9113 113.851 13.594C113.272 13.2673 112.819 12.824 112.493 12.264C112.166 11.6947 112.003 11.046 112.003 10.318C112.003 9.59 112.157 8.946 112.465 8.386C112.782 7.826 113.211 7.38733 113.753 7.07C114.303 6.74333 114.919 6.58 115.601 6.58C116.291 6.58 116.903 6.73867 117.435 7.056C117.976 7.364 118.401 7.80267 118.709 8.372C119.017 8.932 119.171 9.58067 119.171 10.318C119.171 10.3647 119.166 10.416 119.157 10.472C119.157 10.5187 119.157 10.57 119.157 10.626H112.759V9.884H118.625L118.233 10.178C118.233 9.646 118.116 9.17467 117.883 8.764C117.659 8.344 117.351 8.01733 116.959 7.784C116.567 7.55067 116.114 7.434 115.601 7.434C115.097 7.434 114.644 7.55067 114.243 7.784C113.841 8.01733 113.529 8.344 113.305 8.764C113.081 9.184 112.969 9.66467 112.969 10.206V10.36C112.969 10.92 113.09 11.4147 113.333 11.844C113.585 12.264 113.93 12.5953 114.369 12.838C114.817 13.0713 115.325 13.188 115.895 13.188C116.343 13.188 116.758 13.1087 117.141 12.95C117.533 12.7913 117.869 12.5487 118.149 12.222L118.709 12.866C118.382 13.258 117.971 13.5567 117.477 13.762C116.991 13.9673 116.455 14.07 115.867 14.07ZM125.165 14.07C124.53 14.07 123.956 13.9253 123.443 13.636C122.93 13.3373 122.519 12.9127 122.211 12.362C121.912 11.802 121.763 11.1207 121.763 10.318C121.763 9.51533 121.912 8.83867 122.211 8.288C122.51 7.728 122.916 7.30333 123.429 7.014C123.942 6.72467 124.521 6.58 125.165 6.58C125.865 6.58 126.49 6.73867 127.041 7.056C127.601 7.364 128.04 7.80267 128.357 8.372C128.674 8.932 128.833 9.58067 128.833 10.318C128.833 11.0647 128.674 11.718 128.357 12.278C128.04 12.838 127.601 13.2767 127.041 13.594C126.49 13.9113 125.865 14.07 125.165 14.07ZM121.371 16.716V6.65H122.323V8.862L122.225 10.332L122.365 11.816V16.716H121.371ZM125.095 13.188C125.618 13.188 126.084 13.0713 126.495 12.838C126.906 12.5953 127.232 12.2593 127.475 11.83C127.718 11.3913 127.839 10.8873 127.839 10.318C127.839 9.74867 127.718 9.24933 127.475 8.82C127.232 8.39067 126.906 8.05467 126.495 7.812C126.084 7.56933 125.618 7.448 125.095 7.448C124.572 7.448 124.101 7.56933 123.681 7.812C123.27 8.05467 122.944 8.39067 122.701 8.82C122.468 9.24933 122.351 9.74867 122.351 10.318C122.351 10.8873 122.468 11.3913 122.701 11.83C122.944 12.2593 123.27 12.5953 123.681 12.838C124.101 13.0713 124.572 13.188 125.095 13.188ZM134.119 14.07C133.353 14.07 132.681 13.9113 132.103 13.594C131.524 13.2673 131.071 12.824 130.745 12.264C130.418 11.6947 130.255 11.046 130.255 10.318C130.255 9.59 130.409 8.946 130.717 8.386C131.034 7.826 131.463 7.38733 132.005 7.07C132.555 6.74333 133.171 6.58 133.853 6.58C134.543 6.58 135.155 6.73867 135.687 7.056C136.228 7.364 136.653 7.80267 136.961 8.372C137.269 8.932 137.423 9.58067 137.423 10.318C137.423 10.3647 137.418 10.416 137.409 10.472C137.409 10.5187 137.409 10.57 137.409 10.626H131.011V9.884H136.877L136.485 10.178C136.485 9.646 136.368 9.17467 136.135 8.764C135.911 8.344 135.603 8.01733 135.211 7.784C134.819 7.55067 134.366 7.434 133.853 7.434C133.349 7.434 132.896 7.55067 132.495 7.784C132.093 8.01733 131.781 8.344 131.557 8.764C131.333 9.184 131.221 9.66467 131.221 10.206V10.36C131.221 10.92 131.342 11.4147 131.585 11.844C131.837 12.264 132.182 12.5953 132.621 12.838C133.069 13.0713 133.577 13.188 134.147 13.188C134.595 13.188 135.01 13.1087 135.393 12.95C135.785 12.7913 136.121 12.5487 136.401 12.222L136.961 12.866C136.634 13.258 136.223 13.5567 135.729 13.762C135.243 13.9673 134.707 14.07 134.119 14.07ZM139.623 14V6.65H140.617V9.898H145.251V6.65H146.245V14H145.251V10.752H140.617V14H139.623ZM149.07 14V6.65H150.064V9.898H154.698V6.65H155.692V14H154.698V10.752H150.064V14H149.07ZM165.686 14V6.65H166.68V14H165.686ZM161.612 9.24C162.536 9.24933 163.24 9.45467 163.726 9.856C164.211 10.2573 164.454 10.836 164.454 11.592C164.454 12.376 164.192 12.978 163.67 13.398C163.147 13.818 162.4 14.0233 161.43 14.014L158.518 14V6.65H159.512V9.212L161.612 9.24ZM161.36 13.258C162.05 13.2673 162.568 13.132 162.914 12.852C163.268 12.5627 163.446 12.1427 163.446 11.592C163.446 11.0413 163.273 10.64 162.928 10.388C162.582 10.1267 162.06 9.99133 161.36 9.982L159.512 9.954V13.23L161.36 13.258ZM169.51 14V6.65H170.504V12.488L175.418 6.65H176.3V14H175.306V8.148L170.406 14H169.51ZM172.842 5.586C172.226 5.586 171.726 5.432 171.344 5.124C170.97 4.80667 170.774 4.354 170.756 3.766H171.47C171.479 4.13933 171.61 4.43333 171.862 4.648C172.114 4.86267 172.44 4.97 172.842 4.97C173.243 4.97 173.57 4.86267 173.822 4.648C174.083 4.43333 174.218 4.13933 174.228 3.766H174.942C174.932 4.354 174.736 4.80667 174.354 5.124C173.971 5.432 173.467 5.586 172.842 5.586ZM182.994 14V4.2H183.848L190.61 12.712H190.162V4.2H191.184V14H190.33L183.582 5.488H184.03V14H182.994ZM192.85 10.5V9.814H197.134V10.5H192.85ZM194.992 8.596C194.526 8.596 194.11 8.50267 193.746 8.316C193.382 8.12 193.093 7.854 192.878 7.518C192.673 7.182 192.57 6.79467 192.57 6.356C192.57 5.92667 192.673 5.544 192.878 5.208C193.093 4.872 193.382 4.61067 193.746 4.424C194.11 4.228 194.526 4.13 194.992 4.13C195.459 4.13 195.874 4.228 196.238 4.424C196.602 4.61067 196.887 4.872 197.092 5.208C197.307 5.544 197.414 5.92667 197.414 6.356C197.414 6.79467 197.307 7.182 197.092 7.518C196.887 7.854 196.602 8.12 196.238 8.316C195.874 8.50267 195.459 8.596 194.992 8.596ZM194.992 7.966C195.496 7.966 195.902 7.81667 196.21 7.518C196.528 7.21933 196.686 6.832 196.686 6.356C196.686 5.87067 196.528 5.48333 196.21 5.194C195.902 4.89533 195.496 4.746 194.992 4.746C194.507 4.746 194.101 4.89533 193.774 5.194C193.457 5.49267 193.298 5.88 193.298 6.356C193.298 6.832 193.457 7.21933 193.774 7.518C194.101 7.81667 194.507 7.966 194.992 7.966ZM204.301 14V4.62L204.749 5.096H201.991V4.2H205.309V14H204.301ZM210.578 14.084C209.868 14.084 209.196 13.972 208.562 13.748C207.936 13.5147 207.432 13.2067 207.05 12.824L207.54 12.026C207.857 12.3527 208.282 12.6233 208.814 12.838C209.355 13.0527 209.943 13.16 210.578 13.16C211.39 13.16 212.01 12.9827 212.44 12.628C212.878 12.2733 213.098 11.7973 213.098 11.2C213.098 10.6027 212.883 10.1267 212.454 9.772C212.034 9.41733 211.366 9.24 210.452 9.24H209.752V8.498L212.776 4.704L212.916 5.096H207.456V4.2H213.756V4.914L210.732 8.708L210.242 8.386H210.62C211.796 8.386 212.673 8.64733 213.252 9.17C213.84 9.69267 214.134 10.3647 214.134 11.186C214.134 11.7367 214.003 12.2313 213.742 12.67C213.48 13.1087 213.084 13.454 212.552 13.706C212.029 13.958 211.371 14.084 210.578 14.084ZM219.278 14.084C218.494 14.084 217.818 13.972 217.248 13.748C216.688 13.524 216.254 13.202 215.946 12.782C215.648 12.3527 215.498 11.8487 215.498 11.27C215.498 10.71 215.643 10.234 215.932 9.842C216.231 9.44067 216.66 9.13267 217.22 8.918C217.79 8.70333 218.476 8.596 219.278 8.596C220.072 8.596 220.753 8.70333 221.322 8.918C221.892 9.13267 222.326 9.44067 222.624 9.842C222.932 10.234 223.086 10.71 223.086 11.27C223.086 11.8487 222.932 12.3527 222.624 12.782C222.316 13.202 221.878 13.524 221.308 13.748C220.739 13.972 220.062 14.084 219.278 14.084ZM219.278 13.23C220.146 13.23 220.823 13.0527 221.308 12.698C221.803 12.3433 222.05 11.8627 222.05 11.256C222.05 10.6493 221.803 10.1733 221.308 9.828C220.823 9.47333 220.146 9.296 219.278 9.296C218.41 9.296 217.734 9.47333 217.248 9.828C216.763 10.1733 216.52 10.6493 216.52 11.256C216.52 11.8627 216.763 12.3433 217.248 12.698C217.734 13.0527 218.41 13.23 219.278 13.23ZM219.278 9.17C218.55 9.17 217.93 9.072 217.416 8.876C216.912 8.68 216.525 8.4 216.254 8.036C215.984 7.66267 215.848 7.21933 215.848 6.706C215.848 6.16467 215.988 5.70267 216.268 5.32C216.558 4.928 216.959 4.62933 217.472 4.424C217.986 4.21867 218.588 4.116 219.278 4.116C219.969 4.116 220.571 4.21867 221.084 4.424C221.607 4.62933 222.013 4.928 222.302 5.32C222.592 5.70267 222.736 6.16467 222.736 6.706C222.736 7.21933 222.601 7.66267 222.33 8.036C222.06 8.4 221.663 8.68 221.14 8.876C220.627 9.072 220.006 9.17 219.278 9.17ZM219.278 8.498C220.044 8.498 220.641 8.33933 221.07 8.022C221.5 7.70467 221.714 7.28 221.714 6.748C221.714 6.188 221.49 5.754 221.042 5.446C220.604 5.12867 220.016 4.97 219.278 4.97C218.541 4.97 217.953 5.12867 217.514 5.446C217.076 5.754 216.856 6.18333 216.856 6.734C216.856 7.27533 217.066 7.70467 217.486 8.022C217.916 8.33933 218.513 8.498 219.278 8.498ZM226.204 14L230.432 4.648L230.74 5.096H224.678L225.196 4.606V6.93H224.202V4.2H231.398V4.914L227.296 14H226.204Z" fill="#1E1D25"></path>
  <path d="M1.782 39V26.4H4.086V31.566H7.344V33.654H4.086V39H1.782ZM12.546 39.18C11.61 39.18 10.746 39.018 9.954 38.694C9.162 38.37 8.472 37.92 7.884 37.344C7.296 36.768 6.834 36.084 6.498 35.292C6.174 34.5 6.012 33.636 6.012 32.7C6.012 31.764 6.174 30.9 6.498 30.108C6.834 29.316 7.296 28.632 7.884 28.056C8.472 27.48 9.162 27.03 9.954 26.706C10.746 26.382 11.61 26.22 12.546 26.22C13.47 26.22 14.328 26.382 15.12 26.706C15.924 27.03 16.62 27.48 17.208 28.056C17.796 28.632 18.252 29.316 18.576 30.108C18.9 30.9 19.062 31.764 19.062 32.7C19.062 33.636 18.9 34.5 18.576 35.292C18.252 36.084 17.796 36.768 17.208 37.344C16.62 37.92 15.924 38.37 15.12 38.694C14.328 39.018 13.47 39.18 12.546 39.18ZM12.546 37.128C13.134 37.128 13.68 37.02 14.184 36.804C14.7 36.588 15.144 36.282 15.516 35.886C15.888 35.49 16.176 35.028 16.38 34.5C16.596 33.96 16.704 33.36 16.704 32.7C16.704 32.04 16.596 31.446 16.38 30.918C16.176 30.378 15.888 29.91 15.516 29.514C15.144 29.118 14.7 28.812 14.184 28.596C13.68 28.38 13.134 28.272 12.546 28.272C11.958 28.272 11.412 28.38 10.908 28.596C10.404 28.812 9.96 29.118 9.576 29.514C9.204 29.91 8.91 30.378 8.694 30.918C8.49 31.446 8.388 32.04 8.388 32.7C8.388 33.36 8.49 33.96 8.694 34.5C8.91 35.028 9.204 35.49 9.576 35.886C9.96 36.282 10.404 36.588 10.908 36.804C11.412 37.02 11.958 37.128 12.546 37.128ZM26.756 39.126C25.976 39.126 25.262 38.946 24.614 38.586C23.978 38.226 23.468 37.686 23.084 36.966C22.712 36.234 22.526 35.31 22.526 34.194C22.526 33.066 22.706 32.142 23.066 31.422C23.438 30.702 23.942 30.168 24.578 29.82C25.214 29.46 25.94 29.28 26.756 29.28C27.704 29.28 28.538 29.484 29.258 29.892C29.99 30.3 30.566 30.87 30.986 31.602C31.418 32.334 31.634 33.198 31.634 34.194C31.634 35.19 31.418 36.06 30.986 36.804C30.566 37.536 29.99 38.106 29.258 38.514C28.538 38.922 27.704 39.126 26.756 39.126ZM21.428 42.492V29.388H23.57V31.656L23.498 34.212L23.678 36.768V42.492H21.428ZM26.504 37.2C27.044 37.2 27.524 37.08 27.944 36.84C28.376 36.6 28.718 36.252 28.97 35.796C29.222 35.34 29.348 34.806 29.348 34.194C29.348 33.57 29.222 33.036 28.97 32.592C28.718 32.136 28.376 31.788 27.944 31.548C27.524 31.308 27.044 31.188 26.504 31.188C25.964 31.188 25.478 31.308 25.046 31.548C24.614 31.788 24.272 32.136 24.02 32.592C23.768 33.036 23.642 33.57 23.642 34.194C23.642 34.806 23.768 35.34 24.02 35.796C24.272 36.252 24.614 36.6 25.046 36.84C25.478 37.08 25.964 37.2 26.504 37.2ZM33.8733 39V29.388H36.1233V35.724L41.4333 29.388H43.4853V39H41.2353V32.664L35.9433 39H33.8733ZM50.886 39.126C49.878 39.126 48.978 38.916 48.186 38.496C47.406 38.064 46.794 37.476 46.35 36.732C45.906 35.988 45.684 35.142 45.684 34.194C45.684 33.234 45.906 32.388 46.35 31.656C46.794 30.912 47.406 30.33 48.186 29.91C48.978 29.49 49.878 29.28 50.886 29.28C51.822 29.28 52.644 29.472 53.352 29.856C54.072 30.228 54.618 30.78 54.99 31.512L53.262 32.52C52.974 32.064 52.62 31.728 52.2 31.512C51.792 31.296 51.348 31.188 50.868 31.188C50.316 31.188 49.818 31.308 49.374 31.548C48.93 31.788 48.582 32.136 48.33 32.592C48.078 33.036 47.952 33.57 47.952 34.194C47.952 34.818 48.078 35.358 48.33 35.814C48.582 36.258 48.93 36.6 49.374 36.84C49.818 37.08 50.316 37.2 50.868 37.2C51.348 37.2 51.792 37.092 52.2 36.876C52.62 36.66 52.974 36.324 53.262 35.868L54.99 36.876C54.618 37.596 54.072 38.154 53.352 38.55C52.644 38.934 51.822 39.126 50.886 39.126ZM58.8811 39V30.756L59.4031 31.296H55.4971V29.388H64.4971V31.296H60.6091L61.1311 30.756V39H58.8811ZM69.7538 39L75.4238 26.4H77.7278L83.4158 39H80.9678L76.0898 27.642H77.0258L72.1658 39H69.7538ZM72.3638 36.084L72.9938 34.248H79.7978L80.4278 36.084H72.3638ZM85.096 39V29.388H87.346V33.294H92.188V29.388H94.438V39H92.188V35.202H87.346V39H85.096ZM103.285 39V37.056L103.159 36.642V33.24C103.159 32.58 102.961 32.07 102.565 31.71C102.169 31.338 101.569 31.152 100.765 31.152C100.225 31.152 99.6914 31.236 99.1634 31.404C98.6474 31.572 98.2094 31.806 97.8494 32.106L96.9674 30.468C97.4834 30.072 98.0954 29.778 98.8034 29.586C99.5234 29.382 100.267 29.28 101.035 29.28C102.427 29.28 103.501 29.616 104.257 30.288C105.025 30.948 105.409 31.974 105.409 33.366V39H103.285ZM100.261 39.126C99.5414 39.126 98.9114 39.006 98.3714 38.766C97.8314 38.514 97.4114 38.172 97.1114 37.74C96.8234 37.296 96.6794 36.798 96.6794 36.246C96.6794 35.706 96.8054 35.22 97.0574 34.788C97.3214 34.356 97.7474 34.014 98.3354 33.762C98.9234 33.51 99.7034 33.384 100.675 33.384H103.465V34.878H100.837C100.069 34.878 99.5534 35.004 99.2894 35.256C99.0254 35.496 98.8934 35.796 98.8934 36.156C98.8934 36.564 99.0554 36.888 99.3794 37.128C99.7034 37.368 100.153 37.488 100.729 37.488C101.281 37.488 101.773 37.362 102.205 37.11C102.649 36.858 102.967 36.486 103.159 35.994L103.537 37.344C103.321 37.908 102.931 38.346 102.367 38.658C101.815 38.97 101.113 39.126 100.261 39.126ZM110.192 39V30.756L110.714 31.296H106.808V29.388H115.808V31.296H111.92L112.442 30.756V39H110.192ZM121.302 39.126C120.318 39.126 119.442 38.916 118.674 38.496C117.906 38.064 117.3 37.476 116.856 36.732C116.412 35.988 116.19 35.142 116.19 34.194C116.19 33.234 116.412 32.388 116.856 31.656C117.3 30.912 117.906 30.33 118.674 29.91C119.442 29.49 120.318 29.28 121.302 29.28C122.298 29.28 123.18 29.49 123.948 29.91C124.728 30.33 125.334 30.906 125.766 31.638C126.21 32.37 126.432 33.222 126.432 34.194C126.432 35.142 126.21 35.988 125.766 36.732C125.334 37.476 124.728 38.064 123.948 38.496C123.18 38.916 122.298 39.126 121.302 39.126ZM121.302 37.2C121.854 37.2 122.346 37.08 122.778 36.84C123.21 36.6 123.546 36.252 123.786 35.796C124.038 35.34 124.164 34.806 124.164 34.194C124.164 33.57 124.038 33.036 123.786 32.592C123.546 32.136 123.21 31.788 122.778 31.548C122.346 31.308 121.86 31.188 121.32 31.188C120.768 31.188 120.276 31.308 119.844 31.548C119.424 31.788 119.088 32.136 118.836 32.592C118.584 33.036 118.458 33.57 118.458 34.194C118.458 34.806 118.584 35.34 118.836 35.796C119.088 36.252 119.424 36.6 119.844 36.84C120.276 37.08 120.762 37.2 121.302 37.2ZM127.145 38.982L127.253 37.092C127.337 37.104 127.415 37.116 127.487 37.128C127.559 37.14 127.625 37.146 127.685 37.146C128.057 37.146 128.345 37.032 128.549 36.804C128.753 36.576 128.903 36.27 128.999 35.886C129.107 35.49 129.179 35.052 129.215 34.572C129.263 34.08 129.299 33.588 129.323 33.096L129.485 29.388H137.261V39H135.011V30.684L135.533 31.296H130.961L131.447 30.666L131.321 33.204C131.285 34.056 131.213 34.848 131.105 35.58C131.009 36.3 130.853 36.93 130.637 37.47C130.433 38.01 130.145 38.43 129.773 38.73C129.413 39.03 128.951 39.18 128.387 39.18C128.207 39.18 128.009 39.162 127.793 39.126C127.589 39.09 127.373 39.042 127.145 38.982ZM140.291 39V29.388H142.541V35.724L147.851 29.388H149.903V39H147.653V32.664L142.361 39H140.291ZM152.93 39V29.388H155.18V35.724L160.49 29.388H162.542V39H160.292V32.664L155 39H152.93ZM157.592 28.254C156.632 28.254 155.894 28.032 155.378 27.588C154.862 27.132 154.598 26.472 154.586 25.608H156.08C156.092 26.04 156.224 26.382 156.476 26.634C156.74 26.886 157.106 27.012 157.574 27.012C158.03 27.012 158.39 26.886 158.654 26.634C158.93 26.382 159.074 26.04 159.086 25.608H160.616C160.604 26.472 160.334 27.132 159.806 27.588C159.29 28.032 158.552 28.254 157.592 28.254ZM170.813 39V26.4H181.955V39H179.651V27.804L180.191 28.38H172.577L173.117 27.804V39H170.813ZM191.088 39V37.056L190.962 36.642V33.24C190.962 32.58 190.764 32.07 190.368 31.71C189.972 31.338 189.372 31.152 188.568 31.152C188.028 31.152 187.494 31.236 186.966 31.404C186.45 31.572 186.012 31.806 185.652 32.106L184.77 30.468C185.286 30.072 185.898 29.778 186.606 29.586C187.326 29.382 188.07 29.28 188.838 29.28C190.23 29.28 191.304 29.616 192.06 30.288C192.828 30.948 193.212 31.974 193.212 33.366V39H191.088ZM188.064 39.126C187.344 39.126 186.714 39.006 186.174 38.766C185.634 38.514 185.214 38.172 184.914 37.74C184.626 37.296 184.482 36.798 184.482 36.246C184.482 35.706 184.608 35.22 184.86 34.788C185.124 34.356 185.55 34.014 186.138 33.762C186.726 33.51 187.506 33.384 188.478 33.384H191.268V34.878H188.64C187.872 34.878 187.356 35.004 187.092 35.256C186.828 35.496 186.696 35.796 186.696 36.156C186.696 36.564 186.858 36.888 187.182 37.128C187.506 37.368 187.956 37.488 188.532 37.488C189.084 37.488 189.576 37.362 190.008 37.11C190.452 36.858 190.77 36.486 190.962 35.994L191.34 37.344C191.124 37.908 190.734 38.346 190.17 38.658C189.618 38.97 188.916 39.126 188.064 39.126ZM195.996 39V29.388H200.694C201.858 29.388 202.77 29.604 203.43 30.036C204.102 30.468 204.438 31.08 204.438 31.872C204.438 32.652 204.126 33.264 203.502 33.708C202.878 34.14 202.05 34.356 201.018 34.356L201.288 33.798C202.452 33.798 203.316 34.014 203.88 34.446C204.456 34.866 204.744 35.484 204.744 36.3C204.744 37.152 204.426 37.818 203.79 38.298C203.154 38.766 202.188 39 200.892 39H195.996ZM198.138 37.362H200.712C201.324 37.362 201.786 37.266 202.098 37.074C202.41 36.87 202.566 36.564 202.566 36.156C202.566 35.724 202.422 35.406 202.134 35.202C201.846 34.998 201.396 34.896 200.784 34.896H198.138V37.362ZM198.138 33.402H200.496C201.072 33.402 201.504 33.3 201.792 33.096C202.092 32.88 202.242 32.58 202.242 32.196C202.242 31.8 202.092 31.506 201.792 31.314C201.504 31.122 201.072 31.026 200.496 31.026H198.138V33.402ZM205.737 38.982L205.845 37.092C205.929 37.104 206.007 37.116 206.079 37.128C206.151 37.14 206.217 37.146 206.277 37.146C206.649 37.146 206.937 37.032 207.141 36.804C207.345 36.576 207.495 36.27 207.591 35.886C207.699 35.49 207.771 35.052 207.807 34.572C207.855 34.08 207.891 33.588 207.915 33.096L208.077 29.388H215.853V39H213.603V30.684L214.125 31.296H209.553L210.039 30.666L209.913 33.204C209.877 34.056 209.805 34.848 209.697 35.58C209.601 36.3 209.445 36.93 209.229 37.47C209.025 38.01 208.737 38.43 208.365 38.73C208.005 39.03 207.543 39.18 206.979 39.18C206.799 39.18 206.601 39.162 206.385 39.126C206.181 39.09 205.965 39.042 205.737 38.982ZM223.167 39.126C222.183 39.126 221.307 38.916 220.539 38.496C219.771 38.064 219.165 37.476 218.721 36.732C218.277 35.988 218.055 35.142 218.055 34.194C218.055 33.234 218.277 32.388 218.721 31.656C219.165 30.912 219.771 30.33 220.539 29.91C221.307 29.49 222.183 29.28 223.167 29.28C224.163 29.28 225.045 29.49 225.813 29.91C226.593 30.33 227.199 30.906 227.631 31.638C228.075 32.37 228.297 33.222 228.297 34.194C228.297 35.142 228.075 35.988 227.631 36.732C227.199 37.476 226.593 38.064 225.813 38.496C225.045 38.916 224.163 39.126 223.167 39.126ZM223.167 37.2C223.719 37.2 224.211 37.08 224.643 36.84C225.075 36.6 225.411 36.252 225.651 35.796C225.903 35.34 226.029 34.806 226.029 34.194C226.029 33.57 225.903 33.036 225.651 32.592C225.411 32.136 225.075 31.788 224.643 31.548C224.211 31.308 223.725 31.188 223.185 31.188C222.633 31.188 222.141 31.308 221.709 31.548C221.289 31.788 220.953 32.136 220.701 32.592C220.449 33.036 220.323 33.57 220.323 34.194C220.323 34.806 220.449 35.34 220.701 35.796C220.953 36.252 221.289 36.6 221.709 36.84C222.141 37.08 222.627 37.2 223.167 37.2ZM230.52 39V29.388H235.218C236.382 29.388 237.294 29.604 237.954 30.036C238.626 30.468 238.962 31.08 238.962 31.872C238.962 32.652 238.65 33.264 238.026 33.708C237.402 34.14 236.574 34.356 235.542 34.356L235.812 33.798C236.976 33.798 237.84 34.014 238.404 34.446C238.98 34.866 239.268 35.484 239.268 36.3C239.268 37.152 238.95 37.818 238.314 38.298C237.678 38.766 236.712 39 235.416 39H230.52ZM232.662 37.362H235.236C235.848 37.362 236.31 37.266 236.622 37.074C236.934 36.87 237.09 36.564 237.09 36.156C237.09 35.724 236.946 35.406 236.658 35.202C236.37 34.998 235.92 34.896 235.308 34.896H232.662V37.362ZM232.662 33.402H235.02C235.596 33.402 236.028 33.3 236.316 33.096C236.616 32.88 236.766 32.58 236.766 32.196C236.766 31.8 236.616 31.506 236.316 31.314C236.028 31.122 235.596 31.026 235.02 31.026H232.662V33.402Z" fill="#1E1D25"></path>
</svg>
