<svg width="95" height="30" viewBox="0 0 95 30" fill="none" xmlns="http://www.w3.org/2000/svg">
<g clip-path="url(#clip0_550_2360)">
<path d="M66.5504 2.30262C66.5504 2.30262 64.7696 3.01631 62.6984 5.31444C60.6272 7.61256 59.421 10.1968 60.3137 10.884C60.6566 11.1453 61.4474 11.195 62.8822 9.88891C64.2064 8.73149 65.2458 7.28058 65.9187 5.65029C66.8455 3.37549 66.5504 2.33061 66.5504 2.30573M77.8856 6.43706C75.5843 5.24913 73.9023 3.79375 72.1524 2.89347C70.4828 2.03051 69.4032 1.66978 68.0533 1.8517C67.865 1.88549 67.6792 1.93225 67.4972 1.99164C67.4972 1.99164 68.1923 4.3815 65.426 8.39622C62.6243 12.4669 60.082 12.4389 59.3592 11.321C58.6024 10.1408 59.5801 7.73539 61.2126 5.59431C62.9224 3.35528 65.9249 1.49874 65.9249 1.49874C65.9249 1.49874 64.9673 0.909438 62.6166 2.25131C60.323 3.5543 56.3752 6.66408 52.7116 11.9087C49.048 17.1533 48.3221 20.0392 47.797 22.3109C47.2718 24.5826 47.7491 27.016 50.2512 27.016C52.7533 27.016 55.6663 23.1739 56.4879 21.8382C58.0155 19.3504 59.0117 15.5347 56.9328 16.0587C55.9087 16.3168 55.0793 17.4581 54.5557 18.5574C54.2252 19.2635 53.9724 20.0039 53.802 20.7654C53.0756 21.0668 52.3933 21.4664 51.7741 21.9533C51.0852 22.467 50.4414 23.0392 49.8496 23.6637C49.8496 23.6637 49.8589 21.8476 51.2968 18.9088C52.7348 15.9701 55.3743 14.6282 56.8694 14.5023C58.2162 14.3934 59.9693 15.544 58.4834 19.7889C56.9976 24.0337 52.6143 29.1944 48.0101 29.2581C43.7611 29.3172 40.981 23.858 46.895 14.3312C53.4406 3.80619 61.1184 0.576692 63.6112 0.217514C66.1041 -0.141665 66.9149 0.965414 66.9149 0.965414C68.4156 0.345644 70.0363 0.0766369 71.6551 0.178641C74.6993 0.385441 77.0531 2.55451 80.1607 4.0783C79.3529 4.85574 78.5822 5.67206 77.8872 6.43706M91.5623 2.89347C89.4525 4.25556 86.5334 5.49014 83.7285 5.22581C83.0181 5.96438 82.2582 6.81957 81.4967 7.7525C86.3604 8.72119 90.6217 5.68761 92.8875 3.10494C93.7135 2.17638 94.4231 1.1492 95.0004 0.0464759C93.9689 1.12813 92.8144 2.08371 91.5608 2.89347M85.0846 16.6884C85.1215 16.6239 85.1515 16.5556 85.1742 16.4847C85.1598 16.3726 85.1076 16.2689 85.0264 16.1908C84.9451 16.1127 84.8398 16.065 84.7278 16.0556C84.2645 16.0338 83.6328 16.1225 81.9755 17.9697C80.6007 19.4951 79.4174 21.185 78.4525 23.0013C77.5041 24.7459 77.1196 26.0457 77.6648 26.3816C77.8419 26.474 78.0473 26.4951 78.2393 26.4407C78.6085 26.3521 79.027 26.0038 79.6634 25.2621C79.9615 24.9138 80.292 24.4209 80.6874 23.8751C81.784 22.3731 84.5394 17.6447 85.0846 16.6884ZM67.8695 18.6973C68.1459 17.9697 68.4981 16.5407 67.766 15.9794C66.9798 15.3839 64.975 16.7817 64.9642 18.2153C64.9503 19.6831 66.3759 20.3471 66.7173 20.4404C66.9119 20.4932 66.9798 20.4855 67.074 20.3284C67.3764 19.8039 67.6422 19.2589 67.8695 18.6973ZM66.3528 21.3671C65.8559 21.1361 65.3925 20.8385 64.975 20.4824C64.5564 20.1289 64.2066 19.7002 63.9433 19.2182C63.9155 19.1716 63.8877 19.2074 63.8568 19.2493C63.8259 19.2913 63.7024 19.4048 62.6336 20.9815C61.5648 22.5581 59.9229 25.825 61.4088 26.3816C62.3602 26.7377 63.9433 25.06 64.8067 23.9482C65.3949 23.1722 65.9281 22.3554 66.4022 21.5039C66.447 21.4091 66.4022 21.3873 66.3543 21.3671M83.208 25.1408C82.8049 25.7907 82.3447 27.0378 83.6714 26.2619C85.2947 25.3181 87.6068 21.7869 87.6068 21.7869H88.6555C87.7013 23.264 86.6388 24.6673 85.4769 25.9851C83.832 27.8199 81.8257 29.4867 80.4125 29.3219C78.7614 29.1275 79.2788 26.946 79.2788 26.946C79.2788 26.946 76.9172 29.4774 75.2831 29.2955C73.076 29.0498 73.7494 26.3039 73.7494 26.3039C73.7494 26.3039 71.2535 29.3872 69.553 29.2924C66.8872 29.1369 67.5575 25.8716 68.2988 23.5719C68.6958 22.342 69.0634 21.3764 69.0634 21.3764C69.0634 21.3764 68.7993 21.4464 68.2309 21.5319C67.9343 21.5739 67.3938 21.605 67.3938 21.605C67.3938 21.605 66.2832 23.5766 65.3951 24.7614C64.507 25.9462 60.7323 30.0309 58.5112 29.2131C56.457 28.4574 57.1366 25.2916 58.3321 22.7758C60.0774 19.1078 64.9859 13.8383 67.8169 14.5349C70.7515 15.2517 67.8834 20.6425 67.8834 20.6425C67.8834 20.6425 67.8834 20.6627 67.9143 20.6767C67.9729 20.6985 68.1259 20.7156 68.4795 20.6456C68.8461 20.5704 69.2053 20.4627 69.553 20.3238C69.553 20.3238 72.503 14.1042 75.7619 10.0351C79.0209 5.96593 85.5217 -1.04195 88.0733 0.652882C88.6911 1.06959 88.4131 2.50475 87.5728 4.24623C87.1944 4.36998 86.8098 4.47378 86.4206 4.5572C86.9828 3.52942 87.3551 2.66335 87.4663 2.0585C87.8508 -0.0437077 82.9748 4.39083 79.4904 9.15501C77.3916 12.0271 75.5269 15.0654 73.9147 18.2402C74.5441 17.8537 75.145 17.4219 75.7125 16.9481C77.2667 15.6507 78.7438 14.2624 80.136 12.7903C81.4766 11.4086 82.734 9.94756 83.9015 8.41488C84.2725 8.39682 84.6422 8.35841 85.0089 8.29982C83.736 10.0392 82.3479 11.69 80.8542 13.2413C79.4641 14.6562 77.9598 16.1784 76.6531 17.284C75.486 18.2831 74.2549 19.2041 72.9679 20.0408C72.9679 20.0408 69.9206 26.2277 71.5778 26.6242C72.5524 26.8605 74.4769 23.8767 74.4769 23.8767C74.4769 23.8767 76.9883 20.019 78.5019 18.2791C80.5669 15.9157 82.3447 14.5474 84.1208 14.5225C85.1557 14.5038 85.7658 15.6109 85.7658 15.6109L86.2523 14.8521H89.2486C89.2486 14.8521 83.6529 24.4116 83.205 25.1315M91.5608 2.89347C89.451 4.25556 86.5318 5.49014 83.727 5.22581C83.0165 5.96438 82.2566 6.81957 81.4952 7.7525C86.3588 8.72119 90.6202 5.68761 92.886 3.10494C93.7125 2.17646 94.4227 1.14928 95.0004 0.0464759C93.9689 1.12813 92.8144 2.08371 91.5608 2.89347ZM49.4805 7.58302H46.6308L45.0199 10.203H47.8695L49.4805 7.58302ZM35.9876 16.6558C37.2 14.9827 40.5455 9.11924 40.5455 9.11924C40.5313 9.00725 40.4795 8.90352 40.3985 8.82541C40.3175 8.74729 40.2124 8.69953 40.1006 8.69009C39.6373 8.66833 38.865 8.82537 37.3313 10.7581C35.7976 12.6908 34.6068 14.2286 33.7388 15.8286C32.7874 17.5747 32.3719 18.8062 32.9186 19.1405C33.0961 19.23 33.2999 19.251 33.4917 19.1996C33.8469 19.1094 34.3118 18.7502 34.9497 18.0116C35.2493 17.6665 35.5891 17.2015 35.9876 16.6558ZM20.6969 8.72586C19.9092 8.12723 17.906 9.52818 17.8952 10.9587C17.8828 12.428 19.6976 12.8774 19.9324 12.8883C20.0014 12.8941 20.0707 12.8795 20.1316 12.8463C20.1735 12.8217 20.2069 12.7848 20.2274 12.7406C20.4407 12.3185 20.6325 11.8856 20.8019 11.4438C21.0784 10.7161 21.429 9.28717 20.6969 8.72586ZM19.5092 13.7839C18.966 13.6131 18.4469 13.3727 17.9647 13.0687C17.4973 12.7619 17.1173 12.3381 16.8619 11.8387C16.8341 11.7921 16.8032 11.8279 16.7754 11.8698C16.7476 11.9118 16.587 12.114 15.5151 13.6968C14.4432 15.2797 12.8554 18.517 14.3428 19.0736C15.2911 19.4359 16.8928 17.7442 17.7623 16.6371C18.413 15.7671 19.0143 14.8607 19.5632 13.9223C19.5988 13.8274 19.5632 13.8057 19.5107 13.7886M42.7835 14.7588H43.8276C43.8276 14.7588 38.5963 22.3778 35.6416 22.0233C33.9921 21.8289 34.4817 19.7796 34.4817 19.7796C34.4817 19.7796 32.1649 22.5099 30.0366 21.9564C28.1059 21.4573 29.3524 18.2247 29.3524 18.2247C29.133 18.3133 24.9551 23.0541 22.019 21.9175C18.947 20.7234 20.5425 16.7537 21.1263 15.5596C21.6221 14.5536 22.1704 13.574 22.1704 13.574C22.1704 13.574 21.6993 13.7077 21.3981 13.7761C21.0969 13.8445 20.6614 13.9316 20.6614 13.9316C20.6614 13.9316 19.208 16.309 18.3199 17.4954C17.4318 18.6818 13.657 22.7587 11.4329 21.9471C9.2088 21.1354 9.7602 18.0023 11.0097 15.5145C13.0361 11.4796 17.8442 6.52103 20.7402 7.27359C23.6655 8.0246 21.2437 12.8012 21.2437 12.8012C21.2437 12.8012 21.8259 12.8774 23.2206 11.9196C25.2285 10.5404 27.8789 6.83045 30.7486 7.26582C32.1016 7.47106 33.3619 8.86269 31.6382 11.506C31.0884 12.355 30.1663 13.1137 29.4605 12.3627C29.0203 11.8963 29.4049 11.0457 29.8667 10.4642C30.0464 10.2272 30.2813 10.0382 30.5506 9.91405C30.82 9.78987 31.1155 9.73425 31.4112 9.75208C31.4112 9.75208 31.8854 8.66366 30.6791 8.67921C29.703 8.69787 27.2317 10.9882 25.837 13.3019C24.5582 15.4259 22.6198 19.0441 24.5659 19.8324C26.3498 20.557 29.7447 16.5003 31.317 14.3748C32.8893 12.2492 36.4726 7.43219 39.4782 7.23939C40.513 7.17097 41.1293 8.12101 41.1293 8.12101L41.4768 7.56747H44.4824C44.4824 7.56747 38.8218 17.0772 38.3801 17.7971C38.0325 18.3599 37.5707 19.6256 38.8434 18.9166C40.1161 18.2076 42.7835 14.7588 42.7835 14.7588ZM41.1478 29.9967C38.9348 28.4545 36.2848 27.676 33.5951 27.7779C32.8672 27.7979 32.1541 27.9903 31.5138 28.3396C30.8735 28.689 30.324 29.1853 29.9099 29.7884C28.7639 27.7748 26.4981 26.5386 22.9951 26.5666C17.3345 26.6319 11.7202 29.2597 7.27198 29.2566C3.00912 29.2566 -0.0999834 26.5589 0.000410035 21.7683C0.187296 13.361 7.24418 5.79023 12.511 2.38347C15.5475 0.425868 18.0867 -0.155659 19.747 0.0324819C20.9579 0.167757 22.4144 1.57649 21.4954 3.65226C20.1455 6.68585 18.2813 6.43706 18.3508 4.98635C18.3894 4.04254 19.0134 3.44857 19.4829 3.12049C19.781 2.91369 20.3077 2.8546 20.5826 2.84838C20.8498 2.62137 21.046 0.96075 18.8836 1.50652C16.7213 2.05228 14.0956 4.19803 11.6028 6.97039C9.10996 9.74275 5.22859 14.9827 4.26945 20.4855C3.82154 23.037 4.115 27.6908 10.1247 27.638C15.2216 27.596 22.7341 24.2172 29.6381 24.2872C32.3178 24.3136 34.65 25.0413 36.4679 26.1701C38.2534 27.2772 40.3941 28.8943 41.154 29.9983" fill="#E61D2B"/>
</g>
<defs>
<clipPath id="clip0_550_2360">
<rect width="95" height="30" fill="white"/>
</clipPath>
</defs>
</svg>
