<svg width="104" height="35" viewBox="0 0 104 35" fill="none" xmlns="http://www.w3.org/2000/svg">
<path d="M44.2569 17.9489C44.2569 22.8071 40.4372 26.387 35.7495 26.387C31.0619 26.387 27.2422 22.8071 27.2422 17.9489C27.2422 13.0565 31.0619 9.51086 35.7495 9.51086C40.4372 9.51086 44.2569 13.0565 44.2569 17.9489ZM40.5328 17.9489C40.5328 14.913 38.319 12.8359 35.7495 12.8359C33.1801 12.8359 30.9663 14.913 30.9663 17.9489C30.9663 20.9543 33.1801 23.062 35.7495 23.062C38.319 23.062 40.5328 20.9505 40.5328 17.9489Z" fill="#EA4335"/>
<path d="M62.6104 17.9489C62.6104 22.8071 58.7907 26.387 54.1031 26.387C49.4154 26.387 45.5957 22.8071 45.5957 17.9489C45.5957 13.0603 49.4154 9.51086 54.1031 9.51086C58.7907 9.51086 62.6104 13.0565 62.6104 17.9489ZM58.8863 17.9489C58.8863 14.913 56.6725 12.8359 54.1031 12.8359C51.5336 12.8359 49.3198 14.913 49.3198 17.9489C49.3198 20.9543 51.5336 23.062 54.1031 23.062C56.6725 23.062 58.8863 20.9505 58.8863 17.9489Z" fill="#FBBC05"/>
<path d="M80.1991 10.0206V25.1696C80.1991 31.4011 76.5055 33.9462 72.1391 33.9462C68.0288 33.9462 65.5549 31.2109 64.622 28.9739L67.8644 27.631C68.4417 29.0043 69.8564 30.625 72.1352 30.625C74.9302 30.625 76.6623 28.9092 76.6623 25.6793V24.4658H76.5323C75.6988 25.4891 74.0929 26.3831 72.0664 26.3831C67.8261 26.3831 63.9414 22.7081 63.9414 17.9793C63.9414 13.2163 67.8261 9.51086 72.0664 9.51086C74.0891 9.51086 75.6949 10.4049 76.5323 11.3978H76.6623V10.0245H80.1991V10.0206ZM76.9261 17.9793C76.9261 15.0081 74.9341 12.8359 72.3991 12.8359C69.8296 12.8359 67.677 15.0081 67.677 17.9793C67.677 20.9201 69.8296 23.062 72.3991 23.062C74.9341 23.062 76.9261 20.9201 76.9261 17.9793Z" fill="#4285F4"/>
<path d="M86.0288 1.1413V25.8696H82.3965V1.1413H86.0288Z" fill="#34A853"/>
<path d="M100.185 20.7261L103.075 22.6435C102.142 24.0169 99.894 26.3832 96.0093 26.3832C91.1917 26.3832 87.5938 22.6777 87.5938 17.9451C87.5938 12.9272 91.2223 9.50708 95.5926 9.50708C99.9935 9.50708 102.146 12.9919 102.85 14.875L103.236 15.8337L91.899 20.5055C92.767 22.1984 94.1167 23.062 96.0093 23.062C97.9058 23.062 99.2211 22.1337 100.185 20.7261ZM91.2873 17.6902L98.8655 14.5593C98.4488 13.5055 97.1946 12.7712 95.7188 12.7712C93.8261 12.7712 91.1917 14.4337 91.2873 17.6902Z" fill="#EA4335"/>
<path d="M13.4923 15.7538V12.1739H25.6167C25.7352 12.7979 25.7964 13.5359 25.7964 14.3348C25.7964 17.0207 25.0585 20.3419 22.6802 22.7082C20.367 25.1049 17.4114 26.3832 13.4961 26.3832C6.23907 26.3832 0.136719 20.5017 0.136719 13.281C0.136719 6.06035 6.23907 0.178833 13.4961 0.178833C17.5108 0.178833 20.3708 1.74622 22.5197 3.78916L19.9808 6.31525C18.44 4.8772 16.3523 3.75872 13.4923 3.75872C8.1929 3.75872 4.04819 8.00818 4.04819 13.281C4.04819 18.5538 8.1929 22.8033 13.4923 22.8033C16.9297 22.8033 18.8873 21.4299 20.1414 20.1821C21.1585 19.1701 21.8276 17.7245 22.0914 15.75L13.4923 15.7538Z" fill="#4285F4"/>
</svg>
