<?xml version="1.0" encoding="UTF-8"?>
<svg xmlns="http://www.w3.org/2000/svg" width="124" height="14" viewBox="0 0 124 14" fill="none">
  <path d="M7.856 13L4.724 7.096L8.108 5.116L12.644 13H7.856ZM0.00800003 13V0.399999H4.256V13H0.00800003ZM3.032 8.446V5.098H7.802V8.446H3.032ZM8.522 7.15L4.616 6.754L8.234 0.399999H12.662L8.522 7.15ZM14.8157 13.234C14.5517 13.234 14.2697 13.216 13.9697 13.18C13.6697 13.144 13.3517 13.084 13.0157 13L13.2317 9.598C13.3997 9.634 13.5557 9.652 13.6997 9.652C14.1677 9.652 14.5157 9.46 14.7437 9.076C14.9717 8.692 15.1277 8.176 15.2117 7.528C15.2957 6.868 15.3497 6.13 15.3737 5.314L15.5357 0.399999H26.1737V13H21.9977V2.794L22.9157 3.694H18.3257L19.1537 2.74L19.0817 5.152C19.0457 6.364 18.9617 7.468 18.8297 8.464C18.7097 9.448 18.4997 10.3 18.1997 11.02C17.8997 11.728 17.4737 12.274 16.9217 12.658C16.3817 13.042 15.6797 13.234 14.8157 13.234ZM32.2872 5.08H37.9032V8.14H32.2872V5.08ZM32.5752 9.796H38.8752V13H28.3992V0.399999H38.6412V3.604H32.5752V9.796ZM47.0244 13.288C45.9924 13.288 45.0384 13.126 44.1624 12.802C43.2984 12.478 42.5484 12.022 41.9124 11.434C41.2764 10.834 40.7784 10.132 40.4184 9.328C40.0704 8.524 39.8964 7.648 39.8964 6.7C39.8964 5.74 40.0704 4.864 40.4184 4.072C40.7784 3.268 41.2764 2.572 41.9124 1.984C42.5484 1.384 43.2984 0.921999 44.1624 0.598C45.0384 0.274 45.9864 0.112 47.0064 0.112C48.0384 0.112 48.9864 0.274 49.8504 0.598C50.7144 0.921999 51.4644 1.384 52.1004 1.984C52.7364 2.572 53.2284 3.268 53.5764 4.072C53.9364 4.864 54.1164 5.74 54.1164 6.7C54.1164 7.648 53.9364 8.524 53.5764 9.328C53.2284 10.132 52.7364 10.834 52.1004 11.434C51.4644 12.022 50.7144 12.478 49.8504 12.802C48.9864 13.126 48.0444 13.288 47.0244 13.288ZM47.0064 9.85C47.4024 9.85 47.7684 9.778 48.1044 9.634C48.4524 9.49 48.7524 9.286 49.0044 9.022C49.2684 8.746 49.4724 8.416 49.6164 8.032C49.7604 7.636 49.8324 7.192 49.8324 6.7C49.8324 6.208 49.7604 5.77 49.6164 5.386C49.4724 4.99 49.2684 4.66 49.0044 4.396C48.7524 4.12 48.4524 3.91 48.1044 3.766C47.7684 3.622 47.4024 3.55 47.0064 3.55C46.6104 3.55 46.2384 3.622 45.8904 3.766C45.5544 3.91 45.2544 4.12 44.9904 4.396C44.7384 4.66 44.5404 4.99 44.3964 5.386C44.2524 5.77 44.1804 6.208 44.1804 6.7C44.1804 7.192 44.2524 7.636 44.3964 8.032C44.5404 8.416 44.7384 8.746 44.9904 9.022C45.2544 9.286 45.5544 9.49 45.8904 9.634C46.2384 9.778 46.6104 9.85 47.0064 9.85ZM55.6453 13V0.399999H67.8313V13H63.6553V2.794L64.5733 3.694H58.9033L59.8213 2.794V13H55.6453ZM68.9974 13L74.5054 0.399999H78.6814L84.1894 13H79.7974L75.7294 2.416H77.3854L73.3174 13H68.9974ZM72.2734 10.804L73.3534 7.744H79.1494L80.2294 10.804H72.2734ZM87.5815 13V2.776L88.4995 3.694H83.8915V0.399999H95.4475V3.694H90.8395L91.7575 2.776V13H87.5815ZM96.8484 13V0.399999H102.914C104.09 0.399999 105.104 0.591999 105.956 0.975999C106.82 1.36 107.486 1.912 107.954 2.632C108.422 3.34 108.656 4.18 108.656 5.152C108.656 6.124 108.422 6.964 107.954 7.672C107.486 8.38 106.82 8.932 105.956 9.328C105.104 9.712 104.09 9.904 102.914 9.904H99.2064L101.096 8.086V13H96.8484ZM101.096 8.554L99.2064 6.628H102.644C103.232 6.628 103.664 6.496 103.94 6.232C104.228 5.968 104.372 5.608 104.372 5.152C104.372 4.696 104.228 4.336 103.94 4.072C103.664 3.808 103.232 3.676 102.644 3.676H99.2064L101.096 1.75V8.554ZM108.249 13L113.757 0.399999H117.933L123.441 13H119.049L114.981 2.416H116.637L112.569 13H108.249ZM111.525 10.804L112.605 7.744H118.401L119.481 10.804H111.525Z" fill="url(#paint0_linear_550_2958)"></path>
  <defs>
    <linearGradient id="paint0_linear_550_2958" x1="-1" y1="-4.36428" x2="66.3718" y2="102.714" gradientUnits="userSpaceOnUse">
      <stop stop-color="#4D4B5A"></stop>
      <stop offset="1" stop-color="#485C63"></stop>
    </linearGradient>
  </defs>
</svg>
