<?xml version="1.0" encoding="UTF-8"?>
<svg xmlns="http://www.w3.org/2000/svg" width="71" height="71" viewBox="0 0 71 71" fill="none">
  <path d="M43.1637 10.5577C43.3908 10.4888 43.6019 10.3751 43.7843 10.2233C43.9667 10.0715 44.1168 9.88462 44.2258 9.67376C44.3347 9.46291 44.4003 9.23234 44.4186 8.99571C44.4368 8.75907 44.4075 8.52117 44.3322 8.29608C44.257 8.07099 44.1373 7.86328 43.9804 7.68524C43.8234 7.5072 43.6324 7.36244 43.4185 7.25953C43.2046 7.15662 42.9723 7.09764 42.7352 7.08609C42.4982 7.07454 42.2612 7.11064 42.0383 7.19228C38.7084 8.29988 36.6352 11.0334 35.414 13.9621C35.2501 14.358 35.0997 14.7594 34.9632 15.1656C34.2982 13.9058 33.4473 12.7534 32.4391 11.7469C31.0746 10.3795 29.4448 9.30561 27.65 8.59133C25.8551 7.87704 23.9331 7.53745 22.0021 7.59343C19.9431 7.65023 18.2995 9.29743 18.2427 11.3529C18.1867 13.2838 18.5263 15.2058 19.2406 17.0007C19.9549 18.7956 21.0288 20.4254 22.3962 21.7899L22.5062 21.8964C19.5242 22.5423 16.8294 24.1311 14.8205 26.4277C12.8117 28.7243 11.5956 31.6065 11.3521 34.648L11.3308 34.9107C10.8622 40.7582 12.1082 46.6156 14.9163 51.7661L16.1943 54.102C16.2298 54.1623 16.2653 54.2227 16.3079 54.2795L19.8579 59.2566C20.6625 60.3834 21.7029 61.3214 22.9068 62.0053C24.1107 62.6892 25.4491 63.1026 26.8289 63.2169C28.2088 63.331 29.597 63.1433 30.8969 62.6666C32.1968 62.1898 33.3773 61.4357 34.3561 60.4565C34.5065 60.3061 34.6849 60.1868 34.8814 60.1054C35.0778 60.024 35.2884 59.9821 35.501 59.9821C35.7136 59.9821 35.9242 60.024 36.1206 60.1054C36.3171 60.1868 36.4956 60.3061 36.6459 60.4565C37.6248 61.4357 38.8052 62.1898 40.1052 62.6666C41.4051 63.1433 42.7932 63.331 44.1731 63.2169C45.553 63.1026 46.8914 62.6892 48.0952 62.0053C49.2991 61.3214 50.3395 60.3834 51.1441 59.2566L54.6941 54.283C54.7355 54.225 54.7734 54.1645 54.8077 54.102L56.0821 51.7661C58.8903 46.6156 60.1363 40.7582 59.6676 34.9107L59.6499 34.648C59.4928 32.6876 58.9302 30.7812 57.9977 29.0497C57.0653 27.3182 55.7833 25.7992 54.2331 24.589C52.6828 23.3789 50.8981 22.5039 48.992 22.0196C47.0859 21.5353 45.1 21.4523 43.1601 21.7757L37.2778 22.7555C37.3133 20.3379 37.7393 17.6186 38.6942 15.3253C39.6882 12.9291 41.165 11.2251 43.1601 10.5577H43.1637ZM24.5262 31.8577C23.9812 32.03 23.4757 32.3085 23.0388 32.6771C22.602 33.0457 22.2424 33.4972 21.9808 34.0054C21.3241 35.2408 20.8732 37.2785 21.2886 40.6049C21.3352 41.066 21.1996 41.5271 20.9107 41.8895C20.6218 42.252 20.2027 42.4871 19.7427 42.5446C19.2828 42.6021 18.8187 42.4774 18.4495 42.1972C18.0803 41.917 17.8353 41.5035 17.767 41.0451C17.2948 37.2679 17.7315 34.4243 18.8497 32.3334C19.9857 30.2034 21.7146 29.0532 23.4044 28.4887C23.6256 28.4151 23.8592 28.3857 24.0917 28.4023C24.3243 28.4189 24.5513 28.4811 24.7598 28.5855C24.9683 28.6898 25.1542 28.8342 25.3069 29.0104C25.4596 29.1866 25.5761 29.3911 25.6498 29.6123C25.7234 29.8335 25.7528 30.0671 25.7362 30.2996C25.7196 30.5322 25.6573 30.7592 25.553 30.9677C25.4487 31.1762 25.3043 31.3621 25.1281 31.5148C24.9519 31.6675 24.7474 31.784 24.5262 31.8577Z" fill="url(#paint0_linear_550_735)"></path>
  <defs>
    <linearGradient id="paint0_linear_550_735" x1="11.2344" y1="-11.7715" x2="101.62" y2="1.13762" gradientUnits="userSpaceOnUse">
      <stop stop-color="#4D4B5A"></stop>
      <stop offset="1" stop-color="#485C63"></stop>
    </linearGradient>
  </defs>
</svg>
