<?xml version="1.0" encoding="UTF-8"?>
<svg xmlns="http://www.w3.org/2000/svg" width="64" height="64" viewBox="0 0 64 64" fill="none">
  <path d="M16.6617 4.17627L9.73547 5.90627L4.32422 18.5375L8.48547 21.3125L11.918 14.45L14.0492 15.0625L12.1655 33.825H30.6492L31.7992 22.8375L31.9117 21.825H32.4742L31.7992 15.0625L33.9367 14.45L37.3617 21.3125L41.5242 18.5375L36.1117 5.90627L29.1867 4.17627C28.4992 4.66002 27.6617 4.95252 26.7492 5.17002C25.5742 5.44627 24.2492 5.57502 22.9242 5.57502C21.5992 5.57502 20.2742 5.44627 19.0992 5.17002C18.1867 4.95252 17.3492 4.66127 16.6617 4.17627ZM33.9367 24.075L33.7492 25.825H56.0992L55.9117 24.075H33.9367ZM33.5117 28.075L30.1742 59.825H38.0117L43.8242 32.7125H46.0242L51.8367 59.825H59.6742L56.3367 28.075H33.5117Z" fill="url(#paint0_linear_550_737)"></path>
  <defs>
    <linearGradient id="paint0_linear_550_737" x1="4.32422" y1="-14.5058" x2="106.747" y2="2.3332" gradientUnits="userSpaceOnUse">
      <stop stop-color="#4D4B5A"></stop>
      <stop offset="1" stop-color="#485C63"></stop>
    </linearGradient>
  </defs>
</svg>
