<?xml version="1.0" encoding="UTF-8"?>
<svg xmlns="http://www.w3.org/2000/svg" width="54" height="156" viewBox="0 0 54 156" fill="none">
  <path d="M7.51423 148.154C5.90964 151.495 -0.907458 152.965 1.232 154.035C3.37048 155.105 9.25204 154.035 11.6589 153.367C14.0658 152.699 16.8384 152.565 17.3732 152.297C17.9081 152.03 17.1389 147.218 17.1389 147.218L7.51423 148.154Z" fill="#727481"></path>
  <path d="M23.1307 5.73301C25.3237 5.36736 27.4436 10.5857 24.7149 15.6319C23.1005 18.6164 22.9177 22.3323 22.9177 22.3323L17.7402 7.01182L23.1307 5.73301Z" fill="#1E1D25"></path>
  <path d="M9.23946 5.64233C8.32533 12.4954 10.1536 16.6985 11.341 16.8813C12.5284 17.0641 14.1738 6.37364 14.1738 6.37364L9.23946 5.64233Z" fill="#1E1D25"></path>
  <path d="M26.4958 148.823C25.1586 153.101 24.758 153.635 25.6935 154.304C26.629 154.973 28.6343 155.373 31.8425 154.972C35.0507 154.571 35.7188 153.501 35.7188 153.501C35.7188 153.501 35.853 148.288 34.9165 147.218C33.982 146.148 26.4958 148.823 26.4958 148.823Z" fill="#727481"></path>
  <path d="M1.33406 81.5173C1.33406 81.5173 1.03356 86.3301 1.13372 87.0313C1.23389 87.7334 3.84014 90.2395 4.64244 90.9416C5.44474 91.6438 7.65031 92.0444 7.65031 92.0444L7.04835 83.0218L3.03785 78.6106L1.33406 81.5173Z" fill="#ECCBB3"></path>
  <path d="M0.732146 80.3145L0.431641 83.8232C0.431641 83.8232 4.54233 84.8258 5.84545 84.2238C7.14858 83.6219 4.94299 80.4136 4.94299 80.4136L0.732146 80.3145Z" fill="white"></path>
  <path d="M4.76732 29.585C1.53382 33.1695 0.83267 57.8569 0.83267 62.2681C0.83267 66.6792 -0.169957 82.0182 0.0303737 82.6201C0.230705 83.2221 7.24909 83.4224 7.24909 83.4224L4.76732 29.585Z" fill="#1E1D25"></path>
  <path d="M5.84456 64.0732C5.84456 64.0732 5.64421 91.3426 6.24521 109.99C6.71102 124.431 6.44554 149.491 6.44554 149.491C6.44554 149.491 9.45342 150.694 11.8593 150.293C14.2652 149.893 17.8751 149.491 17.8751 149.491C17.8751 149.491 21.0833 118.011 21.8856 112.195C22.6879 106.381 27.9014 66.8798 26.8988 66.8798C25.8961 66.8798 5.84456 64.0732 5.84456 64.0732Z" fill="#212121"></path>
  <path d="M26.8979 66.8796C25.8953 66.8796 6.31243 63.6714 6.31243 63.6714C6.31243 63.6714 5.77757 74.5992 5.87773 89.5374C11.3509 111.406 15.2515 136.19 15.9944 149.714C17.0836 149.578 17.8752 149.491 17.8752 149.491C17.8752 149.491 21.0834 118.011 21.8857 112.195C22.6871 106.381 27.8996 66.8796 26.8979 66.8796Z" fill="#1E1D25"></path>
  <path d="M34.3585 63.7307C37.2303 78.599 36.9881 149.112 36.9881 149.112C36.9881 149.112 32.965 151.562 29.8559 151.405C27.6435 151.293 25.3835 149.979 25.3835 149.979C25.3835 149.979 19.4757 102.857 17.662 92.696C15.8483 82.5346 14.8438 67.5244 14.8438 67.5244L34.3585 63.7307Z" fill="#212121"></path>
  <path d="M23.188 24.772C29.5043 26.0751 35.519 28.7825 35.9207 29.1831C36.3213 29.5838 35.3187 57.4551 35.3187 64.6738C35.3187 72.9243 13.8639 73.0284 8.65039 69.6198C2.71923 65.7416 6.04414 42.8183 6.04414 38.2068C6.04414 33.5953 6.9466 30.4872 6.9466 30.4872C6.9466 30.4872 16.5712 26.0761 17.8744 25.5743C19.1775 25.0734 23.188 24.772 23.188 24.772Z" fill="#EBF0F3"></path>
  <path d="M12.66 28.7826C12.5929 35.3994 14.4212 45.1319 14.5982 44.6233C16.2689 39.8115 20.8142 30.9221 21.282 28.5823C18.208 29.8523 12.66 28.7826 12.66 28.7826Z" fill="#F2F2F2"></path>
  <path d="M21.0087 28.1933C20.3007 28.6524 18.6086 29.4517 16.8708 29.4517C15.8205 29.4517 15.0999 28.416 15.0405 26.8387L14.2392 18.3596C14.1147 17.0419 15.0911 15.8623 16.4088 15.7378L19.8028 15.4169C21.1205 15.2924 22.4946 11.1565 22.6191 12.4742L23.1782 25.5706C23.3027 26.8892 22.4188 27.2792 21.0087 28.1933Z" fill="#ECCBB3"></path>
  <path d="M22.8379 17.6089L22.6191 12.4751C22.4946 11.1574 21.1205 15.2934 19.8028 15.4179L16.4088 15.7388C15.0911 15.8633 14.1147 17.0429 14.2392 18.3606L14.9151 25.521C18.1816 25.4091 21.3062 21.7604 22.8379 17.6089Z" fill="#F0CEB4"></path>
  <path d="M22.5793 13.47C21.7867 17.7372 21.2324 21.5387 13.8076 21.8761C11.1274 21.9977 10.0304 17.5651 9.97015 13.2259C9.90889 8.84001 10.6392 4.57568 16.123 4.57568C20.5079 4.57568 23.3709 9.20566 22.5793 13.47Z" fill="#ECCBB3"></path>
  <path d="M16.4728 33.7286C17.6086 32.9263 17.8099 30.3871 17.8099 30.3871L17.0339 29.2026C16.5554 29.1978 16.0877 29.1774 15.6462 29.1472L14.4014 30.1197C14.4685 32.1921 15.1483 33.1315 14.9363 33.6624C14.4491 34.88 13.8636 37.034 13.4785 38.943C13.9667 42.3613 14.5093 44.8897 14.6017 44.6242C15.1599 43.0158 16.04 40.9512 16.9814 38.8283C16.7742 36.9835 16.5418 34.8051 16.4728 33.7286Z" fill="#1E1D25"></path>
  <g opacity="0.5">
    <path d="M14.563 47.6118C14.3869 47.6118 14.2187 47.5077 14.0602 47.3026C13.5195 46.5994 10.8121 34.4036 11.0611 28.4744L11.4617 28.4909C11.204 34.6292 13.9649 46.5148 14.3782 47.0575C14.4696 47.1761 14.5377 47.2141 14.5688 47.2102C14.6933 47.1956 14.8644 46.8173 14.9286 46.6743C14.9519 46.6228 14.9733 46.5761 14.9918 46.5382C15.0249 46.4711 15.3643 45.6571 15.834 44.532C17.6117 40.2735 21.7749 30.3007 22.5704 29.0267L22.9107 29.2397C22.1318 30.4855 17.9783 40.4368 16.2045 44.6866C15.6376 46.0461 15.3847 46.65 15.3507 46.7171C15.3341 46.7512 15.3147 46.792 15.2943 46.8387C15.163 47.1285 14.9656 47.5671 14.6145 47.6079C14.597 47.6108 14.5795 47.6118 14.563 47.6118Z" fill="#DAE9F1"></path>
  </g>
  <path d="M14.7018 23.2444L13.2596 25.5501L12.5312 27.9424C12.5312 27.9424 12.5945 32.1241 13.3297 32.2583C14.0649 32.3915 16.2033 29.585 16.2033 29.585C16.2033 29.585 17.7078 34.0574 18.3418 33.6616C21.2408 31.8557 23.6516 28.5026 24.2234 27.3784C24.8896 26.0704 25.3369 25.2603 25.3369 25.2603C25.3369 25.2603 23.2723 21.5007 23.0049 21.5007C22.8376 22.4032 18.2845 27.8131 17.3392 27.8131C16.7042 27.8131 15.6354 27.9191 15.4682 27.5126C15.0004 26.3767 14.7018 23.2444 14.7018 23.2444Z" fill="white"></path>
  <path d="M23.357 21.8994C24.0018 21.9986 25.7561 23.1452 28.236 24.5047C28.4168 24.6039 28.7883 25.4733 28.9711 25.5744C33.0507 27.8306 37.8606 29.8524 37.8606 29.8524C37.8606 29.8524 37.3257 58.4588 37.3257 64.3404C37.3257 70.222 37.8606 83.9903 37.8606 83.9903C37.8606 83.9903 34.772 85.3469 29.9738 85.9956C25.0277 86.6637 21.6863 87.0653 21.6863 87.0653C21.6863 87.0653 20.0817 67.5486 21.5521 50.4388C23.0225 33.328 23.357 21.8994 23.357 21.8994Z" fill="#1E1D25"></path>
  <path d="M14.7034 23.2444C9.2225 33.6713 10.1892 39.5432 9.92269 49.0336C9.65526 58.524 9.35476 85.8274 9.35476 85.8274C9.35476 85.8274 5.51152 85.1253 4.84343 84.7246C4.17534 84.3239 3.90789 36.3349 4.44276 32.9925C4.97762 29.6511 4.97762 29.6511 4.97762 29.6511L9.99076 26.9777L10.726 25.7748L14.7034 23.2444Z" fill="#1E1D25"></path>
  <path d="M21.084 74.4328L37.5733 75.7574C37.4459 71.7206 37.3254 67.1383 37.3254 64.3404C37.3254 58.4589 38.328 29.7853 38.328 29.7853C38.328 29.7853 33.0503 27.8306 28.9708 25.5745C28.8959 25.5326 28.788 25.3605 28.6751 25.166L28.6363 25.2399L29.706 32.4586L26.3646 35.734L29.0379 37.2715C29.0379 37.2715 23.2234 52.7105 22.2869 60.397C21.3514 68.0825 21.084 74.4328 21.084 74.4328Z" fill="url(#paint0_linear_550_303)"></path>
  <path d="M10.7261 25.7749L9.99085 26.9779L4.76961 29.5841C4.76961 29.5841 4.74432 30.2687 4.37673 33.0092C4.06456 35.3324 4.0879 58.7225 4.35339 73.0297C6.43936 72.0971 8.36292 70.9836 8.45336 70.0198C8.65369 67.8814 7.65108 57.7219 7.45075 51.64C7.25042 45.5581 6.51521 35.7992 6.51521 35.7992L9.18856 34.7966L7.78528 32.1233C7.78528 32.1233 8.18594 31.5213 8.58757 30.3854C8.98823 29.2505 9.5902 27.7131 10.7261 25.7749Z" fill="url(#paint1_linear_550_303)"></path>
  <path d="M37.3261 30.8879C30.6092 33.996 28.2033 48.733 27.6013 56.4535C27.0839 63.0897 28.6098 86.1802 29.9741 85.9955C34.7724 85.3468 37.861 83.9902 37.861 83.9902C37.861 83.9902 37.3261 70.2218 37.3261 64.3403C37.3261 59.192 37.7355 36.6324 37.8376 31.0873L37.3261 30.8879Z" fill="#1E1D25"></path>
  <path d="M34.3154 82.1855C34.3154 82.1855 33.8845 87.6032 33.9808 88.8023C34.2483 92.1107 35.8188 91.0915 35.8188 91.0915L36.4208 84.2744L34.3154 82.1855Z" fill="#E9D4C5"></path>
  <path d="M48.6755 109.904L28.4878 115.287C25.6307 115.287 23.074 114.284 23.0234 113.275V95.1634C23.0234 94.4836 23.5184 93.905 24.1904 93.801L48.5384 90.123C50.6312 90.2767 53.7519 91.1159 53.7519 91.962V109.322C53.7528 110.002 49.3475 109.8 48.6755 109.904Z" fill="#9B9DAA"></path>
  <path d="M49.4915 90.3728L25.1435 94.252C24.4716 94.3561 23.9766 94.9347 23.9766 95.6145V113.726C23.9911 114.013 24.1623 114.3 24.4657 114.564C25.4859 114.993 26.9426 115.287 28.4889 115.287L48.6766 109.904C49.3486 109.8 53.7539 110.001 53.7539 109.322V92.0912C53.292 91.3219 51.3237 90.508 49.4915 90.3728Z" fill="#727481"></path>
  <path d="M51.9831 111.058L32.6979 114.335C28.4374 115.589 26.3816 115.438 26.332 114.428V96.3169C26.332 95.6371 26.827 95.0585 27.499 94.9544L51.847 91.0752C53.9398 91.2288 53.6519 92.5349 53.6519 93.381L53.2007 108.369C53.2007 109.05 52.6551 110.953 51.9831 111.058Z" fill="#9597A4"></path>
  <path d="M52.7971 111.291L28.4754 115.314C27.7188 115.432 27.0352 114.846 27.0352 114.08V96.4559C27.0352 95.8403 27.4835 95.3171 28.0923 95.2218L52.414 91.1987C53.1706 91.081 53.8542 91.6665 53.8542 92.4328V110.057C53.8532 110.673 53.4049 111.196 52.7971 111.291Z" fill="#9B9DAA"></path>
  <path d="M27.4656 93.3146C27.3148 92.6124 28.0238 92.6192 28.9817 92.5123C29.6585 92.4374 29.9094 92.45 30.1594 92.5998C30.4103 92.7505 32.7413 93.5645 32.9416 94.0157C33.1419 94.4669 33.0418 94.4922 33.0418 94.4922C33.0418 94.4922 30.3431 94.9687 30.1428 94.8686C29.9434 94.7674 27.4656 93.3146 27.4656 93.3146Z" fill="#E9E5D0"></path>
  <path d="M28.0781 92.9878C29.6817 93.8902 29.9832 93.9651 30.2088 94.1411C30.4344 94.3162 30.4092 94.7431 30.4092 94.7431C30.4092 94.7431 32.6148 94.4922 32.5652 94.3424C32.5146 94.1917 30.2341 94.217 31.0617 94.0672C31.8883 93.9165 31.5625 93.7162 31.5625 93.7162C31.5625 93.7162 31.1366 93.4905 30.1087 93.1648C29.0808 92.839 28.0781 92.9878 28.0781 92.9878Z" fill="white"></path>
  <path d="M44.2762 90.7239C44.1254 90.0218 44.8324 90.1502 45.7796 89.9722C46.1803 89.8973 46.8075 89.9216 47.0574 90.0724C47.3083 90.2231 49.1502 90.7745 49.3506 91.2257C49.5509 91.6769 49.4634 91.7275 49.4634 91.7275C49.4634 91.7275 46.9573 92.2283 46.757 92.1282C46.5566 92.028 44.2762 90.7239 44.2762 90.7239Z" fill="#E9E5D0"></path>
  <path d="M44.7441 90.3612C46.0725 91.0254 46.5364 91.2005 46.762 91.3765C46.9877 91.5515 46.9623 91.9785 46.9623 91.9785C46.9623 91.9785 49.2681 91.678 49.2185 91.5272C49.168 91.3765 46.7873 91.4524 47.6139 91.3016C48.4405 91.1509 48.4162 91.0264 48.4162 91.0264C48.4162 91.0264 47.6898 90.7259 46.6619 90.4001C45.634 90.0724 44.7441 90.3612 44.7441 90.3612Z" fill="white"></path>
  <path d="M41.7714 87.2317C43.5092 88.7351 44.4447 90.3397 44.8463 90.8075C45.247 91.2753 46.1164 91.9103 45.9491 91.9774C45.7819 92.0445 45.247 92.1116 44.8133 92.0104C44.3786 91.9103 41.7052 89.7378 40.8368 89.5374C39.9664 89.3371 41.7714 87.2317 41.7714 87.2317Z" fill="#9597A4"></path>
  <path d="M33.7168 82.0522C34.1525 83.8611 34.4257 86.1989 34.9198 87.1655C36.4573 90.1734 35.2543 91.3929 35.2202 91.7936C35.8718 92.4451 40.9686 91.3093 41.8701 90.6072C44.171 88.8178 41.2856 83.4225 41.2856 83.4225L33.7168 82.0522Z" fill="#ECCBB3"></path>
  <path d="M33.6016 81.7682L33.9021 85.9285C33.9021 85.9285 42.7409 84.8587 42.8411 84.5583C42.9413 84.2578 42.5737 76.3369 42.5737 76.3369L33.6016 81.7682Z" fill="white"></path>
  <path d="M38.3277 29.8184C40.6004 35.4325 42.5434 58.3568 42.7058 65.5765C42.8731 73.0286 43.1405 83.2552 43.1405 83.2552C43.1405 83.2552 34.5856 84.0575 33.3827 84.0575C32.7807 83.6062 32.2127 75.2011 31.2101 62.5696C30.2075 49.937 32.6951 36.6043 33.7162 34.1974C35.1195 30.8881 38.3277 29.8184 38.3277 29.8184Z" fill="#1E1D25"></path>
  <path d="M33.1123 94.0001C33.1473 94.04 33.2008 94.0604 33.2523 94.0468C34.2978 93.7667 35.2673 91.9822 35.4968 91.0924C35.6213 90.6101 35.7351 90.1151 35.7059 89.2379C35.7011 89.0988 35.5542 88.4745 35.4716 88.5863C35.1516 89.0201 34.574 89.8447 34.0177 90.5916C32.8984 92.095 31.0614 92.767 31.1771 92.8137C32.4413 93.3243 32.9587 93.8241 33.1123 94.0001Z" fill="#9597A4"></path>
  <path d="M26.2284 152.699C29.5105 151.386 33.981 152.632 33.4471 153.033C32.9132 153.435 25.5603 152.966 26.2284 152.699Z" fill="#9B9DAA"></path>
  <path d="M21.2487 12.2485C21.2487 12.2485 23.254 11.1126 23.855 12.3156C24.457 13.5185 23.5204 15.5909 22.652 15.7241C21.7826 15.8573 21.1816 15.8573 21.1816 15.8573L21.2487 12.2485Z" fill="#ECCBB3"></path>
  <path d="M23.1239 6.26875C23.117 6.26875 23.1112 6.26875 23.1044 6.26778C23.0023 6.25805 22.9245 6.17345 22.9225 6.07133C22.8895 3.73544 21.3403 2.903 21.3248 2.89424C21.2265 2.8427 21.1886 2.72211 21.2392 2.62389C21.2907 2.52567 21.4113 2.48677 21.5095 2.53832C21.565 2.56749 22.5734 3.10916 23.0626 4.51148C23.047 3.46703 22.8282 2.70655 22.8253 2.69586C22.7942 2.58986 22.8545 2.47802 22.9614 2.4469C23.0674 2.41578 23.1793 2.47608 23.2104 2.58305C23.2308 2.65112 23.6976 4.27322 23.3203 6.10926C23.3008 6.20262 23.2182 6.26875 23.1239 6.26875Z" fill="#1E1D25"></path>
  <path d="M9.23739 7.744C6.31314 -0.662121 15.8736 -0.737002 19.5107 1.64752C22.5185 3.61971 23.2868 6.22596 23.2868 6.22596L22.9737 11.7652C22.9737 11.7652 21.6034 12.1309 21.2981 14.6282C20.9937 17.1255 20.0796 14.5066 19.6536 12.4352C19.2277 10.3639 20.8721 7.86653 19.8364 8.04936C18.8008 8.23218 17.3391 9.14534 14.1105 9.81635C10.0932 10.6498 9.60304 8.53754 9.60304 8.53754L9.23739 7.744Z" fill="#1E1D25"></path>
  <defs>
    <linearGradient id="paint0_linear_550_303" x1="25.7697" y1="47.3036" x2="35.2866" y2="58.9213" gradientUnits="userSpaceOnUse">
      <stop stop-color="#2B2B2B"></stop>
      <stop offset="0.4067" stop-color="#353535"></stop>
      <stop offset="1" stop-color="#232323"></stop>
    </linearGradient>
    <linearGradient id="paint1_linear_550_303" x1="10.0413" y1="38.797" x2="1.75356" y2="65.465" gradientUnits="userSpaceOnUse">
      <stop stop-color="#4F4F4F"></stop>
      <stop offset="0.4067" stop-color="#393939"></stop>
      <stop offset="1" stop-color="#101010"></stop>
    </linearGradient>
  </defs>
</svg>
