<?xml version="1.0" encoding="UTF-8"?>
<svg xmlns="http://www.w3.org/2000/svg" width="58" height="155" viewBox="0 0 58 155" fill="none">
  <path d="M26.4811 97.6084C23.6818 118.382 24.2707 142.545 24.2707 142.545C24.2707 142.545 25.3023 146.964 25.8912 151.237C26.1433 153.065 21.3242 152.857 20.5871 152.857C19.85 152.857 17.0508 152.327 17.0508 151.384C17.0508 149.321 19.2236 147.413 19.2611 145.786C19.4084 139.303 17.9351 124.275 17.9351 124.275L26.4811 97.6084Z" fill="#ECCBB3"></path>
  <path d="M35.4512 97.1646C38.2937 118.262 37.6952 142.801 37.6952 142.801C37.6952 142.801 36.6482 147.29 36.0497 151.629C35.7937 153.487 40.5888 153.275 41.3365 153.275C42.0842 153.275 45.0268 152.737 45.0268 151.778C45.0268 149.684 42.8203 147.745 42.7828 146.092C42.6327 139.509 44.129 124.247 44.129 124.247L35.4512 97.1646Z" fill="#ECCBB3"></path>
  <path d="M19.2503 49.7844C19.2503 49.7844 12.5307 70.4984 12.9936 93.8316C13.4574 117.165 17.037 136.995 17.037 136.995C17.037 136.995 20.177 136.688 22.957 136.688C25.737 136.688 25.7379 136.688 25.7379 136.688C25.7379 136.688 26.0853 103.184 29.1001 85.1384C29.2762 84.0828 30.7543 84.0212 30.965 85.0701C32.4498 92.4604 33.3592 99.7525 34.4975 112.232C35.4704 122.9 36.0853 136.995 36.0853 136.995H44.4984C44.4984 136.995 49.102 107.787 45.4328 74.308C42.3006 45.7198 40.5666 53.1177 40.5666 53.1177L19.2503 49.7844Z" fill="#1E1D25"></path>
  <path d="M31.7712 1.75122C29.8755 -0.391767 28.6621 -0.154084 27.5997 0.322242C26.5383 0.798568 26.3103 -0.0742161 24.4906 0.718699C22.671 1.51161 22.1398 2.86169 22.1398 3.65556C22.1398 4.44944 18.4995 5.00467 19.4098 8.33799C20.3201 11.6713 20.016 11.5125 19.865 12.624C19.7129 13.7354 21.9887 15.3222 22.2918 17.1476C22.5949 18.9731 25.3249 19.7669 25.704 20.402C26.0832 21.0371 31.7712 20.1008 32.9846 19.8545C34.1981 19.6082 37.1551 16.2748 36.776 15.7985C36.3968 15.3222 35.1834 15.1634 36.0937 14.4494C37.0041 13.7354 37.5343 12.9415 37.0041 11.5125C36.4729 10.0836 38.4446 9.60724 37.9144 8.81432C37.3832 8.02044 36.6249 6.59243 36.6249 5.55991C36.6249 4.52835 35.2594 2.30549 34.5012 1.98794C33.7429 1.67231 31.7712 1.75122 31.7712 1.75122Z" fill="#252525"></path>
  <path d="M25.2916 20.9582C17.6723 23.3388 11.3231 26.8319 11.7985 28.1011C12.2748 29.3713 15.1318 44.7687 15.2906 52.388C15.536 64.1489 16.7196 65.0872 16.7196 65.0872C16.7196 65.0872 17.6732 69.2663 22.858 73.6591C25.6649 76.0378 32.5673 73.5484 34.6044 70.4846C38.3766 64.811 43.3881 61.2775 43.3881 61.2775C43.3881 61.2775 42.753 55.245 44.0232 42.2293C45.2934 29.2126 44.6583 27.467 44.6583 27.467C44.6583 27.467 36.2451 21.9108 31.0065 21.2767C25.7669 20.6406 25.2916 20.9582 25.2916 20.9582Z" fill="#EBF0F3"></path>
  <path d="M28.6252 25.8793C26.3552 25.8793 24.498 24.0221 24.498 21.7521V16.0371C24.498 13.7671 26.3552 11.9099 28.6252 11.9099C30.8952 11.9099 32.7524 13.7671 32.7524 16.0371V21.7521C32.7524 24.0221 30.8952 25.8793 28.6252 25.8793Z" fill="#ECCBB3"></path>
  <path d="M32.7507 16.0371C32.7507 13.7671 30.8935 11.9099 28.6235 11.9099C26.3535 11.9099 24.4963 13.7671 24.4963 16.0371L24.4434 19.3175C28.3338 24.2338 29.4231 24.0346 30.2901 23.1012C30.7357 22.622 31.7278 21.2844 32.7507 19.8554V16.0371Z" fill="#F0CEB4"></path>
  <path d="M34.7615 11.3287C34.7615 15.4925 31.9901 18.8691 28.5712 18.8691C25.1522 18.8691 22.3809 15.4934 22.3809 11.3287C22.3809 7.16399 25.1522 3.78833 28.5712 3.78833C31.9901 3.78833 34.7615 7.16399 34.7615 11.3287Z" fill="#ECCBB3"></path>
  <path d="M23.0094 81.364C25.06 80.5018 26.6901 78.4993 27.3541 73.659C28.4655 65.5634 29.576 52.0704 29.576 52.0704C29.576 52.0704 28.4645 49.0546 25.6075 41.5941C23.2952 35.5568 22.2213 25.1911 22.0096 22.0166C15.4488 24.0268 11.4198 27.0955 11.7979 28.1011C12.2743 29.3713 15.1313 44.7686 15.29 52.3879C15.5354 64.1489 12.433 79.2142 12.433 79.2142C12.433 79.2142 16.414 81.0243 23.0094 81.364Z" fill="#292831"></path>
  <path d="M22.0103 22.0166C20.7488 22.4034 19.5825 22.8288 18.5221 23.2714C18.0419 24.5955 17.5155 25.655 17.248 26.9906C17.0363 28.0491 16.7188 29.3183 16.7188 29.3183L21.5869 32.9163L18.0948 36.0908C18.0948 36.0908 20.4226 41.5941 23.1747 45.7213C24.0696 47.0646 26.6667 50.9599 26.9843 53.3406C27.0372 57.4678 27.452 61.6508 27.937 68.8438C27.9976 68.1385 29.5776 52.0704 29.5776 52.0704C29.5776 52.0704 28.4662 49.0546 25.6092 41.5941C23.2969 35.5568 22.222 25.1911 22.0103 22.0166Z" fill="#1E1D25"></path>
  <path d="M45.4518 27.4671C45.4518 27.4671 38.9679 23.744 34.1816 21.9109C36.5228 33.3793 27.5149 53.129 27.5149 53.129C27.5149 53.129 26.9857 65.0872 31.5363 72.1773C36.0869 79.2673 35.3459 75.6694 39.1556 72.6007C40.0043 71.9165 46.1523 67.0291 47.1983 66.5682C44.1296 61.0649 43.0903 51.7934 44.0237 42.2284C45.293 29.2126 45.4518 27.4671 45.4518 27.4671Z" fill="#292831"></path>
  <path d="M46.6878 65.58C44.0156 59.9959 43.1428 51.2431 44.0223 42.2294C44.7719 34.5505 45.1338 30.7947 45.305 29.0049C40.7169 35.6061 38.9762 37.7635 39.8951 45.8274C40.8478 54.1876 41.5887 60.325 41.2712 60.7484C40.9536 61.1718 35.0279 67.4151 34.6045 70.4847C34.1811 73.5534 34.0753 72.2842 35.7689 69.4262C37.4625 66.5692 43.3882 64.3464 43.3882 64.3464C43.3882 64.3464 38.0966 69.0028 39.261 68.7911C40.4253 68.5794 41.377 69.7438 40.9546 70.4847C40.7987 70.758 41.506 70.4693 42.4615 69.9968C43.9646 68.8315 45.6004 67.5912 46.5473 66.9589L46.6878 65.58Z" fill="#1E1D25"></path>
  <path d="M46.2437 58.1028C46.2437 58.1028 44.2335 67.3098 41.4814 70.1668C38.7303 73.0238 37.8834 73.4472 37.8834 73.4472C37.8834 73.4472 36.5074 75.2467 38.0951 74.6116C39.6829 73.9765 40.8463 72.8121 40.8463 72.8121L40.317 76.0925L45.1852 78.8437C45.1852 78.8437 46.4554 76.4101 46.5612 73.5521C46.6671 70.6951 46.032 71.6468 46.5612 70.4834C47.0905 69.3191 51.8528 62.7583 51.8528 62.7583L46.2437 58.1028Z" fill="#ECCBB3"></path>
  <path d="M45.292 27.3611C47.8314 28.6313 51.4294 40.8541 55.4507 50.907C54.6039 52.2831 56.6151 53.4464 56.1917 54.8225C55.7683 56.1986 56.721 57.1502 57.1444 58.1029C57.5678 59.0555 50.0543 66.6748 49.525 65.828C48.2019 62.6535 46.0329 64.5578 44.4452 63.2886C44.7627 61.8067 45.1861 59.0555 45.8212 57.6795C46.4563 56.3034 48.0431 55.7213 47.3032 55.88C43.8399 56.622 48.4338 53.764 44.8696 53.764C43.8111 53.764 43.1759 50.2719 42.3301 43.076C41.4823 35.8791 45.292 27.3611 45.292 27.3611Z" fill="#292831"></path>
  <path d="M44.8438 53.7609C44.8524 53.7609 44.8601 53.7638 44.8688 53.7638C46.6615 53.7638 46.3911 54.4865 46.1188 55.111C46.3516 54.8156 46.7769 54.4682 47.3553 54.0544C48.4667 53.2606 52.8316 53.7369 52.8316 52.3079C52.8316 50.8789 45.3711 53.4193 45.3711 53.4193L44.8438 53.7609Z" fill="#1E1D25"></path>
  <path d="M51.9604 56.5949C54.6586 56.9914 55.6911 59.5318 55.6112 57.7064C55.5323 55.8809 50.1349 55.2458 47.5955 56.0397C47.4088 56.0984 47.2452 56.1475 47.098 56.1917C46.9132 56.3342 46.6852 56.5237 46.4629 56.7585C47.5204 56.2004 49.3747 56.2148 51.9604 56.5949Z" fill="#1E1D25"></path>
  <path d="M46.0608 55.9449C46.0579 55.8957 46.0434 55.8465 46.0068 55.8012C45.9663 55.7511 45.9402 55.698 45.9277 55.6421C45.9074 55.7761 45.9373 55.8832 46.0608 55.9449Z" fill="#9BD6E8"></path>
  <path d="M32.6411 38.6343C30.552 46.4672 27.5131 53.13 27.5131 53.13C27.5131 53.13 27.4843 53.7834 27.4977 54.8746C29.1355 53.5929 31.0235 51.8175 32.4332 49.611C35.5289 44.7698 38.3859 35.325 38.3859 35.325L35.5289 32.9444L39.8543 30.2057C39.8543 30.2057 39.3491 25.9496 38.4523 23.7883C38.2752 23.7027 38.0982 23.618 37.9192 23.5343C37.9124 23.5304 37.9047 23.5276 37.898 23.5247C37.7286 23.4448 37.5593 23.3649 37.3899 23.287C37.3755 23.2802 37.3611 23.2735 37.3457 23.2668C37.1792 23.1898 37.0127 23.1138 36.8462 23.0378C36.8337 23.032 36.8222 23.0262 36.8097 23.0214C36.6336 22.9415 36.4584 22.8636 36.2843 22.7866C36.1072 22.7087 35.9321 22.6326 35.7588 22.5576C35.7473 22.5528 35.7358 22.548 35.7252 22.5431C35.5626 22.4739 35.4009 22.4055 35.2402 22.3382C35.2229 22.3314 35.2055 22.3237 35.1892 22.317C35.0304 22.2516 34.8726 22.1871 34.7167 22.1246C34.7032 22.1188 34.6898 22.114 34.6772 22.1082C34.5098 22.0408 34.3433 21.9764 34.1798 21.9138C35.194 26.8792 34.1499 33.1349 32.6411 38.6343Z" fill="#1E1D25"></path>
  <path d="M30.9662 55.5635H28.9031C28.7501 55.5635 28.625 55.4384 28.625 55.2854C28.625 55.1324 28.7501 55.0073 28.9031 55.0073H30.9662C31.1192 55.0073 31.2443 55.1324 31.2443 55.2854C31.2443 55.4384 31.1192 55.5635 30.9662 55.5635Z" fill="#1E1D25"></path>
  <path d="M30.9662 58.7774H28.9031C28.7501 58.7774 28.625 58.6523 28.625 58.4993C28.625 58.3463 28.7501 58.2212 28.9031 58.2212H30.9662C31.1192 58.2212 31.2443 58.3463 31.2443 58.4993C31.2443 58.6523 31.1192 58.7774 30.9662 58.7774Z" fill="#1E1D25"></path>
  <path d="M29.421 55.2461C29.421 55.6262 29.1131 55.9342 28.733 55.9342C28.3529 55.9342 28.0449 55.6262 28.0449 55.2461C28.0449 54.866 28.3529 54.5581 28.733 54.5581C29.1131 54.5581 29.421 54.866 29.421 55.2461Z" fill="#EBF0F3"></path>
  <path d="M29.421 58.6187C29.421 58.9988 29.1131 59.3067 28.733 59.3067C28.3529 59.3067 28.0449 58.9988 28.0449 58.6187C28.0449 58.2386 28.3529 57.9307 28.733 57.9307C29.1131 57.9307 29.421 58.2386 29.421 58.6187Z" fill="#EBF0F3"></path>
  <path d="M30.9662 61.8731H28.9031C28.7501 61.8731 28.625 61.748 28.625 61.595C28.625 61.442 28.7501 61.3169 28.9031 61.3169H30.9662C31.1192 61.3169 31.2443 61.442 31.2443 61.595C31.2443 61.748 31.1192 61.8731 30.9662 61.8731Z" fill="#1E1D25"></path>
  <path d="M29.421 61.7144C29.421 62.0945 29.1131 62.4024 28.733 62.4024C28.3529 62.4024 28.0449 62.0945 28.0449 61.7144C28.0449 61.3343 28.3529 61.0264 28.733 61.0264C29.1131 61.0264 29.421 61.3343 29.421 61.7144Z" fill="#EBF0F3"></path>
  <path d="M13.0158 26.4614C7.72421 30.6945 -1.05847 53.2348 0.104923 56.0928C1.26928 58.9498 2.11511 63.5004 4.54967 63.5004C6.98422 63.5004 15.8468 52.389 15.8468 52.389L15.1328 31.753L13.0158 26.4614Z" fill="#292831"></path>
  <path d="M16.7169 24.0533C17.2721 27.1489 18.3836 33.0217 18.066 41.991C17.5974 55.232 18.6742 84.2417 17.5108 87.9984C16.8122 90.252 11.7958 93.5016 10.209 93.3429C8.62223 93.1841 9.09759 86.0411 10.209 72.5481C10.5795 68.0504 12.0614 60.8959 12.8543 53.2882C13.0795 51.1327 14.7972 52.7118 14.7972 52.7118L12.1134 72.3903C12.1134 72.3903 15.1291 72.0727 15.2879 70.3272C15.4467 68.5806 15.7643 57.551 15.7643 37.1508C15.7643 31.5946 14.3353 25.2455 14.3353 25.2455C14.3353 25.2455 16.3599 23.6568 16.7169 24.0533Z" fill="#494949"></path>
  <path d="M12.0751 72.0313C12.0751 72.0313 10.1371 73.6575 10.1303 73.7374C9.24599 84.4754 8.8428 90.0008 9.48367 92.3757C11.2437 91.5385 13.6022 90.2068 14.297 88.8172C15.4479 86.5155 15.8847 75.3242 15.2891 70.3242C15.1303 72.0707 12.0751 72.0313 12.0751 72.0313Z" fill="#1B243D"></path>
  <path d="M15.2112 70.603C14.1796 70.7618 11.4805 72.3091 10.6875 73.7381C10.4624 74.1423 7.98932 87.5487 7.43312 89.1355C6.87789 90.7232 9.5761 90.0487 11.5603 87.2706C13.5445 84.4925 14.4972 79.6908 14.9735 75.8811C15.3469 72.8865 15.2112 70.603 15.2112 70.603Z" fill="#494949"></path>
  <path d="M15.2921 47.9838L15.2777 35.9092C14.3077 40.4761 9.68781 47.9992 7.51403 48.5785C5.13336 49.2136 3.01346 50.4424 1.87894 52.0706C0.0535008 54.6899 1.56139 59.5311 1.64126 58.4996C1.72016 57.468 1.72015 53.6583 3.07022 52.8645C4.41933 52.0706 5.372 51.5943 5.372 51.5943C5.372 51.5943 5.53077 51.5943 6.32464 51.5154C7.11852 51.4365 7.9124 51.753 7.9124 51.753C7.9124 51.753 9.50014 57.3092 9.65892 58.3408C9.77054 59.0663 9.80327 59.2809 9.81385 59.3454C12.208 56.83 14.4135 54.1077 15.295 53.0232C15.3806 52.2881 15.2209 49.2858 15.2921 47.9838Z" fill="#1E1D25"></path>
  <path d="M3.1724 54.2406C6.92912 51.0661 11.8762 49.3725 13.3841 46.9918C14.892 44.6111 15.6059 43.8962 17.1148 43.4198C18.6227 42.9435 19.3367 43.4198 19.4166 44.9277C19.4964 46.4356 19.8929 48.3409 18.4639 50.1664C17.0349 51.9918 14.6543 51.5155 14.6543 51.5155C14.6543 51.5155 10.9235 56.6742 8.22531 60.0075C5.52709 63.3409 2.66912 59.4523 2.27266 58.6584C1.8762 57.8655 3.1724 54.2406 3.1724 54.2406Z" fill="#ECCBB3"></path>
  <path d="M4.25848 51.9914C0.922269 53.5725 0.60761 56.1186 1.40149 59.2143C2.19536 62.3099 4.02078 63.5792 5.44976 63.8178C6.87874 64.0555 9.97342 61.3573 9.97342 60.802C9.97342 60.2468 9.97342 57.7064 9.97342 57.7064C9.97342 57.7064 8.38568 60.802 6.71902 57.8652C5.05236 54.9283 6.32255 51.9125 6.87779 51.6749C7.43398 51.4362 5.76732 51.2774 4.25848 51.9914Z" fill="#292831"></path>
  <path d="M5.05134 51.1187C2.98822 51.8327 1.63815 57.8652 3.70223 60.6433C5.76631 63.4214 6.62756 62.9634 7.27421 62.2311C8.46454 60.882 4.65489 63.2626 4.01978 59.2942C3.38468 55.3258 3.86101 51.8337 5.84522 51.1986C7.82943 50.5635 7.27421 50.5635 7.27421 50.5635L5.05134 51.1187Z" fill="#1E1D25"></path>
  <path d="M12.3564 47.8644C12.5421 49.9045 13.3485 52.6267 14.0231 52.5469C14.6976 52.467 13.7055 55.1662 12.3959 53.4197C11.0862 51.6731 10.9274 50.4039 11.0073 49.5706C11.0872 48.7372 11.1661 48.539 11.1661 48.539C11.1661 48.539 12.3169 47.4276 12.3564 47.8644Z" fill="#1E1D25"></path>
  <path d="M13.042 50.6821C13.042 51.4635 12.4675 52.0976 11.7593 52.0976C11.051 52.0976 10.4766 51.4635 10.4766 50.6821C10.4766 49.9007 11.051 49.2666 11.7593 49.2666C12.4675 49.2666 13.042 49.9007 13.042 50.6821Z" fill="#494949"></path>
  <path d="M12.9371 50.4037C12.9371 51.2072 12.3867 51.8587 11.7073 51.8587C11.0279 51.8587 10.4766 51.2072 10.4766 50.4037C10.4766 49.6002 11.027 48.9487 11.7073 48.9487C12.3876 48.9487 12.9371 49.6002 12.9371 50.4037Z" fill="#1E1D25"></path>
  <path d="M11.6797 51.5152C12.2234 51.5152 12.6641 50.9939 12.6641 50.3509C12.6641 49.7078 12.2234 49.1865 11.6797 49.1865C11.136 49.1865 10.6953 49.7078 10.6953 50.3509C10.6953 50.9939 11.136 51.5152 11.6797 51.5152Z" fill="#EBF0F3"></path>
  <path d="M45.9248 79.3742C45.8998 79.3742 45.8738 79.3693 45.8487 79.3588C45.8093 79.3424 41.8611 77.6959 38.8212 75.4048C38.7337 75.3393 38.7164 75.2142 38.7818 75.1267C38.8472 75.0391 38.9723 75.0218 39.0599 75.0872C42.0593 77.3466 45.9623 78.9748 46.0008 78.9912C46.1018 79.0335 46.1499 79.149 46.1086 79.25C46.0768 79.328 46.0027 79.3742 45.9248 79.3742Z" fill="#EBF0F3"></path>
  <path d="M23.0686 6.67208C22.6452 11.3285 23.7037 15.5616 24.233 16.3555C24.7622 17.1493 25.9795 17.2552 27.5134 16.9376C29.0482 16.6201 31.0055 17.6786 32.064 17.1493C33.1225 16.6201 33.7046 12.4929 33.8105 9.90052C33.9163 7.30815 33.8105 6.62012 33.8105 6.62012C33.8105 6.62012 35.1336 11.4353 34.9219 13.6043C34.7102 15.7733 32.8059 19.5829 32.1179 20.0063C31.4298 20.4297 28.6787 21.4353 27.8848 21.2765C27.0909 21.1178 24.3927 19.0546 23.9693 18.5783C23.5459 18.102 22.6462 14.2923 22.4874 13.3397C22.3277 12.3861 23.0686 6.67208 23.0686 6.67208Z" fill="#252525"></path>
  <path d="M25.1323 17.3604C24.7618 16.1961 24.7618 14.9797 25.5557 14.7151C26.3496 14.4505 28.201 13.8154 29.0478 14.0271C29.8946 14.2388 31.2167 14.6093 31.5343 15.2444C31.8518 15.8795 31.8518 17.5192 31.8518 17.5192C31.8518 17.5192 29.4183 17.3075 29.9475 17.2546C30.4768 17.2016 30.8472 17.3604 30.8472 16.4607C30.8472 15.561 29.0478 14.7671 28.5724 14.7671C28.0961 14.7671 26.3505 15.2434 26.2447 15.6139C26.1388 15.9844 25.8742 17.0429 26.5093 17.3075C27.1425 17.5721 25.1323 17.3604 25.1323 17.3604Z" fill="#252525"></path>
  <path d="M31.9063 5.71954C29.5786 7.519 26.5089 8.25899 24.7104 7.46607C22.9109 6.6722 23.3343 11.805 22.5934 13.0752C21.8524 14.3454 21.5618 12.0696 21.5618 12.0696C21.5618 12.0696 20.9008 3.92105 23.6519 2.70377C26.403 1.4865 31.1124 2.38622 33.2294 3.97398C35.3464 5.56173 35.8747 12.5459 35.663 13.0752C35.4513 13.6044 35.6101 13.9749 33.9694 11.4345C32.3297 8.89409 33.2593 4.67451 31.9063 5.71954Z" fill="#252525"></path>
  <path d="M26.5029 8.37456C26.3932 8.37456 26.3047 8.28603 26.3047 8.17633C26.3047 8.06663 26.3932 7.9781 26.5029 7.9781C27.4402 7.9781 32.1871 6.98311 32.6067 4.32627C32.624 4.21753 32.7269 4.1444 32.8337 4.16172C32.9415 4.17904 33.0156 4.28008 32.9983 4.38881C32.5325 7.3353 27.5383 8.37456 26.5029 8.37456Z" fill="#252525"></path>
  <path d="M26.2879 21.0225C26.2494 21.0225 26.2109 21.011 26.1763 20.9879C26.1156 20.9465 24.6886 19.9678 23.7234 18.8362C23.6522 18.7525 23.6618 18.6274 23.7456 18.5562C23.8283 18.485 23.9544 18.4946 24.0256 18.5783C24.9561 19.6695 26.386 20.6501 26.4005 20.6597C26.4909 20.7213 26.514 20.8445 26.4524 20.9359C26.4139 20.9917 26.3514 21.0225 26.2879 21.0225Z" fill="#252525"></path>
  <path d="M34.1789 11.3548L35.4886 10.7996C35.4886 10.7996 35.7666 12.5461 35.0517 13.0215C34.3377 13.4978 33.8613 13.2197 33.8613 13.2197L34.1789 11.3548Z" fill="#ECCBB3"></path>
  <path d="M22.4761 11.658C22.0796 11.9756 21.127 11.5791 21.127 11.5791C21.127 11.5791 21.405 12.8888 21.8814 13.1669C22.3577 13.445 22.9524 13.2063 22.9524 13.2063C22.9524 13.2063 22.7744 11.4184 22.4761 11.658Z" fill="#ECCBB3"></path>
  <path d="M24.2698 142.102C26.4802 149.027 25.923 152.861 25.7681 153.275C25.694 153.471 24.6384 154.331 21.3974 154.405C19.5624 154.446 18.1517 153.898 17.2741 153.414C16.5755 153.029 16.1838 152.256 16.2695 151.463C16.3551 150.672 16.5909 149.609 17.1981 148.584C18.3768 146.595 18.8926 145.49 19.0398 144.017C19.1871 142.544 18.7454 142.102 19.1139 142.249C19.4825 142.396 20.2186 144.386 21.8401 143.944C23.4596 143.502 24.2698 142.102 24.2698 142.102Z" fill="#1E1D25"></path>
  <path d="M16.2273 151.655C16.2128 152.084 16.4178 152.491 16.7748 152.726C17.5552 153.243 18.6955 153.979 20.9299 154.092C23.3606 154.215 25.8164 153.355 25.8164 152.913C25.8164 152.737 25.9212 152.406 25.9078 151.17C25.3179 151.889 23.8572 152.793 22.0587 152.856C20.2313 152.922 17.4234 152.119 16.4986 150.246C16.3043 150.954 16.2427 151.206 16.2273 151.655Z" fill="#EBF0F3"></path>
  <path d="M17.4902 151.04C19.307 152.268 21.4683 152.366 22.9906 152.121C24.5129 151.875 24.7092 151.63 24.7092 151.63C24.7092 151.63 24.7583 150.795 23.923 150.451C23.0878 150.108 21.4182 150.108 19.7487 150.059C18.0801 150.009 17.4902 151.04 17.4902 151.04Z" fill="#EBF0F3"></path>
  <path d="M23.7764 148.832C23.7427 148.832 23.7081 148.824 23.6764 148.805C23.4521 148.674 22.5967 148.467 21.6084 148.261C19.8503 148.447 19.0661 148.629 19.0584 148.631C18.9525 148.656 18.8447 148.59 18.8197 148.484C18.7947 148.377 18.8611 148.27 18.967 148.245C18.992 148.239 19.4212 148.14 20.3536 148.012C19.9369 147.933 19.5328 147.86 19.1758 147.799C19.0805 147.782 19.0112 147.7 19.0112 147.603C19.0112 147.507 19.0805 147.424 19.1758 147.408L21.6267 146.982C21.1436 146.785 20.7462 146.659 20.548 146.672C19.7965 146.719 19.2287 146.906 19.2229 146.908C19.1229 146.941 19.0141 146.89 18.9756 146.792C18.9371 146.694 18.9814 146.583 19.0776 146.539C19.119 146.52 19.4818 146.355 19.9918 146.159L19.2133 145.979C19.1219 145.958 19.0574 145.875 19.0593 145.782C19.0613 145.688 19.1286 145.609 19.221 145.591C19.8051 145.482 20.4123 145.363 20.9714 145.251C20.6721 145.189 20.4142 145.15 20.24 145.15H19.3557C19.2556 145.15 19.1719 145.075 19.1594 144.977C19.1469 144.878 19.2085 144.786 19.3047 144.76C19.5414 144.696 20.1592 144.533 20.8415 144.362C20.47 144.256 20.1063 144.151 19.7936 144.062C19.6964 144.034 19.6348 143.938 19.6521 143.838C19.6694 143.738 19.758 143.668 19.8609 143.673C20.9993 143.748 22.6669 143.852 23.1327 143.873C23.1875 143.868 23.2308 143.868 23.2606 143.871C23.4743 143.898 23.4637 144.072 23.4617 144.091C23.4435 144.28 23.278 144.276 23.1153 144.268C22.9758 144.284 22.7218 144.332 22.3927 144.403C22.9306 144.565 23.3328 144.694 23.3954 144.737C23.4627 144.781 23.4993 144.87 23.4839 144.948C23.4608 145.062 23.4493 145.117 22.7112 145.289C23.073 145.394 23.4011 145.495 23.6407 145.57C23.788 145.607 23.9034 145.636 23.9872 145.658C24.1536 145.702 24.3268 145.748 24.2864 145.94C24.245 146.136 24.0459 146.099 23.9381 146.079C23.9294 146.077 23.9208 146.075 23.9121 146.072C23.9054 146.07 23.7601 146.023 23.5291 145.95C23.4473 145.93 23.3521 145.907 23.2395 145.88C22.8026 145.775 22.1223 145.896 21.4467 146.087L23.7726 146.624C23.865 146.645 23.9285 146.728 23.9265 146.823C23.9236 146.917 23.8553 146.997 23.762 147.013L22.9691 147.15C23.6956 147.502 24.322 147.843 24.4625 147.92C24.553 147.97 24.5905 148.081 24.5482 148.175C24.5058 148.269 24.3981 148.315 24.3009 148.281C24.297 148.28 23.9246 148.157 22.9922 148.168C23.4059 148.275 23.7312 148.377 23.8784 148.463C23.9727 148.518 24.0054 148.64 23.9496 148.734C23.9111 148.797 23.8447 148.832 23.7764 148.832ZM20.3449 147.606C20.7337 147.679 21.1821 147.766 21.6296 147.858C21.6671 147.855 21.7046 147.851 21.7422 147.847C22.4081 147.778 22.9296 147.762 23.3299 147.773C22.9874 147.599 22.6303 147.425 22.2878 147.268L20.3449 147.606ZM21.4872 146.503C21.7547 146.602 22.0462 146.725 22.3397 146.857L22.7256 146.789L21.4872 146.503ZM20.217 145.803L20.6798 145.91C21.134 145.758 21.6315 145.613 22.0982 145.528C22.026 145.508 21.9529 145.488 21.8798 145.469C21.7075 145.505 21.516 145.544 21.3034 145.587C20.9242 145.664 20.5441 145.739 20.217 145.803ZM20.7202 144.801C21.0561 144.856 21.4689 144.952 21.8884 145.062C22.181 145 22.4388 144.944 22.6467 144.895C22.3648 144.808 21.9981 144.699 21.6046 144.584C21.3284 144.649 21.0291 144.723 20.7202 144.801Z" fill="#EBF0F3"></path>
  <path d="M37.7128 142.352C35.4688 149.384 36.0337 153.279 36.1915 153.699C36.2666 153.898 37.3385 154.771 40.6305 154.846C42.4944 154.889 43.9263 154.331 44.8183 153.84C45.5275 153.449 45.9259 152.665 45.8383 151.859C45.7507 151.057 45.5121 149.976 44.8953 148.936C43.6982 146.916 43.1747 145.794 43.0246 144.298C42.8745 142.801 43.3239 142.353 42.9496 142.502C42.5752 142.651 41.8275 144.672 40.1811 144.223C38.5356 143.773 37.7128 142.352 37.7128 142.352Z" fill="#1E1D25"></path>
  <path d="M45.8816 152.076C45.896 152.511 45.6882 152.924 45.3254 153.164C44.5325 153.69 43.3739 154.436 41.1058 154.551C38.6366 154.676 36.1434 153.803 36.1434 153.354C36.1434 153.175 36.0365 152.817 36.05 151.563C36.6495 152.293 38.1333 153.21 39.9588 153.276C41.814 153.342 44.6662 152.527 45.6054 150.625C45.8027 151.342 45.8662 151.62 45.8816 152.076Z" fill="#EBF0F3"></path>
  <path d="M44.5958 151.429C42.7502 152.676 40.5562 152.775 39.0098 152.526C37.4634 152.277 37.2642 152.028 37.2642 152.028C37.2642 152.028 37.2142 151.18 38.062 150.831C38.9097 150.481 40.6053 150.481 42.3018 150.431C43.9973 150.382 44.5958 151.429 44.5958 151.429Z" fill="#EBF0F3"></path>
  <path d="M38.2128 149.184C38.1445 149.184 38.0781 149.148 38.0416 149.086C37.9867 148.991 38.0185 148.869 38.1128 148.814C38.2648 148.726 38.6054 148.62 39.0375 148.509C38.0627 148.493 37.6855 148.623 37.6807 148.624C37.5835 148.658 37.4757 148.612 37.4334 148.518C37.3911 148.424 37.4286 148.312 37.519 148.263C37.6614 148.185 38.3023 147.836 39.0442 147.478L38.2292 147.336C38.1359 147.32 38.0675 147.241 38.0646 147.147C38.0618 147.052 38.1262 146.97 38.2186 146.948L40.5916 146.4C39.9007 146.205 39.2049 146.08 38.7584 146.186C38.6449 146.213 38.5477 146.237 38.4649 146.258C38.2302 146.332 38.082 146.38 38.0752 146.382C38.0666 146.385 38.0579 146.387 38.0492 146.388C37.9415 146.409 37.7404 146.444 37.6999 146.249C37.6595 146.057 37.8337 146.011 38.0011 145.966C38.0858 145.943 38.2042 145.913 38.3533 145.877C38.5987 145.8 38.9355 145.696 39.3079 145.589C38.5487 145.413 38.5381 145.357 38.514 145.242C38.4977 145.163 38.5352 145.076 38.6025 145.031C38.667 144.988 39.0799 144.855 39.6312 144.688C39.2906 144.614 39.0289 144.564 38.8845 144.549C38.7209 144.556 38.5535 144.56 38.5352 144.372C38.5333 144.351 38.5227 144.177 38.7373 144.15C38.7671 144.146 38.8114 144.147 38.8672 144.152C39.3406 144.131 41.0342 144.025 42.1899 143.95C42.29 143.942 42.3814 144.014 42.3987 144.115C42.4161 144.215 42.3545 144.312 42.2573 144.339C41.9368 144.43 41.5625 144.537 41.1814 144.647C41.8781 144.821 42.5113 144.989 42.7529 145.054C42.8491 145.08 42.9116 145.173 42.8982 145.271C42.8856 145.37 42.801 145.443 42.7018 145.443H41.804C41.6241 145.443 41.3566 145.485 41.0458 145.549C41.6174 145.665 42.2399 145.785 42.8385 145.898C42.9309 145.915 42.9982 145.995 43.0002 146.088C43.0021 146.182 42.9376 146.264 42.8462 146.285L42.0456 146.47C42.569 146.67 42.9414 146.84 42.9838 146.859C43.08 146.903 43.1243 147.014 43.0858 147.112C43.0473 147.21 42.9386 147.261 42.8385 147.228C42.8327 147.226 42.2525 147.035 41.4923 146.988C41.2892 146.976 40.8812 147.104 40.3856 147.306L42.8856 147.741C42.9809 147.758 43.0502 147.841 43.0502 147.937C43.0502 148.033 42.9809 148.116 42.8856 148.132C42.5171 148.196 42.0995 148.272 41.6703 148.352C42.6297 148.483 43.0714 148.585 43.0964 148.591C43.2032 148.616 43.2686 148.723 43.2436 148.83C43.2186 148.937 43.1118 149.002 43.005 148.978C42.9973 148.976 42.1947 148.791 40.4145 148.602C39.4109 148.811 38.541 149.022 38.3129 149.156C38.2811 149.175 38.2465 149.184 38.2128 149.184ZM38.8855 148.111C39.2579 148.111 39.7178 148.131 40.2779 148.189C40.3164 148.193 40.3549 148.197 40.3924 148.2C40.8533 148.105 41.3162 148.016 41.7146 147.941L39.7236 147.594C39.3714 147.755 39.0038 147.935 38.6516 148.113C38.7248 148.112 38.8027 148.111 38.8855 148.111ZM39.2627 147.113L39.6707 147.184C39.9863 147.043 40.3 146.911 40.5839 146.808L39.2627 147.113ZM39.9026 145.832C40.3808 145.919 40.8908 146.066 41.3566 146.223L41.8416 146.111C41.5067 146.046 41.1151 145.969 40.7244 145.889C40.5079 145.845 40.3135 145.805 40.1384 145.769C40.0595 145.789 39.9805 145.81 39.9026 145.832ZM39.3473 145.188C39.561 145.238 39.8275 145.296 40.1297 145.36C40.5617 145.247 40.9871 145.148 41.3316 145.092C41.0131 145.011 40.7042 144.936 40.4174 144.867C40.0113 144.987 39.6351 145.099 39.3473 145.188Z" fill="#EBF0F3"></path>
</svg>
