<?xml version="1.0" encoding="UTF-8"?>
<svg xmlns="http://www.w3.org/2000/svg" width="53" height="156" viewBox="0 0 53 156" fill="none">
  <path d="M28.0053 0.551059C22.3868 -1.22318 19.9083 1.49213 18.7155 5.7609C17.5226 10.0287 19.0292 14.7999 13.5686 19.3814C8.10797 23.9639 6.41265 30.3655 9.11198 34.5084C11.8113 38.6513 27.6286 45.1159 33.7166 32.876C39.8056 20.6362 39.8056 13.4803 37.8595 8.20847C35.9144 2.9367 30.3909 1.30431 28.0053 0.551059Z" fill="#222222"></path>
  <path d="M47.624 107.76H30.1843L29.9785 84.2778L48.7919 87.7794L50.4392 104.944C50.4392 106.499 49.1785 107.76 47.624 107.76Z" fill="#727481"></path>
  <path d="M48.1089 88.191C46.6494 84.7554 40.2937 81.0061 40.4185 81.3937L40.3496 82.7673C40.3496 82.7673 41.8601 82.8363 43.989 84.6894C46.1179 86.5436 46.3926 87.9851 46.3926 87.9851L48.1089 88.191Z" fill="#727481"></path>
  <path d="M44.6045 107.623H27.1648L26.959 84.1409L47.4197 87.7803L46.8703 104.98C46.8703 106.534 46.159 107.623 44.6045 107.623Z" fill="#9B9DAA"></path>
  <path d="M45.7022 88.1911C44.7412 85.6506 42.6123 83.4538 41.5823 82.7665C40.5523 82.0801 44.5344 87.9843 44.5344 87.9843L45.7022 88.1911Z" fill="#9B9DAA"></path>
  <path d="M47.9003 93.0321C48.209 91.7964 48.7244 92.4138 48.7244 94.4737C48.7244 96.5337 50.4757 112.394 48.3129 116.823C46.8203 119.878 40.6914 122.281 40.6914 122.281L41.2059 119.913C41.2059 119.913 45.3957 118.622 47.0761 116.102C48.9302 113.321 47.9003 93.0321 47.9003 93.0321Z" fill="#9B9DAA"></path>
  <path d="M42.4448 66.0481L42.239 80.3639L38.4277 66.6665L42.4448 66.0481Z" fill="#ECCBB3"></path>
  <path d="M29.8789 22.1746C36.4704 23.6161 39.6632 26.809 40.4874 32.1647C41.3116 37.5204 41.3116 50.2907 42.2387 54.9251C43.1657 59.5595 44.1957 64.6065 42.857 66.4597C41.5184 68.3139 37.9139 68.8283 37.9139 68.8283L29.8789 22.1746Z" fill="#EBF0F3"></path>
  <path opacity="0.7" d="M29.8789 22.1746C37.0878 23.8229 39.869 27.7361 40.4874 32.1647C41.2367 37.5314 41.3116 50.2907 42.2387 54.9251C43.1657 59.5595 44.1957 64.6065 42.857 66.4597C41.5184 68.3139 37.9139 68.8283 37.9139 68.8283L29.8789 22.1746Z" fill="#EBF0F3"></path>
  <path d="M22.3469 145.951C20.5776 148.882 22.3928 152.374 23.255 153.893C24.1181 155.413 25.1651 155.489 25.6376 154.551C26.1102 153.613 27.6776 151.801 26.8035 147.608C25.9303 143.414 22.3469 145.951 22.3469 145.951Z" fill="#222222"></path>
  <path d="M47.0769 144.63C47.6953 147.308 49.6513 149.368 52.02 150.81C54.3887 152.253 50.99 152.459 48.4156 152.355C45.8411 152.252 44.5014 150.501 43.7812 150.398C43.0599 150.295 43.3696 151.839 43.3696 151.839L42.3396 151.736C42.3396 151.736 41.928 148.338 42.1338 146.999C42.3396 145.66 47.0769 144.63 47.0769 144.63Z" fill="#222222"></path>
  <path d="M39.3886 60.5908C43.3707 85.5831 43.9201 94.2345 45.4306 112.361C46.4376 124.442 47.9022 146.691 47.9022 146.691C47.9022 146.691 43.5075 148.613 42.2718 148.613C41.036 148.613 35.5434 124.581 30.4625 105.356C25.3815 86.1315 28.1278 62.5119 28.1278 62.5119L39.3886 60.5908Z" fill="#212121"></path>
  <path opacity="0.5" d="M35.5444 115.999C35.1508 103.408 36.4485 80.1085 40.5145 67.8127C40.1728 65.5589 39.7992 63.1623 39.3896 60.5908L28.1297 62.5129C28.1297 62.5129 25.3835 86.1325 30.4644 105.357C35.5454 124.582 41.0379 148.614 42.2737 148.614C42.5854 148.614 43.0979 148.492 43.6903 148.309C42.8032 146.069 35.929 128.332 35.5444 115.999Z" fill="#212121"></path>
  <path d="M21.2612 53.5867C8.49088 60.8645 15.1503 92.5171 16.3861 106.112C17.3751 116.985 21.3292 147.308 21.3292 147.308C21.3292 147.308 25.2433 149.059 27.1993 147.823C27.1993 147.515 31.8068 112.677 32.6579 99.4522C33.6879 83.4541 35.2674 67.7307 35.2674 65.5338C35.2684 63.337 21.2612 53.5867 21.2612 53.5867Z" fill="#212121"></path>
  <path d="M32.4572 17.9417C32.4572 17.9417 32.4592 17.9936 32.4622 18.0915C32.4672 18.1844 32.4662 18.3433 32.4562 18.5371C32.4492 18.633 32.4452 18.7419 32.4282 18.8587C32.4182 18.9776 32.3932 19.1045 32.3663 19.2424C32.3053 19.5161 32.2074 19.8308 32.0016 20.1495C31.9737 20.1884 31.9457 20.2274 31.9167 20.2674C31.8887 20.3083 31.8568 20.3463 31.8208 20.3832C31.7858 20.4212 31.7499 20.4592 31.7139 20.4971C31.674 20.5331 31.631 20.5671 31.589 20.602L31.5241 20.654L31.4512 20.6999C31.4012 20.7289 31.3533 20.7619 31.2983 20.7878C31.2434 20.8128 31.1864 20.8358 31.1295 20.8588C31.0726 20.8827 31.0096 20.8937 30.9477 20.9107L30.8538 20.9317L30.7569 20.9407L30.659 20.9487L30.61 20.9517C30.642 20.9527 30.5591 20.9507 30.5661 20.9507C30.5621 20.9507 30.5531 20.9497 30.5531 20.9497L30.5361 20.9487C30.4901 20.9447 30.4442 20.9417 30.3982 20.9377C30.3293 20.9267 30.2494 20.9107 30.1744 20.8927L30.1185 20.8787L30.0715 20.8618L29.9786 20.8268C29.9477 20.8148 29.9167 20.8028 29.8857 20.7888L29.7998 20.7419C29.6809 20.6819 29.58 20.604 29.4771 20.5261C29.2833 20.3603 29.1255 20.1685 28.9946 19.9637C28.8687 19.7569 28.7698 19.5381 28.6959 19.3143C28.5511 18.8647 28.5101 18.3942 28.5371 17.9377C28.5381 17.9107 28.5371 17.9277 28.5381 17.9197C28.5391 17.9147 28.5401 17.9047 28.5401 17.9047L28.5421 17.8857L28.5461 17.8468L28.555 17.7688C28.561 17.7169 28.565 17.6679 28.577 17.606C28.597 17.4881 28.616 17.3702 28.646 17.2623C28.6969 17.0416 28.7758 16.8288 28.8657 16.625C28.9157 16.5241 28.9626 16.4232 29.0226 16.3293C29.0755 16.2324 29.1415 16.1414 29.2044 16.0525C29.3403 15.8777 29.4951 15.7199 29.6699 15.59C29.8478 15.4621 30.0476 15.3682 30.2544 15.3183C30.4622 15.2653 30.6779 15.2783 30.8648 15.3203C30.9147 15.3342 30.9697 15.3432 31.0146 15.3622C31.0596 15.3812 31.1045 15.3992 31.1495 15.4182C31.1934 15.4381 31.2324 15.4641 31.2734 15.4871L31.3333 15.5221L31.3882 15.563C31.5391 15.6679 31.656 15.7968 31.7619 15.9227C31.8118 15.9886 31.8588 16.0525 31.9037 16.1175C31.9437 16.1844 31.9847 16.2493 32.0196 16.3143C32.0526 16.3802 32.0876 16.4441 32.1165 16.5071C32.1435 16.571 32.1695 16.634 32.1954 16.6949C32.2394 16.8188 32.2824 16.9337 32.3093 17.0445C32.3433 17.1534 32.3633 17.2553 32.3823 17.3482C32.4162 17.5331 32.4382 17.6809 32.4432 17.7818C32.4512 17.8827 32.4552 17.9367 32.4552 17.9367L32.4572 17.9417ZM32.1485 17.9367C32.1485 17.9367 32.1495 17.8867 32.1505 17.7928C32.1515 17.7459 32.1535 17.6879 32.1485 17.62C32.1425 17.552 32.1455 17.4731 32.1305 17.3872C32.1115 17.2124 32.0686 17.0036 31.9896 16.7718C31.9067 16.543 31.7809 16.2933 31.588 16.0695C31.5631 16.0425 31.5371 16.0166 31.5111 15.9896C31.4861 15.9616 31.4592 15.9356 31.4292 15.9127C31.4002 15.8887 31.3713 15.8637 31.3423 15.8387C31.3103 15.8178 31.2784 15.7968 31.2464 15.7748L31.1984 15.7428L31.1465 15.7179C31.1115 15.7019 31.0776 15.6819 31.0416 15.6679C31.0046 15.6559 30.9677 15.6429 30.9307 15.6309C30.8937 15.617 30.8588 15.617 30.8228 15.608C30.4981 15.545 30.1754 15.6629 29.9177 15.8917C29.7918 16.0106 29.6849 16.1534 29.593 16.3083C29.5041 16.4661 29.4332 16.6379 29.3812 16.8168C29.3333 16.9976 29.2933 17.1814 29.2813 17.3702C29.2703 17.4651 29.2713 17.555 29.2703 17.644C29.2683 17.7259 29.2773 17.8607 29.2813 17.9357C29.3143 18.3103 29.4092 18.6719 29.5521 18.9896C29.591 19.0665 29.626 19.1465 29.6709 19.2164C29.7099 19.2913 29.7589 19.3553 29.8038 19.4222C29.9007 19.5471 30.0036 19.656 30.1125 19.7389C30.1685 19.7748 30.2204 19.8148 30.2753 19.8378L30.3153 19.8588L30.3563 19.8717L30.3962 19.8867L30.4152 19.8947L30.4272 19.8957C30.4452 19.8977 30.4552 19.9037 30.4771 19.9107C30.5231 19.9137 30.5691 19.9167 30.615 19.9197L30.632 19.9207L30.641 19.9217C30.655 19.9227 30.575 19.9197 30.61 19.9207L30.629 19.9187L30.667 19.9167L30.7049 19.9157L30.7419 19.9067C30.9417 19.8817 31.1565 19.7619 31.3503 19.603C31.5441 19.4412 31.7039 19.2364 31.8208 19.0366C31.9337 18.8348 32.0156 18.64 32.0586 18.4731C32.0866 18.3902 32.0945 18.3173 32.1095 18.2524C32.1255 18.1894 32.1295 18.1275 32.1345 18.0795C32.1445 17.9826 32.1495 17.9307 32.1495 17.9307L32.1485 17.9367Z" fill="#212121"></path>
  <path d="M30.2321 22.001C38.1193 26.0879 41.2882 34.7534 40.488 39.7864C39.6878 44.8184 38.7577 50.1351 41.451 60.4439C43.2382 67.2831 25.0263 68.0833 15.6805 58.1482C12.9652 55.261 19.3869 52.4478 16.4018 41.9572C13.4168 31.4666 15.8534 27.8072 18.0122 25.6883C20.1701 23.5694 25.3739 21.5984 25.3739 21.5984L30.2321 22.001Z" fill="#EBF0F3"></path>
  <path opacity="0.7" d="M21.1241 58.9135C20.6316 55.6487 23.8015 50.5118 25.2301 44.3909C26.6587 38.2699 23.8215 36.5536 20.6216 25.9781L19.0312 25.2578C18.8174 25.4346 18.6156 25.6115 18.4338 25.7903C16.2759 27.9092 13.4168 31.4667 16.4018 41.9583C19.3869 52.4489 12.9652 55.2621 15.6805 58.1492C18.2919 60.9255 21.5967 62.8626 24.9633 64.0654C24.8994 64.0344 24.8375 64.0024 24.7705 63.9715C22.7226 63.0124 21.6167 62.1782 21.1241 58.9135Z" fill="#EBF0F3"></path>
  <path d="M27.9878 26.0099C26.0107 25.1058 24.5542 23.6822 24.3963 22.0199L23.751 14.5213C23.5931 12.8589 24.9298 11.4703 26.5921 11.3125C28.2545 11.1546 29.744 12.3854 29.9019 14.0478L30.7231 22.7002C31.2316 25.3665 30.0797 26.5424 27.9878 26.0099Z" fill="#ECCBB3"></path>
  <path d="M26.5925 11.3125C24.9301 11.4703 23.5715 12.9259 23.7293 14.5882L24.1089 18.3165C26.3917 21.924 29.3637 22.9489 30.7244 22.7012L29.9032 14.0488C29.7443 12.3854 28.2548 11.1546 26.5925 11.3125Z" fill="#F0CEB4"></path>
  <path d="M34.3692 10.3317C34.7788 14.2058 34.4291 18.7853 31.9875 19.6185C28.9076 20.6704 24.2012 17.6244 22.9325 13.9401C21.6648 10.2557 23.1313 6.41056 26.2092 5.35161C29.2872 4.29266 33.7078 4.06988 34.3692 10.3317Z" fill="#ECCBB3"></path>
  <path d="M18.473 25.5323C10.6487 29.0718 0.272011 56.6985 1.02726 57.8084C1.78251 58.9183 13.0943 70.3839 14.7447 70.4359C16.395 70.4878 17.3671 68.6027 17.3671 68.6027C17.3671 68.6027 9.99937 58.0461 10.0453 56.19C10.0913 54.3338 20.8716 43.078 20.6189 38.2427C20.3651 33.4075 18.8926 25.3425 18.473 25.5323Z" fill="#ECCBB3"></path>
  <path d="M19.6565 24.912C14.3278 26.5105 11.8183 31.3367 5.77924 42.6525C-0.259779 53.9683 -1.18087 59.6966 1.24373 60.3769C3.66933 61.0572 3.66933 61.0572 3.66933 61.0572C3.66933 61.0572 9.72833 59.29 10.4037 58.9253C11.079 58.5607 11.079 58.5607 11.079 58.5607C11.079 58.5607 9.29775 56.4868 11.5066 54.6316C13.7164 52.7774 18.1849 48.4487 19.7684 44.141C21.3528 39.8333 21.6315 33.2987 21.182 29.8781C20.7324 26.4575 20.6775 24.6053 19.6565 24.912Z" fill="#EBF0F3"></path>
  <path opacity="0.7" d="M1.74108 58.6447C2.79404 59.3679 3.35149 59.6257 6.09677 59.5408C8.03185 59.4808 10.0518 58.9414 11.0748 58.5547C10.9669 58.4239 9.37252 56.4259 11.5084 54.6336C11.5763 54.5767 11.6463 54.5168 11.7182 54.4558C7.15972 57.5877 0.708107 57.9354 1.74108 58.6447Z" fill="#EBF0F3"></path>
  <path d="M4.09791 61.5937C3.25075 60.8644 3.23576 60.3839 4.71829 59.4448C6.20083 58.5057 10.3397 56.8664 10.9042 57.3299C11.4676 57.7934 12.4047 59.207 11.9451 59.9083C11.4856 60.6096 5.31271 63.1361 4.88813 62.7365C4.46455 62.3379 4.09791 61.5937 4.09791 61.5937Z" fill="#EBF0F3"></path>
  <path d="M17.0112 68.2014C18.0062 69.2693 19.9243 71.3403 20.5887 72.8308C21.253 74.3213 16.3389 77.5651 16.3389 77.5651C16.3389 77.5651 15.7025 76.9667 15.5467 74.1545C15.3908 71.3433 14.5436 70.613 13.3498 69.7578C12.156 68.9017 11.6225 67.2014 11.8283 67.1944C12.0341 67.1874 17.0112 68.2014 17.0112 68.2014Z" fill="#ECCBB3"></path>
  <path d="M21.7441 147.102C21.5823 147.102 21.4464 146.977 21.4364 146.813C21.4324 146.753 21.0298 140.72 19.9959 131.068C19.2306 123.925 19.3455 119.662 19.4144 117.116C19.4564 115.556 19.4824 114.615 19.2896 114.037C18.9289 112.954 18.7751 111.135 18.5982 109.029C18.4983 107.846 18.3954 106.623 18.2466 105.429C17.839 102.17 15.0478 78.6807 15.0198 78.4439C15.0058 78.327 15.0588 78.2131 15.1577 78.1492C15.2146 78.1122 20.843 74.3879 21.9649 70.4948C22.0119 70.331 22.1837 70.2361 22.3475 70.283C22.5114 70.33 22.6063 70.5018 22.5593 70.6656C21.4704 74.4449 16.6232 77.9005 15.6572 78.5588C15.9239 80.8016 18.4744 102.251 18.862 105.352C19.0128 106.558 19.1157 107.788 19.2166 108.977C19.3835 110.958 19.5413 112.828 19.879 113.842C20.1068 114.524 20.0798 115.506 20.0358 117.134C19.9679 119.665 19.853 123.902 20.6143 131.004C21.6502 140.67 22.0528 146.714 22.0568 146.774C22.0678 146.944 21.9389 147.092 21.7691 147.103C21.7581 147.102 21.7511 147.102 21.7441 147.102Z" fill="#212121"></path>
  <path d="M17.1581 68.0251C15.7894 68.7374 13.7644 71.5816 13.7774 71.9942C13.7904 72.4058 14.8114 73.7655 15.0681 73.7575C15.3259 73.7495 18.6596 69.9373 18.6596 69.9373L17.1581 68.0251Z" fill="#222222"></path>
  <path d="M14.8207 70.6737C14.7947 69.8355 16.1933 68.4159 16.6618 68.5558C17.1294 68.6956 18.0015 70.2141 18.0105 70.5238C18.0205 70.8325 16.6698 72.1622 16.2532 72.0203C15.8367 71.8785 14.8337 71.0852 14.8207 70.6737Z" fill="#E9E5D0"></path>
  <path d="M15.4238 70.294C15.8025 69.2001 16.5177 69.0232 16.9493 69.6286C17.3799 70.234 17.5477 70.6406 17.1951 70.9094C16.8424 71.1781 16.8424 71.1781 16.8424 71.1781C16.8424 71.1781 17.0033 69.7305 16.3389 69.9054C15.6756 70.0802 15.4238 70.294 15.4238 70.294Z" fill="white"></path>
  <path d="M29.3561 14.0544C28.8676 14.0544 28.3341 13.8496 27.8416 13.464C27.2881 13.0314 26.8626 12.426 26.7307 11.8845C26.5918 11.3131 26.7367 10.8706 27.1633 10.5698C27.4999 10.3321 27.9755 10.2042 28.5629 10.0604C29.406 9.85456 30.1953 9.93148 30.7287 10.2711C31.1263 10.5239 31.3891 10.9225 31.49 11.425C31.7207 12.5789 30.9515 13.7137 29.7387 14.0094C29.6148 14.0394 29.487 14.0544 29.3561 14.0544ZM29.47 10.5639C29.2322 10.5639 28.9755 10.5958 28.7087 10.6608C28.1862 10.7886 27.7667 10.8995 27.5199 11.0744C27.3411 11.2012 27.2402 11.3621 27.3311 11.7377C27.43 12.1443 27.7806 12.6308 28.2232 12.9775C28.6977 13.3481 29.1962 13.5049 29.5919 13.409C30.482 13.1923 31.0494 12.3731 30.8836 11.5459C30.8146 11.2042 30.6558 10.9575 30.3971 10.7926C30.1583 10.6408 29.8376 10.5639 29.47 10.5639Z" fill="#212121"></path>
  <path d="M34.1904 12.78C34.0226 12.78 33.8467 12.746 33.6669 12.6771C33.0545 12.4433 32.558 11.8809 32.4022 11.2425C32.2753 10.723 32.3123 10.1936 32.5071 9.751C32.7139 9.28047 33.0715 8.96178 33.5141 8.85289C33.592 8.83391 33.6729 8.81193 33.7568 8.78995C34.2823 8.65009 34.9367 8.47626 35.4112 8.75898C35.6469 8.89884 35.8048 9.12861 35.8807 9.44031C36.1315 10.4683 35.8957 11.8419 34.8048 12.5942C34.625 12.7181 34.4162 12.78 34.1904 12.78ZM34.7898 9.22552C34.5291 9.22552 34.1984 9.31343 33.9147 9.38836C33.8268 9.41134 33.7408 9.43431 33.6599 9.45429C33.4082 9.51523 33.2004 9.70904 33.0725 9.99975C32.9326 10.3184 32.9077 10.7081 33.0026 11.0967C33.1085 11.5292 33.4721 11.9418 33.8867 12.0997C34.0186 12.1496 34.2663 12.2146 34.4531 12.0857C35.2973 11.5033 35.4741 10.3824 35.2793 9.58716C35.2264 9.36838 35.1265 9.30943 35.0945 9.29045C35.0156 9.2445 34.9097 9.22552 34.7898 9.22552Z" fill="#212121"></path>
  <path d="M31.135 11.1467C31.077 11.1467 31.0191 11.1307 30.9671 11.0967C30.8243 11.0038 30.7833 10.813 30.8752 10.6691C31.4736 9.74406 32.5346 9.94486 32.5795 9.95385C32.7464 9.98682 32.8553 10.1497 32.8223 10.3175C32.7893 10.4843 32.6255 10.5932 32.4587 10.5603C32.4317 10.5553 31.7613 10.4374 31.3947 11.0058C31.3358 11.0967 31.2369 11.1467 31.135 11.1467Z" fill="#212121"></path>
  <path d="M26.9437 12.396C26.9357 12.396 26.9277 12.396 26.9197 12.395L23.4372 12.1273C23.2793 12.1153 23.1564 11.9854 23.1524 11.8276C23.1484 11.6687 23.2653 11.5339 23.4222 11.5129L26.9047 11.0663C27.0746 11.0443 27.2284 11.1642 27.2504 11.3331C27.2724 11.5019 27.1525 11.6567 26.9836 11.6787L26.4911 11.7417L26.9687 11.7786C27.1385 11.7916 27.2664 11.9405 27.2534 12.1103C27.2384 12.2731 27.1035 12.396 26.9437 12.396Z" fill="#212121"></path>
  <path d="M31.2739 5.03247C30.0831 9.02152 25.6185 12.534 24.1899 12.3552C22.7613 12.1764 21.8083 13.0096 21.8083 13.0096L19.6055 9.61593C19.6055 9.61593 27.9992 2.05542 28.178 2.05542C28.3568 2.05542 33.238 3.78171 33.238 3.78171L31.2739 5.03247Z" fill="#222222"></path>
  <path d="M24.1328 12.5932C24.1328 12.5932 23.1208 11.7001 22.1677 12.2955C21.2157 12.8909 21.7861 14.5732 22.1677 15.0787C22.7631 15.868 23.8351 15.6292 23.8351 15.6292L24.1328 12.5932Z" fill="#ECCBB3"></path>
  <path d="M25.1168 17.8369C25.1168 17.8369 25.1178 17.8938 25.1208 18.0007C25.1258 18.0976 25.1208 18.2854 25.1019 18.5052C25.0809 18.722 25.0399 18.9867 24.957 19.2864C24.8691 19.5852 24.7382 19.9228 24.5014 20.2615C24.3766 20.4263 24.2367 20.5992 24.0419 20.744C23.951 20.8209 23.8381 20.8829 23.7272 20.9478C23.6063 21.0008 23.4835 21.0557 23.3446 21.0827L23.2427 21.1066C23.2077 21.1126 23.1728 21.1146 23.1368 21.1186L23.0299 21.1276L22.976 21.1316C23.0099 21.1326 22.922 21.1296 22.929 21.1306C22.924 21.1306 22.915 21.1296 22.915 21.1296L22.896 21.1276C22.8461 21.1236 22.7951 21.1186 22.7442 21.1146C22.6623 21.0997 22.5794 21.0817 22.4974 21.0607C22.2067 20.9738 21.97 20.8189 21.7642 20.6371C21.3626 20.2635 21.1278 19.788 20.9809 19.3064C20.916 19.0637 20.8601 18.8179 20.8371 18.5692C20.8201 18.4453 20.8171 18.3214 20.8111 18.1975C20.8061 18.1356 20.8101 18.0737 20.8101 18.0117L20.8141 17.8149L20.8291 17.6451C20.8351 17.5871 20.8371 17.5352 20.8481 17.4683C20.8661 17.3424 20.883 17.2135 20.915 17.0966C20.965 16.8569 21.0499 16.6261 21.1408 16.4033C21.3396 15.9627 21.6103 15.5561 21.978 15.2614C22.1618 15.1156 22.3696 14.9997 22.5923 14.9358C22.6493 14.9228 22.7052 14.9108 22.7612 14.8978C22.8181 14.8938 22.8751 14.8888 22.932 14.8848L22.953 14.8838L22.964 14.8828H22.969C22.968 14.8828 22.9949 14.8838 22.986 14.8838L23.0229 14.8868L23.0968 14.8928C23.1218 14.8948 23.1448 14.8958 23.1718 14.8998L23.2577 14.9188C23.3766 14.9388 23.4725 14.9827 23.5734 15.0207C23.6663 15.0706 23.7612 15.1166 23.8411 15.1785C24.0099 15.2924 24.1478 15.4303 24.2717 15.5691C24.5124 15.8509 24.6773 16.1496 24.7972 16.4233C24.914 16.699 24.985 16.9508 25.0289 17.1606C25.0719 17.3703 25.0929 17.5392 25.1009 17.6541C25.1108 17.769 25.1158 17.8309 25.1158 17.8309L25.1168 17.8369ZM24.3956 17.8249C24.3956 17.8249 24.3976 17.773 24.3996 17.675C24.4055 17.5761 24.3996 17.4333 24.3896 17.2495C24.3806 17.1586 24.3766 17.0557 24.3566 16.9468C24.3436 16.8359 24.3176 16.719 24.2897 16.5931C24.2257 16.3454 24.1278 16.0676 23.958 15.8049C23.8671 15.68 23.7692 15.5472 23.6383 15.4473C23.5774 15.3893 23.5034 15.3533 23.4325 15.3064C23.3566 15.2744 23.2767 15.2355 23.2027 15.2215C23.0319 15.1825 22.8501 15.1785 22.6813 15.2375C22.5104 15.2924 22.3516 15.3963 22.2137 15.5282C22.0769 15.662 21.965 15.8299 21.8721 16.0087C21.7781 16.1875 21.7162 16.3853 21.6603 16.5841C21.6163 16.7869 21.5764 16.9917 21.5634 17.2005C21.5514 17.3064 21.5534 17.4043 21.5484 17.5042C21.5454 17.5502 21.5484 17.6121 21.5494 17.6681L21.5534 17.8389C21.5544 17.8169 21.5534 17.8359 21.5544 17.8319C21.5544 17.8369 21.5554 17.8469 21.5554 17.8469L21.5574 17.8659L21.5614 17.9048L21.5684 17.9827C21.5734 18.0347 21.5763 18.0866 21.5853 18.1376C21.6023 18.2395 21.6143 18.3424 21.6403 18.4413C21.6802 18.6421 21.7482 18.8319 21.8191 19.0147C21.899 19.1925 21.9869 19.3624 22.0908 19.5102C22.1967 19.6541 22.3046 19.789 22.4265 19.8819C22.5424 19.9778 22.6723 20.0427 22.7742 20.0747C22.7921 20.0777 22.8081 20.0827 22.8251 20.0917C22.8751 20.0956 22.925 20.0996 22.975 20.1026L22.9939 20.1036L23.0029 20.1046C23.0179 20.1056 22.933 20.1016 22.97 20.1036L22.9909 20.1016L23.0319 20.0986C23.0459 20.0976 23.0599 20.0986 23.0729 20.0966L23.1138 20.0867C23.1688 20.0807 23.2217 20.0517 23.2767 20.0347C23.3296 20.0027 23.3856 19.9828 23.4355 19.9408C23.5404 19.8719 23.6373 19.774 23.7262 19.6751C23.901 19.4683 24.0329 19.2295 24.1288 19.0067C24.2207 18.781 24.2797 18.5712 24.3166 18.3943C24.3506 18.2195 24.3716 18.0956 24.3796 17.9797C24.3886 17.8738 24.3936 17.8169 24.3936 17.8169L24.3956 17.8249Z" fill="#676767"></path>
  <path d="M22.9528 15.0719C22.9528 14.984 23.0237 14.9111 23.1216 14.8831C22.9788 14.6823 22.6951 14.5434 22.3644 14.5434C22.1826 14.5434 22.0197 14.4875 21.8809 14.5584C21.9678 14.7432 22.0797 14.976 22.1636 15.0789C22.6251 15.6443 22.8299 15.4355 23.0986 15.4855C23.1506 15.4205 23.1886 15.3486 23.2065 15.2717C23.0657 15.2727 22.9528 15.1828 22.9528 15.0719Z" fill="#ECCBB3"></path>
  <path d="M29.8309 9.24948C29.7809 9.24948 29.732 9.2315 29.692 9.19553C29.6081 9.11861 29.6021 8.98874 29.679 8.90482C29.694 8.88784 31.2215 7.16354 31.2215 3.89378C31.2215 3.7799 31.3134 3.68799 31.4273 3.68799C31.5412 3.68799 31.6331 3.7799 31.6331 3.89378C31.6331 7.33238 30.0507 9.10862 29.9827 9.18254C29.9428 9.2265 29.8868 9.24948 29.8309 9.24948Z" fill="#222222"></path>
  <path d="M4.80427 28.7659C4.78629 28.7659 4.7673 28.7639 4.74832 28.7579C4.63843 28.7269 4.57449 28.613 4.60546 28.5041C4.64442 28.3663 5.5825 25.1055 8.52158 22.2333C9.22489 21.546 10.2319 20.8197 11.2978 20.0525C13.7704 18.2703 16.5736 16.2513 17.4817 13.5609C17.5177 13.453 17.6346 13.3951 17.7424 13.4321C17.8503 13.468 17.9083 13.5849 17.8713 13.6928C16.9203 16.508 13.9362 18.6589 11.5376 20.3872C10.4846 21.1454 9.48962 21.8627 8.8083 22.529C5.94713 25.3253 5.01006 28.584 5.00007 28.617C4.9771 28.7059 4.89518 28.7659 4.80427 28.7659Z" fill="#222222"></path>
  <path d="M6.39874 34.4305C6.30484 34.4305 6.21992 34.3655 6.19794 34.2706L6.17297 34.1607C5.75938 32.3585 5.19394 29.889 7.18896 25.3365C8.23392 22.9518 10.0891 21.6292 12.0531 20.2285C13.8913 18.9178 15.7924 17.5622 17.0852 15.2265C17.1401 15.1266 17.266 15.0906 17.3649 15.1456C17.4648 15.2005 17.5007 15.3264 17.4458 15.4253C16.1081 17.8429 14.169 19.2255 12.2929 20.5632C10.3768 21.9299 8.5666 23.2206 7.56759 25.5013C5.62751 29.9299 6.17596 32.3216 6.57657 34.0688L6.60154 34.1787C6.62652 34.2896 6.55759 34.4005 6.4467 34.4255C6.42971 34.4285 6.41373 34.4305 6.39874 34.4305Z" fill="#222222"></path>
</svg>
