<?xml version="1.0" encoding="UTF-8"?>
<svg xmlns="http://www.w3.org/2000/svg" width="45" height="157" viewBox="0 0 45 157" fill="none">
  <path d="M12.9927 3.59937C8.96374 7.93119 8.56763 12.3744 8.39744 18.1509C8.25865 22.8859 7.91016 26.5055 7.91016 26.5055C7.91016 26.5055 11.8783 30.579 22.1142 29.9519C32.3491 29.3249 34.751 24.6253 34.751 24.6253C34.751 24.6253 30.8953 16.9778 29.7901 10.787C27.4753 -2.17909 17.8492 -1.62292 12.9927 3.59937Z" fill="#1E1D25"></path>
  <path d="M19.7774 138.464L19.36 147.654C19.36 147.654 17.4798 149.221 15.9136 149.221C14.3474 149.221 14.2431 148.803 14.2431 148.803C14.2431 148.803 11.2495 96.2015 11.6669 91.6053C12.0842 87.0111 19.7774 138.464 19.7774 138.464Z" fill="#ECCBB3"></path>
  <path d="M13.9652 147.342C13.9652 147.342 12.7819 149.709 9.02146 152.877C6.87277 154.687 11.2147 155.279 14.4524 154.339C17.6902 153.399 18.2119 153.295 19.8834 153.086C21.5539 152.877 20.6148 149.639 20.3008 148.491C19.9878 147.342 19.5694 146.819 19.5694 146.819L15.2872 149.012C15.2882 149.013 14.5922 147.133 13.9652 147.342Z" fill="#EBF0F3"></path>
  <path d="M14.4533 154.339C17.691 153.399 18.2128 153.294 19.8843 153.086C20.8639 152.963 20.946 151.801 20.7829 150.628C20.5975 151.05 20.2571 151.705 19.8843 151.798C19.3271 151.938 17.4469 152.215 16.6121 152.842C15.7764 153.47 13.0614 154.374 11.321 154.166C9.8966 153.994 9.96347 153.032 9.27256 152.649C9.18848 152.727 9.1054 152.804 9.02334 152.878C6.93342 154.757 11.2156 155.279 14.4533 154.339Z" fill="#1E1D25"></path>
  <path d="M14.456 150.266C14.377 150.266 14.302 150.222 14.2665 150.146C14.2473 150.105 13.7782 149.143 12.7378 149.082C12.6224 149.075 12.5352 148.977 12.5413 148.861C12.5484 148.746 12.6477 148.661 12.7622 148.665C14.0548 148.741 14.6211 149.918 14.6444 149.968C14.693 150.073 14.6485 150.197 14.5441 150.246C14.5158 150.26 14.4854 150.266 14.456 150.266Z" fill="#1E1D25"></path>
  <path d="M13.5854 150.858C13.5033 150.858 13.4263 150.809 13.3929 150.729C13.3807 150.7 13.0657 149.989 12.1124 149.773C11.9999 149.748 11.929 149.636 11.9543 149.524C11.9797 149.411 12.0921 149.34 12.2046 149.366C13.3757 149.63 13.7627 150.53 13.7789 150.568C13.8234 150.675 13.7728 150.797 13.6664 150.842C13.6391 150.853 13.6117 150.858 13.5854 150.858Z" fill="#1E1D25"></path>
  <path d="M12.8518 151.345C12.7636 151.345 12.6806 151.288 12.6532 151.199C12.6451 151.174 12.4253 150.546 11.5571 150.366C11.4436 150.342 11.3717 150.232 11.395 150.118C11.4183 150.006 11.5287 149.933 11.6422 149.956C12.7586 150.187 13.0402 151.036 13.0524 151.073C13.0878 151.182 13.027 151.3 12.9166 151.335C12.8943 151.342 12.872 151.345 12.8518 151.345Z" fill="#1E1D25"></path>
  <path d="M24.4824 108.177L35.6453 148.586C35.6453 148.586 38.5284 150.224 39.2294 149.011C39.9305 147.797 39.7593 147.159 39.6732 146.84C39.5881 146.521 33.2555 103.024 33.2555 103.024L24.4824 108.177Z" fill="#ECCBB3"></path>
  <path d="M37.2587 149.273C37.2587 149.273 36.4513 147.622 38.4602 146.61C40.468 145.599 40.5704 146.684 40.8885 147.253C41.2066 147.823 41.1519 149.323 41.1519 149.323C41.1519 149.323 43.5852 150.913 44.0907 152.633C44.5962 154.352 44.187 155.972 43.6024 156.068C43.0189 156.163 40.4103 156.713 38.7205 154.628C37.0307 152.543 37.3995 152.048 35.8546 151.306C34.3097 150.565 35.5355 148.176 35.5355 148.176L37.2587 149.273Z" fill="#EBF0F3"></path>
  <path d="M43.6026 156.069C44.7109 155.514 44.4667 154.806 44.257 153.399C44.1 153.696 43.8346 154.042 43.4314 154.108C42.701 154.228 42.2694 154.795 41.3992 155.434C40.529 156.074 37.6235 152.51 37.3399 151.686C37.0957 150.979 35.7514 150.633 35.1334 149.645C34.9714 150.176 34.9714 150.885 35.8537 151.308C37.3986 152.05 37.0299 152.545 38.7197 154.63C40.4104 156.714 43.0829 156.328 43.6026 156.069Z" fill="#1E1D25"></path>
  <path d="M38.9627 151.753C38.906 151.753 38.8492 151.73 38.8087 151.685C38.7307 151.6 38.7368 151.468 38.8219 151.391C39.7579 150.537 41.3839 150.019 41.4528 149.997C41.5632 149.962 41.6797 150.023 41.7152 150.133C41.7496 150.244 41.6888 150.36 41.5784 150.396C41.5622 150.401 39.9717 150.908 39.1035 151.7C39.064 151.736 39.0133 151.753 38.9627 151.753Z" fill="#1E1D25"></path>
  <path d="M39.6266 152.142C39.575 152.142 39.5233 152.123 39.4838 152.086C39.3997 152.007 39.3957 151.874 39.4747 151.79C40.3439 150.868 41.8209 150.618 41.8837 150.608C41.9982 150.589 42.1046 150.666 42.1238 150.78C42.142 150.893 42.065 151.001 41.9516 151.02C41.9374 151.022 40.5505 151.259 39.7796 152.077C39.7371 152.12 39.6824 152.142 39.6266 152.142Z" fill="#1E1D25"></path>
  <path d="M40.0723 152.567C40.0095 152.567 39.9477 152.538 39.9062 152.485C39.8363 152.393 39.8535 152.262 39.9457 152.192C40.902 151.463 42.4054 151.088 42.4682 151.073C42.5796 151.044 42.6931 151.113 42.7204 151.226C42.7478 151.338 42.6799 151.45 42.5675 151.478C42.5523 151.482 41.0843 151.848 40.1979 152.524C40.1615 152.553 40.1169 152.567 40.0723 152.567Z" fill="#1E1D25"></path>
  <path d="M10.3962 28.2885C10.4032 28.2136 10.4316 28.0697 10.383 28.1265C3.2136 36.5085 -1.07262 52.146 0.233203 59.0388C1.3273 64.8152 6.18084 65.5608 6.86769 65.9306C6.91632 65.9569 6.97507 65.9245 6.98014 65.8698L10.3962 28.2885Z" fill="#1E1D25"></path>
  <path d="M9.89149 28.7353C9.88237 28.7464 9.87427 28.7586 9.86819 28.7707C5.23245 37.718 2.24698 49.2263 1.80023 52.302C1.47909 54.5135 1.64522 55.6045 1.783 56.0736C1.82555 56.2184 2.01195 56.261 2.11528 56.1495L7.9221 49.9426C7.94844 49.9142 7.96566 49.8797 7.97275 49.8423L8.91693 44.4761C8.91794 44.471 8.91896 44.465 8.91896 44.4599L10.3605 28.5377C10.3778 28.3443 10.1762 28.3878 10.0526 28.5377C9.99887 28.6036 9.94518 28.6694 9.89149 28.7353Z" fill="#1E1D25"></path>
  <path d="M10.6221 57.6287C7.6974 68.908 8.65474 80.5358 9.16025 94.1817C9.99602 116.74 13.3381 143.268 13.3381 143.268C13.3381 143.268 17.9333 144.313 20.0222 143.686C22.1111 143.058 26.0793 60.3436 26.0793 60.3436L10.6221 57.6287Z" fill="#1E1D25"></path>
  <path d="M20.3008 70.1622L9.99606 70.0234L8.72266 83.0949C8.81484 85.9061 8.94553 88.7943 9.06608 91.7767C15.5446 93.8616 19.9757 101.794 19.1865 110.476C18.3507 119.666 20.5794 120.153 20.0223 129.205C19.5633 136.661 19.5755 140.62 18.1157 143.886C18.8329 143.894 19.5046 143.843 20.0223 143.687C21.2298 143.324 23.0665 115.512 24.4007 92.1171L20.3008 70.1622Z" fill="#1E1D25"></path>
  <path d="M14.8027 61.8063C15.6385 91.8849 32.5575 143.686 32.5575 143.686C32.5575 143.686 37.6755 144.522 39.2416 142.329C39.4503 140.344 37.2986 113.647 36.7353 108.804C35.6909 99.8222 36.7353 84.5747 36.7353 74.3388C36.7353 64.1029 29.2155 57.8372 29.2155 57.8372L14.8027 61.8063Z" fill="#1E1D25"></path>
  <path d="M18.3043 24.7274C19.8127 24.3374 23.0444 24.534 24.4799 25.1398C29.1571 27.1152 30.1985 28.4494 31.3727 29.0826C32.3918 29.6316 31.9613 49.6759 31.4568 59.1024C31.2856 62.3077 33.1921 72.5719 30.0496 73.2254C27.4684 73.7623 19.9981 74.674 17.1352 74.674C10.8685 74.674 9.39448 73.5577 9.33674 72.8637C8.36218 61.0272 8.88288 42.7294 8.60429 36.7413C8.54958 35.561 8.49995 34.5004 8.45537 33.5562C8.29936 30.2172 10.4075 27.4262 13.7364 26.3807L16.5406 25.1833L18.3043 24.7274Z" fill="#EBF0F3"></path>
  <path d="M23.0767 17.1063C22.633 20.0563 22.9115 24.069 22.8416 24.6951C21.7496 28.0959 19.2716 30.6913 17.7936 30.822C16.6104 30.9264 15.183 30.3692 15.726 26.2602C15.6034 24.7234 15.5801 22.8918 15.5801 20.9123C15.5801 15.3811 17.2293 10.8973 19.2635 10.8973C21.2978 10.8973 24.4828 7.76594 23.0767 17.1063Z" fill="#ECCBB3"></path>
  <path d="M23.339 14.9993L16.6812 13.7776C16.0025 15.594 15.582 18.1195 15.582 20.9125C15.582 22.5152 15.5972 24.0206 15.6682 25.3507C17.7631 25.5675 21.1052 24.1553 22.6866 20.3179C22.7413 20.1862 22.794 20.0585 22.8446 19.9329C22.877 18.9756 22.9449 17.9929 23.0776 17.1065C23.1962 16.3183 23.2823 15.6193 23.339 14.9993Z" fill="#F0CEB4"></path>
  <path d="M23.5086 13.9863C23.5086 18.7102 17.7515 21.6551 14.2848 21.179C10.734 20.6917 10.0016 16.8958 10.6945 12.3725C11.5242 10.1752 13.1795 6.52417 16.6796 6.52417C20.1797 6.52417 23.5086 9.26245 23.5086 13.9863Z" fill="#ECCBB3"></path>
  <path d="M25.317 27.6899C25.4518 29.8477 23.9241 41.7541 25.0384 52.4763C26.1528 63.1984 25.3515 72.1457 27.9631 90.0737C27.9631 90.2135 39.2141 88.7203 39.2425 87.7062C39.5211 77.8198 34.3687 61.1095 35.0646 51.2221C35.7606 41.3357 36.6308 35.8004 36.6308 35.8004C36.6308 35.8004 35.1274 31.2741 31.8614 28.8032C28.9225 26.5796 28.2843 26.5431 25.2471 25.4612C25.2481 25.4622 25.2482 26.5766 25.317 27.6899Z" fill="#1E1D25"></path>
  <path d="M35.0629 51.223C35.3091 47.7229 35.5775 44.7719 35.8217 42.4155L35.1328 36.8802L30.259 28.873C27.2654 33.3984 27.0557 41.3356 27.1955 47.4636C27.2847 51.3831 26.1491 53.9897 25.3184 55.3614C25.8695 61.2999 25.7388 67.0976 26.2574 74.2345C28.0901 73.3228 33.3965 71.3453 35.2595 69.0862C35.7467 68.4966 36.2684 67.8604 36.6301 67.4005C35.5137 60.7235 34.7124 56.2093 35.0629 51.223Z" fill="#1E1D25"></path>
  <path d="M12.9758 26.6626C12.3639 26.7517 11.828 27.08 11.3245 27.3869C6.96937 30.0482 6.4598 40.199 6.71002 48.4382C6.98861 57.6286 3.87246 86.0356 4.84803 87.4286C5.82258 88.8215 10.8362 89.7961 10.8362 89.7961C10.8362 89.7961 12.0893 66.5415 10.4188 52.4772C8.74626 38.412 12.9758 26.6626 12.9758 26.6626Z" fill="#1E1D25"></path>
  <path d="M11.2425 66.6407C11.1685 62.5125 10.9912 58.355 10.6468 54.6614L6.54597 55.563C6.31398 60.1531 5.89661 65.7219 5.51367 70.9158C7.34223 70.7011 9.86068 69.0589 11.2425 66.6407Z" fill="#1E1D25"></path>
  <path d="M18.0918 46.2448C21.7996 45.723 22.6353 46.0877 22.8957 46.6621C23.1571 47.2365 19.4493 50.9443 19.4493 50.9443L18.0918 46.2448Z" fill="#ECCBB3"></path>
  <path d="M8.32585 43.8429C11.5676 41.5017 16.8902 38.8303 16.8902 38.8303L23.157 60.7629C23.157 60.7629 16.5772 65.2538 14.6969 65.6712C12.8167 66.0886 4.56641 46.7676 4.56641 46.7676C4.56641 46.7676 5.50652 45.8802 8.32585 43.8429Z" fill="#A9ABB8"></path>
  <path d="M3.83398 50.1096L15.322 43.2168L24.1994 60.9716C24.1994 60.9716 16.9936 65.7755 15.7404 66.0895C14.4873 66.4015 3.83398 50.1096 3.83398 50.1096Z" fill="#CACED9"></path>
  <path d="M4.2894 51.6415C0.80348 51.8502 0.251366 55.5884 0.390154 58.9872C0.598843 64.1051 3.69271 66.9751 6.93448 65.5669C9.58057 64.4181 9.23209 58.4654 9.23209 58.4654C9.23209 58.4654 7.77126 51.4328 4.2894 51.6415Z" fill="#1E1D25"></path>
  <path d="M5.40386 52.4773C2.75776 52.9646 1.92301 55.5408 2.89756 59.1614C3.87212 62.7821 5.26507 63.8964 6.51822 62.852C7.77136 61.8075 9.02451 59.44 8.18976 57.2822C7.35297 55.1224 5.40386 52.4773 5.40386 52.4773Z" fill="#1E1D25"></path>
  <path d="M22.9706 46.8213C22.8986 46.6572 22.7568 46.5356 22.5826 46.493C21.9636 46.3411 19.9699 46.7149 19.1868 47.341C18.4128 47.9599 18.9437 49.0662 18.9254 50.056C18.9082 51.0386 14.8459 50.6942 5.40726 52.4701C5.40422 52.4721 5.40016 52.4761 5.40016 52.4761C2.72874 52.9685 1.90311 55.5893 2.92224 59.2646C3.04482 59.2697 3.17145 59.2666 3.31125 59.2464C6.55707 58.7753 14.2735 56.7239 17.3056 55.2256C21.8086 53.0009 23.0091 52.2735 23.2583 51.1521C23.7456 48.971 23.2289 47.4129 22.9706 46.8213Z" fill="#ECCBB3"></path>
  <path d="M32.0011 32.355C36.6662 39.9438 37.1534 53.5906 35.6217 57.9072C34.09 62.2239 15.7091 64.9398 13.2018 64.6613C10.6955 64.3827 9.72096 61.5978 9.44237 60.6921C9.16378 59.7875 8.8852 59.1604 10.0695 58.8818C11.2527 58.6032 12.5758 58.1159 14.1774 59.0216C15.779 59.9262 15.0132 60.4834 17.5894 59.9262C20.1655 59.3691 29.4958 55.331 29.983 54.6351C30.4693 53.9391 32.0011 32.355 32.0011 32.355Z" fill="#ECCBB3"></path>
  <path d="M24.7998 57.2334C24.039 57.5626 23.2518 57.8919 22.4849 58.2029C21.9774 59.5259 22.0453 61.6645 22.256 63.5467C23.5183 63.2985 24.815 63.0119 26.0823 62.6907L24.7998 57.2334Z" fill="#F0CEB4"></path>
  <path d="M36.0373 34.3736C39.0308 39.6648 39.4492 57.141 39.7278 58.6038C40.0064 60.0657 33.1136 65.6364 29.423 66.611C25.7325 67.5856 25.1763 67.5856 25.1763 67.5856C25.1763 67.5856 24.0103 66.5411 23.523 64.5221C23.0357 62.5031 23.21 57.6809 23.21 57.6809C23.21 57.6809 28.8669 54.2173 29.6327 53.3815C30.3986 52.5458 28.2398 45.0958 28.797 36.9498C29.3542 28.8038 29.9802 28.1768 29.9802 28.1768L36.0373 34.3736Z" fill="#1E1D25"></path>
  <path d="M28.9004 53.712C30.9893 52.8762 35.0618 52.9806 36.2633 55.5395C37.4647 58.0985 37.099 54.3907 35.7932 53.7637C34.4874 53.1366 32.0338 52.8762 32.0338 52.8762C32.0338 52.8762 33.8613 52.4588 34.7487 52.1975C35.6362 51.9361 34.1743 51.6758 32.1381 52.0931C30.1019 52.5105 29.1618 52.1975 29.1618 52.1975L28.9004 53.712Z" fill="#1E1D25"></path>
  <path d="M15.5864 14.3913C15.5378 14.3913 15.4891 14.3741 15.4486 14.3396C15.398 14.2951 14.1965 13.2314 13.4509 11.3299C12.763 9.57626 12.3598 6.75693 14.3434 3.28621C14.4011 3.18591 14.5277 3.15147 14.628 3.2082C14.7283 3.26594 14.7628 3.39258 14.706 3.49287C13.1794 6.16429 12.8886 8.74859 13.8399 11.1759C14.549 12.9832 15.712 14.0134 15.7242 14.0236C15.8113 14.0995 15.8204 14.2312 15.7444 14.3184C15.7029 14.367 15.6451 14.3913 15.5864 14.3913Z" fill="#1E1D25"></path>
  <path d="M13.4776 4.01666C12.9204 10.0048 13.9649 11.8151 16.5755 14.2343C19.5549 16.9959 23.4774 15.3659 23.4774 15.3659L25.7923 14.2951L21.8495 4.52116L15.7924 3.05933L13.4776 4.01666Z" fill="#1E1D25"></path>
  <path d="M23.087 15.54L24.723 14.7742C24.723 14.7742 25.0188 17.246 23.713 17.6634C22.8793 17.9298 22.1641 17.4456 22.1641 17.4456L23.087 15.54Z" fill="#ECCBB3"></path>
</svg>
