<?xml version="1.0" encoding="UTF-8"?>
<svg xmlns="http://www.w3.org/2000/svg" width="45" height="158" viewBox="0 0 45 158" fill="none">
  <path d="M12.9946 4.44922C8.96569 8.78104 8.56959 13.2243 8.39939 19.0007C8.26061 23.7357 7.91211 27.3554 7.91211 27.3554C7.91211 27.3554 11.8802 31.4289 22.1161 30.8018C32.351 30.1747 34.753 25.4751 34.753 25.4751C34.753 25.4751 30.8973 17.8276 29.7921 11.6368C27.4772 -1.32924 17.8512 -0.77307 12.9946 4.44922Z" fill="#1E1D25"></path>
  <path d="M19.7793 139.314L19.362 148.504C19.362 148.504 17.4817 150.071 15.9155 150.071C14.3494 150.071 14.245 149.653 14.245 149.653C14.245 149.653 11.2514 97.0515 11.6688 92.4552C12.0862 87.861 19.7793 139.314 19.7793 139.314Z" fill="#ECCBB3"></path>
  <path d="M13.9671 148.191C13.9671 148.191 12.7839 150.559 9.02341 153.727C6.87472 155.537 11.2167 156.129 14.4544 155.189C17.6921 154.248 18.2138 154.144 19.8854 153.935C21.5559 153.727 20.6168 150.489 20.3027 149.34C19.9897 148.191 19.5713 147.669 19.5713 147.669L15.2891 149.862C15.2902 149.863 14.5942 147.983 13.9671 148.191Z" fill="#EBF0F3"></path>
  <path d="M14.4553 155.189C17.693 154.248 18.2147 154.144 19.8863 153.935C20.8659 153.813 20.9479 152.651 20.7848 151.478C20.5994 151.9 20.2591 152.555 19.8863 152.648C19.3291 152.788 17.4488 153.065 16.6141 153.692C15.7783 154.319 13.0633 155.224 11.3229 155.015C9.89856 154.844 9.96542 153.882 9.27452 153.499C9.19043 153.577 9.10736 153.654 9.0253 153.728C6.93537 155.607 11.2176 156.129 14.4553 155.189Z" fill="#1E1D25"></path>
  <path d="M14.4579 151.116C14.3789 151.116 14.304 151.072 14.2685 150.996C14.2493 150.955 13.7802 149.993 12.7398 149.932C12.6243 149.925 12.5372 149.827 12.5433 149.711C12.5504 149.596 12.6496 149.51 12.7641 149.515C14.0568 149.591 14.6231 150.768 14.6464 150.818C14.695 150.923 14.6504 151.047 14.5461 151.096C14.5177 151.11 14.4873 151.116 14.4579 151.116Z" fill="#1E1D25"></path>
  <path d="M13.5873 151.708C13.5053 151.708 13.4283 151.659 13.3948 151.579C13.3827 151.55 13.0676 150.838 12.1143 150.623C12.0019 150.597 11.931 150.486 11.9563 150.373C11.9816 150.261 12.0941 150.19 12.2065 150.215C13.3776 150.48 13.7646 151.379 13.7808 151.418C13.8254 151.524 13.7747 151.647 13.6684 151.691C13.641 151.703 13.6137 151.708 13.5873 151.708Z" fill="#1E1D25"></path>
  <path d="M12.8537 152.195C12.7656 152.195 12.6825 152.138 12.6552 152.049C12.6471 152.024 12.4272 151.396 11.559 151.215C11.4456 151.192 11.3737 151.082 11.397 150.968C11.4203 150.856 11.5307 150.783 11.6441 150.806C12.7605 151.037 13.0422 151.886 13.0543 151.922C13.0898 152.032 13.029 152.149 12.9186 152.185C12.8963 152.192 12.874 152.195 12.8537 152.195Z" fill="#1E1D25"></path>
  <path d="M24.4844 109.027L35.6472 149.436C35.6472 149.436 38.5304 151.075 39.2314 149.861C39.9324 148.647 39.7612 148.009 39.6751 147.69C39.59 147.371 33.2574 103.874 33.2574 103.874L24.4844 109.027Z" fill="#ECCBB3"></path>
  <path d="M37.2606 150.123C37.2606 150.123 36.4532 148.472 38.4621 147.46C40.47 146.449 40.5723 147.534 40.8904 148.103C41.2085 148.673 41.1538 150.173 41.1538 150.173C41.1538 150.173 43.5872 151.763 44.0927 153.483C44.5982 155.202 44.1889 156.822 43.6044 156.918C43.0209 157.013 40.4122 157.563 38.7225 155.478C37.0327 153.393 37.4015 152.898 35.8566 152.157C34.3116 151.415 35.5374 149.026 35.5374 149.026L37.2606 150.123Z" fill="#EBF0F3"></path>
  <path d="M43.6045 156.919C44.7128 156.365 44.4687 155.657 44.259 154.25C44.1019 154.546 43.8365 154.893 43.4333 154.959C42.7029 155.078 42.2714 155.645 41.4011 156.285C40.5309 156.924 37.6255 153.36 37.3418 152.536C37.0977 151.829 35.7534 151.483 35.1354 150.495C34.9733 151.026 34.9733 151.735 35.8557 152.159C37.4006 152.9 37.0318 153.395 38.7216 155.48C40.4124 157.564 43.0848 157.178 43.6045 156.919Z" fill="#1E1D25"></path>
  <path d="M38.9646 152.603C38.9079 152.603 38.8512 152.58 38.8107 152.536C38.7326 152.45 38.7387 152.318 38.8238 152.241C39.7599 151.387 41.3858 150.869 41.4547 150.847C41.5651 150.812 41.6817 150.873 41.7171 150.984C41.7516 151.094 41.6908 151.21 41.5803 151.246C41.5641 151.251 39.9736 151.759 39.1055 152.55C39.0659 152.586 39.0153 152.603 38.9646 152.603Z" fill="#1E1D25"></path>
  <path d="M39.6286 152.992C39.5769 152.992 39.5253 152.973 39.4857 152.936C39.4017 152.857 39.3976 152.724 39.4766 152.64C40.3458 151.718 41.8229 151.468 41.8857 151.458C42.0001 151.439 42.1065 151.516 42.1258 151.63C42.144 151.743 42.067 151.851 41.9535 151.87C41.9394 151.872 40.5525 152.109 39.7816 152.927C39.739 152.97 39.6843 152.992 39.6286 152.992Z" fill="#1E1D25"></path>
  <path d="M40.0743 153.417C40.0114 153.417 39.9497 153.388 39.9081 153.335C39.8382 153.243 39.8554 153.112 39.9476 153.042C40.9039 152.313 42.4073 151.938 42.4701 151.923C42.5816 151.894 42.695 151.963 42.7224 152.075C42.7497 152.188 42.6819 152.3 42.5694 152.328C42.5542 152.332 41.0863 152.698 40.1999 153.374C40.1634 153.403 40.1188 153.417 40.0743 153.417Z" fill="#1E1D25"></path>
  <path d="M10.3981 29.1383C10.4052 29.0633 10.4336 28.9195 10.3849 28.9762C3.21555 37.3582 -1.07067 52.9957 0.235156 59.8885C1.32925 65.6649 6.18279 66.4105 6.86964 66.7803C6.91827 66.8066 6.97703 66.7742 6.98209 66.7195L10.3981 29.1383Z" fill="#1E1D25"></path>
  <path d="M9.89344 29.5851C9.88432 29.5963 9.87622 29.6084 9.87014 29.6206C5.23441 38.5679 2.24894 50.0762 1.80218 53.1518C1.48104 55.3633 1.64718 56.4544 1.78495 56.9234C1.8275 57.0683 2.01391 57.1108 2.11724 56.9994L7.92406 50.7924C7.95039 50.764 7.96762 50.7296 7.97471 50.6921L8.91888 45.326C8.91989 45.3209 8.92091 45.3148 8.92091 45.3098L10.3625 29.3876C10.3797 29.1941 10.1781 29.2377 10.0545 29.3876C10.0008 29.4534 9.94713 29.5193 9.89344 29.5851Z" fill="#1E1D25"></path>
  <path d="M10.624 58.4784C7.69936 69.7577 8.65669 81.3856 9.1622 95.0314C9.99797 117.59 13.34 144.118 13.34 144.118C13.34 144.118 17.9353 145.162 20.0242 144.535C22.1131 143.908 26.0812 61.1934 26.0812 61.1934L10.624 58.4784Z" fill="#1E1D25"></path>
  <path d="M20.3028 71.012L9.99801 70.8732L8.72461 83.9446C8.8168 86.7558 8.94748 89.644 9.06804 92.6265C15.5465 94.7113 19.9776 102.644 19.1884 111.325C18.3527 120.516 20.5814 121.003 20.0242 130.055C19.5653 137.511 19.5774 141.47 18.1176 144.736C18.8349 144.744 19.5065 144.692 20.0242 144.536C21.2318 144.174 23.0684 116.361 24.4026 92.9669L20.3028 71.012Z" fill="#1E1D25"></path>
  <path d="M14.8047 62.6563C15.6405 92.7349 32.5595 144.536 32.5595 144.536C32.5595 144.536 37.6774 145.372 39.2436 143.179C39.4523 141.194 37.3006 114.497 36.7373 109.654C35.6928 100.672 36.7373 85.4247 36.7373 75.1888C36.7373 64.9529 29.2174 58.6871 29.2174 58.6871L14.8047 62.6563Z" fill="#1E1D25"></path>
  <path d="M18.3062 25.5774C19.8147 25.1874 23.0463 25.3839 24.4818 25.9897C29.1591 27.9652 30.2005 29.2994 31.3746 29.9325C32.3938 30.4816 31.9632 50.5259 31.4587 59.9524C31.2875 63.1577 33.1941 73.4219 30.0516 74.0753C27.4703 74.6123 20.0001 75.524 17.1372 75.524C10.8704 75.524 9.39643 74.4076 9.33869 73.7137C8.36413 61.8772 8.88483 43.5794 8.60624 37.5912C8.55154 36.411 8.5019 35.3504 8.45732 34.4062C8.30131 31.0672 10.4095 28.2762 13.7384 27.2307L16.5425 26.0333L18.3062 25.5774Z" fill="#EBF0F3"></path>
  <path d="M23.0786 17.9562C22.6349 20.9062 22.9135 24.9189 22.8436 25.5449C21.7515 28.9458 19.2736 31.5412 17.7956 31.6719C16.6123 31.7762 15.1849 31.219 15.7279 27.1101C15.6053 25.5733 15.582 23.7417 15.582 21.7622C15.582 16.2309 17.2313 11.7471 19.2655 11.7471C21.2997 11.7471 24.4847 8.6158 23.0786 17.9562Z" fill="#ECCBB3"></path>
  <path d="M23.3409 15.8491L16.6832 14.6273C16.0044 16.4437 15.584 18.9693 15.584 21.7623C15.584 23.3649 15.5992 24.8703 15.6701 26.2004C17.7651 26.4172 21.1072 25.005 22.6885 21.1676C22.7432 21.0359 22.7959 20.9083 22.8466 20.7826C22.879 19.8253 22.9469 18.8426 23.0796 17.9562C23.1981 17.1681 23.2842 16.4691 23.3409 15.8491Z" fill="#F0CEB4"></path>
  <path d="M23.5106 14.8361C23.5106 19.5599 17.7534 22.5049 14.2867 22.0287C10.736 21.5415 10.0035 17.7455 10.6965 13.2223C11.5262 11.0249 13.1815 7.3739 16.6816 7.3739C20.1817 7.3739 23.5106 10.1122 23.5106 14.8361Z" fill="#ECCBB3"></path>
  <path d="M25.319 28.5395C25.4537 30.6973 23.926 42.6037 25.0404 53.3259C26.1548 64.0481 25.3534 72.9953 27.9651 90.9233C27.9651 91.0631 39.2161 89.5699 39.2444 88.5558C39.523 78.6694 34.3706 61.9591 35.0666 52.0717C35.7626 42.1853 36.6328 36.65 36.6328 36.65C36.6328 36.65 35.1294 32.1237 31.8633 29.6529C28.9244 27.4292 28.2862 27.3927 25.2491 26.3108C25.2501 26.3118 25.2501 27.4262 25.319 28.5395Z" fill="#1E1D25"></path>
  <path d="M35.0649 52.0729C35.311 48.5728 35.5795 45.6218 35.8236 43.2654L35.1348 37.7301L30.261 29.7229C27.2674 34.2482 27.0577 42.1855 27.1975 48.3134C27.2866 52.233 26.151 54.8395 25.3203 56.2112C25.8714 62.1497 25.7407 67.9474 26.2594 75.0844C28.092 74.1727 33.3984 72.1952 35.2614 69.9361C35.7487 69.3465 36.2704 68.7103 36.6321 68.2503C35.5157 61.5733 34.7144 57.0591 35.0649 52.0729Z" fill="#1E1D25"></path>
  <path d="M12.9777 27.5123C12.3658 27.6015 11.8299 27.9297 11.3264 28.2367C6.97132 30.898 6.46175 41.0488 6.71197 49.2879C6.99056 58.4783 3.87441 86.8854 4.84998 88.2783C5.82454 89.6713 10.8381 90.6458 10.8381 90.6458C10.8381 90.6458 12.0913 67.3912 10.4208 53.327C8.74821 39.2617 12.9777 27.5123 12.9777 27.5123Z" fill="#1E1D25"></path>
  <path d="M11.2444 67.4906C11.1705 63.3624 10.9932 59.2048 10.6488 55.5112L6.54792 56.4128C6.31593 61.003 5.89856 66.5718 5.51562 71.7657C7.34419 71.5509 9.86263 69.9088 11.2444 67.4906Z" fill="#1E1D25"></path>
  <path d="M18.0938 47.0947C21.8015 46.573 22.6373 46.9377 22.8977 47.5121C23.159 48.0865 19.4512 51.7943 19.4512 51.7943L18.0938 47.0947Z" fill="#ECCBB3"></path>
  <path d="M8.3278 44.6928C11.5696 42.3516 16.8922 39.6802 16.8922 39.6802L23.1589 61.6128C23.1589 61.6128 16.5791 66.1037 14.6989 66.521C12.8187 66.9384 4.56836 47.6175 4.56836 47.6175C4.56836 47.6175 5.50847 46.73 8.3278 44.6928Z" fill="#A9ABB8"></path>
  <path d="M3.83594 50.9595L15.324 44.0667L24.2014 61.8214C24.2014 61.8214 16.9955 66.6253 15.7424 66.9394C14.4892 67.2514 3.83594 50.9595 3.83594 50.9595Z" fill="#CACED9"></path>
  <path d="M4.29135 52.4912C0.805433 52.6999 0.253319 56.4381 0.392108 59.8369C0.600797 64.9548 3.69466 67.8248 6.93643 66.4167C9.58253 65.2679 9.23404 59.3152 9.23404 59.3152C9.23404 59.3152 7.77322 52.2826 4.29135 52.4912Z" fill="#1E1D25"></path>
  <path d="M5.40581 53.3271C2.75971 53.8144 1.92496 56.3906 2.89952 60.0113C3.87407 63.6319 5.26702 64.7463 6.52017 63.7018C7.77332 62.6574 9.02646 60.2899 8.19171 58.1321C7.35493 55.9722 5.40581 53.3271 5.40581 53.3271Z" fill="#1E1D25"></path>
  <path d="M22.9725 47.671C22.9006 47.5069 22.7588 47.3853 22.5845 47.3428C21.9656 47.1908 19.9719 47.5646 19.1888 48.1907C18.4148 48.8097 18.9456 49.9159 18.9274 50.9057C18.9102 51.8883 14.8478 51.5439 5.40922 53.3198C5.40618 53.3218 5.40212 53.3259 5.40212 53.3259C2.73069 53.8182 1.90506 56.439 2.92419 60.1143C3.04677 60.1194 3.1734 60.1164 3.3132 60.0961C6.55903 59.625 14.2755 57.5736 17.3075 56.0753C21.8106 53.8506 23.011 53.1233 23.2602 52.0018C23.7475 49.8207 23.2309 48.2626 22.9725 47.671Z" fill="#ECCBB3"></path>
  <path d="M32.003 33.2048C36.6681 40.7936 37.1554 54.4405 35.6237 58.7571C34.0919 63.0737 15.7111 65.7897 13.2038 65.5111C10.6975 65.2325 9.72291 62.4476 9.44432 61.542C9.16573 60.6373 8.88715 60.0102 10.0714 59.7316C11.2547 59.4531 12.5777 58.9658 14.1793 59.8714C15.781 60.7761 15.0151 61.3333 17.5913 60.7761C20.1675 60.2189 29.4977 56.1809 29.985 55.4849C30.4713 54.789 32.003 33.2048 32.003 33.2048Z" fill="#ECCBB3"></path>
  <path d="M24.8017 58.0834C24.0409 58.4126 23.2538 58.7419 22.4869 59.0529C21.9794 60.3759 22.0472 62.5145 22.258 64.3967C23.5202 64.1485 24.8169 63.8618 26.0842 63.5407L24.8017 58.0834Z" fill="#F0CEB4"></path>
  <path d="M36.0392 35.2237C39.0328 40.5149 39.4512 57.9911 39.7298 59.4539C40.0084 60.9158 33.1155 66.4865 29.425 67.4611C25.7344 68.4356 25.1783 68.4357 25.1783 68.4357C25.1783 68.4357 24.0122 67.3912 23.525 65.3722C23.0377 63.3532 23.2119 58.531 23.2119 58.531C23.2119 58.531 28.8688 55.0674 29.6347 54.2316C30.4006 53.3959 28.2418 45.9459 28.7989 37.7999C29.3561 29.6539 29.9822 29.0269 29.9822 29.0269L36.0392 35.2237Z" fill="#1E1D25"></path>
  <path d="M28.9023 54.562C30.9913 53.7262 35.0637 53.8305 36.2652 56.3895C37.4667 58.9485 37.101 55.2407 35.7952 54.6136C34.4893 53.9866 32.0357 53.7262 32.0357 53.7262C32.0357 53.7262 33.8633 53.3088 34.7507 53.0475C35.6381 52.7861 34.1763 52.5257 32.1401 52.9431C30.1038 53.3605 29.1637 53.0475 29.1637 53.0475L28.9023 54.562Z" fill="#1E1D25"></path>
  <path d="M15.5883 15.2413C15.5397 15.2413 15.4911 15.2241 15.4506 15.1896C15.3999 15.145 14.1984 14.0813 13.4528 12.1798C12.765 10.4262 12.3618 7.6069 14.3453 4.13618C14.4031 4.03589 14.5297 4.00144 14.63 4.05817C14.7303 4.11592 14.7647 4.24255 14.708 4.34285C13.1813 7.01427 12.8906 9.59857 13.8418 12.0258C14.551 13.8331 15.714 14.8634 15.7261 14.8735C15.8132 14.9495 15.8224 15.0812 15.7464 15.1683C15.7048 15.217 15.6471 15.2413 15.5883 15.2413Z" fill="#1E1D25"></path>
  <path d="M13.4795 4.86651C12.9224 10.8547 13.9668 12.665 16.5775 15.0842C19.5568 17.8458 23.4794 16.2158 23.4794 16.2158L25.7942 15.145L21.8514 5.37102L15.7944 3.90918L13.4795 4.86651Z" fill="#1E1D25"></path>
  <path d="M23.0889 16.3901L24.725 15.6243C24.725 15.6243 25.0208 18.0961 23.715 18.5135C22.8812 18.7799 22.166 18.2957 22.166 18.2957L23.0889 16.3901Z" fill="#ECCBB3"></path>
</svg>
