<?xml version="1.0" encoding="UTF-8"?>
<svg xmlns="http://www.w3.org/2000/svg" width="105" height="104" viewBox="0 0 105 104" fill="none">
  <circle cx="52.2221" cy="51.892" r="51.892" fill="url(#paint0_linear_550_929)"></circle>
  <circle cx="52.6002" cy="51.5133" r="48.2937" stroke="white" stroke-opacity="0.61" stroke-width="0.378774"></circle>
  <path d="M70.3601 48.277H55.5966C54.2541 48.277 52.9666 47.7437 52.0173 46.7944C51.0681 45.8451 50.5348 44.5576 50.5348 43.2152V28.4516C50.5348 28.3397 50.4903 28.2324 50.4112 28.1533C50.3321 28.0742 50.2248 28.0298 50.1129 28.0298H40.4112C38.6212 28.0298 36.9046 28.7408 35.6389 30.0065C34.3732 31.2722 33.6621 32.9889 33.6621 34.7788V68.5242C33.6621 70.3141 34.3732 72.0308 35.6389 73.2965C36.9046 74.5622 38.6212 75.2732 40.4112 75.2732H64.0329C65.8228 75.2732 67.5395 74.5622 68.8052 73.2965C70.0709 72.0308 70.7819 70.3141 70.7819 68.5242V48.6988C70.7819 48.5869 70.7375 48.4796 70.6584 48.4005C70.5793 48.3214 70.472 48.277 70.3601 48.277Z" fill="url(#paint1_linear_550_929)"></path>
  <path d="M69.4332 44.5431L54.2678 29.3777C54.2383 29.3484 54.2008 29.3285 54.16 29.3204C54.1192 29.3123 54.0769 29.3165 54.0385 29.3324C54.0001 29.3483 53.9672 29.3752 53.944 29.4097C53.9208 29.4442 53.9084 29.4848 53.9082 29.5264V43.2154C53.9082 43.6629 54.086 44.0921 54.4024 44.4085C54.7188 44.7249 55.148 44.9027 55.5955 44.9027H69.2845C69.326 44.9025 69.3667 44.89 69.4012 44.8669C69.4357 44.8437 69.4626 44.8108 69.4785 44.7724C69.4944 44.7339 69.4985 44.6917 69.4905 44.6509C69.4824 44.6101 69.4625 44.5726 69.4332 44.5431Z" fill="url(#paint2_linear_550_929)"></path>
  <defs>
    <linearGradient id="paint0_linear_550_929" x1="0.330078" y1="-34.8418" x2="192.323" y2="-3.10641" gradientUnits="userSpaceOnUse">
      <stop stop-color="#EAEDF7"></stop>
      <stop offset="1" stop-color="#7C7C9B"></stop>
    </linearGradient>
    <linearGradient id="paint1_linear_550_929" x1="33.6621" y1="32.9041" x2="88.5224" y2="102.302" gradientUnits="userSpaceOnUse">
      <stop stop-color="white"></stop>
      <stop offset="1" stop-color="white" stop-opacity="0"></stop>
    </linearGradient>
    <linearGradient id="paint2_linear_550_929" x1="53.9082" y1="30.9245" x2="70.5829" y2="57.7707" gradientUnits="userSpaceOnUse">
      <stop stop-color="white"></stop>
      <stop offset="1" stop-color="white" stop-opacity="0"></stop>
    </linearGradient>
  </defs>
</svg>
