<?xml version="1.0" encoding="UTF-8"?>
<svg xmlns="http://www.w3.org/2000/svg" width="66" height="66" viewBox="0 0 66 66" fill="none">
  <path d="M16.7084 7.19675C16.4994 7.70275 16.4994 8.3435 16.4994 9.625C16.4994 10.9065 16.4994 11.5472 16.7084 12.0532C16.9881 12.7257 17.5231 13.2598 18.1961 13.5382C18.7021 13.75 19.3429 13.75 20.6244 13.75H45.3744C46.6559 13.75 47.2966 13.75 47.8026 13.541C48.4751 13.2613 49.0092 12.7262 49.2876 12.0532C49.4994 11.5472 49.4994 10.9065 49.4994 9.625C49.4994 8.3435 49.4994 7.70275 49.2904 7.19675C49.0107 6.52427 48.4756 5.99021 47.8026 5.71175C47.2966 5.5 46.6559 5.5 45.3744 5.5H20.6244C19.3429 5.5 18.7021 5.5 18.1961 5.709C17.5236 5.9887 16.9868 6.52375 16.7084 7.19675ZM21.3119 16.5L15.1271 21.4472C13.7907 22.5155 12.7219 23.8809 12.0059 25.4347H54.0094C53.3027 23.8843 52.2455 22.5193 50.9211 21.4472L44.8079 16.5H21.3119Z" fill="url(#paint0_linear_550_739)"></path>
  <path fill-rule="evenodd" clip-rule="evenodd" d="M55 29.997C55 29.8512 54.9972 29.7083 54.9917 29.5625H11.011C11.004 29.7201 11.0003 29.8778 11 30.0355V47.4375H55V29.997ZM35.0625 36.4375V33C35.0625 32.453 34.8452 31.9284 34.4584 31.5416C34.0716 31.1548 33.547 30.9375 33 30.9375C32.453 30.9375 31.9284 31.1548 31.5416 31.5416C31.1548 31.9284 30.9375 32.453 30.9375 33V36.4375H27.5C26.953 36.4375 26.4284 36.6548 26.0416 37.0416C25.6548 37.4284 25.4375 37.953 25.4375 38.5C25.4375 39.047 25.6548 39.5716 26.0416 39.9584C26.4284 40.3452 26.953 40.5625 27.5 40.5625H30.9375V44C30.9375 44.547 31.1548 45.0716 31.5416 45.4584C31.9284 45.8452 32.453 46.0625 33 46.0625C33.547 46.0625 34.0716 45.8452 34.4584 45.4584C34.8452 45.0716 35.0625 44.547 35.0625 44V40.5625H38.5C39.047 40.5625 39.5716 40.3452 39.9584 39.9584C40.3452 39.5716 40.5625 39.047 40.5625 38.5C40.5625 37.953 40.3452 37.4284 39.9584 37.0416C39.5716 36.6548 39.047 36.4375 38.5 36.4375H35.0625Z" fill="url(#paint1_linear_550_739)"></path>
  <path d="M13.5491 55.3108C12.6298 54.2068 11.9356 52.9334 11.5059 51.5625H54.5049C54.0825 52.9262 53.3988 54.1946 52.4919 55.297L51.5046 56.4932C50.4728 57.746 49.1766 58.7549 47.7089 59.4477C46.2411 60.1404 44.6383 60.4998 43.0154 60.5H24.6316C23.0614 60.5 22.2749 60.5 21.5324 60.3982C19.3235 60.0956 17.2587 59.1289 15.6116 57.6262C15.0589 57.1202 14.5556 56.5153 13.5491 55.3108Z" fill="url(#paint2_linear_550_739)"></path>
  <defs>
    <linearGradient id="paint0_linear_550_739" x1="12.0059" y1="-1.19238" x2="83.1968" y2="23.6022" gradientUnits="userSpaceOnUse">
      <stop stop-color="#4D4B5A"></stop>
      <stop offset="1" stop-color="#485C63"></stop>
    </linearGradient>
    <linearGradient id="paint1_linear_550_739" x1="11" y1="23.5616" x2="82.7437" y2="52.7525" gradientUnits="userSpaceOnUse">
      <stop stop-color="#4D4B5A"></stop>
      <stop offset="1" stop-color="#485C63"></stop>
    </linearGradient>
    <linearGradient id="paint2_linear_550_739" x1="11.5059" y1="48.5621" x2="61.5658" y2="88.3719" gradientUnits="userSpaceOnUse">
      <stop stop-color="#4D4B5A"></stop>
      <stop offset="1" stop-color="#485C63"></stop>
    </linearGradient>
  </defs>
</svg>
