<?xml version="1.0" encoding="UTF-8"?>
<svg xmlns="http://www.w3.org/2000/svg" width="56" height="57" viewBox="0 0 56 57" fill="none">
  <path d="M13.0543 0.226562V23.7695C13.8746 23.4062 14.7887 23.1953 15.7496 23.1953C16.7105 23.1953 17.6246 23.4062 18.4449 23.7695V0.226562H13.0543ZM20.5543 10.6094V18.2266L36.8902 34.5625C38.0738 32.9336 39.1168 31.375 39.9605 30.0156L20.5543 10.6094ZM39.4918 12.7422C35.4488 12.7656 30.4801 14.3828 28.5582 15.6367L42.0582 29.125L42.6324 29.7109L42.6207 29.7344C45.1168 34.8438 45.8434 46.4219 44.9059 51.2969C41.9645 49.8203 38.941 45.0625 37.148 42.7773C37.1012 45.1797 37.9098 50.1602 39.1285 52.4102C35.0387 51.7891 32.4371 49.1172 29.6129 46.75C30.0113 49.5977 31.4879 51.543 34.4996 53.5234L21.3746 52.375L29.4957 56.125H55.1246V43L51.3746 51.4727C52.1598 42.6484 51.9371 15.7422 42.3746 13.0703C41.5191 12.8359 40.5348 12.7305 39.4918 12.7422ZM10.9449 16.5742C10.1949 17.2188 9.44492 17.875 8.70664 18.5547C4.84297 22.1055 1.49141 26.1133 0.113281 29.6172L20.3434 49.8438C23.8473 48.4727 27.8551 45.1211 31.4059 41.2539C32.9059 39.6367 34.3121 37.9375 35.6012 36.2734L20.5543 21.2266V25.2461C21.7145 26.4414 22.4293 28.082 22.4293 29.875C22.4293 33.5547 19.4293 36.5547 15.7496 36.5547C12.0699 36.5547 9.06992 33.5547 9.06992 29.875C9.06992 28.082 9.78477 26.4414 10.9449 25.2461V16.5742ZM15.7496 25.3047C13.2184 25.3047 11.1793 27.3438 11.1793 29.875C11.1793 32.4062 13.2184 34.4453 15.7496 34.4453C18.2809 34.4453 20.3199 32.4062 20.3199 29.875C20.3199 27.3438 18.2809 25.3047 15.7496 25.3047ZM15.7496 28C16.2469 28 16.7238 28.1975 17.0754 28.5492C17.4271 28.9008 17.6246 29.3777 17.6246 29.875C17.6246 30.3723 17.4271 30.8492 17.0754 31.2008C16.7238 31.5525 16.2469 31.75 15.7496 31.75C15.2523 31.75 14.7754 31.5525 14.4238 31.2008C14.0722 30.8492 13.8746 30.3723 13.8746 29.875C13.8746 29.3777 14.0722 28.9008 14.4238 28.5492C14.7754 28.1975 15.2523 28 15.7496 28Z" fill="url(#paint0_linear_550_745)"></path>
  <defs>
    <linearGradient id="paint0_linear_550_745" x1="0.113281" y1="-18.5393" x2="101.966" y2="-1.97091" gradientUnits="userSpaceOnUse">
      <stop stop-color="#4D4B5A"></stop>
      <stop offset="1" stop-color="#485C63"></stop>
    </linearGradient>
  </defs>
</svg>
